<svg width="1900" height="101" viewBox="0 0 1900 101" fill="none" xmlns="http://www.w3.org/2000/svg">
<path d="M1900 101C1890.49 101 1890.49 94.9999 1881 94.9999C1871.51 94.9999 1871.49 101 1862 101C1852.51 101 1852.49 94.9999 1843 94.9999C1833.51 94.9999 1833.49 101 1824 101C1814.51 101 1814.49 94.9999 1805 94.9999C1795.51 94.9999 1795.49 101 1786 101C1776.51 101 1776.5 94.9999 1767 94.9999C1757.5 94.9999 1757.49 101 1748 101C1738.51 101 1738.49 94.9999 1729 94.9999C1719.51 94.9999 1719.5 101 1710 101C1700.5 101 1700.49 94.9999 1691 94.9999C1681.51 94.9999 1681.49 101 1672 101C1662.51 101 1662.49 94.9999 1653 94.9999C1643.51 94.9999 1643.5 101 1634 101C1624.5 101 1624.49 94.9999 1615 94.9999C1605.51 94.9999 1605.49 101 1596 101C1586.51 101 1586.5 94.9999 1577 94.9999C1567.5 94.9999 1567.49 101 1558 101C1548.51 101 1548.49 94.9999 1539 94.9999C1529.51 94.9999 1529.49 101 1520 101C1510.51 101 1510.5 94.9999 1501 94.9999C1491.5 94.9999 1491.5 101 1482 101C1472.5 101 1472.49 94.9999 1463 94.9999C1453.51 94.9999 1453.49 101 1444 101C1434.51 101 1434.49 94.9999 1425 94.9999C1415.51 94.9999 1415.49 101 1406 101C1396.51 101 1396.5 94.9999 1387 94.9999C1377.5 94.9999 1377.49 101 1368 101C1358.51 101 1358.5 94.9999 1349 94.9999C1339.5 94.9999 1339.5 101 1330 101C1320.5 101 1320.5 94.9999 1311 94.9999C1301.5 94.9999 1301.5 101 1292 101C1282.5 101 1282.5 94.9999 1273 94.9999C1263.5 94.9999 1263.49 101 1254 101C1244.51 101 1244.49 94.9999 1235 94.9999C1225.51 94.9999 1225.49 101 1216 101C1206.51 101 1206.5 94.9999 1197 94.9999C1187.5 94.9999 1187.5 101 1178 101C1168.5 101 1168.5 94.9999 1159 94.9999C1149.5 94.9999 1149.49 101 1140 101C1130.51 101 1130.5 94.9999 1121 94.9999C1111.5 94.9999 1111.5 101 1102 101C1092.5 101 1092.49 94.9999 1083 94.9999C1073.51 94.9999 1073.49 101 1064 101C1054.51 101 1054.49 94.9999 1045 94.9999C1035.51 94.9999 1035.49 101 1026 101C1016.51 101 1016.49 94.9999 1007 94.9999C997.51 94.9999 997.49 101 988 101C978.51 101 978.49 94.9999 969 94.9999C959.51 94.9999 959.49 101 950 101C940.51 101 940.5 94.9999 931 94.9999C921.5 94.9999 921.49 101 912 101C902.51 101 902.49 94.9999 893 94.9999C883.51 94.9999 883.49 101 874 101C864.51 101 864.49 94.9999 855 94.9999C845.51 94.9999 845.49 101 836 101C826.51 101 826.49 94.9999 817 94.9999C807.51 94.9999 807.49 101 798 101C788.51 101 788.49 94.9999 779 94.9999C769.51 94.9999 769.49 101 760 101C750.51 101 750.49 94.9999 741 94.9999C731.51 94.9999 731.5 101 722 101C712.5 101 712.5 94.9999 703 94.9999C693.5 94.9999 693.5 101 684 101C674.5 101 674.5 94.9999 665 94.9999C655.5 94.9999 655.5 101 646 101C636.5 101 636.49 94.9999 627 94.9999C617.51 94.9999 617.5 101 608 101C598.5 101 598.49 94.9999 589 94.9999C579.51 94.9999 579.49 101 570 101C560.51 101 560.49 94.9999 551 94.9999C541.51 94.9999 541.5 101 532 101C522.5 101 522.5 94.9999 513 94.9999C503.5 94.9999 503.5 101 494 101C484.5 101 484.49 94.9999 475 94.9999C465.51 94.9999 465.49 101 456 101C446.51 101 446.49 94.9999 437 94.9999C427.51 94.9999 427.5 101 418 101C408.5 101 408.5 94.9999 399 94.9999C389.5 94.9999 389.5 101 380 101C370.5 101 370.5 94.9999 361 94.9999C351.5 94.9999 351.49 101 342 101C332.51 101 332.5 94.9999 323 94.9999C313.5 94.9999 313.5 101 304 101C294.5 101 294.5 94.9999 285 94.9999C275.5 94.9999 275.49 101 266 101C256.51 101 256.5 94.9999 247 94.9999C237.5 94.9999 237.5 101 228 101C218.5 101 218.5 94.9999 209 94.9999C199.5 94.9999 199.5 101 190 101C180.5 101 180.49 94.9999 171 94.9999C161.51 94.9999 161.5 101 152 101C142.5 101 142.5 94.9999 133 94.9999C123.5 94.9999 123.49 101 114 101C104.51 101 104.5 94.9999 95 94.9999C85.5 94.9999 85.5 101 76 101C66.5 101 66.5 94.9999 57 94.9999C47.5 94.9999 47.5 101 38 101C28.5 101 28.5 94.9999 19 94.9999C9.5 94.9999 9.49 101 0 101L0 0.629883L1900 0.629883V101Z" fill="#FFF6ED"/>
</svg>
