<svg width="1900" height="101" viewBox="0 0 1900 101" fill="none" xmlns="http://www.w3.org/2000/svg">
<path d="M1900 101C1890.49 101 1890.49 95.0002 1881 95.0002C1871.51 95.0002 1871.49 101 1862 101C1852.51 101 1852.49 95.0002 1843 95.0002C1833.51 95.0002 1833.49 101 1824 101C1814.51 101 1814.49 95.0002 1805 95.0002C1795.51 95.0002 1795.49 101 1786 101C1776.51 101 1776.5 95.0002 1767 95.0002C1757.5 95.0002 1757.49 101 1748 101C1738.51 101 1738.49 95.0002 1729 95.0002C1719.51 95.0002 1719.5 101 1710 101C1700.5 101 1700.49 95.0002 1691 95.0002C1681.51 95.0002 1681.49 101 1672 101C1662.51 101 1662.49 95.0002 1653 95.0002C1643.51 95.0002 1643.5 101 1634 101C1624.5 101 1624.49 95.0001 1615 95.0001C1605.51 95.0001 1605.49 101 1596 101C1586.51 101 1586.5 95.0001 1577 95.0001C1567.5 95.0001 1567.49 101 1558 101C1548.51 101 1548.49 95.0001 1539 95.0001C1529.51 95.0001 1529.49 101 1520 101C1510.51 101 1510.5 95.0001 1501 95.0001C1491.5 95.0001 1491.5 101 1482 101C1472.5 101 1472.49 95.0001 1463 95.0001C1453.51 95.0001 1453.49 101 1444 101C1434.51 101 1434.49 95.0001 1425 95.0001C1415.51 95.0001 1415.49 101 1406 101C1396.51 101 1396.5 95.0001 1387 95.0001C1377.5 95.0001 1377.49 101 1368 101C1358.51 101 1358.5 95.0001 1349 95.0001C1339.5 95.0001 1339.5 101 1330 101C1320.5 101 1320.5 95.0001 1311 95.0001C1301.5 95.0001 1301.5 101 1292 101C1282.5 101 1282.5 95.0001 1273 95.0001C1263.5 95.0001 1263.49 101 1254 101C1244.51 101 1244.49 95.0001 1235 95.0001C1225.51 95.0001 1225.49 101 1216 101C1206.51 101 1206.5 95.0001 1197 95.0001C1187.5 95.0001 1187.5 101 1178 101C1168.5 101 1168.5 95.0001 1159 95.0001C1149.5 95.0001 1149.49 101 1140 101C1130.51 101 1130.5 95.0001 1121 95.0001C1111.5 95.0001 1111.5 101 1102 101C1092.5 101 1092.49 95.0001 1083 95.0001C1073.51 95.0001 1073.49 101 1064 101C1054.51 101 1054.49 95 1045 95C1035.51 95 1035.49 101 1026 101C1016.51 101 1016.49 95 1007 95C997.51 95 997.49 101 988 101C978.51 101 978.49 95 969 95C959.51 95 959.49 101 950 101C940.51 101 940.5 95 931 95C921.5 95 921.49 101 912 101C902.51 101 902.49 95 893 95C883.51 95 883.49 101 874 101C864.51 101 864.49 95 855 95C845.51 95 845.49 101 836 101C826.51 101 826.49 95 817 95C807.51 95 807.49 101 798 101C788.51 101 788.49 95 779 95C769.51 95 769.49 101 760 101C750.51 101 750.49 95 741 95C731.51 95 731.5 101 722 101C712.5 101 712.5 95 703 95C693.5 95 693.5 101 684 101C674.5 101 674.5 95 665 95C655.5 95 655.5 101 646 101C636.5 101 636.49 95 627 95C617.51 95 617.5 101 608 101C598.5 101 598.49 95 589 95C579.51 95 579.49 101 570 101C560.51 101 560.49 95 551 95C541.51 95 541.5 101 532 101C522.5 101 522.5 95 513 95C503.5 95 503.5 101 494 101C484.5 101 484.49 94.9999 475 94.9999C465.51 94.9999 465.49 101 456 101C446.51 101 446.49 94.9999 437 94.9999C427.51 94.9999 427.5 101 418 101C408.5 101 408.5 94.9999 399 94.9999C389.5 94.9999 389.5 101 380 101C370.5 101 370.5 94.9999 361 94.9999C351.5 94.9999 351.49 101 342 101C332.51 101 332.5 94.9999 323 94.9999C313.5 94.9999 313.5 101 304 101C294.5 101 294.5 94.9999 285 94.9999C275.5 94.9999 275.49 101 266 101C256.51 101 256.5 94.9999 247 94.9999C237.5 94.9999 237.5 101 228 101C218.5 101 218.5 94.9999 209 94.9999C199.5 94.9999 199.5 101 190 101C180.5 101 180.49 94.9999 171 94.9999C161.51 94.9999 161.5 101 152 101C142.5 101 142.5 94.9999 133 94.9999C123.5 94.9999 123.49 101 114 101C104.51 101 104.5 94.9999 95 94.9999C85.5 94.9999 85.5 101 76 101C66.5 101 66.5 94.9999 57 94.9999C47.5 94.9999 47.5 101 38 101C28.5 101 28.5 94.9999 19 94.9999C9.49998 94.9999 9.48998 101 -1.75492e-05 101L0 0.629883L1900 0.630215L1900 101Z" fill="white"/>
</svg>
