<svg width="1900" height="101" viewBox="0 0 1900 101" fill="none" xmlns="http://www.w3.org/2000/svg">
<path d="M0 0.63002C9.51 0.63002 9.51 6.63002 19 6.63002C28.49 6.63002 28.51 0.63002 38 0.63002C47.49 0.63002 47.51 6.63002 57 6.63002C66.49 6.63002 66.51 0.63002 76 0.63002C85.49 0.63002 85.51 6.63002 95 6.63002C104.49 6.63002 104.51 0.63002 114 0.63002C123.49 0.63002 123.5 6.63002 133 6.63002C142.5 6.63002 142.51 0.63002 152 0.63002C161.49 0.63002 161.51 6.63002 171 6.63002C180.49 6.63002 180.5 0.63002 190 0.63002C199.5 0.63002 199.51 6.63002 209 6.63002C218.49 6.63002 218.51 0.63002 228 0.63002C237.49 0.63002 237.51 6.63002 247 6.63002C256.49 6.63002 256.5 0.63002 266 0.63002C275.5 0.63002 275.51 6.63002 285 6.63002C294.49 6.63002 294.51 0.63002 304 0.63002C313.49 0.63002 313.5 6.63002 323 6.63002C332.5 6.63002 332.51 0.63002 342 0.63002C351.49 0.63002 351.51 6.63002 361 6.63002C370.49 6.63002 370.51 0.63002 380 0.63002C389.49 0.63002 389.5 6.63002 399 6.63002C408.5 6.63002 408.5 0.63002 418 0.63002C427.5 0.63002 427.51 6.63002 437 6.63002C446.49 6.63002 446.51 0.63002 456 0.63002C465.49 0.63002 465.51 6.63002 475 6.63002C484.49 6.63002 484.51 0.63002 494 0.63002C503.49 0.63002 503.5 6.63002 513 6.63002C522.5 6.63002 522.51 0.63002 532 0.63002C541.49 0.63002 541.5 6.63002 551 6.63002C560.5 6.63002 560.5 0.63002 570 0.63002C579.5 0.63002 579.5 6.63002 589 6.63002C598.5 6.63002 598.5 0.63002 608 0.63002C617.5 0.63002 617.5 6.63002 627 6.63002C636.5 6.63002 636.51 0.63002 646 0.63002C655.49 0.63002 655.51 6.63002 665 6.63002C674.49 6.63002 674.51 0.63002 684 0.63002C693.49 0.63002 693.5 6.63002 703 6.63002C712.5 6.63002 712.5 0.63002 722 0.63002C731.5 0.63002 731.5 6.63002 741 6.63002C750.5 6.63002 750.51 0.63002 760 0.63002C769.49 0.63002 769.5 6.63002 779 6.63002C788.5 6.63002 788.5 0.63002 798 0.63002C807.5 0.63002 807.51 6.63002 817 6.63002C826.49 6.63002 826.51 0.63002 836 0.63002C845.49 0.63002 845.51 6.63002 855 6.63002C864.49 6.63002 864.51 0.63002 874 0.63002C883.49 0.63002 883.51 6.63002 893 6.63002C902.49 6.63002 902.51 0.63002 912 0.63002C921.49 0.63002 921.51 6.63002 931 6.63002C940.49 6.63002 940.51 0.63002 950 0.63002C959.49 0.63002 959.5 6.63002 969 6.63002C978.5 6.63002 978.51 0.63002 988 0.63002C997.49 0.63002 997.51 6.63002 1007 6.63002C1016.49 6.63002 1016.51 0.63002 1026 0.63002C1035.49 0.63002 1035.51 6.63002 1045 6.63002C1054.49 6.63002 1054.51 0.63002 1064 0.63002C1073.49 0.63002 1073.51 6.63002 1083 6.63002C1092.49 6.63002 1092.51 0.63002 1102 0.63002C1111.49 0.63002 1111.51 6.63002 1121 6.63002C1130.49 6.63002 1130.51 0.63002 1140 0.63002C1149.49 0.63002 1149.51 6.63002 1159 6.63002C1168.49 6.63002 1168.5 0.63002 1178 0.63002C1187.5 0.63002 1187.5 6.63002 1197 6.63002C1206.5 6.63002 1206.5 0.63002 1216 0.63002C1225.5 0.63002 1225.5 6.63002 1235 6.63002C1244.5 6.63002 1244.5 0.63002 1254 0.63002C1263.5 0.63002 1263.51 6.63002 1273 6.63002C1282.49 6.63002 1282.5 0.63002 1292 0.63002C1301.5 0.63002 1301.51 6.63002 1311 6.63002C1320.49 6.63002 1320.51 0.63002 1330 0.63002C1339.49 0.63002 1339.51 6.63002 1349 6.63002C1358.49 6.63002 1358.5 0.63002 1368 0.63002C1377.5 0.63002 1377.5 6.63002 1387 6.63002C1396.5 6.63002 1396.5 0.63002 1406 0.63002C1415.5 0.63002 1415.51 6.63002 1425 6.63002C1434.49 6.63002 1434.51 0.63002 1444 0.63002C1453.49 0.63002 1453.51 6.63002 1463 6.63002C1472.49 6.63002 1472.5 0.63002 1482 0.63002C1491.5 0.63002 1491.5 6.63002 1501 6.63002C1510.5 6.63002 1510.5 0.63002 1520 0.63002C1529.5 0.63002 1529.5 6.63002 1539 6.63002C1548.5 6.63002 1548.51 0.63002 1558 0.63002C1567.49 0.63002 1567.5 6.63002 1577 6.63002C1586.5 6.63002 1586.5 0.63002 1596 0.63002C1605.5 0.63002 1605.5 6.63002 1615 6.63002C1624.5 6.63002 1624.51 0.63002 1634 0.63002C1643.49 0.63002 1643.5 6.63002 1653 6.63002C1662.5 6.63002 1662.5 0.63002 1672 0.63002C1681.5 0.63002 1681.5 6.63002 1691 6.63002C1700.5 6.63002 1700.5 0.63002 1710 0.63002C1719.5 0.63002 1719.51 6.63002 1729 6.63002C1738.49 6.63002 1738.5 0.63002 1748 0.63002C1757.5 0.63002 1757.5 6.63002 1767 6.63002C1776.5 6.63002 1776.51 0.63002 1786 0.63002C1795.49 0.63002 1795.5 6.63002 1805 6.63002C1814.5 6.63002 1814.5 0.63002 1824 0.63002C1833.5 0.63002 1833.5 6.63002 1843 6.63002C1852.5 6.63002 1852.5 0.63002 1862 0.63002C1871.5 0.63002 1871.5 6.63002 1881 6.63002C1890.5 6.63002 1890.51 0.63002 1900 0.63002V101H0V0.63002Z" fill="white"/>
</svg>
