<svg width="100" height="73" viewBox="0 0 100 73" fill="none" xmlns="http://www.w3.org/2000/svg">
<path fill-rule="evenodd" clip-rule="evenodd" d="M78.9616 37.9226C76.9408 38.9446 77.8424 60.7104 56.7683 65.3737C45.6464 67.8374 34.5867 61.1962 31.9325 56.1987C31.9306 56.222 31.9306 56.2454 31.9325 56.2687C31.1553 55.3282 29.3405 54.4383 28.8664 57.6754C28.3924 60.9125 22.54 72.015 19.1785 72.2909C15.2575 72.6212 18.9259 64.169 13.5437 63.9825C6.90247 63.7493 13.466 57.4967 8.16933 53.6961C3.71979 50.5056 0.36613 47.8554 1.88169 41.7076C3.25735 36.1234 2.77548 39.4693 0.610951 35.1518C-1.35539 31.2347 1.91666 30.5896 3.49829 29.1557C3.20295 28.3357 2.74439 27.7761 3.01253 26.723C4.25607 21.8693 16.5399 32.1868 18.5567 33.2982C20.97 34.6467 23.6086 35.3034 24.0866 33.2244C24.6773 28.8526 26.4649 22.2579 29.2201 18.2087C40.0583 2.27583 56.3098 4.28492 68.1855 15.3019C68.341 15.4457 68.4498 15.5545 68.5431 15.6322C69.2426 16.0208 70.1908 16.1141 70.6376 14.5363C71.6169 11.0661 76.8009 2.34189 79.6999 0.418296C82.5989 -1.5053 82.8399 3.76807 83.1158 4.85617C84.2311 9.20855 85.4668 9.00259 88.7933 9.86529C95.2636 11.548 88.292 16.3977 93.3516 20.6063C96.0719 22.8758 101.361 27.3331 98.5512 31.2502C96.8918 33.5586 97.8089 31.3785 99.5227 35.4355C101.236 39.4926 97.91 39.9045 96.2506 41.2335C96.5654 42.3993 97.2921 44.2802 95.3724 44.7698C92.5861 45.4771 84.2233 40.1066 80.6559 38.3812C79.4396 37.7866 79.2453 37.7905 78.9616 37.9226ZM30.8678 54.1508C35.8264 55.8412 42.1373 67.239 60.0365 62.3814C74.512 58.4487 75.8644 42.2245 77.481 37.8993C77.5548 37.4912 78.1921 36.306 78.9732 36.3721C80.6131 36.512 83.8075 38.0586 85.1909 38.8475C86.5743 39.6364 93.0097 42.9939 94.6845 42.8929C94.4825 41.1014 92.8581 40.7361 96.239 38.7736C100.79 36.1156 92.998 34.942 95.9669 30.407C97.1638 28.5766 97.1328 28.4212 94.9061 25.7437C92.0692 22.3473 88.5368 22.2191 88.7272 16.5299C88.9215 10.9223 90.6702 13.421 85.871 11.6684C81.5458 10.114 81.3632 6.31733 80.6637 2.54397C80.635 2.38197 80.5947 2.22223 80.5432 2.06598C78.573 3.31341 72.4563 13.1529 71.7141 15.0376C71.1545 16.4677 70.7581 17.0389 70.9874 19.7825C63.6738 11.2798 54.1141 7.19557 44.4146 9.46892C34.5479 11.7811 26.2278 21.3836 25.3962 33.9899C24.4325 40.0366 10.6836 29.5093 8.42581 28.4756C8.42581 28.4756 5.98536 27.3525 4.97888 27.3992C5.29753 29.1596 6.9219 29.4316 3.69259 31.6C-0.547093 34.4485 6.41283 34.0132 4.81955 40.8877C3.85192 45.0885 3.88689 46.6779 7.43098 49.7207C11.9271 53.5562 13.3417 52.9383 12.7898 60.0887C12.7066 60.5643 12.7066 61.0508 12.7898 61.5265C14.2044 62.0861 16.4855 61.0368 18.0477 64.3439C19.0736 66.5084 18.8249 69.4657 19.2135 70.3634C21.5451 69.7571 27.1138 59.0355 27.6773 56.7194C28.0892 55.0368 29.7292 53.5562 30.8717 54.1508H30.8678ZM80.7686 1.98826H80.7997H80.7686Z" fill="#E10A16"/>
<path fill-rule="evenodd" clip-rule="evenodd" d="M56.4108 24.2942C56.6063 24.6718 56.7489 25.0746 56.8344 25.4911C58.5559 24.4574 60.2541 23.3615 61.4394 21.7022C62.4303 20.3149 63.8876 19.4094 65.6363 19.662C67.7503 19.969 69.977 22.2074 70.0781 24.3602C70.1869 26.6608 68.205 28.3357 66.0987 29.109C66.9497 30.0955 67.858 31.0311 68.819 31.9108C69.3067 32.3763 69.845 32.7856 70.4239 33.1311C73.6338 34.6622 75.1066 38.9601 72.5962 41.7814C71.8209 42.6563 70.7738 43.2449 69.6234 43.4524C72.433 45.4615 73.3151 49.7051 70.2102 52.0756C69.4814 52.6304 68.6155 52.9766 67.7051 53.0772C66.7947 53.1779 65.8741 53.0291 65.0417 52.6468C65.6324 55.7168 63.565 58.9694 60.223 58.9267C57.5922 58.8917 55.517 57.1974 54.4561 54.8658C54.3512 54.6404 54.2502 54.4111 54.153 54.1857C53.6333 54.8076 52.9451 55.2664 52.1711 55.507C51.4957 55.7201 50.782 55.7839 50.0795 55.694C49.377 55.6041 48.7024 55.3626 48.1024 54.9862C47.4274 54.5463 46.857 53.9637 46.4313 53.2796C46.0056 52.5954 45.7351 51.8263 45.6387 51.0263C45.5571 51.055 45.481 51.097 45.4133 51.1507C45.2306 51.2984 45.2734 51.5393 45.3317 51.7297C46.1555 54.6481 45.5337 58.1806 42.25 59.1909C39.6114 59.9992 36.8523 58.4137 35.9041 55.8878C35.1696 53.9448 35.4028 52.2738 36.2927 50.4473C36.8038 49.2907 37.1656 48.0736 37.3691 46.8255C37.6684 45.2284 37.8199 43.6118 37.9793 41.999C38.0405 40.8975 38.2137 39.8051 38.4961 38.7386C37.6329 38.304 36.9137 37.6293 36.4248 36.7956C36.0641 36.1306 35.7536 35.4396 35.4961 34.7282C35.3224 34.2346 35.0333 33.7896 34.6528 33.4303C33.3432 32.2217 31.7227 31.4873 30.452 30.3214C28.369 28.3784 28.3069 25.153 30.9533 23.6918L31.0193 23.6569L31.0854 23.6258C31.7583 23.3023 32.5065 23.168 33.2499 23.2372C33.1958 22.3109 33.46 21.3939 33.9986 20.6383C34.5372 19.8828 35.3178 19.334 36.2111 19.083C36.8648 18.8629 37.5678 18.8346 38.2372 19.0012C38.9065 19.1679 39.5141 19.5225 39.9883 20.0234C40.0788 19.1998 40.3437 18.4049 40.7656 17.6918C41.4055 16.6239 42.3372 15.7611 43.4508 15.2047C42.7863 13.557 43.6218 11.7539 45.3589 10.93C46.7812 10.2578 48.4289 10.0751 49.5986 11.3381C49.8247 11.5894 50.0132 11.8721 50.1582 12.1775C51.4588 11.5648 52.9288 11.4114 54.3279 11.7422C55.3786 11.9841 56.3593 12.4656 57.1931 13.1492C58.027 13.8327 58.6916 14.6998 59.1349 15.6827C60.9536 19.5687 59.7373 22.3784 56.4147 24.2709L56.4108 24.2942ZM52.0079 30.1893C51.8268 30.174 51.6473 30.1428 51.4716 30.0961C50.9671 29.967 50.505 29.7085 50.1309 29.346C49.653 28.8588 49.309 28.2565 49.1322 27.5973C48.752 27.7272 48.3622 27.8272 47.9664 27.8966C48.4623 28.5506 48.7454 29.3411 48.7773 30.1612C48.8093 30.9813 48.5886 31.7915 48.1452 32.4821C47.7798 33.0806 47.2656 33.5742 46.6526 33.9147C46.0397 34.2553 45.3489 34.4311 44.6477 34.4251C44.6888 34.682 44.7044 34.9424 44.6944 35.2023C45.0569 35.3276 45.3939 35.5172 45.6892 35.7619C46.2293 36.2127 46.6005 36.8333 46.7423 37.5223C46.9102 38.1112 47.1517 38.6766 47.4612 39.205C47.5428 39.0845 47.6283 38.9679 47.7216 38.8513C49.2993 36.8422 52.0973 36.4847 54.2502 37.635C54.2502 37.5379 54.2269 37.4446 54.2191 37.3435C54.1807 36.876 54.2055 36.4055 54.2929 35.9446C52.3266 35.0236 51.5455 32.2217 52.0079 30.1932V30.1893ZM42.2151 26.109C41.8343 25.7191 41.5005 25.2861 41.2202 24.8188L41.092 24.6051C41.092 24.6517 41.0648 24.7022 41.0492 24.7527C40.9754 25.0053 40.7617 25.495 40.6801 25.7864L40.7539 25.8603V25.8797C40.7854 25.9117 40.8222 25.938 40.8627 25.9574C41.2866 26.0921 41.7339 26.1371 42.1762 26.0895L42.2151 26.109ZM43.0195 44.7271C42.9223 45.1157 42.7086 45.4071 43.0195 45.9473C43.0918 46.0683 43.1923 46.1702 43.3124 46.2442C43.4324 46.3182 43.5685 46.3622 43.7092 46.3725C43.8498 46.3828 43.9909 46.3591 44.1204 46.3033C44.25 46.2475 44.3642 46.1614 44.4534 46.0522C44.9742 45.3138 44.0648 45.1662 43.9444 44.5638C43.8239 44.0392 43.4664 43.0094 43.0117 44.7271H43.0195ZM51.6854 53.8593C53.4108 53.3386 54.3046 50.7504 52.7812 49.4875C52.2061 49.0095 51.0442 47.5988 49.789 45.8929C47.7216 43.0833 45.4016 39.4653 45.0635 37.8798C44.6749 36.0029 41.5233 36.4925 40.2176 39.0456C39.4948 40.464 39.8018 47.0587 37.8432 51.1779C37.1943 52.5497 36.9456 53.7466 37.5246 55.2893C38.158 56.9798 39.9883 58.099 41.7565 57.5549C44.0881 56.8399 44.2475 54.174 43.6995 52.2038C42.8329 49.1494 47.2358 48.3178 47.333 50.4784C47.4301 52.6391 49.3265 54.586 51.6931 53.8671L51.6854 53.8593ZM55.9328 37.2036C56.1504 39.9239 58.6531 40.363 58.9367 42.0107C59.0339 42.6208 57.2385 43.5029 56.9587 43.6312C55.6142 44.2491 55.5675 40.7905 54.0287 39.5392C52.5714 38.3734 50.2864 38.3734 49.0701 39.9278C48.8214 40.2433 48.6294 40.5997 48.5027 40.9809C49.0079 41.7853 49.5014 42.5353 49.8084 42.9628C50.2514 43.6118 50.7061 44.2568 51.1724 44.9058C51.7165 45.6442 52.276 46.3786 52.8628 47.082C53.1713 47.4808 53.5119 47.8538 53.881 48.1973C54.4433 48.6713 54.8628 49.2922 55.0927 49.9908C55.3226 50.6893 55.3538 51.438 55.1828 52.1533C55.4082 52.709 55.688 53.3619 56.0455 54.1507C56.8499 55.915 58.35 57.1819 60.2736 57.2052C62.6557 57.2401 63.8876 54.722 63.3047 52.6624C62.815 50.9253 60.9964 49.4331 59.6362 48.3489C58.6142 47.5328 61.7347 45.8035 62.4497 47.0781C62.718 47.5537 62.9618 48.0427 63.1803 48.5432C64.1479 50.7427 67.0314 52.3554 69.1959 50.7077C71.6131 48.8618 70.3423 45.2672 67.5871 44.2957C64.5987 43.2465 63.5223 36.7373 62.0028 35.1091C60.8953 33.9199 59.4458 33.2321 57.8797 33.9433C57.2492 34.2034 56.7195 34.66 56.3695 35.2454C56.0194 35.8307 55.8676 36.5135 55.9367 37.192L55.9328 37.2036ZM64.0391 27.8421C65.885 27.6517 68.4498 26.2877 68.3604 24.4418C68.2827 22.8369 65.1583 19.4522 62.8383 22.7009C59.8811 26.824 54.46 27.7877 53.7178 30.438C53.3292 31.8098 53.8732 33.7256 54.9186 34.3241C55.4506 33.4704 56.2243 32.7942 57.1414 32.3811C57.7633 32.0896 58.4404 31.9346 59.1272 31.9264C60.0559 30.881 60.6816 30.4341 61.9484 32.6764L62.0767 32.9057C62.5008 33.2021 62.8917 33.5434 63.2425 33.9238C64.3461 35.0896 65.1661 37.7283 65.8189 39.2633C66.0871 39.9097 66.3947 40.5392 66.7399 41.148C67.4286 41.65 68.2806 41.8755 69.1275 41.7798C69.9744 41.6841 70.7545 41.2742 71.3138 40.6311C73.0936 38.6182 71.8151 35.6842 69.6933 34.6699C68.7918 34.2386 66.9304 32.6842 64.591 30.0067C64.2024 29.5676 62.9044 27.9626 64.0352 27.846L64.0391 27.8421ZM48.8835 22.2618C48.4561 21.5584 47.7177 20.1555 47.3291 19.3161C47.0998 18.8032 46.311 19.1452 46.0312 19.5765C45.083 21.0493 46.2799 22.7942 47.9392 23.0506C48.8097 23.1867 49.1672 22.7281 48.8874 22.2734L48.8835 22.2618ZM53.1582 20.8162C54.7126 18.9509 53.1582 16.6542 51.1297 16.5415C50.7411 16.5143 50.4379 16.8563 50.504 17.412C50.5701 17.9677 51.6698 20.1322 52.2372 21.0299C52.5248 21.4768 52.8279 21.2281 53.1582 20.8278V20.8162ZM54.6038 23.276C58.1751 21.6478 59.0106 19.5454 57.5533 16.4366C55.9212 12.9391 51.9419 12.7021 50.2786 14.1516C49.7385 14.6257 49.3304 14.5091 49.1361 14.3653C48.6737 14.0195 48.9418 11.1477 46.07 12.5078C44.6944 13.1606 44.741 14.3381 45.2928 15.0259C45.9146 15.8265 46.3887 16.2384 45.5804 16.3394C43.2215 16.6309 39.9922 19.5066 42.6814 23.9289C44.4651 26.8629 47.5351 26.618 49.5986 25.5261C49.8356 25.4017 50.2786 25.254 50.4341 25.7087C50.6905 26.4859 50.7216 28.1258 51.8991 28.4289C52.2152 28.4991 52.5429 28.4991 52.859 28.4289C53.5231 27.6565 54.3111 26.9999 55.1906 26.4859C55.3033 25.7398 54.8953 24.9315 54.4134 24.3214C53.8382 23.6297 54.5028 23.3382 54.6504 23.2683L54.6038 23.276ZM36.7279 20.7346C35.4689 21.1426 34.9054 22.017 34.952 23.3382C34.9987 24.6595 36.7318 26.6802 36.0557 27.1349C35.9663 27.1971 35.8458 27.2592 35.5427 27.0183C34.3419 26.074 33.8212 24.2981 31.7693 25.1996C30.2149 26.0584 30.347 27.8771 31.6022 29.0352C32.6398 29.995 34.2525 30.7373 35.8031 32.1712C37.0893 33.3603 37.101 34.5806 37.8938 35.929C38.2322 36.495 38.7333 36.9459 39.3316 37.2231C39.9731 36.401 40.8204 35.7629 41.7876 35.3733C42.1628 35.2255 42.5541 35.1224 42.9534 35.0663C42.9517 34.6163 42.8368 34.174 42.6192 33.78C41.9042 32.4666 38.9469 31.7943 39.5803 30.5041C40.0816 29.4821 42.7358 31.9031 43.0778 32.1479C43.3426 32.3651 43.6503 32.5239 43.9809 32.6138C44.3114 32.7037 44.6572 32.7227 44.9956 32.6694C45.3339 32.6162 45.6572 32.492 45.9442 32.305C46.2312 32.118 46.4754 31.8725 46.6607 31.5844C47.6361 30.0572 46.6257 28.3124 45.0169 27.8694C43.4081 27.4263 40.8744 28.4639 39.5531 27.0921C37.9093 25.5105 40.1282 24.6983 39.386 22.3162C39.114 21.4185 38.1813 20.2643 36.7435 20.7346H36.7279Z" fill="#E10A16"/>
</svg>
