<svg width="180" height="180" viewBox="0 0 180 180" fill="none" xmlns="http://www.w3.org/2000/svg">
<path d="M77.4927 75.8927C80.5366 78.5561 84.7415 79.9024 90 79.9024C95.2586 79.9024 99.4732 78.5561 102.566 75.9122C104.15 74.5564 105.407 72.8593 106.242 70.9482C107.077 69.0372 107.468 66.9618 107.385 64.878C107.466 62.794 107.075 60.7186 106.243 58.8064C105.41 56.8942 104.156 55.1946 102.576 53.8341C99.5122 51.1902 95.239 49.8536 90 49.8536C84.761 49.8536 80.5464 51.2 77.4927 53.8536C75.9388 55.2268 74.7099 56.9283 73.8949 58.8351C73.0798 60.7418 72.6992 62.806 72.7805 64.878C72.6958 66.9491 73.075 69.0129 73.8902 70.9186C74.7055 72.8243 75.9363 74.5237 77.4927 75.8927ZM80.4195 57.161C82.6439 55.2097 85.8829 54.2341 90.039 54.2341C94.1951 54.2341 97.4732 55.2097 99.7951 57.161C100.892 58.1117 101.757 59.3001 102.325 60.6357C102.893 61.9713 103.149 63.4189 103.073 64.8683C103.153 66.3167 102.898 67.764 102.33 69.0985C101.762 70.4331 100.894 71.6194 99.7951 72.5658C97.522 74.5171 94.2537 75.4927 90.039 75.4927C85.8244 75.4927 82.6439 74.5171 80.4195 72.5658C79.3387 71.6057 78.4887 70.4139 77.9329 69.0794C77.3771 67.7448 77.1299 66.302 77.2098 64.8585C77.1294 63.4201 77.3726 61.9819 77.9213 60.6498C78.47 59.3177 79.3103 58.1255 80.3805 57.161H80.4195Z" fill="url(#paint0_linear_146_585)"/>
<path d="M90 0C72.1997 0 54.7991 5.27841 39.9987 15.1677C25.1983 25.0571 13.6628 39.1131 6.85088 55.5585C0.038996 72.0038 -1.7433 90.0998 1.72936 107.558C5.20203 125.016 13.7737 141.053 26.3604 153.64C38.9471 166.226 54.9836 174.798 72.4419 178.271C89.9002 181.743 107.996 179.961 124.442 173.149C140.887 166.337 154.943 154.802 164.832 140.001C174.722 125.201 180 107.8 180 90C179.974 66.1384 170.484 43.2616 153.611 26.3889C136.738 9.51623 113.862 0.0258242 90 0ZM63.3366 86.2341C58.9846 83.9513 55.3635 80.4891 52.8878 76.2439C50.2508 71.7205 48.9013 66.562 48.9854 61.3268C48.9854 51.8439 52.5073 44.6146 59.7171 39.2C66.9269 33.7854 77.2781 30.9463 89.961 30.9463C102.644 30.9463 112.878 33.7268 120.205 39.2C127.532 44.6732 130.937 51.8829 130.937 61.3268C131.046 66.6705 129.722 71.9458 127.102 76.6049C124.731 80.7731 121.199 84.1625 116.937 86.361C116.564 86.5526 116.254 86.8468 116.044 87.2089C115.833 87.5709 115.73 87.9857 115.748 88.4042C115.765 88.8227 115.902 89.2275 116.142 89.5707C116.382 89.914 116.715 90.1814 117.102 90.3414C122.181 92.3845 126.519 95.923 129.541 100.488C132.74 105.417 134.372 111.199 134.224 117.073C134.227 117.387 134.297 117.696 134.429 117.98C133.875 118.329 133.229 118.502 132.576 118.478C132.037 118.475 131.506 118.361 131.014 118.143C130.522 117.924 130.08 117.607 129.717 117.21C128.192 115.752 126.164 114.938 124.054 114.938C121.944 114.938 119.915 115.752 118.39 117.21C118.03 117.609 117.59 117.928 117.098 118.147C116.607 118.365 116.075 118.478 115.537 118.478C114.999 118.478 114.467 118.365 113.975 118.147C113.484 117.928 113.043 117.609 112.683 117.21C111.984 116.597 111.211 116.076 110.381 115.659C110.527 115.354 110.6 115.02 110.595 114.683C110.595 107.522 107.024 98.9756 90 98.9756C83.6 98.9756 78.5561 100.283 75.0244 102.878C71.2976 105.619 69.3951 109.59 69.3951 114.693C69.3916 115.031 69.4685 115.365 69.6195 115.668C68.7846 116.086 68.0073 116.611 67.3073 117.229C66.9421 117.622 66.4997 117.936 66.0079 118.15C65.5161 118.364 64.9853 118.475 64.4488 118.475C63.9123 118.475 63.3815 118.364 62.8897 118.15C62.3979 117.936 61.9555 117.622 61.5903 117.229C60.0681 115.77 58.0407 114.955 55.9317 114.955C53.8228 114.955 51.7954 115.77 50.2732 117.229C49.9099 117.626 49.4685 117.944 48.9765 118.162C48.4846 118.381 47.9528 118.495 47.4147 118.498C46.7641 118.52 46.1217 118.347 45.5708 118C45.7006 117.715 45.7672 117.406 45.7659 117.093C45.6089 111.156 47.2738 105.313 50.5366 100.351C53.616 95.7789 58.0067 92.2452 63.1317 90.2146C63.5209 90.0586 63.8572 89.7945 64.101 89.4534C64.3447 89.1123 64.4857 88.7086 64.5073 88.2899C64.5288 87.8712 64.43 87.4551 64.2226 87.0908C64.0151 86.7265 63.7077 86.4292 63.3366 86.2341ZM106.263 114.956C104.435 115.135 102.719 115.917 101.385 117.18C101.025 117.58 100.585 117.899 100.093 118.118C99.6016 118.336 99.0697 118.449 98.5317 118.449C97.9938 118.449 97.4618 118.336 96.9703 118.118C96.4787 117.899 96.0385 117.58 95.6781 117.18C94.1559 115.721 92.1285 114.906 90.0195 114.906C87.9106 114.906 85.8832 115.721 84.361 117.18C84.0006 117.58 83.5604 117.899 83.0688 118.118C82.5772 118.336 82.0453 118.449 81.5073 118.449C80.9694 118.449 80.4374 118.336 79.9459 118.118C79.4543 117.899 79.0141 117.58 78.6537 117.18C77.3176 115.921 75.6025 115.139 73.7756 114.956C73.7808 114.865 73.7808 114.774 73.7756 114.683C73.7756 111.005 75.0342 108.302 77.6098 106.41C80.3805 104.39 84.5464 103.415 90 103.415C104.527 103.415 106.205 109.873 106.205 114.732C106.211 114.807 106.221 114.882 106.234 114.956H106.263ZM90 175.61C78.2959 175.622 66.715 173.221 55.9805 168.556C56.0905 168.297 56.1469 168.018 56.1464 167.737V149.805H123.902V167.737C123.903 168.018 123.959 168.297 124.068 168.556C113.319 173.228 101.721 175.629 90 175.61ZM128.244 166.576V147.61C128.245 147.321 128.189 147.035 128.079 146.768C127.97 146.501 127.808 146.259 127.604 146.055C127.4 145.851 127.157 145.689 126.89 145.579C126.623 145.469 126.337 145.413 126.049 145.415H53.9512C53.6626 145.413 53.3766 145.469 53.1097 145.579C52.8428 145.689 52.6003 145.851 52.3962 146.055C52.1921 146.259 52.0304 146.501 51.9206 146.768C51.8107 147.035 51.7548 147.321 51.7561 147.61V166.576C49.1304 165.261 46.5742 163.812 44.0976 162.234C44.2443 161.93 44.3209 161.596 44.322 161.258V136.468H105.717C106.299 136.468 106.858 136.237 107.269 135.825C107.681 135.414 107.912 134.855 107.912 134.273C107.912 133.691 107.681 133.133 107.269 132.721C106.858 132.309 106.299 132.078 105.717 132.078H43.561L41.6781 120.498C41.7084 120.515 41.7349 120.538 41.7561 120.566C43.2783 122.025 45.3057 122.84 47.4147 122.84C49.5236 122.84 51.551 122.025 53.0732 120.566C53.4384 120.173 53.8808 119.859 54.3726 119.645C54.8645 119.431 55.3952 119.32 55.9317 119.32C56.4683 119.32 56.999 119.431 57.4908 119.645C57.9827 119.859 58.425 120.173 58.7903 120.566C60.3125 122.025 62.3398 122.84 64.4488 122.84C66.5578 122.84 68.5851 122.025 70.1073 120.566C70.4678 120.166 70.908 119.847 71.3995 119.629C71.8911 119.41 72.4231 119.297 72.961 119.297C73.4989 119.297 74.0309 119.41 74.5225 119.629C75.014 119.847 75.4542 120.166 75.8147 120.566C77.3396 122.024 79.3682 122.838 81.4781 122.838C83.5879 122.838 85.6165 122.024 87.1415 120.566C87.5019 120.166 87.9421 119.847 88.4337 119.629C88.9252 119.41 89.4572 119.297 89.9951 119.297C90.5331 119.297 91.065 119.41 91.5566 119.629C92.0482 119.847 92.4884 120.166 92.8488 120.566C94.371 122.025 96.3984 122.84 98.5073 122.84C100.616 122.84 102.644 122.025 104.166 120.566C104.526 120.166 104.966 119.847 105.458 119.629C105.95 119.41 106.482 119.297 107.02 119.297C107.557 119.297 108.089 119.41 108.581 119.629C109.073 119.847 109.513 120.166 109.873 120.566C111.398 122.024 113.427 122.838 115.537 122.838C117.646 122.838 119.675 122.024 121.2 120.566C121.56 120.166 122.001 119.847 122.492 119.629C122.984 119.41 123.516 119.297 124.054 119.297C124.592 119.297 125.124 119.41 125.615 119.629C126.107 119.847 126.547 120.166 126.907 120.566C128.432 122.024 130.461 122.838 132.571 122.838C134.681 122.838 136.709 122.024 138.234 120.566L138.322 120.488L136.439 132.078H117.346C116.764 132.078 116.206 132.309 115.794 132.721C115.382 133.133 115.151 133.691 115.151 134.273C115.151 134.855 115.382 135.414 115.794 135.825C116.206 136.237 116.764 136.468 117.346 136.468H136.185V160.976C136.185 161.315 136.265 161.649 136.42 161.951C133.78 163.64 131.051 165.184 128.244 166.576ZM140.576 159.024V134.273C140.576 134.185 140.576 134.098 140.576 134L140.634 133.776L143.278 117.454C143.332 117.14 143.316 116.818 143.231 116.512C143.147 116.205 142.996 115.92 142.79 115.678C142.582 115.436 142.325 115.242 142.035 115.109C141.746 114.976 141.431 114.907 141.112 114.907C140.254 114.899 139.399 115.034 138.585 115.307C138.445 109.148 136.579 103.151 133.2 98C130.489 93.9289 126.864 90.5478 122.615 88.1268C126.046 85.6579 128.908 82.4805 131.005 78.8097C134.021 73.4844 135.551 67.4461 135.434 61.3268C135.434 50.5171 131.22 41.8927 122.907 35.6878C114.79 29.6293 103.727 26.5561 90.0195 26.5561C76.3122 26.5561 65.2586 29.6293 57.1415 35.6878C48.7805 41.8927 44.5854 50.5171 44.5854 61.3268C44.5007 67.353 46.0661 73.2875 49.1122 78.4878C51.2892 82.2055 54.2243 85.4232 57.7269 87.9317C53.3959 90.3334 49.6924 93.7227 46.9171 97.8244C43.4619 103.011 41.5597 109.076 41.4342 115.307C40.6201 115.034 39.766 114.899 38.9073 114.907C38.5889 114.906 38.274 114.974 37.9847 115.107C37.6953 115.24 37.4385 115.434 37.2322 115.677C37.0259 115.919 36.8751 116.204 36.7903 116.511C36.7056 116.818 36.6889 117.14 36.7415 117.454L39.3952 133.776C39.4603 134.197 39.6468 134.59 39.9317 134.907V159.405C25.2629 148.833 14.3176 133.889 8.66447 116.714C3.01136 99.5385 2.94073 81.0147 8.46271 63.7971C13.9847 46.5795 24.8158 31.5521 39.4035 20.8687C53.9913 10.1852 71.5868 4.39435 89.6681 4.32599C107.749 4.25763 125.388 9.91532 140.056 20.4881C154.724 31.0609 165.669 46.0061 171.321 63.1814C176.973 80.3568 177.042 98.8806 171.519 116.098C165.996 133.315 155.164 148.342 140.576 159.024Z" fill="url(#paint1_linear_146_585)"/>
<defs>
<linearGradient id="paint0_linear_146_585" x1="123.1" y1="180" x2="37.677" y2="2.90302" gradientUnits="userSpaceOnUse">
<stop stop-color="#835342"/>
<stop offset="0.972222" stop-color="#FFCAA4"/>
</linearGradient>
<linearGradient id="paint1_linear_146_585" x1="123.1" y1="180" x2="37.677" y2="2.90302" gradientUnits="userSpaceOnUse">
<stop stop-color="#835342"/>
<stop offset="0.972222" stop-color="#FFCAA4"/>
</linearGradient>
</defs>
</svg>
