<svg width="180" height="180" viewBox="0 0 180 180" fill="none" xmlns="http://www.w3.org/2000/svg">
<path d="M90 0C72.1997 0 54.7991 5.27841 39.9987 15.1677C25.1983 25.0571 13.6628 39.1131 6.85088 55.5585C0.038996 72.0038 -1.7433 90.0998 1.72936 107.558C5.20203 125.016 13.7737 141.053 26.3604 153.64C38.9471 166.226 54.9836 174.798 72.4419 178.271C89.9002 181.743 107.996 179.961 124.442 173.149C140.887 166.337 154.943 154.802 164.832 140.001C174.722 125.201 180 107.8 180 90C179.974 66.1384 170.484 43.2616 153.611 26.3889C136.738 9.51623 113.862 0.0258242 90 0ZM90 175.61C73.068 175.61 56.5162 170.589 42.4378 161.182C28.3593 151.775 17.3865 138.405 10.9069 122.761C4.42734 107.118 2.73198 89.905 6.03525 73.2983C9.33852 56.6917 17.4921 41.4375 29.4648 29.4648C41.4375 17.492 56.6917 9.33848 73.2984 6.03521C89.905 2.73194 107.118 4.4273 122.761 10.9069C138.405 17.3865 151.775 28.3593 161.182 42.4378C170.589 56.5162 175.61 73.068 175.61 90C175.587 112.698 166.559 134.46 150.51 150.51C134.46 166.559 112.698 175.586 90 175.61Z" fill="url(#paint0_linear_146_519)"/>
<path d="M138.995 91.0634H132.517C123.079 91.0747 113.887 94.0676 106.251 99.6146C98.6157 105.162 92.9279 112.979 90 121.951C87.0721 112.979 81.3844 105.162 73.7489 99.6146C66.1134 94.0676 56.9206 91.0747 47.483 91.0634H40.9756C40.3935 91.0634 39.8351 91.2947 39.4235 91.7063C39.0118 92.118 38.7805 92.6763 38.7805 93.2585V99.7366C38.7934 111.591 43.5083 122.956 51.8907 131.339C60.273 139.721 71.6383 144.436 83.4927 144.449H96.4781C108.333 144.436 119.698 139.721 128.08 131.339C136.462 122.956 141.177 111.591 141.19 99.7366V93.2585C141.19 92.6763 140.959 92.118 140.547 91.7063C140.136 91.2947 139.577 91.0634 138.995 91.0634ZM83.522 140.059C72.8319 140.046 62.5833 135.793 55.0243 128.234C47.4653 120.675 43.2129 110.427 43.2 99.7366V95.4536H47.483C58.173 95.4665 68.4216 99.7189 75.9806 107.278C83.5396 114.837 87.792 125.085 87.8049 135.776V137.493L69.7171 119.405C69.301 119.017 68.7506 118.806 68.1819 118.816C67.6132 118.826 67.0706 119.056 66.6684 119.459C66.2663 119.861 66.0359 120.403 66.0259 120.972C66.0158 121.541 66.2269 122.091 66.6147 122.507L84.1756 140.068L83.522 140.059ZM136.8 99.7366C136.787 110.427 132.535 120.675 124.976 128.234C117.417 135.793 107.168 140.046 96.4781 140.059H95.3951L112.956 122.498C113.172 122.297 113.345 122.054 113.465 121.785C113.585 121.516 113.649 121.225 113.654 120.93C113.66 120.636 113.605 120.343 113.495 120.069C113.385 119.796 113.22 119.548 113.012 119.339C112.803 119.131 112.555 118.967 112.282 118.856C112.008 118.746 111.716 118.692 111.421 118.697C111.126 118.702 110.836 118.766 110.566 118.886C110.297 119.006 110.055 119.179 109.854 119.395L92.1951 137.044V135.776C92.208 125.085 96.4604 114.837 104.019 107.278C111.578 99.7189 121.827 95.4665 132.517 95.4536H136.8V99.7366Z" fill="url(#paint1_linear_146_519)"/>
<path d="M53.1122 88.6439C53.3819 88.7458 53.669 88.7935 53.9572 88.7844C54.2453 88.7753 54.5288 88.7095 54.7916 88.5909C55.0543 88.4722 55.2911 88.3029 55.4884 88.0927C55.6857 87.8825 55.8396 87.6355 55.9415 87.3658C63.8732 66.2536 84.361 46.0293 90 40.7317C96.3832 46.771 102.33 53.2556 107.795 60.1366C105.595 62.7246 102.727 64.6584 99.5024 65.7268L96.1366 66.8293C95.7004 66.9774 95.3215 67.2584 95.0532 67.6328C94.7849 68.0073 94.6406 68.4564 94.6406 68.9171C94.6406 69.3777 94.7849 69.8268 95.0532 70.2013C95.3215 70.5757 95.7004 70.8568 96.1366 71.0049L99.5122 72.1073C102.26 73.0204 104.757 74.5621 106.805 76.6097C108.853 78.6573 110.394 81.1544 111.307 83.9024L112.41 87.2683C112.558 87.7045 112.839 88.0833 113.213 88.3516C113.588 88.62 114.037 88.7642 114.498 88.7642C114.958 88.7642 115.407 88.62 115.782 88.3516C116.156 88.0833 116.437 87.7045 116.585 87.2683L117.688 83.9024C118.278 82.1179 119.137 80.4336 120.234 78.9073C121.764 81.7824 123.103 84.7546 124.244 87.8049C124.398 88.2274 124.678 88.5925 125.046 88.8508C125.414 89.109 125.853 89.2479 126.302 89.2488C126.559 89.2469 126.813 89.2007 127.054 89.1122C127.325 89.0132 127.574 88.8616 127.786 88.6663C127.999 88.4709 128.171 88.2355 128.292 87.9736C128.414 87.7117 128.482 87.4284 128.494 87.14C128.506 86.8515 128.461 86.5636 128.361 86.2927C126.973 82.5711 125.316 78.9551 123.405 75.4732C125.199 73.9606 127.265 72.8049 129.493 72.0683L132.859 70.9658C133.295 70.8177 133.674 70.5367 133.942 70.1622C134.21 69.7878 134.355 69.3387 134.355 68.878C134.355 68.4174 134.21 67.9683 133.942 67.5938C133.674 67.2194 133.295 66.9383 132.859 66.7902L129.493 65.6878C126.742 64.775 124.242 63.2324 122.193 61.183C120.143 59.1335 118.601 56.6338 117.688 53.8829L116.585 50.5171C116.437 50.0809 116.156 49.702 115.782 49.4337C115.407 49.1654 114.958 49.0211 114.498 49.0211C114.037 49.0211 113.588 49.1654 113.213 49.4337C112.839 49.702 112.558 50.0809 112.41 50.5171L111.307 53.8829C111.035 54.6748 110.709 55.4473 110.332 56.1951C104.561 49.0238 98.2502 42.305 91.4537 36.0976C91.0512 35.7376 90.5302 35.5386 89.9903 35.5386C89.4503 35.5386 88.9293 35.7376 88.5268 36.0976C87.4439 37.0732 61.4634 60.3219 51.8342 85.8536C51.6404 86.3935 51.6657 86.9878 51.9046 87.5092C52.1434 88.0307 52.5769 88.438 53.1122 88.6439ZM117.932 74.7707C116.546 76.3684 115.391 78.1514 114.498 80.0683C112.206 75.1569 108.258 71.209 103.346 68.9171C108.233 66.5899 112.17 62.6525 114.498 57.7658C116.787 62.6792 120.735 66.6278 125.649 68.9171C124.071 69.6613 122.582 70.5809 121.21 71.6585C120.02 72.5885 118.922 73.6307 117.932 74.7707Z" fill="url(#paint2_linear_146_519)"/>
<path d="M79.8049 62.8C74.7903 68.3707 68.0976 76.8878 64.7415 85.8536C64.6396 86.1233 64.5919 86.4104 64.601 86.6986C64.6101 86.9867 64.6758 87.2703 64.7945 87.533C64.9132 87.7957 65.0825 88.0325 65.2926 88.2298C65.5028 88.4271 65.7498 88.5811 66.0195 88.6829C66.2659 88.7753 66.5272 88.8216 66.7903 88.8195C67.2368 88.8223 67.6735 88.6882 68.0415 88.4352C68.4096 88.1823 68.6913 87.8227 68.8488 87.4049C71.961 79.1219 78.3025 71.0732 83.0732 65.7756C83.4364 65.3386 83.616 64.7779 83.5743 64.2113C83.5326 63.6446 83.2728 63.1162 82.8495 62.7372C82.4262 62.3581 81.8725 62.158 81.3047 62.1788C80.7369 62.1996 80.1993 62.4398 79.8049 62.8488V62.8Z" fill="url(#paint3_linear_146_519)"/>
<defs>
<linearGradient id="paint0_linear_146_519" x1="123.1" y1="180" x2="37.677" y2="2.90302" gradientUnits="userSpaceOnUse">
<stop stop-color="#835342"/>
<stop offset="0.972222" stop-color="#FFCAA4"/>
</linearGradient>
<linearGradient id="paint1_linear_146_519" x1="123.1" y1="180" x2="37.677" y2="2.90302" gradientUnits="userSpaceOnUse">
<stop stop-color="#835342"/>
<stop offset="0.972222" stop-color="#FFCAA4"/>
</linearGradient>
<linearGradient id="paint2_linear_146_519" x1="123.1" y1="180" x2="37.677" y2="2.90302" gradientUnits="userSpaceOnUse">
<stop stop-color="#835342"/>
<stop offset="0.972222" stop-color="#FFCAA4"/>
</linearGradient>
<linearGradient id="paint3_linear_146_519" x1="123.1" y1="180" x2="37.677" y2="2.90302" gradientUnits="userSpaceOnUse">
<stop stop-color="#835342"/>
<stop offset="0.972222" stop-color="#FFCAA4"/>
</linearGradient>
</defs>
</svg>
