<svg width="40" height="40" viewBox="0 0 40 40" fill="none" xmlns="http://www.w3.org/2000/svg">
<path d="M33.037 0.00012207H6.963L0 11.1409V40.0001H40V11.1409L33.037 0.00012207ZM38.1301 10.668H20.6656V1.31389H32.2969L38.1301 10.668ZM7.70309 1.31389H19.3344V10.668H1.86994L7.70309 1.31389ZM1.31377 38.6645V11.9992H38.6643V38.6645H1.31377Z" fill="white"/>
<path d="M23.9982 15.3275H16.0018C15.471 15.3275 14.9619 15.5383 14.5866 15.9136C14.2113 16.289 14.0004 16.798 14.0004 17.3288C14.0004 17.8596 14.2113 18.3686 14.5866 18.7439C14.9619 19.1192 15.471 19.3301 16.0018 19.3301H23.9982C24.529 19.3301 25.0381 19.1192 25.4134 18.7439C25.7887 18.3686 25.9996 17.8596 25.9996 17.3288C25.9996 16.798 25.7887 16.289 25.4134 15.9136C25.0381 15.5383 24.529 15.3275 23.9982 15.3275ZM23.9982 17.9944H16.0018C15.9065 18.01 15.809 18.0047 15.716 17.9789C15.623 17.9531 15.5367 17.9073 15.4632 17.8449C15.3896 17.7824 15.3305 17.7046 15.29 17.617C15.2495 17.5294 15.2285 17.4341 15.2285 17.3375C15.2285 17.241 15.2495 17.1457 15.29 17.0581C15.3305 16.9705 15.3896 16.8927 15.4632 16.8302C15.5367 16.7677 15.623 16.722 15.716 16.6962C15.809 16.6703 15.9065 16.6651 16.0018 16.6807H23.9982C24.0935 16.6651 24.191 16.6703 24.284 16.6962C24.377 16.722 24.4633 16.7677 24.5368 16.8302C24.6104 16.8927 24.6695 16.9705 24.71 17.0581C24.7505 17.1457 24.7715 17.241 24.7715 17.3375C24.7715 17.4341 24.7505 17.5294 24.71 17.617C24.6695 17.7046 24.6104 17.7824 24.5368 17.8449C24.4633 17.9073 24.377 17.9531 24.284 17.9789C24.191 18.0047 24.0935 18.01 23.9982 17.9944Z" fill="white"/>
<path d="M25.3339 34.6662H14.6661C14.5143 34.6967 14.3778 34.7788 14.2798 34.8986C14.1817 35.0183 14.1281 35.1683 14.1281 35.3231C14.1281 35.4779 14.1817 35.6279 14.2798 35.7476C14.3778 35.8674 14.5143 35.9495 14.6661 35.98H25.3339C25.4857 35.9495 25.6222 35.8674 25.7202 35.7476C25.8183 35.6279 25.8719 35.4779 25.8719 35.3231C25.8719 35.1683 25.8183 35.0183 25.7202 34.8986C25.6222 34.7788 25.4857 34.6967 25.3339 34.6662Z" fill="white"/>
<path d="M16.6674 33.3349C16.7552 33.3349 16.8421 33.3176 16.9231 33.2838C17.0042 33.2501 17.0778 33.2007 17.1396 33.1384C17.2015 33.0761 17.2504 33.0022 17.2836 32.921C17.3168 32.8397 17.3336 32.7527 17.333 32.6649V28.2856L18.2089 29.1615C18.3343 29.2853 18.5034 29.3548 18.6797 29.3548C18.8559 29.3548 19.025 29.2853 19.1504 29.1615C19.2129 29.0996 19.2625 29.0259 19.2964 28.9448C19.3302 28.8636 19.3477 28.7765 19.3477 28.6885C19.3477 28.6006 19.3302 28.5135 19.2964 28.4323C19.2625 28.3511 19.2129 28.2775 19.1504 28.2156L17.1535 26.2186C17.0905 26.1568 17.0162 26.1077 16.9345 26.0741C16.8543 26.0394 16.7679 26.0215 16.6805 26.0215C16.5932 26.0215 16.5067 26.0394 16.4265 26.0741C16.3449 26.1077 16.2705 26.1568 16.2076 26.2186L14.2063 28.2156C14.0822 28.3417 14.0126 28.5116 14.0126 28.6885C14.0126 28.8655 14.0822 29.0354 14.2063 29.1615C14.3329 29.2846 14.5026 29.3534 14.6792 29.3534C14.8558 29.3534 15.0255 29.2846 15.1522 29.1615L16.028 28.2856V32.6649C16.0268 32.8377 16.0928 33.0043 16.2121 33.1293C16.3314 33.2544 16.4947 33.3281 16.6674 33.3349Z" fill="white"/>
<path d="M23.8056 26.1968C23.7426 26.1349 23.6682 26.0858 23.5866 26.0522C23.5064 26.0175 23.42 25.9996 23.3326 25.9996C23.2452 25.9996 23.1588 26.0175 23.0786 26.0522C22.997 26.0858 22.9226 26.1349 22.8596 26.1968L20.8627 28.1937C20.7659 28.286 20.6991 28.4054 20.6711 28.5362C20.6431 28.667 20.6552 28.8033 20.7058 28.9271C20.7564 29.051 20.8431 29.1567 20.9547 29.2306C21.0663 29.3044 21.1975 29.3429 21.3313 29.341C21.508 29.3408 21.6777 29.2717 21.8042 29.1484L22.6801 28.2725V32.6518C22.6645 32.747 22.6698 32.8445 22.6956 32.9375C22.7214 33.0305 22.7672 33.1168 22.8297 33.1903C22.8922 33.2639 22.9699 33.323 23.0575 33.3635C23.1451 33.404 23.2405 33.425 23.337 33.425C23.4335 33.425 23.5289 33.404 23.6165 33.3635C23.7041 33.323 23.7818 33.2639 23.8443 33.1903C23.9068 33.1168 23.9525 33.0305 23.9784 32.9375C24.0042 32.8445 24.0095 32.747 23.9939 32.6518V28.2725L24.8697 29.1484C24.9963 29.2717 25.166 29.3408 25.3427 29.341C25.4746 29.3411 25.6036 29.3019 25.7132 29.2285C25.8229 29.1551 25.9082 29.0507 25.9584 28.9287C26.0086 28.8067 26.0215 28.6725 25.9952 28.5432C25.969 28.4139 25.905 28.2953 25.8113 28.2024L23.8056 26.1968Z" fill="white"/>
</svg>
