<svg width="43" height="40" viewBox="0 0 43 40" fill="none" xmlns="http://www.w3.org/2000/svg">
<path d="M42.7918 22.9381C42.7865 22.8409 42.7572 22.7464 42.7065 22.6633C42.6558 22.5801 42.5853 22.5108 42.5013 22.4615L32.4151 16.6331V6.59223C32.411 6.5743 32.411 6.55568 32.4151 6.53776C32.4088 6.46704 32.3904 6.39794 32.3606 6.33349C32.3503 6.30697 32.3382 6.28119 32.3243 6.25632C32.2758 6.17385 32.2071 6.10511 32.1246 6.0566L21.7297 0.0511517C21.707 0.0530896 21.6842 0.0530896 21.6616 0.0511517C21.6246 0.0305887 21.5848 0.0153096 21.5436 0.0057591C21.5059 0.00101209 21.4678 0.00101209 21.4301 0.0057591C21.3896 -0.00175694 21.348 -0.00175694 21.3075 0.0057591C21.2692 0.0132762 21.2324 0.0270803 21.1986 0.0466125C21.1763 0.0408468 21.1528 0.0408468 21.1305 0.0466125L10.6993 6.07021C10.6187 6.1212 10.5505 6.18942 10.4995 6.26994L10.4632 6.33349C10.4304 6.40002 10.4118 6.4727 10.4088 6.54684C10.4098 6.56498 10.4098 6.58317 10.4088 6.60131V16.6422L0.299821 22.4706C0.215331 22.5213 0.144107 22.5914 0.0920191 22.675C0.0399309 22.7587 0.00846987 22.8535 0.000229295 22.9517C0.000229295 22.9517 0.000229295 22.9926 0.000229295 23.0062V33.392C-0.00276555 33.4982 0.0236261 33.6031 0.0764921 33.6952C0.129358 33.7874 0.206643 33.8631 0.299821 33.914L10.6993 39.9149C10.7918 39.9706 10.8977 40 11.0057 40C11.1136 40 11.2195 39.9706 11.3121 39.9149L21.4074 34.0911L21.4619 34.1274L31.5072 39.9149C31.5989 39.9707 31.7041 40.0001 31.8114 40.0001C31.9186 40.0001 32.0238 39.9707 32.1155 39.9149L42.515 33.914C42.6068 33.8616 42.683 33.7855 42.7357 33.6937C42.7883 33.602 42.8156 33.4978 42.8145 33.392V22.9926C42.8145 22.9926 42.8145 22.9926 42.8145 22.9381H42.7918ZM21.4074 1.28583L30.5812 6.59223L21.4074 11.8941L12.2562 6.59223L21.4074 1.28583ZM31.194 7.6408V16.6331L26.8136 19.1569L26.7546 19.0797C26.1835 18.3817 25.48 17.8033 24.6847 17.378C23.8893 16.9527 23.0177 16.6887 22.12 16.6013H22.0202V12.929L31.194 7.6408ZM11.6207 7.6408L20.7946 12.9517V16.6104H20.6947C19.7975 16.7004 18.927 16.9669 18.1332 17.3946C17.3394 17.8223 16.6379 18.4027 16.0692 19.1024L16.0147 19.1796L11.6207 16.6331V7.6408ZM10.3997 38.3307L1.22129 33.038V24.0275L10.3997 29.343V38.3307ZM11.0079 28.2854L1.81593 22.9926L11.0079 17.6726L15.3248 20.1646L15.2703 20.2645C14.7981 21.121 14.5204 22.0709 14.4568 23.0469C14.3933 24.0229 14.5455 25.0008 14.9026 25.9113L14.9344 26.0021L11.0079 28.2854ZM20.7946 33.038L11.6207 38.3307V29.343L15.4927 27.1097L15.5472 27.1959C16.1055 28.0865 16.8616 28.8364 17.7567 29.3875C18.6517 29.9385 19.6618 30.2759 20.7083 30.3734H20.8082L20.7946 33.038ZM21.4074 29.2341C19.9058 29.2297 18.4653 28.6387 17.3934 27.5871C16.3214 26.5355 15.7029 25.1066 15.6698 23.6054V23.4964C15.6689 22.3604 16.005 21.2495 16.6356 20.3046C17.2662 19.3596 18.163 18.6229 19.2124 18.1877C20.2618 17.7525 21.4168 17.6384 22.5311 17.8598C23.6453 18.0813 24.6689 18.6282 25.4722 19.4316C26.2756 20.2349 26.8226 21.2585 27.044 22.3728C27.2654 23.4871 27.1513 24.642 26.7161 25.6914C26.281 26.7409 25.5443 27.6376 24.5993 28.2682C23.6543 28.8988 22.5435 29.235 21.4074 29.2341ZM31.194 38.3398L22.0202 33.038V30.3825H22.12C23.1655 30.281 24.174 29.9419 25.0685 29.3912C25.9629 28.8406 26.7198 28.0928 27.2812 27.205L27.3357 27.1188L31.2031 29.3521V38.3398H31.194ZM31.8068 28.2854L27.8668 26.0157L27.9031 25.9249C28.2602 25.0145 28.4124 24.0365 28.3489 23.0605C28.2853 22.0846 28.0076 21.1346 27.5354 20.2781L27.4809 20.1782L31.7751 17.6726L31.8295 17.7043L40.9671 22.9926L31.8068 28.2854ZM41.5935 33.038L41.5345 33.0697L32.4151 38.3398V29.3566L32.4741 29.3203L41.6026 24.0502L41.5935 33.038Z" fill="white"/>
<path d="M21.4074 19.7243C20.8512 19.7293 20.3148 19.932 19.8945 20.2963C19.4741 20.6606 19.197 21.1625 19.1129 21.7124C19.0288 22.2623 19.1432 22.8241 19.4355 23.2973C19.7278 23.7706 20.179 24.1244 20.7083 24.2953H20.7855V26.3879C20.7987 26.5408 20.8687 26.6831 20.9818 26.7868C21.0948 26.8905 21.2426 26.9481 21.396 26.9481C21.5494 26.9481 21.6973 26.8905 21.8103 26.7868C21.9233 26.6831 21.9934 26.5408 22.0066 26.3879V24.318H22.0837C22.6114 24.1478 23.0616 23.7959 23.3542 23.325C23.6469 22.854 23.7629 22.2945 23.6817 21.746C23.6006 21.1975 23.3275 20.6956 22.911 20.3296C22.4946 19.9635 21.9618 19.7571 21.4074 19.747V19.7243ZM21.4074 23.1923C21.1856 23.1923 20.9689 23.1266 20.7845 23.0034C20.6001 22.8802 20.4564 22.705 20.3715 22.5002C20.2867 22.2953 20.2645 22.0699 20.3077 21.8524C20.351 21.6349 20.4578 21.4351 20.6146 21.2783C20.7714 21.1215 20.9712 21.0147 21.1887 20.9715C21.4061 20.9282 21.6316 20.9504 21.8365 21.0353C22.0413 21.1201 22.2164 21.2638 22.3396 21.4482C22.4628 21.6326 22.5286 21.8494 22.5286 22.0711C22.5292 22.2185 22.5006 22.3646 22.4445 22.5009C22.3883 22.6372 22.3058 22.761 22.2015 22.8653C22.0973 22.9695 21.9735 23.0521 21.8372 23.1082C21.7009 23.1643 21.5548 23.1929 21.4074 23.1923Z" fill="white"/>
</svg>
