<svg width="181" height="180" viewBox="0 0 181 180" fill="none" xmlns="http://www.w3.org/2000/svg">
<path d="M90.38 180C72.58 180 55.18 174.72 40.38 164.83C25.58 154.94 14.04 140.88 7.22998 124.44C0.419985 107.99 -1.36001 89.9 2.10999 72.44C5.57999 54.98 14.15 38.95 26.74 26.36C39.33 13.77 55.36 5.20001 72.82 1.73001C90.28 -1.73999 108.37 0.0400143 124.82 6.85001C141.26 13.66 155.32 25.2 165.21 40C175.1 54.8 180.38 72.2 180.38 90C180.35 113.86 170.86 136.74 153.99 153.61C137.12 170.48 114.24 179.97 90.38 180ZM90.38 4.39001C73.45 4.39001 56.9 9.41001 42.82 18.82C28.74 28.23 17.77 41.6 11.29 57.24C4.80998 72.88 3.11999 90.1 6.41999 106.7C9.71999 123.31 17.88 138.56 29.85 150.53C41.82 162.5 57.08 170.66 73.68 173.96C90.29 177.26 107.5 175.57 123.14 169.09C138.78 162.61 152.15 151.64 161.56 137.56C170.97 123.48 175.99 106.93 175.99 90C175.96 67.3 166.94 45.54 150.89 29.49C134.84 13.44 113.08 4.41001 90.38 4.39001Z" fill="url(#paint0_linear_8_419)"/>
<path d="M147.55 77.23V62.74C147.55 60.21 144.72 58.71 137.79 57.58C132.48 56.71 125.44 56.23 117.96 56.23C110.48 56.23 103.45 56.71 98.1299 57.58C91.1999 58.71 88.3699 60.21 88.3699 62.74V77.23C88.3699 78.63 89.24 79.72 91.2 80.6C90.9 80.74 90.6199 80.88 90.3699 81.03C88.8099 80.12 86.2999 79.42 82.6099 78.81C77.2999 77.94 70.26 77.46 62.78 77.46C55.3 77.46 48.27 77.94 42.95 78.81C36.02 79.94 33.1899 81.44 33.1899 83.97V98.46C33.1899 99.92 34.14 101.04 36.27 101.94C34.14 102.84 33.1899 103.95 33.1899 105.42V119.92C33.1899 122.45 36.02 123.95 42.95 125.08C47.46 125.82 53.2299 126.27 59.4399 126.39V128.93C59.4399 131.46 62.27 132.96 69.2 134.09C74.51 134.96 81.55 135.44 89.03 135.44C96.51 135.44 103.54 134.96 108.86 134.09C115.79 132.96 118.62 131.46 118.62 128.93V126.42C125.84 126.39 132.63 125.92 137.78 125.08C144.71 123.95 147.54 122.45 147.54 119.92V105.42C147.54 103.96 146.59 102.84 144.46 101.94C146.59 101.04 147.54 99.92 147.54 98.46V83.97C147.54 82.57 146.67 81.48 144.71 80.6C146.67 79.72 147.54 78.63 147.54 77.23H147.55ZM143.55 66.57V76.72C142.69 77.27 140.24 77.98 136.26 78.58C135.89 78.63 135.51 78.69 135.12 78.74V68.27C136.05 68.15 136.95 68.03 137.8 67.89C138.33 67.8 138.84 67.71 139.32 67.62C139.46 67.59 139.59 67.57 139.72 67.54C140.09 67.47 140.45 67.39 140.79 67.32C140.9 67.3 141 67.27 141.11 67.25C141.54 67.15 141.94 67.05 142.32 66.94C142.38 66.92 142.44 66.9 142.5 66.89C142.82 66.8 143.12 66.71 143.41 66.61C143.46 66.59 143.51 66.58 143.55 66.57ZM143.55 87.8V97.95C142.64 98.53 139.94 99.3 135.5 99.92C135.38 99.94 135.24 99.95 135.12 99.97V89.5C136.05 89.38 136.95 89.26 137.8 89.12C138.33 89.03 138.83 88.94 139.31 88.85C139.46 88.82 139.6 88.79 139.74 88.77C140.09 88.7 140.43 88.63 140.76 88.56C140.88 88.53 141 88.51 141.12 88.48C141.54 88.38 141.93 88.28 142.31 88.18C142.39 88.16 142.46 88.13 142.54 88.11C142.84 88.02 143.12 87.94 143.39 87.85C143.44 87.83 143.5 87.82 143.56 87.8H143.55ZM143.55 109.25V119.4C142.62 120 139.78 120.8 135.12 121.42V110.95C136.05 110.83 136.95 110.71 137.8 110.57C138.33 110.48 138.83 110.39 139.32 110.3C139.46 110.27 139.59 110.25 139.73 110.22C140.1 110.15 140.46 110.07 140.8 110C140.91 109.98 141.02 109.95 141.12 109.93C141.54 109.83 141.95 109.73 142.33 109.62C142.4 109.6 142.46 109.58 142.52 109.56C142.83 109.47 143.13 109.38 143.41 109.29C143.46 109.27 143.52 109.26 143.56 109.24L143.55 109.25ZM114.63 128.41C113.7 129.01 110.86 129.81 106.2 130.43V119.96C107.13 119.84 108.03 119.72 108.88 119.58C109.41 119.49 109.91 119.4 110.4 119.31C110.54 119.28 110.67 119.26 110.81 119.23C111.18 119.16 111.54 119.08 111.88 119.01C111.99 118.99 112.1 118.96 112.2 118.94C112.62 118.84 113.03 118.74 113.41 118.63C113.48 118.61 113.54 118.59 113.6 118.57C113.91 118.48 114.21 118.39 114.49 118.3C114.54 118.28 114.6 118.27 114.64 118.25V128.4L114.63 128.41ZM71.7199 130.41C67.1599 129.79 64.38 129 63.46 128.41V118.26C63.46 118.26 63.5599 118.29 63.6099 118.31C63.8899 118.4 64.1899 118.5 64.4999 118.58C64.5699 118.6 64.6299 118.62 64.6899 118.64C64.7199 118.64 64.7599 118.66 64.7999 118.67C65.1499 118.77 65.51 118.86 65.9 118.95C66 118.97 66.1099 119 66.2199 119.02C66.5599 119.1 66.9199 119.17 67.2899 119.24C67.4299 119.27 67.56 119.29 67.7 119.32C68.19 119.41 68.6899 119.5 69.2199 119.59C70.0099 119.72 70.8599 119.84 71.7299 119.95V130.42L71.7199 130.41ZM131.11 99.45V100.42C128.2 100.68 124.81 100.88 120.93 100.94C120.62 100.94 120.29 100.94 119.97 100.95V90.45C123.91 90.4 127.69 90.23 131.12 89.93V99.44L131.11 99.45ZM115.96 98.93V100.95C115.64 100.95 115.31 100.95 115 100.94C111.04 100.87 107.59 100.67 104.64 100.4V89.92C108.11 90.23 111.96 90.41 115.96 90.46V98.94V98.93ZM100.64 99.9V99.95C100.57 99.95 100.5 99.93 100.43 99.92C95.9899 99.3 93.2899 98.53 92.3799 97.95V87.8C92.4299 87.82 92.4899 87.83 92.5499 87.85C92.8199 87.94 93.1 88.03 93.4 88.11C93.48 88.13 93.5499 88.16 93.6299 88.18C93.9999 88.28 94.3999 88.38 94.8199 88.48C94.9399 88.51 95.0599 88.53 95.1799 88.56C95.5099 88.63 95.85 88.7 96.2 88.77C96.34 88.8 96.4899 88.83 96.6299 88.85C97.1099 88.94 97.61 89.03 98.14 89.12C98.93 89.25 99.78 89.37 100.65 89.48V99.89L100.64 99.9ZM113.46 114.44C113.39 114.46 113.31 114.49 113.24 114.51C113.07 114.57 112.9 114.62 112.71 114.68C112.6 114.71 112.49 114.74 112.37 114.77C112.19 114.82 112 114.87 111.8 114.92C111.67 114.95 111.54 114.99 111.4 115.02C111.18 115.07 110.95 115.12 110.71 115.18C110.57 115.21 110.44 115.24 110.3 115.27C109.95 115.34 109.57 115.41 109.18 115.49C109.1 115.51 109.01 115.52 108.92 115.54C108.52 115.61 108.1 115.68 107.67 115.75C107.5 115.78 107.31 115.8 107.13 115.83C106.8 115.88 106.46 115.93 106.11 115.97C105.9 116 105.69 116.03 105.47 116.05C105.2 116.08 104.93 116.11 104.65 116.15C104.55 116.16 104.46 116.17 104.36 116.18C104.32 116.18 104.29 116.18 104.25 116.19C104.23 116.19 104.21 116.19 104.19 116.19C104.02 116.19 103.86 116.22 103.71 116.26C103.71 116.26 103.71 116.26 103.7 116.26C103.36 116.3 103 116.33 102.65 116.36C102.54 116.37 102.44 116.38 102.33 116.39C102.15 116.41 101.98 116.42 101.8 116.44C101.43 116.47 101.04 116.5 100.66 116.53C100.36 116.55 100.08 116.58 99.78 116.6C99.6 116.61 99.4099 116.62 99.2299 116.63C98.6899 116.67 98.15 116.7 97.58 116.73C97.31 116.74 97.04 116.76 96.77 116.77C96.26 116.79 95.7299 116.82 95.1899 116.84C94.8999 116.85 94.6099 116.86 94.3099 116.87C93.7399 116.89 93.1599 116.9 92.5699 116.91C92.5099 116.91 92.46 116.91 92.4 116.91C92.18 116.91 91.9699 116.91 91.7499 116.92C91.3099 116.92 90.85 116.92 90.4 116.93C89.95 116.93 89.5199 116.94 89.0599 116.94C88.8299 116.94 88.62 116.94 88.4 116.94C87.71 116.94 87.0299 116.94 86.3799 116.92C86.0999 116.92 85.8299 116.91 85.5599 116.9C84.9699 116.89 84.3899 116.87 83.8199 116.86C83.5199 116.86 83.2299 116.84 82.9399 116.83C82.3999 116.81 81.8799 116.79 81.3599 116.76C81.0899 116.75 80.8199 116.74 80.5599 116.72C80.3599 116.71 80.1699 116.7 79.9799 116.69C79.6199 116.67 79.25 116.65 78.9 116.63C78.72 116.62 78.5299 116.61 78.3599 116.6C78.2299 116.6 78.1099 116.58 77.9799 116.57C77.4199 116.53 76.86 116.49 76.33 116.44C76.21 116.43 76.0999 116.42 75.9799 116.41C75.9199 116.41 75.8699 116.4 75.8099 116.39C75.3299 116.35 74.8699 116.3 74.4199 116.25C74.1999 116.23 73.98 116.2 73.77 116.18C73.39 116.14 73.01 116.09 72.65 116.05C72.44 116.02 72.22 116 72.02 115.97C71.66 115.92 71.3199 115.87 70.9799 115.82C70.8099 115.79 70.62 115.77 70.46 115.74C70.01 115.67 69.5899 115.6 69.1799 115.53C69.1099 115.52 69.0399 115.51 68.9699 115.49C68.5699 115.42 68.1899 115.34 67.8199 115.27C67.6799 115.24 67.5499 115.21 67.4199 115.18C67.1799 115.13 66.9399 115.07 66.7199 115.02C66.5799 114.99 66.4499 114.96 66.3199 114.92C66.1199 114.87 65.9299 114.82 65.7399 114.77C65.6299 114.74 65.5099 114.71 65.4099 114.68C65.2199 114.62 65.0399 114.57 64.8699 114.51C64.8599 114.51 64.84 114.51 64.83 114.5C64.78 114.48 64.7099 114.46 64.6599 114.44C64.6499 114.44 64.6399 114.44 64.6299 114.43C64.6899 114.41 64.77 114.39 64.83 114.36C66.81 113.7 70.5399 112.95 75.9799 112.46C76.6199 112.4 77.2899 112.35 77.9799 112.3C78.6299 112.25 79.2899 112.21 79.9799 112.17C82.5099 112.03 85.3199 111.94 88.4099 111.93C88.6299 111.93 88.8499 111.93 89.0699 111.93C89.5299 111.93 89.9599 111.93 90.4099 111.93C91.0899 111.93 91.7599 111.94 92.4099 111.96C95.4699 112.02 98.2299 112.15 100.67 112.34C101.36 112.39 102.03 112.45 102.67 112.51C103.36 112.58 104.03 112.65 104.67 112.72C108.93 113.21 111.89 113.85 113.51 114.43C113.5 114.43 113.49 114.43 113.48 114.44H113.46ZM49.4799 100.41V89.93C52.9499 90.24 56.7999 90.42 60.7999 90.47V100.97C60.4799 100.97 60.15 100.97 59.84 100.96C55.88 100.89 52.4299 100.69 49.4799 100.42V100.41ZM64.7999 100.93V90.46C68.7399 90.41 72.52 90.24 75.95 89.94V100.42C73.04 100.68 69.65 100.88 65.77 100.94C65.46 100.94 65.1299 100.94 64.8099 100.95V100.93H64.7999ZM79.95 99.88V89.51C80.88 89.39 81.7799 89.27 82.6299 89.13C83.1599 89.04 83.66 88.95 84.14 88.86C84.29 88.83 84.4299 88.8 84.5699 88.78C84.9199 88.71 85.26 88.64 85.59 88.57C85.71 88.54 85.83 88.52 85.95 88.49C86.3699 88.39 86.76 88.29 87.14 88.19C87.22 88.17 87.2899 88.14 87.3699 88.12C87.6699 88.03 87.9499 87.95 88.2199 87.86C88.2699 87.84 88.33 87.83 88.39 87.81V97.96C87.48 98.54 84.78 99.31 80.34 99.93C80.22 99.95 80.08 99.96 79.96 99.98V99.88H79.95ZM87.2499 83.97C87.2499 83.97 87.23 83.97 87.21 83.98C87.16 84 87.0899 84.02 87.0399 84.04C86.8599 84.1 86.67 84.16 86.46 84.22C86.36 84.25 86.2599 84.28 86.1599 84.3C85.9699 84.35 85.7599 84.41 85.5399 84.46C85.4199 84.49 85.2999 84.52 85.1799 84.55C84.9399 84.61 84.6899 84.66 84.4299 84.72C84.3099 84.75 84.1899 84.77 84.0699 84.8C83.6799 84.88 83.2599 84.96 82.8199 85.04C82.3799 85.12 81.9099 85.2 81.4199 85.27C81.2599 85.29 81.0999 85.32 80.9299 85.34C80.5799 85.39 80.2199 85.44 79.8499 85.49C79.6499 85.52 79.4499 85.54 79.2499 85.57C78.8799 85.62 78.4999 85.66 78.0999 85.71C78.0699 85.71 78.0399 85.71 78.0099 85.72C77.9899 85.72 77.97 85.72 77.96 85.72C77.79 85.72 77.6399 85.75 77.4799 85.78C77.0199 85.83 76.5399 85.87 76.0499 85.92C75.8899 85.93 75.7399 85.95 75.5699 85.96C74.9099 86.02 74.23 86.07 73.53 86.12C73.36 86.13 73.19 86.14 73.02 86.15C72.47 86.19 71.91 86.22 71.33 86.25C71.07 86.26 70.8 86.28 70.53 86.29C70.01 86.31 69.49 86.34 68.95 86.36C68.66 86.37 68.3599 86.38 68.0599 86.39C67.4899 86.41 66.91 86.42 66.33 86.43C66.05 86.43 65.7799 86.44 65.4999 86.45C64.6299 86.46 63.7399 86.47 62.8099 86.47C61.8799 86.47 60.9999 86.47 60.1199 86.45C59.8399 86.45 59.5699 86.44 59.2899 86.43C58.6999 86.42 58.1199 86.4 57.5599 86.39C57.2599 86.39 56.9699 86.37 56.6699 86.36C56.1299 86.34 55.61 86.32 55.09 86.29C54.82 86.28 54.5499 86.27 54.2899 86.25C53.7099 86.22 53.1499 86.19 52.6099 86.15C52.4399 86.14 52.2599 86.13 52.0999 86.12C51.3899 86.07 50.7099 86.02 50.0599 85.96C49.8999 85.95 49.74 85.93 49.58 85.92C49.09 85.88 48.61 85.83 48.15 85.78C47.93 85.76 47.73 85.73 47.52 85.71C47.13 85.67 46.7399 85.62 46.3699 85.57C46.1699 85.54 45.97 85.52 45.77 85.49C45.4 85.44 45.0399 85.39 44.6899 85.34C44.5299 85.32 44.36 85.29 44.2 85.27C43.71 85.19 43.2399 85.12 42.7999 85.04C42.3599 84.96 41.9399 84.88 41.5499 84.8C41.4199 84.77 41.3099 84.75 41.1899 84.72C40.9299 84.66 40.6799 84.61 40.4399 84.55C40.3199 84.52 40.2 84.49 40.08 84.46C39.86 84.41 39.66 84.35 39.46 84.3C39.36 84.27 39.2499 84.24 39.1599 84.22C38.9499 84.16 38.76 84.1 38.58 84.04C38.52 84.02 38.4599 84 38.4099 83.98C38.3999 83.98 38.3899 83.98 38.3699 83.97C41.5299 82.86 49.7399 81.47 62.8099 81.47C75.8799 81.47 84.0899 82.86 87.2499 83.97ZM37.2199 87.8C37.2699 87.82 37.33 87.83 37.39 87.85C37.66 87.94 37.9399 88.03 38.2399 88.11C38.3199 88.13 38.3899 88.16 38.4699 88.18C38.8399 88.28 39.2399 88.38 39.6599 88.48C39.7799 88.51 39.9 88.53 40.02 88.56C40.35 88.63 40.6899 88.7 41.0399 88.77C41.1799 88.8 41.3299 88.83 41.4699 88.85C41.9499 88.94 42.4499 89.03 42.9799 89.12C43.7699 89.25 44.6199 89.37 45.4799 89.48V99.95C45.4099 99.95 45.34 99.93 45.27 99.92C40.83 99.3 38.1299 98.53 37.2199 97.95V87.8ZM45.27 103.96C50.24 104.61 56.3599 104.97 62.7999 104.97C69.2399 104.97 75.36 104.61 80.33 103.96C83.56 104.41 85.8699 104.94 87.2399 105.42C87.2299 105.42 87.22 105.42 87.21 105.43C87.14 105.45 87.0699 105.48 86.9999 105.5C86.8299 105.56 86.66 105.61 86.46 105.67C86.35 105.7 86.2399 105.73 86.1299 105.76C85.9499 105.81 85.7499 105.86 85.5499 105.91C85.4199 105.94 85.2899 105.97 85.1599 106.01C84.9399 106.06 84.7 106.12 84.45 106.17C84.32 106.2 84.1899 106.23 84.0499 106.26C83.6799 106.34 83.2899 106.41 82.8799 106.49C82.8299 106.49 82.7699 106.51 82.7199 106.52C82.3099 106.59 81.8699 106.66 81.4199 106.74C81.2499 106.77 81.08 106.79 80.9 106.82C80.56 106.87 80.2199 106.92 79.8599 106.97C79.6599 107 79.4499 107.02 79.2299 107.05C78.8699 107.1 78.4899 107.14 78.1099 107.18C78.0799 107.18 78.0499 107.18 78.0099 107.19C77.9899 107.19 77.97 107.19 77.95 107.19C77.78 107.19 77.6199 107.22 77.4699 107.26C77.0199 107.31 76.5499 107.35 76.0699 107.4C75.8999 107.42 75.7399 107.43 75.5599 107.45C74.9099 107.51 74.23 107.56 73.53 107.61C73.35 107.62 73.1699 107.63 72.9899 107.64C72.4499 107.68 71.9 107.71 71.33 107.74C71.07 107.75 70.8 107.77 70.53 107.78C70.01 107.8 69.49 107.83 68.95 107.85C68.66 107.86 68.3699 107.87 68.0699 107.88C67.4999 107.9 66.92 107.91 66.33 107.92C66.05 107.92 65.7899 107.93 65.5099 107.94C64.6399 107.95 63.7499 107.96 62.8199 107.96C61.8899 107.96 61.01 107.96 60.14 107.94C59.86 107.94 59.5899 107.93 59.3199 107.92C58.7299 107.91 58.15 107.89 57.58 107.88C57.28 107.88 56.99 107.86 56.7 107.85C56.16 107.83 55.6399 107.81 55.1199 107.78C54.8499 107.77 54.5799 107.76 54.3199 107.74C53.7499 107.71 53.1999 107.68 52.6599 107.64C52.4799 107.63 52.2999 107.62 52.1199 107.61C51.4199 107.56 50.74 107.51 50.09 107.45C49.92 107.43 49.75 107.42 49.58 107.4C49.1 107.36 48.6299 107.31 48.1799 107.26C47.9599 107.24 47.75 107.21 47.53 107.19C47.15 107.15 46.7699 107.1 46.4099 107.06C46.1999 107.03 45.99 107.01 45.78 106.98C45.42 106.93 45.0699 106.88 44.7399 106.83C44.5699 106.8 44.3899 106.78 44.2199 106.75C43.7699 106.68 43.3299 106.61 42.9199 106.53C42.8699 106.53 42.8099 106.51 42.7599 106.5C42.3499 106.43 41.96 106.35 41.59 106.27C41.45 106.24 41.3299 106.21 41.1899 106.18C40.9399 106.13 40.6999 106.07 40.4799 106.02C40.3399 105.99 40.21 105.96 40.09 105.92C39.89 105.87 39.6899 105.82 39.5099 105.77C39.3999 105.74 39.2799 105.71 39.1799 105.68C38.9899 105.62 38.81 105.57 38.64 105.51C38.57 105.49 38.4899 105.46 38.4299 105.44C38.4199 105.44 38.41 105.44 38.4 105.43C39.77 104.95 42.0799 104.42 45.3099 103.97L45.27 103.96ZM37.2199 109.25C37.2199 109.25 37.3199 109.28 37.3699 109.3C37.6499 109.39 37.9499 109.49 38.2599 109.57C38.3299 109.59 38.39 109.61 38.45 109.63C38.83 109.73 39.2299 109.84 39.6599 109.94C39.7599 109.96 39.8699 109.99 39.9799 110.01C40.3199 110.09 40.6799 110.16 41.0499 110.23C41.1899 110.26 41.32 110.28 41.46 110.31C41.95 110.4 42.4499 110.49 42.9799 110.58C43.7699 110.71 44.6199 110.83 45.4799 110.94V121.41C40.9199 120.79 38.1399 120 37.2199 119.41V109.26V109.25ZM49.4799 111.37C52.9499 111.68 56.7999 111.86 60.7999 111.91V111.93C59.8899 112.64 59.46 113.46 59.46 114.43V122.39C55.66 122.32 52.3299 122.12 49.4799 121.86V111.38V111.37ZM75.7199 130.86V120.38C75.7999 120.38 75.8699 120.39 75.9399 120.4C76.5899 120.46 77.2599 120.51 77.9399 120.56C78.5999 120.61 79.2599 120.65 79.9399 120.68C81.1299 120.75 82.34 120.8 83.58 120.84C84.71 120.88 85.8699 120.9 87.0399 120.91V131.41C82.6699 131.36 78.8999 131.16 75.7199 130.86ZM91.0499 131.41V120.91C91.0499 120.91 91.07 120.91 91.08 120.91C91.46 120.91 91.8399 120.91 92.2199 120.89C93.7599 120.86 95.2699 120.81 96.7499 120.74C98.0899 120.68 99.39 120.6 100.65 120.5C101.17 120.46 101.69 120.42 102.2 120.38V130.86C99.06 131.15 95.3399 131.34 91.0499 131.39V131.41ZM119.96 122.4V111.91C123.9 111.86 127.68 111.69 131.11 111.39V121.87C127.96 122.16 124.25 122.35 119.96 122.4ZM142.38 105.43C142.32 105.45 142.24 105.48 142.17 105.5C142 105.56 141.82 105.61 141.63 105.67C141.53 105.7 141.41 105.73 141.3 105.76C141.11 105.81 140.92 105.86 140.72 105.91C140.59 105.94 140.47 105.97 140.33 106C140.1 106.05 139.86 106.11 139.61 106.16C139.48 106.19 139.36 106.22 139.22 106.24C138.84 106.32 138.45 106.39 138.02 106.47C137.98 106.47 137.94 106.48 137.9 106.49C137.48 106.56 137.04 106.64 136.57 106.71C136.41 106.74 136.23 106.76 136.07 106.78C135.73 106.83 135.38 106.88 135.01 106.93C134.81 106.96 134.6 106.98 134.4 107.01C134.03 107.06 133.65 107.1 133.26 107.14C133.23 107.14 133.2 107.14 133.17 107.14C133.15 107.14 133.13 107.14 133.11 107.14C132.94 107.14 132.78 107.17 132.63 107.21C132.17 107.26 131.7 107.3 131.21 107.35C131.04 107.37 130.89 107.38 130.72 107.4C130.06 107.46 129.39 107.51 128.68 107.56C128.51 107.57 128.32 107.58 128.15 107.59C127.6 107.63 127.05 107.66 126.48 107.69C126.22 107.7 125.95 107.72 125.68 107.73C125.16 107.75 124.63 107.78 124.09 107.8C123.8 107.81 123.51 107.82 123.21 107.83C122.64 107.85 122.06 107.86 121.47 107.87C121.2 107.87 120.93 107.88 120.65 107.89C119.78 107.9 118.89 107.91 117.96 107.91C117.03 107.91 116.15 107.91 115.27 107.89C114.99 107.89 114.72 107.88 114.45 107.87C113.86 107.86 113.28 107.84 112.71 107.83C112.41 107.83 112.12 107.81 111.83 107.8C111.29 107.78 110.77 107.76 110.25 107.73C109.98 107.72 109.71 107.71 109.45 107.69C108.88 107.66 108.33 107.63 107.79 107.59C107.61 107.58 107.43 107.57 107.25 107.56C106.55 107.51 105.87 107.46 105.22 107.4C105.05 107.38 104.88 107.37 104.71 107.35C104.23 107.31 103.76 107.26 103.31 107.21C103.09 107.19 102.88 107.16 102.66 107.14C102.28 107.1 101.9 107.05 101.54 107.01C101.33 106.98 101.12 106.96 100.91 106.93C100.55 106.88 100.2 106.83 99.8699 106.78C99.6999 106.75 99.5199 106.73 99.3499 106.7C98.8999 106.63 98.4599 106.56 98.0499 106.48C97.9999 106.48 97.94 106.46 97.89 106.45C97.4799 106.38 97.0899 106.3 96.7199 106.22C96.5799 106.19 96.4599 106.16 96.3199 106.13C96.0699 106.08 95.8299 106.02 95.6099 105.97C95.4699 105.94 95.3399 105.91 95.2199 105.87C95.0199 105.82 94.82 105.77 94.64 105.72C94.53 105.69 94.4099 105.66 94.3099 105.63C94.1199 105.57 93.94 105.52 93.77 105.46C93.7 105.44 93.6199 105.41 93.5599 105.39C93.5499 105.39 93.54 105.39 93.53 105.38C94.9 104.9 97.2099 104.37 100.44 103.92C105.41 104.57 111.53 104.93 117.97 104.93C124.41 104.93 130.53 104.57 135.5 103.92C138.73 104.37 141.05 104.9 142.41 105.38C142.4 105.38 142.39 105.38 142.38 105.39V105.43ZM142.37 83.98C142.32 84 142.25 84.02 142.2 84.04C142.02 84.1 141.83 84.16 141.62 84.22C141.52 84.25 141.42 84.28 141.32 84.3C141.13 84.35 140.92 84.41 140.71 84.46C140.59 84.49 140.47 84.52 140.35 84.55C140.11 84.61 139.86 84.66 139.6 84.72C139.48 84.75 139.36 84.77 139.23 84.8C138.84 84.88 138.42 84.96 137.98 85.04C137.98 85.04 137.97 85.04 137.96 85.04C137.52 85.12 137.06 85.19 136.58 85.27C136.42 85.29 136.25 85.32 136.09 85.34C135.74 85.39 135.39 85.44 135.02 85.49C134.82 85.52 134.62 85.54 134.41 85.57C134.04 85.62 133.66 85.66 133.27 85.7C133.24 85.7 133.21 85.7 133.17 85.71C133.15 85.71 133.13 85.71 133.12 85.71C132.95 85.71 132.79 85.74 132.64 85.77C132.64 85.77 132.64 85.77 132.63 85.77C132.17 85.82 131.7 85.86 131.21 85.91C131.04 85.93 130.89 85.94 130.72 85.96C130.06 86.02 129.38 86.07 128.68 86.12C128.51 86.13 128.33 86.14 128.16 86.15C127.61 86.19 127.06 86.22 126.48 86.25C126.22 86.26 125.95 86.28 125.68 86.29C125.17 86.31 124.64 86.34 124.11 86.36C123.82 86.37 123.52 86.38 123.22 86.39C122.66 86.41 122.08 86.42 121.49 86.43C121.21 86.43 120.94 86.44 120.66 86.45C119.79 86.46 118.9 86.47 117.97 86.47C117.04 86.47 116.16 86.47 115.28 86.45C115 86.45 114.73 86.44 114.45 86.43C113.86 86.42 113.28 86.4 112.72 86.39C112.42 86.39 112.13 86.37 111.83 86.36C111.29 86.34 110.77 86.32 110.25 86.29C109.98 86.28 109.71 86.27 109.45 86.25C108.87 86.22 108.31 86.19 107.76 86.15C107.59 86.14 107.41 86.13 107.25 86.12C106.54 86.07 105.86 86.02 105.21 85.96C105.05 85.95 104.89 85.93 104.73 85.92C104.24 85.88 103.76 85.83 103.3 85.78C103.08 85.76 102.88 85.73 102.67 85.71C102.28 85.67 101.89 85.62 101.52 85.57C101.32 85.54 101.12 85.52 100.92 85.49C100.55 85.44 100.19 85.39 99.84 85.34C99.68 85.32 99.5099 85.29 99.3499 85.27C98.8599 85.19 98.39 85.12 97.95 85.04C97.5099 84.96 97.09 84.88 96.7 84.8C96.57 84.77 96.46 84.75 96.34 84.72C96.08 84.66 95.83 84.61 95.59 84.55C95.47 84.52 95.3499 84.49 95.2299 84.46C95.0099 84.41 94.8099 84.35 94.6099 84.3C94.5099 84.27 94.3999 84.24 94.3099 84.22C94.0999 84.16 93.9099 84.1 93.7299 84.04C93.6699 84.02 93.6099 84 93.5599 83.98C93.5499 83.98 93.54 83.98 93.52 83.97C94.78 83.53 96.8399 83.04 99.6699 82.62C104.77 83.34 111.18 83.74 117.96 83.74C124.74 83.74 131.15 83.34 136.25 82.62C139.08 83.04 141.15 83.53 142.4 83.97C142.39 83.97 142.38 83.97 142.36 83.98H142.37ZM131.11 78V79.19C129.18 79.37 127.03 79.51 124.66 79.6C123.18 79.66 121.61 79.7 119.96 79.72V69.22C123.9 69.17 127.68 69 131.11 68.7V78ZM104.64 79.17V68.69C108.11 69 111.96 69.18 115.96 69.23V79.73C114.31 79.71 112.74 79.67 111.26 79.61C108.82 79.51 106.62 79.36 104.64 79.18V79.17ZM142.36 62.75C142.36 62.75 142.27 62.78 142.23 62.79C142.04 62.85 141.83 62.92 141.6 62.99C141.51 63.02 141.42 63.04 141.32 63.07C141.12 63.13 140.9 63.18 140.68 63.24C140.57 63.27 140.45 63.3 140.34 63.32C140.1 63.38 139.84 63.44 139.57 63.49C139.45 63.51 139.35 63.54 139.23 63.56C138.44 63.72 137.56 63.88 136.57 64.03C136.41 64.05 136.25 64.08 136.09 64.1C135.74 64.15 135.38 64.2 135.01 64.25C134.81 64.28 134.61 64.3 134.4 64.33C134.03 64.38 133.65 64.42 133.26 64.47C133.23 64.47 133.2 64.47 133.17 64.48C133.15 64.48 133.13 64.48 133.12 64.48C132.95 64.48 132.79 64.51 132.64 64.54C132.64 64.54 132.64 64.54 132.63 64.54C132.17 64.59 131.7 64.63 131.22 64.68C131.05 64.7 130.9 64.71 130.73 64.73C130.07 64.79 129.39 64.84 128.69 64.89C128.52 64.9 128.34 64.91 128.16 64.92C127.62 64.96 127.06 64.99 126.49 65.02C126.23 65.03 125.96 65.05 125.69 65.06C125.17 65.08 124.65 65.11 124.11 65.13C123.82 65.14 123.53 65.15 123.23 65.16C122.66 65.18 122.08 65.19 121.49 65.2C121.22 65.2 120.95 65.21 120.67 65.22C119.8 65.23 118.91 65.24 117.98 65.24C117.05 65.24 116.17 65.24 115.3 65.22C115.02 65.22 114.75 65.21 114.48 65.2C113.89 65.19 113.31 65.17 112.74 65.16C112.44 65.16 112.15 65.14 111.86 65.13C111.32 65.11 110.8 65.09 110.28 65.06C110.01 65.05 109.74 65.04 109.48 65.02C108.91 64.99 108.35 64.96 107.81 64.92C107.63 64.91 107.45 64.9 107.28 64.89C106.58 64.84 105.9 64.79 105.24 64.73C105.07 64.72 104.91 64.7 104.74 64.68C104.26 64.64 103.78 64.59 103.33 64.54C103.11 64.52 102.9 64.49 102.69 64.47C102.3 64.43 101.92 64.38 101.55 64.34C101.35 64.31 101.14 64.29 100.94 64.26C100.57 64.21 100.21 64.16 99.8599 64.11C99.6999 64.09 99.5299 64.06 99.3799 64.04C98.3999 63.89 97.5099 63.73 96.7199 63.57C96.5999 63.55 96.4899 63.52 96.3699 63.5C96.0999 63.44 95.8399 63.38 95.5999 63.33C95.4799 63.3 95.3699 63.27 95.2599 63.25C95.0299 63.19 94.8199 63.14 94.6199 63.08C94.5299 63.05 94.43 63.03 94.34 63C94.11 62.93 93.91 62.87 93.71 62.8C93.67 62.79 93.62 62.77 93.58 62.76C93.56 62.76 93.5499 62.75 93.5399 62.74C96.7099 61.63 104.91 60.24 117.98 60.24C131.05 60.24 139.26 61.63 142.42 62.74C142.4 62.74 142.39 62.75 142.38 62.76L142.36 62.75ZM92.3799 66.57C92.3799 66.57 92.48 66.6 92.52 66.61C92.81 66.71 93.1099 66.8 93.4299 66.89C93.4899 66.91 93.5499 66.93 93.6099 66.94C93.9899 67.05 94.3999 67.15 94.8199 67.25C94.9199 67.27 95.03 67.3 95.14 67.32C95.48 67.4 95.84 67.47 96.21 67.54C96.34 67.57 96.4799 67.59 96.6099 67.62C97.0999 67.71 97.5999 67.8 98.1299 67.89C98.9199 68.02 99.77 68.14 100.64 68.25V78.72C100.31 78.67 99.9799 78.63 99.6699 78.58C95.6799 77.98 93.2299 77.27 92.3799 76.72V66.57Z" fill="url(#paint1_linear_8_419)"/>
<path d="M54.78 70.66L52.48 48.44" stroke="url(#paint2_linear_8_419)" stroke-width="4" stroke-miterlimit="10" stroke-linecap="round"/>
<path d="M62.96 70.38L66.59 55.28" stroke="url(#paint3_linear_8_419)" stroke-width="4" stroke-miterlimit="10" stroke-linecap="round"/>
<path d="M71.1799 71L76.09 62.3" stroke="url(#paint4_linear_8_419)" stroke-width="4" stroke-miterlimit="10" stroke-linecap="round"/>
<path d="M46.71 71.63L41.22 57.11" stroke="url(#paint5_linear_8_419)" stroke-width="4" stroke-miterlimit="10" stroke-linecap="round"/>
<path d="M38.64 73.29L32.6699 65.26" stroke="url(#paint6_linear_8_419)" stroke-width="4" stroke-miterlimit="10" stroke-linecap="round"/>
<defs>
<linearGradient id="paint0_linear_8_419" x1="131.85" y1="175.97" x2="46.43" y2="-1.12998" gradientUnits="userSpaceOnUse">
<stop stop-color="#835342"/>
<stop offset="0.97" stop-color="#FFCAA4"/>
</linearGradient>
<linearGradient id="paint1_linear_8_419" x1="33.2199" y1="95.83" x2="147.55" y2="95.83" gradientUnits="userSpaceOnUse">
<stop stop-color="#835342"/>
<stop offset="0.97" stop-color="#FFCAA4"/>
</linearGradient>
<linearGradient id="paint2_linear_8_419" x1="46.5587" y1="56.059" x2="60.7498" y2="62.9377" gradientUnits="userSpaceOnUse">
<stop stop-color="#835342"/>
<stop offset="0.97" stop-color="#FFCAA4"/>
</linearGradient>
<linearGradient id="paint3_linear_8_419" x1="61.5018" y1="61.1795" x2="68.0888" y2="64.3723" gradientUnits="userSpaceOnUse">
<stop stop-color="#835342"/>
<stop offset="0.97" stop-color="#FFCAA4"/>
</linearGradient>
<linearGradient id="paint4_linear_8_419" x1="71.5744" y1="65.595" x2="75.7318" y2="67.6102" gradientUnits="userSpaceOnUse">
<stop stop-color="#835342"/>
<stop offset="0.97" stop-color="#FFCAA4"/>
</linearGradient>
<linearGradient id="paint5_linear_8_419" x1="37.12" y1="60.9964" x2="50.861" y2="67.6569" gradientUnits="userSpaceOnUse">
<stop stop-color="#835342"/>
<stop offset="0.97" stop-color="#FFCAA4"/>
</linearGradient>
<linearGradient id="paint6_linear_8_419" x1="29.8877" y1="66.4256" x2="41.469" y2="72.0392" gradientUnits="userSpaceOnUse">
<stop stop-color="#835342"/>
<stop offset="0.97" stop-color="#FFCAA4"/>
</linearGradient>
</defs>
</svg>
