<svg width="180" height="180" viewBox="0 0 180 180" fill="none" xmlns="http://www.w3.org/2000/svg">
<path d="M64.8391 33.0244C60.3899 33.8103 56.2976 35.9669 53.1339 39.1924C49.9703 42.4179 47.8935 46.5512 47.1938 51.0147C46.4942 55.4782 47.2066 60.0488 49.2315 64.0877C51.2564 68.1265 54.4926 71.4318 58.4878 73.5415C64.3415 76.7512 65.6196 77.7854 65.8537 82.0976L115.005 82.1853C115.132 77.9414 116.137 76.4293 121.59 73.4829C125.549 71.3496 128.746 68.038 130.739 64.0069C132.732 59.9758 133.422 55.4247 132.714 50.9841C132.005 46.5434 129.933 42.4329 126.785 39.2221C123.636 36.0112 119.567 33.859 115.141 33.0634C116.226 36.0163 116.78 39.1373 116.781 42.2829C116.8 42.5816 116.759 42.8811 116.658 43.163C116.558 43.4449 116.401 43.7031 116.196 43.9217C115.992 44.1402 115.744 44.3145 115.47 44.4336C115.195 44.5528 114.899 44.6143 114.6 44.6143C114.301 44.6143 114.005 44.5528 113.73 44.4336C113.456 44.3145 113.208 44.1402 113.004 43.9217C112.8 43.7031 112.642 43.4449 112.542 43.163C112.441 42.8811 112.4 42.5816 112.42 42.2829C112.42 36.3317 110.055 30.6243 105.847 26.4161C101.639 22.208 95.9317 19.8439 89.9805 19.8439C84.0293 19.8439 78.3219 22.208 74.1138 26.4161C69.9056 30.6243 67.5415 36.3317 67.5415 42.2829C67.5415 42.8625 67.3113 43.4184 66.9014 43.8282C66.4916 44.2381 65.9357 44.4683 65.3561 44.4683C64.7765 44.4683 64.2207 44.2381 63.8108 43.8282C63.401 43.4184 63.1708 42.8625 63.1708 42.2829C63.1686 39.1371 63.7235 36.0157 64.8098 33.0634L64.8391 33.0244ZM65.9122 86.4293V97.9805L115.044 97.639V88.3512C115.044 87.5122 115.044 86.9463 115.044 86.5073L65.922 86.4195L65.9122 86.4293ZM112.937 28.3805C118.587 28.7269 123.971 30.906 128.271 34.5876C132.572 38.2692 135.555 43.2525 136.769 48.7821C137.982 54.3118 137.359 60.0863 134.995 65.2303C132.631 70.3743 128.655 74.6074 123.668 77.2878C119.298 79.6586 119.307 80.6634 119.385 85.5024C119.385 86.6146 119.385 87.8439 119.385 88.3414V99.7951C119.387 100.08 119.332 100.363 119.223 100.627C119.115 100.891 118.956 101.131 118.755 101.333C118.553 101.535 118.314 101.695 118.051 101.805C117.787 101.914 117.505 101.971 117.22 101.971L63.9123 102.341H63.6976C63.118 102.341 62.5622 102.111 62.1523 101.701C61.7425 101.292 61.5122 100.736 61.5122 100.156V88.3414C61.5122 87.7268 61.5122 87.5707 61.5122 86.2927C61.5122 80.5561 61.5122 80.1561 56.3708 77.3268C51.3653 74.6614 47.3672 70.4341 44.9846 65.288C42.602 60.1418 41.9652 54.3584 43.1711 48.8171C44.3769 43.2758 47.3595 38.28 51.6651 34.5894C55.9708 30.8987 61.3639 28.7151 67.0244 28.3707C69.41 24.4244 72.7737 21.1607 76.7902 18.8953C80.8067 16.63 85.3399 15.4397 89.9512 15.4397C94.5625 15.4397 99.0958 16.63 103.112 18.8953C107.129 21.1607 110.493 24.4244 112.878 28.3707L112.937 28.3805Z" fill="url(#paint0_linear_23_86)"/>
<path d="M90 180C72.1997 180 54.7991 174.722 39.9987 164.832C25.1983 154.943 13.6628 140.887 6.85087 124.442C0.0389862 107.996 -1.7433 89.9002 1.72937 72.4419C5.20204 54.9836 13.7737 38.9471 26.3604 26.3604C38.9472 13.7737 54.9836 5.20204 72.4419 1.72938C89.9002 -1.74329 107.996 0.0389643 124.442 6.85085C140.887 13.6627 154.943 25.1983 164.832 39.9987C174.722 54.7991 180 72.1997 180 90C179.974 113.862 170.484 136.738 153.611 153.611C136.738 170.484 113.862 179.974 90 180ZM90 4.39027C73.068 4.39027 56.5163 9.41123 42.4378 18.8181C28.3594 28.2251 17.3865 41.5955 10.9069 57.2386C4.42734 72.8817 2.73199 90.095 6.03526 106.702C9.33853 123.308 17.4921 138.563 29.4648 150.535C41.4375 162.508 56.6917 170.662 73.2984 173.965C89.9051 177.268 107.118 175.573 122.761 169.093C138.405 162.614 151.775 151.641 161.182 137.562C170.589 123.484 175.61 106.932 175.61 90C175.584 67.3028 166.556 45.5426 150.507 29.4933C134.457 13.4439 112.697 4.41609 90 4.39027Z" fill="url(#paint1_linear_23_86)"/>
<path d="M63.2196 112.078C51.0049 105.668 38.6049 106.02 34.9952 112.898C31.3854 119.776 38.1269 130.185 50.3513 136.595C59.0732 141.18 67.9122 142.302 73.522 140.078L108.263 158.312C108.979 158.69 109.762 158.923 110.568 158.999C111.373 159.074 112.186 158.99 112.959 158.751C113.733 158.513 114.451 158.124 115.074 157.608C115.697 157.091 116.212 156.457 116.59 155.741C116.968 155.026 117.202 154.243 117.277 153.437C117.352 152.631 117.268 151.819 117.029 151.046C116.791 150.272 116.402 149.554 115.886 148.931C115.369 148.308 114.735 147.793 114.02 147.415L79.2488 129.151C77.922 123.298 71.9415 116.663 63.2196 112.078ZM61.7952 114.8C69.6879 118.956 75.3171 125.161 76.322 130.156C75.4957 129.339 74.6262 128.567 73.7171 127.844C64.8377 121.09 54.8928 115.867 44.2927 112.39C43.1817 112.049 42.0512 111.776 40.9074 111.571C45.5903 109.551 53.8927 110.654 61.7952 114.8ZM42.5952 119.083C39.4537 116.654 38.2537 115.112 37.9025 114.42C38.6635 114.322 40.6147 114.42 44.4001 115.639C53.9111 118.935 62.8729 123.641 70.9854 129.6C74.1269 132.029 75.3269 133.571 75.6781 134.254C74.9074 134.361 72.9659 134.254 69.1708 133.044C64.4096 131.433 59.7891 129.433 55.3561 127.063C50.8876 124.763 46.619 122.094 42.5952 119.083ZM51.7854 133.873C43.883 129.727 38.2537 123.522 37.2586 118.517C38.0792 119.339 38.9456 120.115 39.8537 120.839C48.7444 127.58 58.6904 132.802 69.2878 136.293C70.4013 136.624 71.5313 136.898 72.6732 137.112C67.9805 139.132 59.6781 138.02 51.7854 133.873ZM114 154.361C113.586 155.091 112.901 155.627 112.093 155.854C111.285 156.08 110.421 155.978 109.688 155.571L83.961 142.059L86.8196 136.615L112.556 150.127C112.932 150.309 113.269 150.564 113.546 150.877C113.824 151.189 114.037 151.554 114.173 151.949C114.309 152.345 114.365 152.763 114.339 153.18C114.313 153.597 114.204 154.005 114.02 154.38L114 154.361ZM84.0976 135.2L81.2391 140.654L76.6342 138.234C78.2461 136.846 79.2683 134.896 79.4927 132.78L84.0976 135.2Z" fill="url(#paint2_linear_23_86)"/>
<path d="M144.585 126.146C144.27 127.108 143.586 127.904 142.683 128.361L124.302 137.59C123.834 137.821 123.324 137.955 122.803 137.985C122.282 138.016 121.76 137.941 121.268 137.766L109.395 134.029L107.249 129.766L111.346 118C111.5 117.502 111.752 117.04 112.087 116.642C112.422 116.243 112.834 115.915 113.298 115.678L131.678 106.449C132.582 106 133.626 105.927 134.584 106.245C135.541 106.563 136.334 107.246 136.79 108.146L144.38 123.239C144.831 124.143 144.905 125.188 144.585 126.146ZM147.054 121.902L139.473 106.8C138.658 105.191 137.239 103.969 135.526 103.403C133.813 102.836 131.946 102.97 130.332 103.776L111.951 113.005C111.125 113.421 110.392 114 109.797 114.708C109.202 115.416 108.756 116.237 108.488 117.122L104.351 129.005L93.9415 133.941L97.1122 135.776L105.024 132.029L106.263 134.497L100.361 137.649L103.405 139.415L108.283 136.819L120.254 140.585C121.13 140.906 122.062 141.043 122.993 140.99C123.925 140.936 124.835 140.692 125.668 140.273L144.049 131.034C145.656 130.219 146.875 128.802 147.442 127.091C148.008 125.381 147.876 123.516 147.073 121.902H147.054ZM65.8244 156.049L63.6 151.59L78.0781 144.761L74.8976 142.946L60.9171 149.571C60.7389 149.659 60.5798 149.781 60.4489 149.931C60.3181 150.081 60.2181 150.255 60.1547 150.444C60.0912 150.632 60.0656 150.831 60.0792 151.03C60.0929 151.228 60.1455 151.422 60.2342 151.6L63.8049 158.712C63.8929 158.888 64.0149 159.046 64.1639 159.175C64.313 159.304 64.4861 159.402 64.6732 159.463C64.8266 159.518 64.9885 159.544 65.1513 159.541C65.3888 159.541 65.6228 159.484 65.8342 159.376L85.4342 148.956L82.3903 147.219L65.8244 156.049Z" fill="url(#paint3_linear_23_86)"/>
<path d="M65.1513 159.795C64.9581 159.799 64.766 159.766 64.5854 159.698C64.159 159.547 63.8088 159.235 63.6098 158.829L60.0391 151.717C59.934 151.511 59.8711 151.285 59.854 151.054C59.8369 150.823 59.866 150.591 59.9396 150.371C60.0131 150.151 60.1297 149.948 60.2824 149.774C60.4352 149.6 60.6211 149.458 60.8293 149.356L74.9268 142.683L78.6049 144.761L63.9708 151.688L65.922 155.688L82.3805 146.907L85.9317 148.927L65.9415 159.571C65.6994 159.707 65.4286 159.783 65.1513 159.795ZM74.9073 143.21L61.0439 149.776C60.7445 149.926 60.5163 150.189 60.4086 150.507C60.301 150.824 60.3224 151.171 60.4683 151.473L64.039 158.585C64.1895 158.885 64.4526 159.113 64.7708 159.219C64.9302 159.273 65.0989 159.293 65.2665 159.28C65.4342 159.267 65.5974 159.219 65.7464 159.141L84.9561 148.927L82.4195 147.473L65.7464 156.361L63.2976 151.483L63.522 151.376L77.5805 144.741L74.9073 143.21ZM122.605 141.258C121.773 141.261 120.947 141.116 120.166 140.829L108.302 137.102L103.424 139.707L99.8927 137.658L105.981 134.41L104.956 132.371L97.1512 136.068L93.4634 133.941L104.195 128.849L108.293 117.054C108.573 116.139 109.035 115.29 109.652 114.559C110.27 113.828 111.028 113.23 111.883 112.8L130.263 103.571C131.934 102.735 133.868 102.596 135.642 103.182C137.415 103.769 138.884 105.035 139.727 106.702L147.307 121.805C147.725 122.631 147.975 123.532 148.044 124.456C148.113 125.38 147.998 126.308 147.707 127.187C147.416 128.066 146.954 128.879 146.348 129.58C145.742 130.28 145.004 130.854 144.176 131.268L125.727 140.488C124.752 140.978 123.677 141.235 122.585 141.239L122.605 141.258ZM108.263 136.576L120.332 140.371C121.178 140.681 122.078 140.814 122.978 140.762C123.877 140.71 124.756 140.474 125.561 140.068L143.941 130.829C145.49 130.049 146.667 128.687 147.215 127.042C147.763 125.397 147.639 123.602 146.868 122.049L139.288 106.946C138.507 105.398 137.146 104.221 135.501 103.673C133.856 103.124 132.061 103.249 130.507 104.019L112.068 113.219C111.271 113.619 110.564 114.178 109.99 114.86C109.416 115.543 108.988 116.336 108.732 117.19L104.546 129.151L94.5073 133.961L97.161 135.493L105.171 131.707L106.624 134.634L100.888 137.698L103.434 139.171L108.263 136.576ZM122.605 138.254C122.129 138.255 121.657 138.173 121.21 138.01L109.239 134.254L107.005 129.805L111.093 117.912C111.255 117.386 111.521 116.897 111.877 116.477C112.232 116.056 112.669 115.711 113.161 115.463L131.581 106.234C132.541 105.754 133.653 105.674 134.672 106.01C135.692 106.346 136.538 107.072 137.024 108.029L144.615 123.132C145.096 124.092 145.177 125.204 144.839 126.224C144.673 126.731 144.408 127.2 144.06 127.603C143.712 128.007 143.287 128.337 142.81 128.576L124.439 137.805C123.864 138.094 123.229 138.241 122.585 138.234L122.605 138.254ZM109.59 133.854L121.356 137.551C121.818 137.72 122.31 137.794 122.801 137.767C123.293 137.74 123.774 137.614 124.215 137.395L142.576 128.176C142.993 127.967 143.365 127.677 143.669 127.324C143.974 126.971 144.206 126.56 144.351 126.117C144.501 125.671 144.561 125.201 144.528 124.732C144.494 124.263 144.368 123.805 144.156 123.385L136.576 108.293C136.151 107.447 135.408 106.804 134.51 106.506C133.611 106.208 132.632 106.279 131.785 106.702L113.405 115.941C112.972 116.163 112.588 116.469 112.275 116.841C111.961 117.213 111.725 117.643 111.581 118.107L107.512 129.815L109.59 133.854Z" fill="url(#paint4_linear_23_86)"/>
<defs>
<linearGradient id="paint0_linear_23_86" x1="123.1" y1="180" x2="37.677" y2="2.90302" gradientUnits="userSpaceOnUse">
<stop stop-color="#835342"/>
<stop offset="0.972222" stop-color="#FFCAA4"/>
</linearGradient>
<linearGradient id="paint1_linear_23_86" x1="123.1" y1="180" x2="37.677" y2="2.90302" gradientUnits="userSpaceOnUse">
<stop stop-color="#835342"/>
<stop offset="0.972222" stop-color="#FFCAA4"/>
</linearGradient>
<linearGradient id="paint2_linear_23_86" x1="123.1" y1="180" x2="37.677" y2="2.90302" gradientUnits="userSpaceOnUse">
<stop stop-color="#835342"/>
<stop offset="0.972222" stop-color="#FFCAA4"/>
</linearGradient>
<linearGradient id="paint3_linear_23_86" x1="123.1" y1="180" x2="37.677" y2="2.90302" gradientUnits="userSpaceOnUse">
<stop stop-color="#835342"/>
<stop offset="0.972222" stop-color="#FFCAA4"/>
</linearGradient>
<linearGradient id="paint4_linear_23_86" x1="123.1" y1="180" x2="37.677" y2="2.90302" gradientUnits="userSpaceOnUse">
<stop stop-color="#835342"/>
<stop offset="0.972222" stop-color="#FFCAA4"/>
</linearGradient>
</defs>
</svg>
