<svg width="180" height="180" viewBox="0 0 180 180" fill="none" xmlns="http://www.w3.org/2000/svg">
<path d="M89.9889 6.25498e-07C77.0223 0.00163741 64.2092 2.80508 52.4267 8.2184C40.6442 13.6317 30.1705 21.5271 21.7226 31.3641C13.2747 41.201 7.05216 52.7472 3.48089 65.2123C-0.0903837 77.6774 -0.92603 90.767 1.03115 103.585C2.98834 116.403 7.69213 128.647 14.8205 139.478C21.9489 150.309 31.3336 159.473 42.3321 166.34C53.3306 173.208 65.6832 177.618 78.5443 179.268C91.4054 180.919 104.471 179.771 116.848 175.903C117.462 175.718 118.077 175.513 118.682 175.308C138.92 168.503 156.08 154.725 167.096 136.435C178.112 118.145 182.267 96.5344 178.818 75.4633C175.369 54.3922 164.542 35.2335 148.269 21.4097C131.997 7.58593 111.34 -0.00251548 89.9889 6.25498e-07ZM79.4426 96.1369L72.7498 103.171H57.14L63.823 96.1369H79.4426ZM148.379 91.7076L147.921 92.6247L127.111 114.556L125.687 116.098L131.531 104.391L132.682 103.171L153.765 80.9759L148.379 91.7076ZM121.53 114.556H111.404L118.087 107.522H125.043L121.53 114.556ZM105.345 114.556H89.6767L96.3597 107.522H112.028L105.345 114.556ZM83.6182 114.556H67.9498L74.6328 107.522H90.3011L83.6182 114.556ZM61.8913 114.556H46.2815L52.9547 107.522H68.5645L61.8913 114.556ZM42.0863 119.025H57.6961L51.0034 126.059H35.3936L42.0863 119.025ZM63.7742 119.025H79.4426L72.7498 126.059H57.0815L63.7742 119.025ZM85.5011 119.025H101.169L94.4767 126.059H78.8084L85.5011 119.025ZM107.228 119.025H119.335L115.823 126.059H100.535L107.228 119.025ZM128.116 101.639C127.967 101.8 127.842 101.98 127.745 102.176L127.228 103.21H122.262L128.955 96.1759H133.306L128.116 101.639ZM116.204 103.21H100.535L107.228 96.1759H122.916L116.204 103.21ZM94.4767 103.21H78.8084L85.5011 96.1759H101.169L94.4767 103.21ZM50.379 103.893L39.5107 115.278L30.7887 124.459L20.3302 103.513L49.7449 72.5661L60.2132 93.5418L50.379 103.893ZM32.2424 153.171C32.3687 152.892 32.4351 152.59 32.4375 152.283V130.41H114.955V171.893C100.73 176.235 85.6196 176.791 71.1143 173.508C56.609 170.225 43.2108 163.215 32.2424 153.171ZM119.345 129.181L147.54 99.4735V153.357C139.339 160.828 129.763 166.634 119.345 170.449V129.181ZM151.931 149.064V94.4588L164.262 69.7563C164.464 69.2893 164.498 68.7665 164.357 68.2776C164.216 67.7886 163.91 67.3637 163.49 67.0757C163.071 66.7876 162.564 66.6542 162.057 66.6982C161.55 66.7423 161.075 66.9611 160.711 67.3173L137.482 91.7076H64.184L52.2327 67.7953C52.0704 67.4826 51.8351 67.2135 51.5468 67.0108C51.2585 66.8081 50.9257 66.6778 50.5764 66.631C50.2272 66.5841 49.8718 66.6219 49.5402 66.7414C49.2087 66.8609 48.9108 67.0584 48.6717 67.3173L16.0863 101.6C15.7724 101.926 15.568 102.342 15.5015 102.79C15.4351 103.237 15.5099 103.695 15.7155 104.098L28.0473 128.781V149.025C16.4804 136.897 8.72761 121.641 5.75034 105.148C2.77307 88.6547 4.70225 71.6507 11.2987 56.2439C17.8951 40.8372 28.8685 27.7054 42.8584 18.477C56.8483 9.24852 73.2392 4.32931 89.9987 4.32931C106.758 4.32931 123.149 9.24852 137.139 18.477C151.129 27.7054 162.102 40.8372 168.699 56.2439C175.295 71.6507 177.224 88.6547 174.247 105.148C171.27 121.641 163.517 136.897 151.95 149.025L151.931 149.064Z" fill="url(#paint0_linear_157_390)"/>
<path d="M100.106 74.2832L97.6182 76.771V55.4733C97.6182 54.8912 97.3869 54.3328 96.9753 53.9212C96.5636 53.5095 96.0053 53.2782 95.4231 53.2782C94.8409 53.2782 94.2826 53.5095 93.8709 53.9212C93.4592 54.3328 93.228 54.8912 93.228 55.4733V76.771L90.7206 74.2832C90.5197 74.0675 90.2773 73.8945 90.0081 73.7745C89.7388 73.6546 89.4481 73.59 89.1534 73.5848C88.8586 73.5796 88.5659 73.6339 88.2925 73.7443C88.0192 73.8547 87.7709 74.019 87.5625 74.2274C87.354 74.4359 87.1897 74.6842 87.0793 74.9575C86.9689 75.2308 86.9147 75.5236 86.9199 75.8184C86.9251 76.1131 86.9896 76.4038 87.1096 76.673C87.2295 76.9423 87.4025 77.1846 87.6182 77.3856L93.5402 83.3076C93.7332 83.6322 94.0075 83.9009 94.3359 84.0874C94.6643 84.2738 95.0357 84.3716 95.4133 84.371C95.7904 84.3687 96.1607 84.2698 96.4886 84.0836C96.8166 83.8974 97.0913 83.6302 97.2865 83.3076L103.199 77.3856C103.414 77.1846 103.587 76.9423 103.707 76.673C103.827 76.4038 103.892 76.1131 103.897 75.8184C103.902 75.5236 103.848 75.2308 103.738 74.9575C103.627 74.6842 103.463 74.4359 103.254 74.2274C103.046 74.019 102.798 73.8547 102.524 73.7443C102.251 73.6339 101.958 73.5796 101.664 73.5848C101.369 73.59 101.078 73.6546 100.809 73.7745C100.54 73.8945 100.297 74.0675 100.096 74.2832H100.106Z" fill="url(#paint1_linear_157_390)"/>
<path d="M123.599 60.927L121.101 63.4148V42.1172C121.101 41.535 120.87 40.9767 120.458 40.565C120.047 40.1533 119.488 39.9221 118.906 39.9221C118.324 39.9221 117.766 40.1533 117.354 40.565C116.942 40.9767 116.711 41.535 116.711 42.1172V63.4148L114.223 60.9173C114.019 60.7129 113.777 60.5507 113.511 60.4398C113.245 60.329 112.959 60.2717 112.67 60.2713C112.382 60.2708 112.096 60.3272 111.829 60.4372C111.563 60.5472 111.32 60.7087 111.116 60.9124C110.911 61.1161 110.749 61.3581 110.638 61.6245C110.528 61.8909 110.47 62.1765 110.47 62.465C110.469 62.7536 110.526 63.0394 110.636 63.3061C110.746 63.5729 110.907 63.8154 111.111 64.0197L117.062 69.9514C117.257 70.2741 117.532 70.5413 117.86 70.7275C118.188 70.9136 118.558 71.0126 118.935 71.0149C119.313 71.0154 119.684 70.9177 120.013 70.7312C120.341 70.5448 120.615 70.276 120.809 69.9514L126.731 64.0295C127.118 63.6133 127.329 63.063 127.319 62.4943C127.309 61.9256 127.079 61.383 126.677 60.9808C126.275 60.5786 125.732 60.3482 125.163 60.3382C124.595 60.3282 124.044 60.5393 123.628 60.927H123.599Z" fill="url(#paint2_linear_157_390)"/>
<path d="M77.5694 60.927L75.1108 63.4148V42.1172C75.1108 41.535 74.8796 40.9767 74.4679 40.565C74.0562 40.1533 73.4979 39.9221 72.9157 39.9221C72.3335 39.9221 71.7752 40.1533 71.3635 40.565C70.9518 40.9767 70.7206 41.535 70.7206 42.1172V63.4148L68.223 60.9173C68.022 60.7016 67.7797 60.5286 67.5104 60.4086C67.2412 60.2887 66.9505 60.2241 66.6557 60.2189C66.361 60.2137 66.0682 60.268 65.7949 60.3784C65.5216 60.4888 65.2733 60.6531 65.0648 60.8615C64.8564 61.07 64.6921 61.3183 64.5817 61.5916C64.4713 61.8649 64.417 62.1577 64.4222 62.4525C64.4274 62.7472 64.4919 63.0379 64.6119 63.3071C64.7319 63.5764 64.9049 63.8188 65.1206 64.0197L71.0133 69.9514C71.2075 70.2747 71.4821 70.5422 71.8103 70.7279C72.1386 70.9136 72.5093 71.0112 72.8864 71.0112C73.2636 71.0112 73.6343 70.9136 73.9625 70.7279C74.2908 70.5422 74.5654 70.2747 74.7596 69.9514L80.6816 64.0295C81.093 63.6168 81.3236 63.0575 81.3227 62.4748C81.3218 61.8921 81.0894 61.3336 80.6767 60.9221C80.264 60.5107 79.7048 60.2801 79.122 60.281C78.5393 60.2819 77.9808 60.5143 77.5694 60.927Z" fill="url(#paint3_linear_157_390)"/>
<path d="M106.33 138.283H73.6962C73.4071 138.283 73.1208 138.34 72.8539 138.451C72.5869 138.562 72.3445 138.725 72.1405 138.93C71.9366 139.135 71.7751 139.378 71.6653 139.645C71.5556 139.913 71.4998 140.199 71.5011 140.488V157.991C71.4998 158.279 71.5557 158.565 71.6655 158.832C71.7754 159.099 71.937 159.342 72.1411 159.546C72.3452 159.75 72.5877 159.912 72.8546 160.021C73.1215 160.131 73.4076 160.187 73.6962 160.186H106.33C106.619 160.187 106.905 160.131 107.172 160.021C107.439 159.912 107.681 159.75 107.886 159.546C108.09 159.342 108.251 159.099 108.361 158.832C108.471 158.565 108.527 158.279 108.526 157.991V140.488C108.527 140.199 108.471 139.913 108.361 139.645C108.252 139.378 108.09 139.135 107.886 138.93C107.682 138.725 107.44 138.562 107.173 138.451C106.906 138.34 106.62 138.283 106.33 138.283ZM104.135 155.786H75.8913V142.674H104.087L104.135 155.786Z" fill="url(#paint4_linear_157_390)"/>
<defs>
<linearGradient id="paint0_linear_157_390" x1="123.1" y1="180.001" x2="37.6765" y2="2.90325" gradientUnits="userSpaceOnUse">
<stop stop-color="#835342"/>
<stop offset="0.972222" stop-color="#FFCAA4"/>
</linearGradient>
<linearGradient id="paint1_linear_157_390" x1="123.1" y1="180.001" x2="37.6765" y2="2.90325" gradientUnits="userSpaceOnUse">
<stop stop-color="#835342"/>
<stop offset="0.972222" stop-color="#FFCAA4"/>
</linearGradient>
<linearGradient id="paint2_linear_157_390" x1="123.1" y1="180.001" x2="37.6765" y2="2.90325" gradientUnits="userSpaceOnUse">
<stop stop-color="#835342"/>
<stop offset="0.972222" stop-color="#FFCAA4"/>
</linearGradient>
<linearGradient id="paint3_linear_157_390" x1="123.1" y1="180.001" x2="37.6765" y2="2.90325" gradientUnits="userSpaceOnUse">
<stop stop-color="#835342"/>
<stop offset="0.972222" stop-color="#FFCAA4"/>
</linearGradient>
<linearGradient id="paint4_linear_157_390" x1="123.1" y1="180.001" x2="37.6765" y2="2.90325" gradientUnits="userSpaceOnUse">
<stop stop-color="#835342"/>
<stop offset="0.972222" stop-color="#FFCAA4"/>
</linearGradient>
</defs>
</svg>
