<svg width="181" height="180" viewBox="0 0 181 180" fill="none" xmlns="http://www.w3.org/2000/svg">
<path d="M90.35 180C72.55 180 55.15 174.72 40.35 164.83C25.55 154.94 14.01 140.88 7.19996 124.44C0.389956 107.99 -1.39004 89.9 2.07996 72.44C5.54996 54.98 14.12 38.95 26.71 26.36C39.3 13.77 55.33 5.20001 72.79 1.73001C90.25 -1.73999 108.34 0.0400143 124.79 6.85001C141.23 13.66 155.29 25.2 165.18 40C175.07 54.8 180.35 72.2 180.35 90C180.32 113.86 170.83 136.74 153.96 153.61C137.09 170.48 114.21 179.97 90.35 180ZM90.35 4.39001C73.42 4.39001 56.87 9.41001 42.79 18.82C28.71 28.23 17.74 41.6 11.26 57.24C4.77995 72.88 3.08996 90.1 6.38996 106.7C9.68996 123.31 17.85 138.56 29.82 150.53C41.79 162.5 57.05 170.66 73.65 173.96C90.26 177.26 107.47 175.57 123.11 169.09C138.75 162.61 152.12 151.64 161.53 137.56C170.94 123.48 175.96 106.93 175.96 90C175.93 67.3 166.91 45.54 150.86 29.49C134.81 13.44 113.05 4.41001 90.35 4.39001Z" fill="url(#paint0_linear_8_416)"/>
<path d="M135.27 86.36L117.24 76.48V57.33L90.3399 42.63L63.4399 57.35V76.48L45.3999 86.36L38.5699 97.5C38.0899 98.28 37.9499 99.22 38.1799 100.11C38.4099 101 38.9799 101.76 39.7699 102.21L44.8199 105.13V135.1C44.8199 135.77 44.9999 136.42 45.3399 137C45.6799 137.57 46.1699 138.05 46.7599 138.37L90.3499 162.21L133.94 138.37C134.53 138.05 135.01 137.58 135.36 137C135.7 136.43 135.88 135.77 135.88 135.1V105.13L140.93 102.21C141.72 101.75 142.3 100.99 142.52 100.11C142.75 99.22 142.6 98.28 142.13 97.5L135.28 86.36H135.27ZM135.87 100.52L131.87 102.83L98.9999 121.85L93.1599 112.4L106.37 105.18L126.54 94.15L131.88 91.23L133.17 90.53L135.88 94.96L138.39 99.07L135.88 100.52H135.87ZM44.8199 94.96L47.5299 90.53L48.8199 91.23L53.6599 93.88L74.9899 105.54L87.5299 112.4L81.6799 121.85L48.8099 102.83L44.8099 100.52L42.2999 99.07L44.8099 94.96H44.8199ZM69.6099 58.54L90.3399 47.2L111.07 58.54L97.7399 65.83L93.5699 68.11L90.3299 69.88L87.0899 68.11L82.9199 65.83L69.5899 58.54H69.6099ZM113.25 74.3V84.97L92.3499 96.4V73.34L97.7599 70.38L101.93 68.1L113.26 61.91V74.3H113.25ZM67.4399 74.3V61.91L78.7699 68.1L82.9399 70.38L88.3499 73.34V96.4L67.4499 84.97V74.3H67.4399ZM63.4399 81.05V90C63.4399 91.1 64.3399 92 65.4399 92C66.5399 92 67.4399 91.1 67.4399 90V89.53L90.3399 102.06L113.24 89.53V90C113.24 91.1 114.14 92 115.24 92C116.34 92 117.24 91.1 117.24 90V81.05L129.7 87.86L116.88 94.87C116.52 94.35 115.92 94.01 115.24 94.01C114.14 94.01 113.24 94.91 113.24 96.01V96.86L90.3399 109.38L67.4399 96.86V96.01C67.4399 94.91 66.5399 94.01 65.4399 94.01C64.7599 94.01 64.1599 94.35 63.7999 94.87L50.9799 87.86L63.4399 81.05ZM48.8199 107.46L80.1799 125.6C80.9499 126.04 81.8499 126.17 82.7099 125.95H82.7399C83.5999 125.73 84.3399 125.19 84.7999 124.43L88.3499 118.69V156.55L48.8199 134.93V107.44V107.46ZM131.87 134.95L92.3399 156.57V118.71L95.8899 124.45C96.3499 125.2 97.0899 125.74 97.9499 125.96H97.9799C98.8399 126.18 99.7399 126.06 100.51 125.61L131.87 107.47V134.96V134.95ZM63.4399 49.16V42.84C63.4399 41.74 64.3399 40.84 65.4399 40.84C66.5399 40.84 67.4399 41.74 67.4399 42.84V49.16C67.4399 50.26 66.5399 51.16 65.4399 51.16C64.3399 51.16 63.4399 50.26 63.4399 49.16ZM113.25 49.16V42.84C113.25 41.74 114.15 40.84 115.25 40.84C116.35 40.84 117.25 41.74 117.25 42.84V49.16C117.25 50.26 116.35 51.16 115.25 51.16C114.15 51.16 113.25 50.26 113.25 49.16ZM63.4399 35.83V29.51C63.4399 28.41 64.3399 27.51 65.4399 27.51C66.5399 27.51 67.4399 28.41 67.4399 29.51V35.83C67.4399 36.93 66.5399 37.83 65.4399 37.83C64.3399 37.83 63.4399 36.93 63.4399 35.83ZM113.25 35.83V29.51C113.25 28.41 114.15 27.51 115.25 27.51C116.35 27.51 117.25 28.41 117.25 29.51V35.83C117.25 36.93 116.35 37.83 115.25 37.83C114.15 37.83 113.25 36.93 113.25 35.83Z" fill="url(#paint1_linear_8_416)"/>
<defs>
<linearGradient id="paint0_linear_8_416" x1="131.81" y1="175.97" x2="46.39" y2="-1.12999" gradientUnits="userSpaceOnUse">
<stop stop-color="#835342"/>
<stop offset="0.97" stop-color="#FFCAA4"/>
</linearGradient>
<linearGradient id="paint1_linear_8_416" x1="90.3499" y1="162.22" x2="90.3499" y2="27.51" gradientUnits="userSpaceOnUse">
<stop stop-color="#835342"/>
<stop offset="0.97" stop-color="#FFCAA4"/>
</linearGradient>
</defs>
</svg>
