<svg width="181" height="180" viewBox="0 0 181 180" fill="none" xmlns="http://www.w3.org/2000/svg">
<path d="M143.31 53.05C140.6 51.98 137.72 52.77 135.42 55.22C134.05 56.68 133.51 58.98 132.77 62.16C132.21 64.56 131.51 67.55 130.27 70.98C127.39 78.9 126.04 80.18 123.91 80.18H123.3C125.53 77.85 126.91 74.7 126.91 71.23C126.91 67.33 125.17 63.84 122.44 61.46L117.02 45.57C118.39 44.6 119.3 43.01 119.3 41.21C119.3 38.27 116.9 35.87 113.96 35.87C111.02 35.87 108.62 38.26 108.62 41.21C108.62 43.01 109.52 44.6 110.9 45.57L105.48 61.46C104.05 62.7 102.89 64.25 102.12 66.01C101.34 64.26 100.19 62.71 98.7599 61.47L93.3399 45.58C94.7099 44.61 95.6199 43.02 95.6199 41.22C95.6199 38.28 93.2199 35.88 90.2799 35.88C87.3399 35.88 84.9399 38.27 84.9399 41.22C84.9399 43.02 85.8398 44.61 87.2198 45.58L81.7999 61.47C80.2799 62.79 79.0699 64.46 78.2899 66.35C77.5199 64.46 76.2999 62.79 74.7799 61.47L69.3599 45.58C70.7299 44.61 71.6399 43.02 71.6399 41.22C71.6399 38.28 69.2399 35.88 66.2999 35.88C63.3599 35.88 60.9599 38.27 60.9599 41.22C60.9599 43.02 61.8599 44.61 63.2399 45.58L57.8199 61.47C55.0899 63.85 53.3499 67.34 53.3499 71.24C53.3499 74.71 54.7299 77.86 56.9599 80.19H56.6399C54.5199 80.19 53.1599 78.91 50.2799 70.99C49.0299 67.56 48.3399 64.57 47.7799 62.17C47.0399 58.99 46.4999 56.69 45.1299 55.23C42.8299 52.78 39.9599 51.99 37.2399 53.06C34.5099 54.14 32.3799 57.08 32.3799 59.75C32.3799 63.14 32.5699 65.54 36.6699 78.92C40.1599 90.29 49.3299 94.39 53.0599 95.62V142.04C53.0599 143.14 53.9599 144.04 55.0599 144.04C56.1599 144.04 57.0599 143.14 57.0599 142.04V92.49L55.4699 92.16C55.3599 92.14 44.1399 89.64 40.4899 77.76C36.5499 64.93 36.3699 62.76 36.3699 59.77C36.3699 58.93 37.2799 57.36 38.6999 56.8C39.8499 56.34 41.0299 56.74 42.1999 57.99C42.8399 58.67 43.3199 60.73 43.8699 63.11C44.4499 65.61 45.1799 68.73 46.5099 72.38C49.1099 79.53 51.2199 84.21 56.6299 84.21H76.1899V97.1C75.9399 97.17 75.6799 97.23 75.4399 97.32C73.4899 98.09 72.1599 99.72 71.6699 101.91C71.1299 104.35 71.3499 107.33 72.4199 110.12H62.2599C61.4599 110.12 60.7699 110.7 60.6399 111.49L58.9699 121.41C58.8899 121.89 59.0199 122.37 59.3399 122.74C59.6599 123.11 60.1099 123.32 60.5899 123.32H62.6199L63.2999 134.17L63.3299 134.62L64.2699 149.54C64.3199 150.41 65.0399 151.08 65.9099 151.08H114.62C115.49 151.08 116.21 150.41 116.26 149.54L117.91 123.32H119.94C120.42 123.32 120.88 123.11 121.19 122.74C121.5 122.37 121.64 121.88 121.56 121.41L119.89 111.49C119.76 110.7 119.07 110.12 118.27 110.12H108.11C109.18 107.33 109.4 104.35 108.86 101.91C108.38 99.72 107.04 98.09 105.09 97.32C104.74 97.18 104.36 97.07 103.98 96.99V84.2H123.9C129.31 84.2 131.42 79.52 134.02 72.37C135.35 68.72 136.08 65.6 136.66 63.1C137.22 60.72 137.69 58.66 138.33 57.98C139.5 56.74 140.67 56.34 141.83 56.79C143.25 57.35 144.16 58.93 144.16 59.76C144.16 62.76 143.98 64.92 140.04 77.75C136.42 89.56 125.52 92.06 125.06 92.15L123.47 92.48V142.03C123.47 143.13 124.37 144.03 125.47 144.03C126.57 144.03 127.47 143.13 127.47 142.03V95.61C131.19 94.38 140.37 90.28 143.86 78.91C147.96 65.53 148.15 63.14 148.15 59.74C148.15 57.07 146.01 54.13 143.29 53.05H143.31ZM105.01 71.22C105.01 67.4 107.42 64.13 110.81 62.85H117.13C120.51 64.13 122.93 67.39 122.93 71.22C122.93 76.16 118.91 80.17 113.98 80.17C109.05 80.17 105.03 76.15 105.03 71.22H105.01ZM110.65 58.71L113.97 48.97L117.29 58.71L117.34 58.85H110.6L110.65 58.71ZM113.97 39.87C114.71 39.87 115.31 40.47 115.31 41.21C115.31 41.95 114.71 42.55 113.97 42.55C113.23 42.55 112.63 41.95 112.63 41.21C112.63 40.47 113.23 39.87 113.97 39.87ZM81.3299 71.22C81.3299 67.4 83.7399 64.13 87.1299 62.85H93.4499C96.8299 64.13 99.2499 67.39 99.2499 71.22C99.2499 76.16 95.2299 80.17 90.2999 80.17C85.3699 80.17 81.3499 76.15 81.3499 71.22H81.3299ZM86.9599 58.71L90.2799 48.97L93.5999 58.71L93.6499 58.85H86.9099L86.9599 58.71ZM90.2799 39.87C91.0199 39.87 91.6199 40.47 91.6199 41.21C91.6199 41.95 91.0199 42.55 90.2799 42.55C89.5399 42.55 88.9399 41.95 88.9399 41.21C88.9399 40.47 89.5399 39.87 90.2799 39.87ZM62.9799 58.71L66.2999 48.97L69.6199 58.71L69.6699 58.85H62.9299L62.9799 58.71ZM66.2999 39.87C67.0399 39.87 67.6399 40.47 67.6399 41.21C67.6399 41.95 67.0399 42.55 66.2999 42.55C65.5599 42.55 64.9599 41.95 64.9599 41.21C64.9599 40.47 65.5599 39.87 66.2999 39.87ZM57.3499 71.22C57.3499 67.4 59.7599 64.13 63.1499 62.85H69.4698C72.8498 64.13 75.2699 67.39 75.2699 71.22C75.2699 76.16 71.2499 80.17 66.3199 80.17C61.3899 80.17 57.3699 76.15 57.3699 71.22H57.3499ZM75.6399 80.17C76.7599 79 77.6699 77.63 78.2899 76.1C78.9099 77.62 79.8199 79 80.9399 80.17H75.6399ZM104.74 102.78C105.15 104.66 104.93 106.99 103.99 109.1C103.22 110.84 101.96 112.43 100.16 113.51C100.1 113.54 100.05 113.57 99.9899 113.6C98.1699 114.63 96.1399 114.85 94.3999 114.18C93.4199 113.8 92.6999 113.2 92.3899 112.51C92.4599 107.93 93.8399 105.37 97.5799 102.8C98.3699 102.25 99.1999 101.83 99.9899 101.52C101.37 101 102.66 100.86 103.55 101.21C103.69 101.27 103.84 101.34 103.99 101.45C104.29 101.68 104.58 102.06 104.74 102.77V102.78ZM113.33 143.91L113.09 147.76H92.3899V136.12H113.82L113.33 143.9V143.91ZM76.9999 101.22C77.3299 101.09 77.7199 101.02 78.1699 101.02C78.7899 101.02 79.4799 101.15 80.1999 101.39C81.1099 101.69 82.0598 102.17 82.9698 102.8C86.7099 105.37 88.0899 107.94 88.1599 112.51C87.8498 113.2 87.1299 113.8 86.1499 114.18C84.3599 114.87 82.2599 114.63 80.3899 113.51C80.3199 113.47 80.2599 113.42 80.1899 113.38C78.1899 112.11 76.8799 110.19 76.1899 108.17C75.5599 106.32 75.4499 104.39 75.7999 102.78C75.8899 102.36 76.0299 102.06 76.1899 101.83C76.4399 101.48 76.7299 101.31 76.9899 101.21L76.9999 101.22ZM99.9899 118.19C100.08 118.16 100.16 118.13 100.25 118.1C101.07 118.68 101.88 119.32 102.67 120H92.3899V117.9C92.5499 117.97 92.7099 118.05 92.8799 118.12C94.0299 118.57 95.2599 118.79 96.5199 118.79C97.6899 118.79 98.8599 118.57 99.9899 118.19ZM65.9299 123.29H69.8099C69.8299 123.91 70.0999 124.51 70.6299 124.92C70.9999 125.2 71.4499 125.35 71.9099 125.35C72.5699 125.35 73.1899 125.04 73.5899 124.52C73.8999 124.11 74.2399 123.7 74.5899 123.3H88.1599V131.91H66.4698L65.9299 123.3V123.29ZM92.3899 123.29H105.96C106.31 123.69 106.65 124.1 106.96 124.51C107.36 125.03 107.99 125.34 108.64 125.34C109.1 125.34 109.55 125.19 109.92 124.91C110.45 124.51 110.73 123.9 110.74 123.29H114.62L114.08 131.9H92.3799V123.29H92.3899ZM80.1999 118.18C80.1999 118.18 80.2699 118.13 80.2999 118.11C81.5199 118.55 82.7699 118.8 84.0299 118.8C85.2899 118.8 86.5099 118.57 87.6699 118.13C87.8199 118.07 87.9499 118 88.0899 117.94C88.1099 117.93 88.1399 117.92 88.1599 117.91V120.01H77.8799C78.6299 119.36 79.4099 118.75 80.1899 118.18H80.1999ZM67.4698 147.77L67.2198 143.8L66.7399 136.13H88.1699V147.77H67.4698ZM63.4399 114.69L63.6599 113.37H74.1899C74.7699 114.18 75.4299 114.95 76.1999 115.64C76.2499 115.69 76.2999 115.73 76.3499 115.78C76.2999 115.82 76.2499 115.86 76.1999 115.9C74.5899 117.19 73.1199 118.61 71.8599 120.01H62.5499L63.4399 114.7V114.69ZM116.67 120H108.7C107.4 118.56 105.87 117.1 104.21 115.77C105.04 115.05 105.75 114.24 106.37 113.37H116.9L117.07 114.39L118.01 120H116.67ZM99.9899 97.11C98.4099 97.49 96.7699 98.23 95.1899 99.31C93.0199 100.8 91.4099 102.39 90.2799 104.22C89.1499 102.39 87.5399 100.8 85.3699 99.31C83.6599 98.14 81.8899 97.36 80.1999 97.01V84.17H99.9899V97.11ZM101.99 80.17H99.6099C100.65 79.09 101.5 77.83 102.12 76.44C102.74 77.83 103.59 79.09 104.63 80.17H101.99ZM72.6999 70.23C72.5799 70.53 72.2999 70.73 71.9698 70.73C71.8699 70.73 71.7799 70.71 71.6799 70.68C69.9699 70.02 68.0499 70.71 68.0299 70.72C67.9399 70.75 67.8499 70.77 67.7599 70.77C67.5499 70.77 67.3499 70.69 67.1999 70.54C67.1299 70.47 67.0799 70.39 67.0399 70.31L66.9199 70.34L67.0099 70.25C66.9499 70.08 66.9499 69.89 67.0099 69.71C67.0499 69.62 67.9399 67.36 71.6199 67.32C72.0499 67.32 72.3999 67.67 72.4099 68.1C72.4099 68.31 72.3299 68.51 72.1899 68.66C72.0399 68.81 71.8499 68.89 71.6399 68.9C71.4599 68.9 71.2899 68.91 71.1299 68.93C71.4899 68.99 71.8699 69.09 72.2399 69.23C72.4299 69.3 72.5899 69.45 72.6799 69.64C72.7699 69.83 72.7699 70.05 72.6999 70.24V70.23ZM64.5699 70.72C64.5699 70.72 62.6399 70.02 60.9299 70.68C60.8299 70.72 60.7399 70.74 60.6399 70.73C60.3199 70.73 60.0299 70.53 59.9099 70.23C59.8299 70.03 59.8399 69.82 59.9299 69.63C60.0199 69.44 60.1699 69.29 60.3699 69.22C60.7399 69.08 61.1099 68.98 61.4799 68.92C61.3199 68.91 61.1499 68.9 60.9699 68.89C60.7599 68.89 60.5599 68.8 60.4199 68.65C60.2699 68.5 60.1899 68.3 60.1999 68.09C60.1999 67.88 60.2899 67.68 60.4399 67.54C60.5899 67.39 60.7899 67.34 60.9999 67.32C64.6799 67.37 65.5699 69.62 65.6099 69.72C65.6799 69.89 65.6799 70.08 65.6099 70.26L65.6999 70.35L65.5799 70.32C65.5399 70.4 65.4899 70.48 65.4199 70.55C65.2699 70.7 65.0699 70.78 64.8599 70.78C64.7699 70.78 64.6699 70.76 64.5799 70.73L64.5699 70.72ZM66.2999 74.78L69.0199 74.76C69.0299 76.15 67.6799 77.04 66.3199 77.05C64.9599 77.06 63.5899 76.2 63.5799 74.81L66.2999 74.79V74.78ZM120.36 70.23C120.24 70.53 119.96 70.73 119.64 70.73C119.55 70.73 119.45 70.72 119.35 70.68C117.63 70.01 115.72 70.71 115.7 70.71C115.61 70.74 115.52 70.76 115.42 70.76C115.21 70.76 115.01 70.68 114.86 70.53C114.79 70.46 114.74 70.38 114.7 70.3L114.58 70.33L114.67 70.24C114.61 70.07 114.61 69.88 114.67 69.7C114.71 69.6 115.61 67.35 119.28 67.31C119.71 67.31 120.06 67.66 120.07 68.09C120.07 68.3 119.99 68.5 119.85 68.65C119.7 68.8 119.51 68.89 119.3 68.89C119.12 68.89 118.95 68.9 118.79 68.92C119.15 68.98 119.53 69.08 119.9 69.22C120.09 69.29 120.25 69.44 120.34 69.63C120.43 69.82 120.43 70.04 120.36 70.23ZM112.23 70.72C112.23 70.72 110.3 70.02 108.59 70.68C108.49 70.72 108.39 70.73 108.3 70.73C107.98 70.73 107.69 70.53 107.58 70.23C107.5 70.03 107.51 69.82 107.6 69.62C107.69 69.42 107.84 69.28 108.04 69.21C108.41 69.07 108.78 68.97 109.15 68.91C108.99 68.9 108.82 68.89 108.64 68.88C108.43 68.88 108.23 68.79 108.09 68.64C107.95 68.49 107.86 68.29 107.87 68.08C107.87 67.87 107.96 67.67 108.11 67.53C108.26 67.38 108.48 67.33 108.67 67.31C112.35 67.36 113.24 69.61 113.28 69.71C113.35 69.88 113.35 70.07 113.28 70.25L113.37 70.34L113.25 70.31C113.21 70.39 113.16 70.47 113.09 70.54C112.94 70.69 112.74 70.77 112.53 70.77C112.44 70.77 112.34 70.75 112.25 70.72H112.23ZM113.97 74.78L116.69 74.76C116.7 76.15 115.35 77.04 113.99 77.05C112.63 77.06 111.26 76.2 111.25 74.81L113.97 74.79V74.78ZM92.4199 74.11C92.4199 74.11 92.8299 76.77 90.2399 76.74C87.6599 76.7 88.1399 74.05 88.1399 74.05L90.2799 74.08L92.4199 74.11ZM87.8899 69.63C87.4999 69.18 87.0499 68.98 86.6599 69.09C86.3599 69.17 86.1299 69.41 86.0699 69.71C85.9899 70.07 85.6699 70.33 85.2999 70.33L85.1199 70.31C84.9299 70.27 84.7499 70.15 84.6399 69.97C84.5299 69.79 84.4899 69.58 84.5299 69.37C84.7199 68.47 85.3899 67.78 86.2799 67.55C87.2799 67.3 88.2999 67.67 89.0999 68.59C89.3899 68.92 89.3499 69.42 89.0199 69.71C88.6899 70 88.1899 69.96 87.8999 69.63H87.8899ZM95.9999 69.42C96.0799 69.85 95.7999 70.26 95.3699 70.34H95.2198V70.35C94.8398 70.35 94.5199 70.07 94.4499 69.7C94.3899 69.39 94.1699 69.15 93.8699 69.06C93.4799 68.95 93.0299 69.13 92.6199 69.57C92.4799 69.72 92.2799 69.82 92.0699 69.82C91.8699 69.83 91.6599 69.76 91.4999 69.61C91.1799 69.31 91.1599 68.81 91.4499 68.49C92.2799 67.6 93.3199 67.25 94.2999 67.53C95.1799 67.78 95.8299 68.5 95.9999 69.4V69.42Z" fill="url(#paint0_linear_8_417)"/>
<path d="M90.69 180C72.89 180 55.49 174.72 40.69 164.83C25.89 154.94 14.35 140.88 7.54004 124.44C0.730043 107.99 -1.04995 89.9 2.42005 72.44C5.89005 54.98 14.46 38.95 27.05 26.36C39.64 13.77 55.67 5.20001 73.13 1.73001C90.59 -1.73999 108.68 0.0400143 125.13 6.85001C141.57 13.66 155.63 25.2 165.52 40C175.41 54.8 180.69 72.2 180.69 90C180.66 113.86 171.17 136.74 154.3 153.61C137.43 170.48 114.55 179.97 90.69 180ZM90.69 4.39001C73.76 4.39001 57.21 9.41001 43.13 18.82C29.05 28.23 18.08 41.6 11.6 57.24C5.12004 72.88 3.43005 90.1 6.73005 106.7C10.03 123.31 18.19 138.56 30.16 150.53C42.13 162.5 57.39 170.66 73.99 173.96C90.6 177.26 107.81 175.57 123.45 169.09C139.09 162.61 152.46 151.64 161.87 137.56C171.28 123.48 176.3 106.93 176.3 90C176.27 67.3 167.25 45.54 151.2 29.49C135.15 13.44 113.39 4.41001 90.69 4.39001Z" fill="url(#paint1_linear_8_417)"/>
<defs>
<linearGradient id="paint0_linear_8_417" x1="32.3799" y1="93.46" x2="148.18" y2="93.46" gradientUnits="userSpaceOnUse">
<stop stop-color="#835342"/>
<stop offset="0.97" stop-color="#FFCAA4"/>
</linearGradient>
<linearGradient id="paint1_linear_8_417" x1="132.16" y1="175.97" x2="46.73" y2="-1.12999" gradientUnits="userSpaceOnUse">
<stop stop-color="#835342"/>
<stop offset="0.97" stop-color="#FFCAA4"/>
</linearGradient>
</defs>
</svg>
