<svg width="180" height="180" viewBox="0 0 180 180" fill="none" xmlns="http://www.w3.org/2000/svg">
<path d="M46.5659 88.4585L46.361 88.2927C44.443 86.91 42.105 86.2349 39.7452 86.3822C37.3853 86.5295 35.1495 87.4901 33.4182 89.1005C31.687 90.711 30.5675 92.8716 30.2502 95.2147C29.9329 97.5577 30.4375 99.9383 31.6781 101.951L60.1464 148.429C60.344 148.748 60.6197 149.012 60.9475 149.194C61.2753 149.377 61.6443 149.473 62.0195 149.473C62.4252 149.471 62.8228 149.36 63.1708 149.151C63.6663 148.845 64.0203 148.355 64.1556 147.788C64.2909 147.221 64.1964 146.624 63.8927 146.127L35.4244 99.6488C34.7475 98.5084 34.4779 97.1719 34.6597 95.8583C34.8416 94.5446 35.4641 93.3316 36.4254 92.418C37.3866 91.5044 38.6296 90.9442 39.9508 90.8293C41.272 90.7143 42.593 91.0514 43.6976 91.7853L63.4732 110.01C63.6765 110.245 63.9274 110.433 64.2091 110.564C64.4909 110.695 64.7972 110.764 65.1078 110.768C65.4183 110.771 65.7261 110.709 66.0108 110.584C66.2954 110.46 66.5505 110.277 66.759 110.047C66.9676 109.817 67.125 109.545 67.2207 109.249C67.3165 108.954 67.3485 108.642 67.3145 108.333C67.2806 108.024 67.1815 107.726 67.0239 107.459C66.8662 107.191 66.6536 106.96 66.4 106.78L46.5659 88.4585Z" fill="url(#paint0_linear_146_579)"/>
<path d="M148.293 89.2195L144.39 87.9219C143.039 87.475 141.811 86.7181 140.805 85.7118C139.799 84.7056 139.042 83.4779 138.595 82.1268L137.415 78.5268V60.1073C137.421 58.0831 136.863 56.0973 135.802 54.3735C134.741 52.6497 133.219 51.2565 131.409 50.3508C129.599 49.4452 127.572 49.0631 125.556 49.2476C123.54 49.4321 121.616 50.1759 120 51.3951V39.6878C120.004 37.6704 119.445 35.6919 118.387 33.9741C117.329 32.2564 115.814 30.8673 114.011 29.9626C112.207 29.058 110.188 28.6736 108.178 28.8525C106.169 29.0314 104.249 29.7666 102.634 30.9756V29.7073C102.634 26.8223 101.488 24.0554 99.4481 22.0154C97.408 19.9753 94.6412 18.8293 91.7561 18.8293C88.8711 18.8293 86.1042 19.9753 84.0642 22.0154C82.0241 24.0554 80.8781 26.8223 80.8781 29.7073V30.9561C79.2621 29.7481 77.3419 29.0138 75.3322 28.8353C73.3226 28.6568 71.3029 29.0412 69.4994 29.9455C67.6959 30.8498 66.1796 32.2383 65.1205 33.9555C64.0614 35.6726 63.5011 37.6507 63.5025 39.6683V66.1073L62.322 69.7073C61.8809 71.0521 61.1329 72.2757 60.1373 73.2815C59.1416 74.2873 57.9256 75.0477 56.5854 75.5024L52.683 76.8C52.2456 76.9455 51.8651 77.225 51.5954 77.5988C51.3258 77.9727 51.1806 78.422 51.1806 78.8829C51.1806 79.3439 51.3258 79.7931 51.5954 80.167C51.8651 80.5409 52.2456 80.8204 52.683 80.9658L56.5854 82.2634C57.9354 82.7094 59.1624 83.4648 60.1686 84.4693C61.1748 85.4738 61.9322 86.6995 62.3805 88.0488L63.6781 91.9512C63.8236 92.3886 64.103 92.7691 64.4769 93.0388C64.8508 93.3084 65.3 93.4535 65.761 93.4535C66.222 93.4535 66.6712 93.3084 67.0451 93.0388C67.419 92.7691 67.6984 92.3886 67.8439 91.9512L69.1415 88.0488C69.5885 86.6977 70.3453 85.47 71.3516 84.4638C72.3578 83.4575 73.5856 82.7006 74.9366 82.2536L78.839 80.9561C79.2764 80.8106 79.657 80.5311 79.9266 80.1572C80.1963 79.7834 80.3414 79.3341 80.3414 78.8732C80.3414 78.4122 80.1963 77.9629 79.9266 77.5891C79.657 77.2152 79.2764 76.9357 78.839 76.7902L74.9366 75.4927C73.5856 75.0457 72.3578 74.2888 71.3516 73.2826C70.3453 72.2763 69.5885 71.0486 69.1415 69.6975L67.9512 66.0975V39.6683C68.0163 37.9899 68.7288 36.4019 69.9393 35.2374C71.1498 34.0729 72.7642 33.4225 74.4439 33.4225C76.1236 33.4225 77.738 34.0729 78.9485 35.2374C80.159 36.4019 80.8715 37.9899 80.9366 39.6683V87.9902C80.9366 88.5724 81.1679 89.1307 81.5795 89.5424C81.9912 89.9541 82.5495 90.1853 83.1317 90.1853C83.7139 90.1853 84.2722 89.9541 84.6839 89.5424C85.0956 89.1307 85.3268 88.5724 85.3268 87.9902V29.7073C85.3268 27.9866 86.0104 26.3364 87.2271 25.1197C88.4438 23.903 90.094 23.2195 91.8147 23.2195C93.5353 23.2195 95.1855 23.903 96.4022 25.1197C97.6189 26.3364 98.3025 27.9866 98.3025 29.7073V87.9902C98.3025 88.5724 98.5337 89.1307 98.9454 89.5424C99.3571 89.9541 99.9154 90.1853 100.498 90.1853C101.08 90.1853 101.638 89.9541 102.05 89.5424C102.461 89.1307 102.693 88.5724 102.693 87.9902V39.6683C102.693 37.9476 103.376 36.2974 104.593 35.0807C105.81 33.864 107.46 33.1805 109.181 33.1805C110.901 33.1805 112.551 33.864 113.768 35.0807C114.985 36.2974 115.668 37.9476 115.668 39.6683V95.3756C115.668 95.9578 115.9 96.5161 116.311 96.9278C116.723 97.3394 117.281 97.5707 117.863 97.5707C118.446 97.5707 119.004 97.3394 119.416 96.9278C119.827 96.5161 120.059 95.9578 120.059 95.3756V60.1073C120.124 58.4289 120.836 56.8409 122.047 55.6764C123.257 54.5119 124.872 53.8615 126.551 53.8615C128.231 53.8615 129.845 54.5119 131.056 55.6764C132.266 56.8409 132.979 58.4289 133.044 60.1073V78.5268L131.854 82.1268C131.408 83.4768 130.652 84.7038 129.648 85.71C128.643 86.7162 127.418 87.4737 126.068 87.9219L122.166 89.2195C121.728 89.365 121.348 89.6445 121.078 90.0183C120.809 90.3922 120.664 90.8415 120.664 91.3024C120.664 91.7634 120.809 92.2127 121.078 92.5865C121.348 92.9604 121.728 93.2399 122.166 93.3853L126.068 94.6829C127.418 95.1312 128.643 95.8886 129.648 96.8948C130.652 97.901 131.408 99.128 131.854 100.478L132.829 103.493C132.122 118.161 129.371 132.659 124.654 146.566C124.47 147.117 124.512 147.718 124.77 148.239C125.027 148.76 125.48 149.157 126.029 149.346C126.259 149.423 126.499 149.463 126.741 149.463C127.2 149.462 127.647 149.317 128.019 149.049C128.392 148.782 128.671 148.405 128.82 147.971C133.549 134.006 136.355 119.463 137.161 104.741C137.221 104.637 137.266 104.526 137.298 104.41L138.595 100.507C139.038 99.1508 139.793 97.9173 140.8 96.9057C141.806 95.8941 143.036 95.1328 144.39 94.6829L148.293 93.3853C148.73 93.2399 149.111 92.9604 149.38 92.5865C149.65 92.2127 149.795 91.7634 149.795 91.3024C149.795 90.8415 149.65 90.3922 149.38 90.0183C149.111 89.6445 148.73 89.365 148.293 89.2195ZM65.7269 84.7902C65.1495 83.6551 64.41 82.61 63.5317 81.6878C62.4693 80.5422 61.2146 79.5912 59.8244 78.878C61.2106 78.1708 62.4646 77.2302 63.5317 76.0975C64.4078 75.1735 65.147 74.1287 65.7269 72.9951C67.0441 75.5113 69.1098 77.5567 71.639 78.8488C70.2496 79.5676 68.9926 80.5178 67.922 81.6585C67.047 82.5943 66.3081 83.6485 65.7269 84.7902ZM135.21 97.2097C134.626 96.0783 133.887 95.0341 133.015 94.1073C131.948 92.9651 130.69 92.0176 129.298 91.3073C130.69 90.5934 131.948 89.6426 133.015 88.4976C133.887 87.5707 134.626 86.5265 135.21 85.3951C135.79 86.5287 136.529 87.5735 137.405 88.4976C138.47 89.6402 139.724 90.5907 141.112 91.3073C139.725 92.0204 138.47 92.9677 137.405 94.1073C136.529 95.0314 135.79 96.0761 135.21 97.2097Z" fill="url(#paint1_linear_146_579)"/>
<path d="M114.146 108.722L107.971 106.683C105.667 105.918 103.573 104.627 101.856 102.911C100.139 101.196 98.845 99.1031 98.0781 96.8L96 90.6146C95.8545 90.1772 95.575 89.7967 95.2012 89.5271C94.8273 89.2574 94.3781 89.1123 93.9171 89.1123C93.4561 89.1123 93.0069 89.2574 92.633 89.5271C92.2591 89.7967 91.9796 90.1772 91.8342 90.6146L89.7561 96.8C88.9901 99.102 87.6981 101.194 85.9826 102.909C84.267 104.625 82.1752 105.917 79.8732 106.683L73.6878 108.722C73.2504 108.867 72.8699 109.147 72.6003 109.521C72.3306 109.895 72.1855 110.344 72.1855 110.805C72.1855 111.266 72.3306 111.715 72.6003 112.089C72.8699 112.463 73.2504 112.742 73.6878 112.888L79.8732 114.927C82.1763 115.694 84.2687 116.987 85.9844 118.705C87.7 120.422 88.9914 122.516 89.7561 124.819L91.7951 130.995C91.9406 131.432 92.2201 131.813 92.594 132.083C92.9678 132.352 93.4171 132.497 93.8781 132.497C94.339 132.497 94.7883 132.352 95.1622 132.083C95.536 131.813 95.8155 131.432 95.961 130.995L98 124.819C98.7657 122.515 100.059 120.42 101.776 118.703C103.493 116.985 105.588 115.692 107.893 114.927L114.068 112.888C114.506 112.742 114.886 112.463 115.156 112.089C115.426 111.715 115.571 111.266 115.571 110.805C115.571 110.344 115.426 109.895 115.156 109.521C114.886 109.147 114.506 108.867 114.068 108.722H114.146ZM106.449 110.81C103.549 111.794 100.914 113.432 98.7487 115.597C96.5833 117.763 94.9451 120.398 93.961 123.298C92.9756 120.398 91.337 117.764 89.1717 115.599C87.0064 113.434 84.3725 111.795 81.4732 110.81C84.3714 109.822 87.0043 108.183 89.1693 106.018C91.3343 103.853 92.9736 101.22 93.961 98.3219C94.9424 101.217 96.5751 103.848 98.7333 106.013C100.892 108.178 103.518 109.819 106.41 110.81H106.449Z" fill="url(#paint2_linear_146_579)"/>
<path d="M90 0C72.1997 0 54.7991 5.27841 39.9987 15.1677C25.1983 25.0571 13.6628 39.1131 6.85088 55.5585C0.038996 72.0038 -1.7433 90.0998 1.72936 107.558C5.20203 125.016 13.7737 141.053 26.3604 153.64C38.9471 166.226 54.9836 174.798 72.4419 178.271C89.9002 181.743 107.996 179.961 124.442 173.149C140.887 166.337 154.943 154.802 164.832 140.001C174.722 125.201 180 107.8 180 90C179.974 66.1384 170.484 43.2616 153.611 26.3889C136.738 9.51623 113.862 0.0258242 90 0ZM90 175.61C73.068 175.61 56.5162 170.589 42.4378 161.182C28.3593 151.775 17.3865 138.405 10.9069 122.761C4.42734 107.118 2.73198 89.905 6.03525 73.2983C9.33852 56.6917 17.4921 41.4375 29.4648 29.4648C41.4375 17.492 56.6917 9.33848 73.2984 6.03521C89.905 2.73194 107.118 4.4273 122.761 10.9069C138.405 17.3865 151.775 28.3593 161.182 42.4378C170.589 56.5162 175.61 73.068 175.61 90C175.587 112.698 166.559 134.46 150.51 150.51C134.46 166.559 112.698 175.586 90 175.61Z" fill="url(#paint3_linear_146_579)"/>
<defs>
<linearGradient id="paint0_linear_146_579" x1="123.1" y1="180" x2="37.677" y2="2.90302" gradientUnits="userSpaceOnUse">
<stop stop-color="#835342"/>
<stop offset="0.972222" stop-color="#FFCAA4"/>
</linearGradient>
<linearGradient id="paint1_linear_146_579" x1="123.1" y1="180" x2="37.677" y2="2.90302" gradientUnits="userSpaceOnUse">
<stop stop-color="#835342"/>
<stop offset="0.972222" stop-color="#FFCAA4"/>
</linearGradient>
<linearGradient id="paint2_linear_146_579" x1="123.1" y1="180" x2="37.677" y2="2.90302" gradientUnits="userSpaceOnUse">
<stop stop-color="#835342"/>
<stop offset="0.972222" stop-color="#FFCAA4"/>
</linearGradient>
<linearGradient id="paint3_linear_146_579" x1="123.1" y1="180" x2="37.677" y2="2.90302" gradientUnits="userSpaceOnUse">
<stop stop-color="#835342"/>
<stop offset="0.972222" stop-color="#FFCAA4"/>
</linearGradient>
</defs>
</svg>
