<svg width="180" height="180" viewBox="0 0 180 180" fill="none" xmlns="http://www.w3.org/2000/svg">
<path d="M90 0C72.1997 0 54.7991 5.27841 39.9987 15.1677C25.1983 25.0571 13.6628 39.1131 6.85088 55.5585C0.038996 72.0038 -1.7433 90.0998 1.72936 107.558C5.20203 125.016 13.7737 141.053 26.3604 153.64C38.9471 166.226 54.9836 174.798 72.4419 178.271C89.9002 181.743 107.996 179.961 124.442 173.149C140.887 166.337 154.943 154.802 164.832 140.001C174.722 125.201 180 107.8 180 90C179.974 66.1384 170.484 43.2616 153.611 26.3889C136.738 9.51623 113.862 0.0258242 90 0ZM90 175.61C73.068 175.61 56.5162 170.589 42.4378 161.182C28.3593 151.775 17.3865 138.405 10.9069 122.761C4.42734 107.118 2.73198 89.905 6.03525 73.2983C9.33852 56.6917 17.4921 41.4375 29.4648 29.4648C41.4375 17.492 56.6917 9.33848 73.2984 6.03521C89.905 2.73194 107.118 4.4273 122.761 10.9069C138.405 17.3865 151.775 28.3593 161.182 42.4378C170.589 56.5162 175.61 73.068 175.61 90C175.587 112.698 166.559 134.46 150.51 150.51C134.46 166.559 112.698 175.586 90 175.61Z" fill="url(#paint0_linear_146_511)"/>
<path d="M123.902 135.795V69.4536C127.169 68.2878 130.101 66.3422 132.445 63.7859C134.789 61.2296 136.473 58.1398 137.352 54.7849C138.23 51.4299 138.277 47.9112 137.487 44.5342C136.697 41.1572 135.095 38.024 132.82 35.4067C130.544 32.7894 127.664 30.767 124.43 29.5153C121.196 28.2636 117.705 27.8202 114.26 28.2238C110.815 28.6274 107.521 29.8657 104.664 31.8312C101.807 33.7967 99.4722 36.43 97.8634 39.5024H60.9854C58.5928 39.505 56.2989 40.4566 54.607 42.1485C52.9152 43.8403 51.9636 46.1342 51.961 48.5268V135.815C51.9652 138.163 52.8847 140.417 54.5242 142.099C56.1637 143.78 58.394 144.756 60.7415 144.819V147.571H57.161C56.5788 147.571 56.0205 147.802 55.6088 148.214C55.1972 148.625 54.9659 149.184 54.9659 149.766C54.9659 150.348 55.1972 150.906 55.6088 151.318C56.0205 151.73 56.5788 151.961 57.161 151.961H131.707C132.29 151.961 132.848 151.73 133.26 151.318C133.671 150.906 133.902 150.348 133.902 149.766C133.902 149.184 133.671 148.625 133.26 148.214C132.848 147.802 132.29 147.571 131.707 147.571H115.122V144.819C117.473 144.756 119.706 143.777 121.346 142.092C122.986 140.406 123.903 138.147 123.902 135.795ZM103.034 39.4829C104.351 37.6421 106.027 36.0859 107.959 34.9075C109.892 33.7291 112.043 32.9528 114.282 32.6249C116.522 32.297 118.805 32.4243 120.994 32.9992C123.184 33.5741 125.235 34.5848 127.024 35.9707L103.307 59.6975C101.022 56.7537 99.7823 53.1319 99.7854 49.4049C99.8008 45.8553 100.927 42.3995 103.005 39.5219L103.034 39.4829ZM123.902 64.6732C122.509 65.3277 121.031 65.7873 119.512 66.039C118.594 66.2026 117.664 66.2874 116.732 66.2927C113.004 66.2907 109.383 65.0482 106.439 62.761L130.078 39.1219C131.619 41.1196 132.691 43.4374 133.217 45.9047C133.742 48.372 133.708 50.9258 133.115 53.3779C132.522 55.8299 131.387 58.1177 129.793 60.0726C128.198 62.0275 126.185 63.5996 123.902 64.6732ZM56.3512 48.5073C56.359 47.2833 56.8506 46.1121 57.7189 45.2494C58.5871 44.3866 59.7614 43.9024 60.9854 43.9024H96.1073C95.2636 47.0589 95.157 50.3671 95.7959 53.5713C96.4348 56.7755 97.802 59.7898 99.7918 62.3813C101.782 64.9728 104.341 67.0719 107.271 68.5165C110.202 69.961 113.425 70.7123 116.693 70.7122C117.623 70.711 118.552 70.6458 119.473 70.5171V80H56.3512V48.5073ZM56.3512 135.795V84.3902H119.512V135.795C119.51 137.023 119.021 138.201 118.152 139.069C117.284 139.938 116.106 140.427 114.878 140.429H60.9854C59.7563 140.429 58.5776 139.941 57.7086 139.072C56.8395 138.203 56.3512 137.024 56.3512 135.795ZM65.0829 147.551V144.819H110.781V147.551H65.0829Z" fill="url(#paint1_linear_146_511)"/>
<path d="M65.2976 59.7463C65.009 59.745 64.7229 59.8009 64.456 59.9108C64.1891 60.0206 63.9466 60.1823 63.7425 60.3864C63.5384 60.5905 63.3768 60.833 63.2669 61.0999C63.1571 61.3668 63.1012 61.6528 63.1025 61.9415V71.8244C63.1025 72.4066 63.3337 72.9649 63.7454 73.3766C64.1571 73.7882 64.7154 74.0195 65.2976 74.0195C65.8798 74.0195 66.4381 73.7882 66.8498 73.3766C67.2614 72.9649 67.4927 72.4066 67.4927 71.8244V61.9415C67.4927 61.3593 67.2614 60.8009 66.8498 60.3893C66.4381 59.9776 65.8798 59.7463 65.2976 59.7463Z" fill="url(#paint2_linear_146_511)"/>
<path d="M65.2976 112.049C65.8798 112.049 66.4381 111.817 66.8498 111.406C67.2614 110.994 67.4927 110.436 67.4927 109.854V93.4731C67.4927 92.891 67.2614 92.3326 66.8498 91.921C66.4381 91.5093 65.8798 91.278 65.2976 91.278C64.7154 91.278 64.1571 91.5093 63.7454 91.921C63.3337 92.3326 63.1025 92.891 63.1025 93.4731V109.854C63.1012 110.142 63.1571 110.428 63.2669 110.695C63.3768 110.962 63.5384 111.205 63.7425 111.409C63.9466 111.613 64.1891 111.774 64.456 111.884C64.7229 111.994 65.009 112.05 65.2976 112.049Z" fill="url(#paint3_linear_146_511)"/>
<path d="M50.6537 147.551H44.1561C43.5739 147.551 43.0156 147.782 42.6039 148.194C42.1923 148.606 41.961 149.164 41.961 149.746C41.961 150.328 42.1923 150.887 42.6039 151.298C43.0156 151.71 43.5739 151.941 44.1561 151.941H50.6537C51.2359 151.941 51.7942 151.71 52.2059 151.298C52.6175 150.887 52.8488 150.328 52.8488 149.746C52.8488 149.164 52.6175 148.606 52.2059 148.194C51.7942 147.782 51.2359 147.551 50.6537 147.551Z" fill="url(#paint4_linear_146_511)"/>
<defs>
<linearGradient id="paint0_linear_146_511" x1="123.1" y1="180" x2="37.677" y2="2.90302" gradientUnits="userSpaceOnUse">
<stop stop-color="#835342"/>
<stop offset="0.972222" stop-color="#FFCAA4"/>
</linearGradient>
<linearGradient id="paint1_linear_146_511" x1="123.1" y1="180" x2="37.677" y2="2.90302" gradientUnits="userSpaceOnUse">
<stop stop-color="#835342"/>
<stop offset="0.972222" stop-color="#FFCAA4"/>
</linearGradient>
<linearGradient id="paint2_linear_146_511" x1="123.1" y1="180" x2="37.677" y2="2.90302" gradientUnits="userSpaceOnUse">
<stop stop-color="#835342"/>
<stop offset="0.972222" stop-color="#FFCAA4"/>
</linearGradient>
<linearGradient id="paint3_linear_146_511" x1="123.1" y1="180" x2="37.677" y2="2.90302" gradientUnits="userSpaceOnUse">
<stop stop-color="#835342"/>
<stop offset="0.972222" stop-color="#FFCAA4"/>
</linearGradient>
<linearGradient id="paint4_linear_146_511" x1="123.1" y1="180" x2="37.677" y2="2.90302" gradientUnits="userSpaceOnUse">
<stop stop-color="#835342"/>
<stop offset="0.972222" stop-color="#FFCAA4"/>
</linearGradient>
</defs>
</svg>
