<svg width="180" height="180" viewBox="0 0 180 180" fill="none" xmlns="http://www.w3.org/2000/svg">
<path d="M90 0C72.1997 0 54.7991 5.27841 39.9987 15.1677C25.1983 25.0571 13.6628 39.1131 6.85088 55.5585C0.038996 72.0038 -1.7433 90.0998 1.72936 107.558C5.20203 125.016 13.7737 141.053 26.3604 153.64C38.9471 166.226 54.9836 174.798 72.4419 178.271C89.9002 181.743 107.996 179.961 124.442 173.149C140.887 166.337 154.943 154.802 164.832 140.001C174.722 125.201 180 107.8 180 90C179.974 66.1384 170.484 43.2616 153.611 26.3889C136.738 9.51623 113.862 0.0258242 90 0ZM90 175.61C73.068 175.61 56.5162 170.589 42.4378 161.182C28.3593 151.775 17.3865 138.405 10.9069 122.761C4.42734 107.118 2.73198 89.905 6.03525 73.2983C9.33852 56.6917 17.4921 41.4375 29.4648 29.4648C41.4375 17.492 56.6917 9.33848 73.2984 6.03521C89.905 2.73194 107.118 4.4273 122.761 10.9069C138.405 17.3865 151.775 28.3593 161.182 42.4378C170.589 56.5162 175.61 73.068 175.61 90C175.587 112.698 166.559 134.46 150.51 150.51C134.46 166.559 112.698 175.586 90 175.61Z" fill="url(#paint0_linear_146_484)"/>
<path d="M87.0732 107.717L84.9659 105.424L80.5561 100.605C79.687 99.6508 79.1909 98.4155 79.1586 97.1254C79.1264 95.8353 79.5602 94.5767 80.3805 93.5805L81.9512 91.7073L86.2439 86.5171C87.7782 84.6542 88.5675 82.2887 88.4594 79.8778C88.3513 77.4668 87.3534 75.1815 85.6586 73.4634L83.6293 71.4049L80.1073 67.8146C79.2841 66.9814 78.7579 65.9005 78.6098 64.7386C78.4617 63.5768 78.6999 62.3984 79.2878 61.3853L82.4488 55.9317C82.6504 55.5738 82.7475 55.1666 82.7292 54.7562C82.7108 54.3459 82.5777 53.949 82.345 53.6105C82.1122 53.2721 81.7892 53.0057 81.4126 52.8418C81.036 52.6778 80.621 52.6227 80.2147 52.6829L37.8634 59.1707C34.9594 59.6663 32.3184 61.1574 30.394 63.3881C28.4695 65.6187 27.3816 68.4498 27.3171 71.3951V124.8C27.28 126.07 27.5008 127.335 27.966 128.517C28.4313 129.7 29.1314 130.776 30.024 131.681C30.9167 132.585 31.9834 133.299 33.1597 133.78C34.3361 134.261 35.5977 134.498 36.8683 134.478C37.4333 134.479 37.9976 134.437 38.5561 134.351L83.4342 127.463C83.7897 127.409 84.1263 127.267 84.4139 127.051C84.7015 126.834 84.9314 126.551 85.083 126.224L88.7415 118.419C89.5597 116.672 89.838 114.72 89.5408 112.814C89.2437 110.907 88.3845 109.133 87.0732 107.717ZM81.2878 75.2878L82.5269 76.5463C83.4605 77.4872 84.0098 78.7423 84.0676 80.0665C84.1253 81.3906 83.6873 82.6888 82.8391 83.7073L79.0732 88.2634L66.9366 90.1268V77.4927L81.2878 75.2878ZM62.5464 95.239V107.873L51.7561 109.532V96.8488L62.5464 95.239ZM51.7561 92.4585V79.7756L62.5464 78.1171V90.8L51.7561 92.4585ZM66.9366 94.5658L75.5122 93.2488C74.8071 94.964 74.6025 96.8439 74.9219 98.6708C75.2413 100.498 76.0718 102.196 77.3171 103.571L78.9561 105.366L66.9366 107.21V94.5658ZM84.7317 116.576L81.5708 123.298L37.8634 130.01C37.0858 130.156 36.2854 130.131 35.5186 129.935C34.7518 129.74 34.037 129.379 33.4244 128.878C32.8543 128.366 32.4027 127.736 32.1011 127.032C31.7995 126.327 31.6551 125.566 31.6781 124.8V71.3951C31.7611 69.5026 32.4807 67.6936 33.7202 66.2612C34.9597 64.8287 36.6465 63.8566 38.5074 63.5024L76.3317 57.6488L75.4732 59.1317C74.4079 60.9773 73.9761 63.1209 74.2439 65.235C74.5117 67.3491 75.4643 69.3173 76.9561 70.839L77.4732 71.3658L66.9366 73.0439V64.0488C66.9366 63.4666 66.7053 62.9082 66.2937 62.4966C65.882 62.0849 65.3237 61.8536 64.7415 61.8536C64.1593 61.8536 63.601 62.0849 63.1893 62.4966C62.7776 62.9082 62.5464 63.4666 62.5464 64.0488V73.7171L51.7561 75.3756V66.3414C51.7561 65.7593 51.5249 65.2009 51.1132 64.7893C50.7015 64.3776 50.1432 64.1463 49.561 64.1463C48.9788 64.1463 48.4205 64.3776 48.0088 64.7893C47.5972 65.2009 47.3659 65.7593 47.3659 66.3414V76.0975L37.8537 77.561C37.3357 77.6401 36.8631 77.902 36.5214 78.2992C36.1796 78.6964 35.9912 79.2028 35.9903 79.7268C35.9806 79.8404 35.9806 79.9547 35.9903 80.0683C36.0331 80.353 36.1318 80.6265 36.2807 80.873C36.4296 81.1195 36.6257 81.3341 36.8578 81.5045C37.0899 81.675 37.3534 81.7979 37.6331 81.8662C37.9128 81.9344 38.2033 81.9468 38.4878 81.9024L47.3366 80.5463V93.1317L37.8537 94.6341C37.3357 94.7133 36.8631 94.9752 36.5214 95.3724C36.1796 95.7696 35.9912 96.276 35.9903 96.8C35.9809 96.9103 35.9809 97.0213 35.9903 97.1317C36.0319 97.417 36.1298 97.6912 36.2783 97.9383C36.4268 98.1854 36.623 98.4006 36.8553 98.5713C37.0877 98.7419 37.3517 98.8647 37.632 98.9324C37.9122 99.0002 38.2032 99.0115 38.4878 98.9658L47.3659 97.561V110.244L37.8537 111.707C37.3357 111.786 36.8631 112.048 36.5214 112.446C36.1796 112.843 35.9912 113.349 35.9903 113.873C35.9806 113.987 35.9806 114.101 35.9903 114.215C36.0816 114.787 36.395 115.301 36.8625 115.644C37.33 115.988 37.914 116.133 38.4878 116.049L47.3366 114.693V123.61C47.3366 124.192 47.5679 124.75 47.9795 125.162C48.3912 125.574 48.9496 125.805 49.5317 125.805C50.1139 125.805 50.6723 125.574 51.0839 125.162C51.4956 124.75 51.7269 124.192 51.7269 123.61V114.01L62.5171 112.361V121.278C62.5171 121.86 62.7484 122.419 63.16 122.83C63.5717 123.242 64.13 123.473 64.7122 123.473C65.2944 123.473 65.8527 123.242 66.2644 122.83C66.6761 122.419 66.9073 121.86 66.9073 121.278V111.678L82.5171 109.288L83.8244 110.722C84.5381 111.498 85.0052 112.469 85.1668 113.511C85.3283 114.553 85.1769 115.62 84.7317 116.576Z" fill="url(#paint1_linear_146_484)"/>
<path d="M142.439 59.2195L95.2293 52.2732C94.8271 52.2157 94.4169 52.2699 94.0435 52.4299C93.6701 52.59 93.3479 52.8496 93.1122 53.1805L90.2439 57.278C89.057 58.9687 88.4373 60.9924 88.4741 63.0578C88.5109 65.1231 89.2024 67.1235 90.4488 68.7707L94.683 74.3414L97.3073 77.8049C98.1211 78.8665 98.5056 80.1955 98.3845 81.5276C98.2634 82.8598 97.6455 84.0976 96.6537 84.9951L93.1317 88.1951L92.3805 88.8878C90.6146 90.4963 89.5002 92.6968 89.2484 95.0721C88.9967 97.4475 89.6251 99.8327 91.0147 101.776L95.8927 108.605L98.6439 112.429C99.2275 113.25 99.5697 114.218 99.6318 115.223C99.6938 116.228 99.4733 117.231 98.9951 118.117L95.4634 124.566C95.2901 124.88 95.1964 125.231 95.1903 125.59C95.1843 125.948 95.2662 126.303 95.4289 126.623C95.5916 126.942 95.83 127.217 96.1235 127.423C96.4169 127.629 96.7564 127.76 97.1122 127.805L141.756 134.38C142.292 134.458 142.834 134.497 143.376 134.498C144.655 134.517 145.926 134.276 147.11 133.791C148.294 133.305 149.367 132.585 150.265 131.673C151.164 130.761 151.868 129.677 152.335 128.486C152.803 127.294 153.024 126.021 152.985 124.741V71.3951C152.93 68.4522 151.845 65.6219 149.917 63.3971C147.99 61.1723 145.344 59.6939 142.439 59.2195ZM98.9561 105.366L94.5756 99.2585C93.8103 98.1938 93.463 96.8849 93.5997 95.5808C93.7364 94.2766 94.3476 93.0682 95.3171 92.1853L112.195 94.6341V107.317L98.9561 105.366ZM101.366 76L112.195 77.5512V90.2341L99.5122 88.3707L99.6 88.2927C101.296 86.7719 102.402 84.7027 102.725 82.4478C103.048 80.193 102.567 77.8965 101.366 75.961V76ZM116.546 90.878V78.1951L127.337 79.7853V92.4683L116.546 90.878ZM127.337 96.8975V109.58L116.546 107.99V95.3073L127.337 96.8975ZM148.595 124.839C148.619 125.61 148.474 126.376 148.168 127.084C147.863 127.792 147.406 128.425 146.829 128.937C146.219 129.443 145.506 129.81 144.739 130.012C143.972 130.214 143.171 130.247 142.39 130.107L100.868 123.99L102.888 120.302C103.723 118.757 104.129 117.016 104.062 115.26C103.995 113.505 103.458 111.799 102.507 110.322L112.195 111.707V121.327C112.195 121.909 112.426 122.467 112.838 122.879C113.25 123.291 113.808 123.522 114.39 123.522C114.972 123.522 115.531 123.291 115.942 122.879C116.354 122.467 116.585 121.909 116.585 121.327V112.351L127.376 113.941V123.561C127.376 124.143 127.607 124.701 128.019 125.113C128.43 125.525 128.989 125.756 129.571 125.756C130.153 125.756 130.711 125.525 131.123 125.113C131.535 124.701 131.766 124.143 131.766 123.561V114.585L141.766 116.098C142.342 116.181 142.927 116.033 143.393 115.685C143.86 115.338 144.169 114.819 144.254 114.244C144.263 114.137 144.263 114.029 144.254 113.922C144.252 113.394 144.062 112.884 143.716 112.485C143.37 112.085 142.893 111.823 142.371 111.746L131.707 110.146V97.561L141.746 99.0341C142.322 99.1179 142.907 98.9697 143.374 98.6221C143.84 98.2745 144.15 97.756 144.234 97.1805C144.244 97.0734 144.244 96.9656 144.234 96.8585C144.25 96.3345 144.078 95.8221 143.748 95.4141C143.419 95.0061 142.955 94.7294 142.439 94.6341L131.707 93.0732V80.3902L141.766 81.9512C142.342 82.0349 142.927 81.8867 143.393 81.5392C143.86 81.1916 144.169 80.6731 144.254 80.0975C144.263 79.9904 144.263 79.8827 144.254 79.7756C144.264 79.252 144.087 78.7421 143.754 78.3378C143.421 77.9334 142.955 77.6614 142.439 77.5707L131.707 75.9902V66.3414C131.707 65.7593 131.476 65.2009 131.064 64.7893C130.653 64.3776 130.094 64.1463 129.512 64.1463C128.93 64.1463 128.372 64.3776 127.96 64.7893C127.548 65.2009 127.317 65.7593 127.317 66.3414V75.3171L116.546 73.7561V64.1366C116.546 63.5544 116.315 62.9961 115.903 62.5844C115.492 62.1727 114.933 61.9415 114.351 61.9415C113.769 61.9415 113.211 62.1727 112.799 62.5844C112.387 62.9961 112.156 63.5544 112.156 64.1366V73.1122L97.639 70.9756L93.9512 66.0975C93.2614 65.1953 92.8779 64.0962 92.8568 62.9607C92.8358 61.8251 93.1782 60.7125 93.8342 59.7854L95.9317 56.7902L141.785 63.5414C143.639 63.8773 145.324 64.8322 146.564 66.25C147.805 67.6678 148.528 69.4645 148.615 71.3463L148.595 124.839Z" fill="url(#paint2_linear_146_484)"/>
<path d="M90.1366 39.4634C90.7188 39.4634 91.2771 39.2321 91.6888 38.8205C92.1004 38.4088 92.3317 37.8505 92.3317 37.2683V24.8C92.3317 24.2178 92.1004 23.6595 91.6888 23.2478C91.2771 22.8361 90.7188 22.6049 90.1366 22.6049C89.5544 22.6049 88.9961 22.8361 88.5844 23.2478C88.1728 23.6595 87.9415 24.2178 87.9415 24.8V37.2683C87.9415 37.8505 88.1728 38.4088 88.5844 38.8205C88.9961 39.2321 89.5544 39.4634 90.1366 39.4634Z" fill="url(#paint3_linear_146_484)"/>
<path d="M77.6195 41.4049C77.8205 41.6205 78.0628 41.7935 78.3321 41.9135C78.6014 42.0335 78.892 42.098 79.1868 42.1032C79.4815 42.1084 79.7743 42.0542 80.0476 41.9438C80.321 41.8334 80.5692 41.669 80.7777 41.4606C80.9861 41.2521 81.1505 41.0039 81.2609 40.7305C81.3713 40.4572 81.4255 40.1644 81.4203 39.8697C81.4151 39.5749 81.3506 39.2843 81.2306 39.015C81.1106 38.7457 80.9376 38.5034 80.722 38.3024L71.9415 29.5219C71.5254 29.1342 70.975 28.9231 70.4063 28.9331C69.8376 28.9432 69.295 29.1735 68.8928 29.5757C68.4907 29.9779 68.2603 30.5205 68.2502 31.0892C68.2402 31.6579 68.4513 32.2083 68.839 32.6244L77.6195 41.4049Z" fill="url(#paint4_linear_146_484)"/>
<path d="M101.102 42.0488C101.684 42.0483 102.242 41.8167 102.654 41.4049L111.434 32.6244C111.65 32.4234 111.823 32.1811 111.943 31.9118C112.063 31.6425 112.127 31.3519 112.132 31.0571C112.138 30.7624 112.083 30.4696 111.973 30.1963C111.863 29.923 111.698 29.6747 111.49 29.4662C111.281 29.2578 111.033 29.0935 110.76 28.983C110.486 28.8726 110.194 28.8184 109.899 28.8236C109.604 28.8288 109.314 28.8933 109.044 29.0133C108.775 29.1333 108.533 29.3063 108.332 29.5219L99.5512 38.3024C99.2446 38.6094 99.0359 39.0004 98.9513 39.4259C98.8668 39.8515 98.9103 40.2926 99.0762 40.6934C99.2422 41.0943 99.5233 41.437 99.8839 41.6782C100.245 41.9194 100.669 42.0484 101.102 42.0488Z" fill="url(#paint5_linear_146_484)"/>
<path d="M90.1366 139.454C89.5544 139.454 88.9961 139.685 88.5844 140.097C88.1728 140.508 87.9415 141.067 87.9415 141.649V154.146C87.9415 154.728 88.1728 155.287 88.5844 155.698C88.9961 156.11 89.5544 156.341 90.1366 156.341C90.7188 156.341 91.2771 156.11 91.6888 155.698C92.1004 155.287 92.3317 154.728 92.3317 154.146V141.649C92.3317 141.067 92.1004 140.508 91.6888 140.097C91.2771 139.685 90.7188 139.454 90.1366 139.454Z" fill="url(#paint6_linear_146_484)"/>
<path d="M77.6195 137.561L68.839 146.341C68.6234 146.542 68.4504 146.785 68.3304 147.054C68.2104 147.323 68.1459 147.614 68.1407 147.909C68.1355 148.203 68.1897 148.496 68.3001 148.77C68.4106 149.043 68.5749 149.291 68.7833 149.5C68.9918 149.708 69.2401 149.872 69.5134 149.983C69.7867 150.093 70.0795 150.147 70.3742 150.142C70.669 150.137 70.9596 150.072 71.2289 149.952C71.4982 149.833 71.7405 149.66 71.9415 149.444L80.722 140.663C80.9376 140.462 81.1106 140.22 81.2306 139.951C81.3506 139.682 81.4151 139.391 81.4203 139.096C81.4255 138.801 81.3713 138.509 81.2609 138.235C81.1505 137.962 80.9861 137.714 80.7777 137.505C80.5692 137.297 80.321 137.132 80.0476 137.022C79.7743 136.912 79.4815 136.857 79.1868 136.863C78.892 136.868 78.6014 136.932 78.3321 137.052C78.0628 137.172 77.8205 137.345 77.6195 137.561Z" fill="url(#paint7_linear_146_484)"/>
<path d="M102.654 137.561C102.453 137.345 102.21 137.172 101.941 137.052C101.672 136.932 101.381 136.868 101.086 136.863C100.792 136.857 100.499 136.912 100.226 137.022C99.9523 137.132 99.704 137.297 99.4955 137.505C99.2871 137.714 99.1227 137.962 99.0123 138.235C98.9019 138.509 98.8477 138.801 98.8529 139.096C98.8581 139.391 98.9226 139.682 99.0426 139.951C99.1626 140.22 99.3356 140.462 99.5512 140.663L108.332 149.444C108.743 149.856 109.301 150.087 109.883 150.088C110.171 150.089 110.457 150.033 110.724 149.922C110.99 149.812 111.231 149.649 111.434 149.444C111.845 149.032 112.076 148.474 112.076 147.893C112.076 147.311 111.845 146.753 111.434 146.341L102.654 137.561Z" fill="url(#paint8_linear_146_484)"/>
<defs>
<linearGradient id="paint0_linear_146_484" x1="123.1" y1="180" x2="37.677" y2="2.90302" gradientUnits="userSpaceOnUse">
<stop stop-color="#835342"/>
<stop offset="0.972222" stop-color="#FFCAA4"/>
</linearGradient>
<linearGradient id="paint1_linear_146_484" x1="123.1" y1="180" x2="37.677" y2="2.90302" gradientUnits="userSpaceOnUse">
<stop stop-color="#835342"/>
<stop offset="0.972222" stop-color="#FFCAA4"/>
</linearGradient>
<linearGradient id="paint2_linear_146_484" x1="123.1" y1="180" x2="37.677" y2="2.90302" gradientUnits="userSpaceOnUse">
<stop stop-color="#835342"/>
<stop offset="0.972222" stop-color="#FFCAA4"/>
</linearGradient>
<linearGradient id="paint3_linear_146_484" x1="123.1" y1="180" x2="37.677" y2="2.90302" gradientUnits="userSpaceOnUse">
<stop stop-color="#835342"/>
<stop offset="0.972222" stop-color="#FFCAA4"/>
</linearGradient>
<linearGradient id="paint4_linear_146_484" x1="123.1" y1="180" x2="37.677" y2="2.90302" gradientUnits="userSpaceOnUse">
<stop stop-color="#835342"/>
<stop offset="0.972222" stop-color="#FFCAA4"/>
</linearGradient>
<linearGradient id="paint5_linear_146_484" x1="123.1" y1="180" x2="37.677" y2="2.90302" gradientUnits="userSpaceOnUse">
<stop stop-color="#835342"/>
<stop offset="0.972222" stop-color="#FFCAA4"/>
</linearGradient>
<linearGradient id="paint6_linear_146_484" x1="123.1" y1="180" x2="37.677" y2="2.90302" gradientUnits="userSpaceOnUse">
<stop stop-color="#835342"/>
<stop offset="0.972222" stop-color="#FFCAA4"/>
</linearGradient>
<linearGradient id="paint7_linear_146_484" x1="123.1" y1="180" x2="37.677" y2="2.90302" gradientUnits="userSpaceOnUse">
<stop stop-color="#835342"/>
<stop offset="0.972222" stop-color="#FFCAA4"/>
</linearGradient>
<linearGradient id="paint8_linear_146_484" x1="123.1" y1="180" x2="37.677" y2="2.90302" gradientUnits="userSpaceOnUse">
<stop stop-color="#835342"/>
<stop offset="0.972222" stop-color="#FFCAA4"/>
</linearGradient>
</defs>
</svg>
