<svg width="180" height="180" viewBox="0 0 180 180" fill="none" xmlns="http://www.w3.org/2000/svg">
<path d="M98.8586 46.3219C105.756 46.2536 108.615 50.8293 108.615 58.322C108.303 67.4353 106.163 76.3932 102.322 84.6634C107.649 85.1024 113.054 84.9268 118.527 84.878C127.6 84.8 133.073 88.4975 133.161 95.6097C133.307 98.5366 131.756 100.82 129.483 102.527L129.6 102.654C131.551 107.102 131.493 111.434 127.171 114.644L127.298 114.761C129.249 119.219 129.19 123.541 124.868 126.751L124.985 126.868C126.351 130.605 126.088 128.917 126.361 131.941C126.42 138.585 121.629 142.859 114.371 142.927L99.7367 143.063C91.3197 143.097 82.911 142.526 74.5757 141.356C72.5171 141.015 70.4586 140.79 68.2733 140.332V140.937C68.2759 141.576 68.0264 142.19 67.579 142.647C67.1315 143.104 66.5222 143.365 65.883 143.376L42.9074 141.063C42.2674 141.069 41.6513 140.82 41.1942 140.372C40.737 139.924 40.4761 139.313 40.4684 138.673L40.0391 85.0146C40.0365 84.3737 40.2873 83.7577 40.7368 83.3008C41.1864 82.844 41.7981 82.5833 42.439 82.5756L65.3074 80.5268C65.9476 80.5267 66.5621 80.7783 67.0184 81.2273C67.4747 81.6763 67.7362 82.2867 67.7464 82.9268V83.2878C73.0342 80.0975 76.8586 74.9853 80.683 70.2341C81.7205 68.7904 82.6748 67.2888 83.5415 65.7366C84.8488 63.4244 89.3952 54.0292 90.4293 52.2536C92.6927 48.6049 95.2196 46.4 98.8391 46.4L98.8586 46.3219ZM44.9171 87.2975L45.2976 136.137L63.4342 138.488L62.9464 85.2975L44.9171 87.2975ZM98.9073 51.1219C94.0293 51.1219 91.7659 63.278 84.5952 73.0146C80.2445 79.1583 74.801 84.4495 68.5366 88.6244L67.8147 88.9951L68.244 135.171C78.5367 137.619 89.1806 137.883 99.6976 138.098L114.205 137.971C119.083 137.971 121.444 135.483 121.405 131.854C121.366 128.224 118.956 128.254 118.937 125.834C118.917 123.415 123.746 123.376 123.717 119.746C123.688 116.117 121.268 116.137 121.239 113.727C121.21 111.317 126.059 111.259 126.02 107.639C125.981 104.02 123.571 104.029 123.551 101.61C123.532 99.1902 128.361 99.1512 128.332 95.522C128.302 91.8927 125.854 89.5024 118.576 89.5707C101.649 89.7268 94.3903 89.7853 96.7708 84.9268C99.3757 79.5902 103.864 67.9414 103.776 58.2731C103.776 53.3951 102.625 51.0244 98.8977 51.0634L98.9073 51.1219Z" fill="url(#paint0_linear_23_110)"/>
<path d="M64.4879 68.517H64.2927L48.8489 67.317C48.202 67.2666 47.6016 66.9612 47.1799 66.4681C46.7582 65.9751 46.5496 65.3346 46.6 64.6878C46.6505 64.0409 46.9558 63.4406 47.4489 63.0188C47.942 62.5971 48.5825 62.3885 49.2294 62.439L64.6732 63.639C65.3201 63.6635 65.9308 63.9441 66.3708 64.4189C66.8108 64.8937 67.0442 65.5238 67.0196 66.1707C66.995 66.8176 66.7144 67.4282 66.2397 67.8682C65.7649 68.3082 65.1348 68.5416 64.4879 68.517Z" fill="url(#paint1_linear_23_110)"/>
<path d="M75.0635 47.5122C74.7106 47.5129 74.3617 47.4364 74.0415 47.2881C73.7213 47.1398 73.4375 46.9233 73.2098 46.6537L63.1318 34.8878C62.7113 34.3962 62.5034 33.7577 62.5537 33.1127C62.604 32.4678 62.9085 31.8692 63.4001 31.4488C63.8917 31.0283 64.5302 30.8204 65.1752 30.8707C65.8201 30.921 66.4186 31.2255 66.839 31.7171L76.9074 43.4829C77.2114 43.8365 77.4078 44.2698 77.4731 44.7316C77.5384 45.1933 77.4699 45.6641 77.2759 46.0881C77.0818 46.5121 76.7703 46.8717 76.3781 47.1241C75.986 47.3765 75.5298 47.5112 75.0635 47.5122Z" fill="url(#paint2_linear_23_110)"/>
<path d="M97.3952 40.1269H97.2C96.8815 40.1022 96.5711 40.015 96.2863 39.8701C96.0016 39.7253 95.7482 39.5258 95.5407 39.283C95.3332 39.0401 95.1756 38.7587 95.077 38.4548C94.9783 38.151 94.9406 37.8307 94.966 37.5122L96.1659 22.0683C96.1909 21.748 96.2787 21.4358 96.4244 21.1494C96.57 20.8631 96.7707 20.6082 97.0148 20.3994C97.259 20.1906 97.5418 20.0319 97.8473 19.9324C98.1528 19.8329 98.4749 19.7946 98.7952 19.8195C99.1154 19.8445 99.4277 19.9324 99.7141 20.078C100 20.2237 100.255 20.4243 100.464 20.6684C100.673 20.9126 100.832 21.1955 100.931 21.501C101.031 21.8064 101.069 22.1285 101.044 22.4488L99.844 37.8927C99.7924 38.5051 99.5114 39.0755 99.0574 39.4897C98.6034 39.9039 98.0098 40.1315 97.3952 40.1269Z" fill="url(#paint3_linear_23_110)"/>
<path d="M118.4 50.7025C117.902 50.7015 117.416 50.548 117.008 50.2626C116.599 49.9772 116.288 49.5737 116.116 49.1061C115.944 48.6386 115.919 48.1296 116.045 47.6476C116.171 47.1655 116.441 46.7335 116.82 46.4098L128.585 36.3415C128.829 36.1333 129.111 35.9751 129.415 35.8759C129.72 35.7767 130.041 35.7385 130.36 35.7634C130.68 35.7883 130.991 35.8759 131.277 36.0211C131.562 36.1663 131.816 36.3664 132.024 36.6098C132.233 36.8532 132.391 37.1352 132.49 37.4398C132.589 37.7444 132.627 38.0655 132.603 38.3849C132.578 38.7042 132.49 39.0155 132.345 39.301C132.2 39.5865 132 39.8406 131.756 40.0488L119.99 50.1268C119.545 50.5015 118.982 50.7055 118.4 50.7025Z" fill="url(#paint4_linear_23_110)"/>
<path d="M141.229 74.2341H141.034L125.581 73.0341C124.934 72.9836 124.333 72.6783 123.912 72.1852C123.49 71.6921 123.281 71.0517 123.332 70.4048C123.382 69.7579 123.688 69.1576 124.181 68.7359C124.674 68.3142 125.314 68.1056 125.961 68.156L141.405 69.3561C142.052 69.3807 142.662 69.6612 143.102 70.136C143.543 70.6107 143.776 71.2409 143.751 71.8878C143.727 72.5346 143.446 73.1452 142.971 73.5853C142.497 74.0253 141.866 74.2587 141.22 74.2341H141.229Z" fill="url(#paint5_linear_23_110)"/>
<path d="M90 180C72.1997 180 54.7991 174.722 39.9987 164.832C25.1983 154.943 13.6628 140.887 6.85094 124.442C0.0390527 107.996 -1.74332 89.9002 1.72935 72.4419C5.20201 54.9836 13.7737 38.9471 26.3604 26.3604C38.9471 13.7737 54.9836 5.20204 72.4419 1.72938C89.9002 -1.74329 107.996 0.0389643 124.442 6.85085C140.887 13.6627 154.943 25.1983 164.832 39.9987C174.722 54.7991 180 72.1997 180 90C179.974 113.862 170.484 136.738 153.611 153.611C136.738 170.484 113.862 179.974 90 180ZM90 4.39027C73.068 4.39027 56.5163 9.41123 42.4378 18.8181C28.3594 28.2251 17.3866 41.5955 10.907 57.2386C4.42741 72.8817 2.732 90.095 6.03527 106.702C9.33854 123.308 17.4921 138.563 29.4648 150.535C41.4375 162.508 56.6917 170.662 73.2984 173.965C89.905 177.268 107.118 175.573 122.761 169.093C138.405 162.614 151.775 151.641 161.182 137.562C170.589 123.484 175.61 106.932 175.61 90C175.584 67.3028 166.556 45.5426 150.507 29.4933C134.457 13.4439 112.697 4.41609 90 4.39027Z" fill="url(#paint6_linear_23_110)"/>
<defs>
<linearGradient id="paint0_linear_23_110" x1="123.1" y1="180" x2="37.6769" y2="2.90303" gradientUnits="userSpaceOnUse">
<stop stop-color="#835342"/>
<stop offset="0.972222" stop-color="#FFCAA4"/>
</linearGradient>
<linearGradient id="paint1_linear_23_110" x1="123.1" y1="180" x2="37.6769" y2="2.90303" gradientUnits="userSpaceOnUse">
<stop stop-color="#835342"/>
<stop offset="0.972222" stop-color="#FFCAA4"/>
</linearGradient>
<linearGradient id="paint2_linear_23_110" x1="123.1" y1="180" x2="37.6769" y2="2.90303" gradientUnits="userSpaceOnUse">
<stop stop-color="#835342"/>
<stop offset="0.972222" stop-color="#FFCAA4"/>
</linearGradient>
<linearGradient id="paint3_linear_23_110" x1="123.1" y1="180" x2="37.6769" y2="2.90303" gradientUnits="userSpaceOnUse">
<stop stop-color="#835342"/>
<stop offset="0.972222" stop-color="#FFCAA4"/>
</linearGradient>
<linearGradient id="paint4_linear_23_110" x1="123.1" y1="180" x2="37.6769" y2="2.90303" gradientUnits="userSpaceOnUse">
<stop stop-color="#835342"/>
<stop offset="0.972222" stop-color="#FFCAA4"/>
</linearGradient>
<linearGradient id="paint5_linear_23_110" x1="123.1" y1="180" x2="37.6769" y2="2.90303" gradientUnits="userSpaceOnUse">
<stop stop-color="#835342"/>
<stop offset="0.972222" stop-color="#FFCAA4"/>
</linearGradient>
<linearGradient id="paint6_linear_23_110" x1="123.1" y1="180" x2="37.6769" y2="2.90303" gradientUnits="userSpaceOnUse">
<stop stop-color="#835342"/>
<stop offset="0.972222" stop-color="#FFCAA4"/>
</linearGradient>
</defs>
</svg>
