<svg width="16" height="18" viewBox="0 0 16 18" fill="none" xmlns="http://www.w3.org/2000/svg">
<path d="M6.77077 17.7428H6.71668L6.31097 17.4543C4.77789 16.3829 3.41349 15.0883 2.26293 13.6137L1.97443 13.244C0.756211 11.6424 0.066208 9.70156 0 7.69037L0 7.42892C0.0631938 5.43813 0.898109 3.54994 2.32822 2.16358C3.75833 0.777211 5.67153 0.0013378 7.66332 0L7.91576 0C9.91043 0.0702612 11.7994 0.914157 13.1827 2.35297C14.566 3.79178 15.3349 5.71251 15.3266 7.7084V7.79856C15.2816 10.1787 14.1185 12.64 11.9728 14.9209C10.9552 15.9748 9.82096 16.9095 8.59194 17.7068C8.32996 17.8973 8.01433 18 7.69037 18C7.36641 18 7.05079 17.8973 6.7888 17.7068L6.77077 17.7428ZM7.46498 1.37038C5.8274 1.42422 4.27496 2.11281 3.1359 3.29057C1.99685 4.46832 1.36048 6.0429 1.36137 7.68136V8.00592C1.48822 9.60998 2.08042 11.1422 3.06533 12.4146C4.2819 14.0466 5.77748 15.4506 7.48301 16.5618L7.55514 16.6159C7.58489 16.6425 7.62341 16.6572 7.66332 16.6572C7.70324 16.6572 7.74176 16.6425 7.77151 16.6159L7.84364 16.5618C8.98866 15.8234 10.0445 14.9552 10.9901 13.9743C12.7092 12.3491 13.7685 10.147 13.9653 7.78954V7.49203C13.916 5.85128 13.2295 4.29429 12.0512 3.15139C10.873 2.0085 9.29579 1.36964 7.65431 1.37038H7.46498ZM4.76028 7.79856C4.76207 7.22045 4.93537 6.65587 5.25823 6.1763C5.58109 5.69674 6.03899 5.32376 6.57395 5.1046C7.10891 4.88543 7.69687 4.82993 8.2634 4.94513C8.82992 5.06033 9.34952 5.34103 9.75641 5.75172C10.1633 6.1624 10.4392 6.68458 10.5491 7.25214C10.6591 7.81971 10.5981 8.40714 10.374 8.94004C10.1499 9.47295 9.77266 9.92737 9.29013 10.2458C8.80759 10.5642 8.24143 10.7322 7.66332 10.7287C6.88778 10.7263 6.14481 10.4165 5.59726 9.86727C5.04971 9.31803 4.74224 8.57411 4.74225 7.79856H4.76028ZM6.12164 7.79856C6.12166 8.1078 6.21361 8.41006 6.38581 8.66693C6.558 8.9238 6.80267 9.12369 7.08872 9.24119C7.37477 9.35869 7.6893 9.38851 7.99233 9.32685C8.29537 9.26519 8.57324 9.11484 8.79063 8.89491C9.00803 8.67497 9.15513 8.39537 9.21326 8.09164C9.27139 7.78791 9.23792 7.47375 9.1171 7.18908C8.99628 6.90442 8.79356 6.66209 8.53471 6.4929C8.27586 6.3237 7.97255 6.23527 7.66332 6.23885C7.4585 6.23885 7.25568 6.27919 7.06645 6.35757C6.87721 6.43596 6.70527 6.55084 6.56044 6.69568C6.41561 6.84051 6.30072 7.01245 6.22234 7.20168C6.14395 7.39092 6.10361 7.59373 6.10361 7.79856H6.12164Z" fill="#E10A16"/>
</svg>
