<svg width="21" height="18" viewBox="0 0 21 18" fill="none" xmlns="http://www.w3.org/2000/svg">
<path d="M5.46084 17.9996C4.72555 18.0082 3.99666 17.8622 3.3214 17.5711C2.64614 17.2799 2.03957 16.8502 1.54099 16.3097C0.522329 15.1624 -0.0273991 13.6739 0.00105162 12.1399V5.86012C-0.0273991 4.32613 0.522329 2.83758 1.54099 1.69029C2.03957 1.14979 2.64614 0.720055 3.3214 0.428936C3.99666 0.137816 4.72555 -0.00819708 5.46084 0.000355097H14.5305C16.0025 0.0266673 17.4042 0.634703 18.4292 1.69153C19.4541 2.74837 20.019 4.16802 20.0003 5.64013C20.0052 5.71338 20.0052 5.78688 20.0003 5.86012V12.0999C20.0493 12.8521 19.9443 13.6063 19.6917 14.3165C19.4391 15.0267 19.0442 15.6779 18.5312 16.2302C18.0183 16.7824 17.398 17.2242 16.7083 17.5285C16.0187 17.8328 15.2742 17.9931 14.5205 17.9996H5.46084ZM1.52099 5.86012V12.1399C1.47725 12.6655 1.53789 13.1945 1.69942 13.6966C1.86095 14.1987 2.12019 14.6639 2.4622 15.0654C2.80422 15.4669 3.22226 15.7968 3.69227 16.0361C4.16228 16.2753 4.67497 16.4193 5.20085 16.4597H14.5105C15.0539 16.4539 15.5903 16.3373 16.0872 16.1173C16.5841 15.8972 17.0309 15.5782 17.4004 15.1798C17.7703 14.7767 18.0556 14.3035 18.2394 13.7882C18.4231 13.273 18.5017 12.7261 18.4703 12.1799V5.81013C18.5028 5.26384 18.4248 4.71662 18.241 4.20117C18.0571 3.68573 17.7712 3.21266 17.4004 2.81024C17.0309 2.41178 16.5841 2.09278 16.0872 1.87272C15.5903 1.65266 15.0539 1.53615 14.5105 1.53029H5.51083C4.97963 1.53021 4.45372 1.63595 3.96382 1.84132C3.47392 2.04669 3.02983 2.34759 2.65748 2.72646C2.28513 3.10533 1.99198 3.55456 1.79513 4.04796C1.59829 4.54135 1.5017 5.06901 1.51099 5.60013C1.50933 5.68692 1.51267 5.77373 1.52099 5.86012ZM8.38072 10.14L8.22073 9.99996L4.09089 6.72009C3.92633 6.60633 3.81326 6.43226 3.77622 6.23567C3.73918 6.03907 3.78116 5.83579 3.89304 5.66995C4.00492 5.5041 4.17768 5.38906 4.37384 5.34978C4.57001 5.3105 4.77375 5.35016 4.94086 5.46014L5.00085 5.52014L9.13069 8.82001C9.35238 8.9966 9.62338 9.10009 9.90635 9.11621C10.1893 9.13233 10.4703 9.06028 10.7106 8.91L10.8306 8.83001L15.0005 5.53014C15.1519 5.42344 15.3371 5.37574 15.5212 5.396C15.7054 5.41625 15.8758 5.50307 16.0004 5.64013C16.1214 5.77861 16.188 5.95624 16.188 6.14011C16.188 6.32398 16.1214 6.50162 16.0004 6.64009L15.9204 6.71009L11.8006 9.99996C11.317 10.3801 10.725 10.5966 10.1102 10.6182C9.49548 10.6397 8.8898 10.4653 8.38072 10.12V10.14Z" fill="#E10A16"/>
</svg>
