<svg width="180" height="180" viewBox="0 0 180 180" fill="none" xmlns="http://www.w3.org/2000/svg">
<path d="M158.099 30.9619C158.026 30.8369 157.941 30.7191 157.845 30.61C155.25 27.6527 152.464 24.8674 149.507 22.2717C149.399 22.1816 149.285 22.0999 149.165 22.0274C131.936 7.09144 109.686 -0.759015 86.8989 0.0579154C64.1118 0.874845 42.4813 10.2984 26.3661 26.4298C10.2509 42.5611 0.848884 64.201 0.0547305 86.9889C-0.739423 109.777 7.13327 132.019 22.0864 149.233C22.1459 149.333 22.2147 149.428 22.2917 149.516C24.8854 152.485 27.6743 155.277 30.6397 157.874C30.7474 157.964 30.8617 158.046 30.9819 158.118C48.2163 172.985 70.4372 180.78 93.1819 179.938C115.927 179.097 137.511 169.681 153.6 153.582C169.689 137.484 179.091 115.894 179.918 93.1485C180.746 70.4033 172.937 48.1873 158.06 30.9619H158.099ZM74.775 116.593V138.099H53.2695L74.775 116.593ZM79.1739 112.194L114.472 76.8959H129.644V138.128H79.1739V112.194ZM118.871 72.497L123.358 68.0102L127.122 72.497H118.871ZM120.513 64.6279L112.635 72.4481L108.236 76.847L79.1739 105.977L76.9745 108.177L74.775 110.357L72.2139 112.947L31.9985 153.162C30.2487 151.55 28.5772 149.878 26.974 148.128L70.7085 104.384L74.775 100.327L117.424 57.6582V57.5702L118.979 56.0257L119.624 55.3708L148.05 26.9443C149.79 28.5572 151.472 30.2288 153.075 31.9688L123.642 61.4803L120.513 64.6279ZM79.1739 76.8959H91.9795L79.1739 89.7015V76.8959ZM78.0009 72.497L67.3849 59.8576H109.028L96.3783 72.497H78.0009ZM115.284 53.5917L113.426 55.4587H64.8238V42.0178H115.284V53.5917ZM62.6244 61.0209L63.2989 61.8224L74.775 75.5078V94.0808L50.464 118.411V75.498L62.6244 61.0209ZM90.0538 4.32436C110.054 4.30778 129.427 11.3095 144.795 24.1095L119.683 49.1928V39.8183C119.683 39.235 119.451 38.6756 119.038 38.2631C118.626 37.8506 118.066 37.6189 117.483 37.6189H62.6244C62.0411 37.6189 61.4816 37.8506 61.0691 38.2631C60.6567 38.6756 60.4249 39.235 60.4249 39.8183V56.7979L46.5832 73.2888C46.2487 73.6815 46.065 74.1806 46.0651 74.6964V122.81L24.061 144.814C13.6547 132.285 7.03241 117.051 4.9692 100.895C2.90598 84.7389 5.48719 68.3295 12.4107 53.5871C19.3343 38.8447 30.3137 26.3793 44.064 17.6499C57.8143 8.92044 73.7665 4.2881 90.0538 4.29503V4.32436ZM90.0538 175.88C70.0531 175.897 50.6807 168.895 35.3123 156.095L48.851 142.527H131.843C132.426 142.527 132.986 142.295 133.398 141.883C133.811 141.47 134.042 140.911 134.042 140.328V74.3543C134.014 74.1732 133.965 73.996 133.896 73.8264C133.823 73.6689 133.731 73.5211 133.622 73.3866V73.3279L126.574 64.931L156.135 35.3706C166.538 47.9051 173.155 63.1441 175.21 79.3032C177.266 95.4622 174.675 111.873 167.742 126.613C160.808 141.353 149.819 153.812 136.06 162.532C122.301 171.252 106.343 175.872 90.0538 175.851V175.88Z" fill="url(#paint0_linear_146_620)"/>
<defs>
<linearGradient id="paint0_linear_146_620" x1="123.085" y1="180" x2="37.6554" y2="2.91121" gradientUnits="userSpaceOnUse">
<stop stop-color="#835342"/>
<stop offset="0.972222" stop-color="#FFCAA4"/>
</linearGradient>
</defs>
</svg>
