<svg width="180" height="180" viewBox="0 0 180 180" fill="none" xmlns="http://www.w3.org/2000/svg">
<path d="M147.745 130.526H114.694C114.111 130.526 113.553 130.757 113.141 131.169C112.729 131.581 112.498 132.139 112.498 132.721C112.498 133.304 112.729 133.862 113.141 134.274C113.553 134.686 114.111 134.917 114.694 134.917H147.745C148.327 134.917 148.885 134.686 149.297 134.274C149.709 133.862 149.94 133.304 149.94 132.721C149.94 132.139 149.709 131.581 149.297 131.169C148.885 130.757 148.327 130.526 147.745 130.526Z" fill="url(#paint0_linear_146_547)"/>
<path d="M70.0988 130.526H37.038C36.4557 130.526 35.8972 130.757 35.4855 131.169C35.0737 131.581 34.8424 132.139 34.8424 132.721C34.8424 133.304 35.0737 133.862 35.4855 134.274C35.8972 134.686 36.4557 134.917 37.038 134.917H70.0988C70.6811 134.917 71.2395 134.686 71.6513 134.274C72.063 133.862 72.2943 133.304 72.2943 132.721C72.2943 132.139 72.063 131.581 71.6513 131.169C71.2395 130.757 70.6811 130.526 70.0988 130.526Z" fill="url(#paint1_linear_146_547)"/>
<path d="M76.4221 17.8185C75.9835 17.4892 75.4376 17.336 74.8918 17.389C74.3459 17.442 73.8397 17.6973 73.4726 18.1047C73.1055 18.5122 72.9042 19.0422 72.9083 19.5906C72.9124 20.139 73.1215 20.666 73.4946 21.068L82.8527 29.6064C83.2562 29.9795 83.7864 30.1853 84.336 30.1821C84.7838 30.1888 85.2229 30.0584 85.5945 29.8084C85.9661 29.5583 86.2523 29.2007 86.4148 28.7833C86.5772 28.366 86.6082 27.9089 86.5035 27.4735C86.3988 27.038 86.1634 26.645 85.829 26.3472L76.4221 17.8185Z" fill="url(#paint2_linear_146_547)"/>
<path d="M72.0699 13.8567L69.9719 11.905C69.7666 11.6755 69.5153 11.4917 69.2343 11.3656C68.9533 11.2396 68.649 11.174 68.341 11.1732C68.033 11.1725 67.7283 11.2365 67.4467 11.3611C67.1651 11.4858 66.9129 11.6683 66.7064 11.8968C66.4999 12.1253 66.3439 12.3947 66.2483 12.6874C66.1527 12.9802 66.1198 13.2898 66.1517 13.5961C66.1835 13.9024 66.2795 14.1986 66.4333 14.4654C66.5871 14.7322 66.7953 14.9637 67.0444 15.1448L69.1522 17.0964C69.5552 17.4703 70.0857 17.6763 70.6355 17.6721C71.074 17.6627 71.4996 17.5222 71.8575 17.2687C72.2154 17.0151 72.4891 16.6602 72.6435 16.2497C72.7978 15.8391 72.8257 15.3918 72.7235 14.9653C72.6212 14.5388 72.3936 14.1526 72.0699 13.8567Z" fill="url(#paint3_linear_146_547)"/>
<path d="M105.95 1.42472C105.668 1.19841 105.332 1.05033 104.975 0.995359C100.576 0.329534 96.1329 -0.00319051 91.6839 2.30558e-05H89.9762C66.8016 0.0061391 44.5225 8.95151 27.7784 24.9733C11.0343 40.9951 1.11588 62.8584 0.0885534 86.0102C-0.938768 109.162 7.00421 131.818 22.2634 149.26C37.5226 166.702 58.9218 177.585 82.0048 179.644C105.088 181.703 128.075 174.778 146.18 160.312C164.285 145.845 176.112 124.953 179.198 101.985C182.284 79.0164 176.392 55.7429 162.747 37.0108C149.103 18.2787 128.758 5.53189 105.95 1.42472ZM90.8154 132.995C88.5324 133.785 86.1586 134.283 83.7505 134.478L88.854 121.656C91.4233 120.976 93.9382 120.105 96.3776 119.05L90.8154 132.995ZM111.376 76.4458C111.376 76.5726 111.308 76.7288 111.269 76.8556C110.897 78.1432 110.424 79.3995 109.854 80.6125C107.696 85.2159 104.275 89.1112 99.9881 91.8442C98.6122 91.9906 97.1387 92.1077 95.5774 92.1857L93.5087 92.2638H91.3911C85.9962 92.3124 80.6106 91.8056 75.3194 90.7513C74.9193 89.0534 74.1484 84.3987 76.588 80.7296C76.83 80.3875 77.094 80.0616 77.3784 79.7538C79.613 77.2557 83.3504 75.7724 88.5222 75.3528C90.4031 75.2052 92.2656 74.8784 94.0844 74.377C96.9526 73.6103 99.6414 72.2857 101.997 70.479C104.353 68.6724 106.33 66.4191 107.814 63.8479C109.706 60.5488 110.895 56.8944 111.308 53.1139C112.801 60.2764 112.957 70.5128 111.376 76.4458ZM87.7806 96.6062H91.4399C92.1718 96.6062 92.9232 96.6062 93.6746 96.6062H94.0259L93.1671 98.7823C90.7612 99.9335 88.2764 100.912 85.7314 101.71L87.7806 96.6062ZM104.955 52.6162L107.053 51.2989C106.839 54.9115 105.79 58.4253 103.989 61.5645C100.7 67.1852 95.3627 70.3469 88.1319 70.9129C82.56 71.3617 78.2566 72.9426 75.2608 75.587C73.604 77.0261 72.3243 78.8485 71.5332 80.8955C70.505 83.6371 70.1698 86.5902 70.5574 89.4925C65.9418 88.0092 63.3363 86.243 63.0338 84.9939L62.9753 84.7988C62.5236 83.2117 62.2937 81.5698 62.2922 79.9197C62.2313 77.4747 62.8896 75.0657 64.1853 72.9914C66.498 69.5272 70.9282 67.5072 77.3784 66.9901C95.2944 65.5263 102.594 56.5976 104.994 52.626L104.955 52.6162ZM77.2418 95.6889C79.1934 95.9719 81.145 96.1964 83.1943 96.3525L80.501 103.183C78.3273 103.629 76.1272 103.936 73.9142 104.101L77.2418 95.6889ZM83.7212 106.921C86.1597 106.314 88.5556 105.548 90.8935 104.627L85.6143 117.908C83.4276 118.386 81.2104 118.712 78.9787 118.884L83.7212 106.921ZM90.9325 116.425L96.6703 101.983C99.7009 100.425 102.602 98.6271 105.345 96.6062L98.8562 112.912C96.3304 114.328 93.6776 115.504 90.9325 116.425ZM120.88 80.3686C120.643 81.8088 120.318 83.2329 119.905 84.6329C119.789 84.8211 119.655 84.9975 119.505 85.1598C118.431 86.3601 115.914 87.9897 111.542 89.4437C110.693 89.7169 109.698 90.0097 108.614 90.3024C110.907 87.8066 112.771 84.9477 114.128 81.842C114.667 80.6161 115.12 79.3543 115.484 78.0656C115.484 77.9485 115.552 77.8119 115.582 77.6948C117.036 72.3668 117.25 64.3358 116.421 57.2026C118.376 60.6776 119.816 64.4183 120.695 68.3074C121.507 72.2812 121.57 76.3717 120.88 80.3686ZM110.722 43.8534L109.59 44.5657L107.639 45.766L107.404 45.9124L106.79 46.3027L104.838 47.5225L101.667 49.4741L100.174 50.4499L86.8536 38.5644L108.556 24.9615L113.435 42.1554L111.483 43.3655L110.722 43.8534ZM106.741 20.9118L83.9944 35.1783C83.8156 35.2944 83.6545 35.4357 83.5163 35.5979L56.7691 11.7879C67.4829 6.9917 79.0772 4.47612 90.8154 4.40097C94.8928 4.43843 98.9623 4.76452 102.994 5.37679L107.297 20.6679C107.1 20.7197 106.912 20.802 106.741 20.9118ZM69.1132 93.952C70.2744 94.2935 71.5332 94.6058 72.831 94.9278L69.6206 103.008L65.61 92.7029C66.7537 93.1839 67.9232 93.6009 69.1132 93.952ZM72.2651 109.711C72.2273 109.425 72.1309 109.149 71.9821 108.902L72.1187 108.56C74.2855 108.483 76.4458 108.278 78.5884 107.945L75.095 116.835L72.2651 109.711ZM83.7017 122.729L80.5108 130.76L77.5833 123.324C79.6326 123.245 81.6755 123.046 83.7017 122.729ZM88.7564 138.137L86.0437 144.968L83.6724 138.918C85.3845 138.787 87.0841 138.526 88.7564 138.137ZM97.2753 143.016C95.0614 144.68 92.6066 145.996 89.9957 146.919L94.1625 136.439C96.7908 135.345 99.2645 133.912 101.52 132.175L97.2753 143.016ZM94.6504 149.71L91.2838 158.317L88.7564 151.847C90.794 151.33 92.775 150.611 94.6699 149.701L94.6504 149.71ZM105.843 121.138C105.692 121.268 105.558 121.415 105.443 121.577C103.175 125.063 100.179 128.016 96.6606 130.233L102.35 115.927C105.152 114.231 107.785 112.27 110.215 110.073L105.843 121.138ZM115.016 97.7186C112.341 101.802 109.049 105.446 105.258 108.521L110.507 95.3181C110.581 95.1204 110.627 94.9135 110.644 94.7034C111.62 94.4789 112.596 94.235 113.464 93.9715C114.661 93.6147 115.837 93.1912 116.987 92.7029L115.016 97.7186ZM89.9762 175.648C70.6688 175.645 51.929 169.117 36.7991 157.122C21.6693 145.128 11.0376 128.372 6.63002 109.574C2.22247 90.7767 4.29785 71.0412 12.5192 53.5716C20.7406 36.1021 34.6253 21.9241 51.9192 13.3395L98.0072 54.3239C93.2452 58.9005 85.829 61.8865 77.1051 62.5891C69.24 63.2332 63.6779 65.9167 60.5943 70.5713C56.9154 76.1335 58.0181 82.7105 58.6426 85.2086C58.6426 85.3062 58.6426 85.4135 58.6426 85.5111C58.6426 85.6087 58.6426 85.9015 58.6426 86.1064C58.57 86.5031 58.6105 86.9124 58.7597 87.2871L66.8102 107.848H27.2798C26.6975 107.848 26.139 108.079 25.7273 108.491C25.3155 108.902 25.0842 109.461 25.0842 110.043C25.0842 110.626 25.3155 111.184 25.7273 111.596C26.139 112.008 26.6975 112.239 27.2798 112.239H68.5277L89.2541 165.158C89.4151 165.569 89.6963 165.922 90.061 166.17C90.4257 166.419 90.857 166.552 91.2984 166.552C91.7399 166.552 92.1712 166.419 92.5359 166.17C92.9006 165.922 93.1818 165.569 93.3428 165.158L114.128 112.122C114.318 112.176 114.515 112.206 114.713 112.21H157.522C158.105 112.21 158.663 111.978 159.075 111.566C159.487 111.155 159.718 110.596 159.718 110.014C159.718 109.432 159.487 108.873 159.075 108.461C158.663 108.05 158.105 107.818 157.522 107.818H115.787L123.886 87.2578C124.001 86.9697 124.051 86.6599 124.032 86.3503C124.072 86.2718 124.104 86.1902 124.13 86.1064C125.948 80.0123 126.239 73.5648 124.979 67.3316C123.179 59.7039 119.586 52.6153 114.499 46.654L117.163 44.9853C117.569 44.7361 117.884 44.3617 118.06 43.9184C118.236 43.475 118.264 42.9865 118.138 42.5263L107.804 6.26479C128.502 10.6671 146.836 22.5772 159.272 39.6982C171.707 56.8192 177.363 77.9383 175.148 98.9826C172.933 120.027 163.004 139.506 147.277 153.662C131.549 167.819 111.137 175.651 89.9762 175.648Z" fill="url(#paint4_linear_146_547)"/>
<defs>
<linearGradient id="paint0_linear_146_547" x1="123.1" y1="180" x2="37.6771" y2="2.90297" gradientUnits="userSpaceOnUse">
<stop stop-color="#835342"/>
<stop offset="0.972222" stop-color="#FFCAA4"/>
</linearGradient>
<linearGradient id="paint1_linear_146_547" x1="123.1" y1="180" x2="37.6771" y2="2.90297" gradientUnits="userSpaceOnUse">
<stop stop-color="#835342"/>
<stop offset="0.972222" stop-color="#FFCAA4"/>
</linearGradient>
<linearGradient id="paint2_linear_146_547" x1="123.1" y1="180" x2="37.6771" y2="2.90297" gradientUnits="userSpaceOnUse">
<stop stop-color="#835342"/>
<stop offset="0.972222" stop-color="#FFCAA4"/>
</linearGradient>
<linearGradient id="paint3_linear_146_547" x1="123.1" y1="180" x2="37.6771" y2="2.90297" gradientUnits="userSpaceOnUse">
<stop stop-color="#835342"/>
<stop offset="0.972222" stop-color="#FFCAA4"/>
</linearGradient>
<linearGradient id="paint4_linear_146_547" x1="123.1" y1="180" x2="37.6771" y2="2.90297" gradientUnits="userSpaceOnUse">
<stop stop-color="#835342"/>
<stop offset="0.972222" stop-color="#FFCAA4"/>
</linearGradient>
</defs>
</svg>
