<svg width="180" height="180" viewBox="0 0 180 180" fill="none" xmlns="http://www.w3.org/2000/svg">
<path d="M90.0001 180C72.2001 180 54.8001 174.72 40.0001 164.83C25.2001 154.94 13.6601 140.88 6.85011 124.44C0.0401058 108 -1.73989 89.9 1.73011 72.44C5.20011 54.98 13.7701 38.95 26.3601 26.36C38.9501 13.77 54.9801 5.20001 72.4401 1.73001C89.9001 -1.73999 108 0.0400143 124.44 6.85001C140.88 13.66 154.94 25.2 164.83 40C174.72 54.8 180 72.2 180 90C179.97 113.86 170.48 136.74 153.61 153.61C136.74 170.48 113.86 179.97 90.0001 180ZM90.0001 4.39001C73.0701 4.39001 56.5201 9.41001 42.4401 18.82C28.3601 28.23 17.3901 41.6 10.9101 57.24C4.43011 72.88 2.74011 90.1 6.04011 106.7C9.34011 123.31 17.5001 138.56 29.4701 150.53C41.4401 162.5 56.7001 170.66 73.3001 173.96C89.9101 177.26 107.12 175.57 122.76 169.09C138.4 162.61 151.77 151.64 161.18 137.56C170.59 123.48 175.61 106.93 175.61 90C175.58 67.3 166.56 45.54 150.51 29.49C134.46 13.44 112.7 4.41001 90.0001 4.39001Z" fill="url(#paint0_linear_8_415)"/>
<path d="M81.21 105.43H77.53L78.89 102.02H82.57L88.23 87.88H97.89C101.79 87.88 104.46 88.62 105.9 90.09C107.34 91.56 107.48 93.76 106.32 96.66C105.16 99.56 103.26 101.76 100.64 103.23C98.02 104.7 94.76 105.43 90.86 105.43H85.2L84.07 108.27H94.73L93.36 111.7H82.7L80.85 116.32H76.85L78.7 111.7H75.02L76.39 108.27H80.07L81.2 105.43H81.21ZM90.87 91.28L86.58 102.01H92.24C97.42 102.01 100.72 100.22 102.15 96.63C103.58 93.04 101.7 91.27 96.53 91.27H90.87V91.28Z" fill="url(#paint1_linear_8_415)"/>
<path d="M22.8199 85.26C22.5399 85.35 22.6999 85.32 22.8199 85.26V85.26Z" fill="black"/>
<path d="M28.3599 89.47C28.4799 89.41 28.6399 89.38 28.3599 89.47V89.47Z" fill="black"/>
<path d="M137.93 122.62C142.49 114.26 145.24 105.16 143.99 95.6C142.87 87.06 139.36 77.63 132.16 72.4C130.94 71 129.42 69.84 127.82 68.9C126.96 68.39 125.97 69.61 126.74 70.31C132.66 75.65 134.32 83.77 133.96 91.44C133.55 100.26 130.76 108.91 126.28 116.49C117.07 132.05 100.11 144.49 81.4099 143.78C73.6599 143.48 65.9999 140.6 60.4499 135.09C54.7999 129.47 51.6699 121.84 51.4099 113.91C50.8899 97.98 60.0099 82.03 72.0699 72.12C78.3099 66.99 85.7799 62.95 93.6799 61.13C101.64 59.29 109.77 59.92 117.35 62.95C119.37 63.76 121.28 64.77 123.12 65.93C123.71 66.3 124.46 65.38 123.88 64.94C116.92 59.55 108.59 56.94 99.7899 57.3C91.0099 57.66 82.2099 60.59 74.7899 65.27C59.9299 74.64 48.8999 91.28 47.3099 108.91C46.5299 117.52 48.5099 126.38 53.5699 133.46C56.3699 137.37 59.8899 140.57 63.9099 142.94C63.9399 142.97 63.9499 143.01 63.9799 143.04C77.5199 157.68 100.58 155.91 116.28 145.94C125.31 140.21 132.8 132.01 137.91 122.64L137.93 122.62ZM136.23 117.97C135.63 119.22 134.97 120.45 134.28 121.66C134.01 121.49 133.73 121.34 133.48 121.2C132.84 120.82 132.19 120.45 131.55 120.07C130.9 119.69 130.26 119.33 129.59 119C129.44 118.92 129.29 118.84 129.14 118.76C130.91 115.8 132.43 112.7 133.68 109.49C134.31 110.03 134.95 110.54 135.61 111.03C136.12 111.41 136.63 111.78 137.15 112.16C137.55 112.45 137.94 112.73 138.35 112.99C137.72 114.69 136.99 116.36 136.22 117.96L136.23 117.97ZM136.99 97.28C136.99 97.28 136.99 97.24 136.99 97.22C137.37 97.48 137.76 97.74 138.17 97.96C138.78 98.29 139.42 98.56 140.06 98.83C140.27 98.91 140.48 98.99 140.68 99.06C140.78 101.11 140.7 103.17 140.42 105.19C140.18 106.91 139.77 108.62 139.27 110.3C138.54 109.8 137.77 109.35 137.03 108.87C136.2 108.34 135.34 107.86 134.47 107.41C135.61 104.12 136.47 100.73 136.99 97.28ZM140.48 96.45C140.01 96.31 139.54 96.17 139.08 95.98C138.69 95.83 138.07 95.54 137.56 95.29C137.46 95.24 137.37 95.18 137.28 95.13C137.69 91.53 137.77 87.75 137.22 84.12C138.48 87.13 139.41 90.28 140.01 93.35C140.21 94.37 140.37 95.4 140.49 96.45H140.48ZM128.19 120.32C128.27 120.38 128.35 120.44 128.43 120.5C129.07 121 129.71 121.47 130.37 121.93C131 122.37 131.64 122.81 132.27 123.25C132.51 123.42 132.76 123.6 133.01 123.77C131.14 126.76 128.99 129.61 126.61 132.26C126.52 132.22 126.44 132.17 126.35 132.12C126.04 131.96 125.73 131.81 125.43 131.65C124.75 131.31 124.06 130.97 123.38 130.63C122.72 130.3 122.03 130.01 121.36 129.7C121.25 129.65 121.15 129.61 121.04 129.57C122.73 127.76 124.3 125.86 125.76 123.88C126.61 122.72 127.42 121.53 128.19 120.31V120.32ZM119.71 130.96C119.94 131.13 120.18 131.3 120.42 131.46C121.03 131.87 121.64 132.29 122.27 132.68C122.9 133.07 123.53 133.45 124.16 133.84C124.36 133.96 124.57 134.1 124.77 134.23C122.06 136.98 119.09 139.47 115.9 141.62C115.5 141.2 114.97 140.87 114.51 140.54C113.92 140.12 113.3 139.72 112.68 139.35C112.09 139 111.47 138.7 110.84 138.43C114.01 136.23 116.99 133.72 119.71 130.97V130.96ZM104.94 147.21C104.81 146.88 104.68 146.65 104.37 146.44C104.21 146.33 104.05 146.24 103.89 146.14C103.57 145.94 103.25 145.74 102.93 145.53C102.31 145.14 101.68 144.76 101.05 144.38C100.89 144.28 100.72 144.18 100.56 144.08C103.4 142.89 106.15 141.45 108.78 139.79C109.67 140.31 110.54 140.85 111.4 141.41C111.96 141.78 112.51 142.16 113.04 142.57C113.06 142.58 113.04 142.57 113.06 142.58C113.08 142.59 113.08 142.6 113.12 142.63L113.31 142.78C113.42 142.87 113.53 142.96 113.64 143.05C110.87 144.72 107.96 146.11 104.93 147.2L104.94 147.21ZM78.0299 147.5C84.9999 148.28 91.8399 147.3 98.2499 144.98C98.7799 145.37 99.3199 145.75 99.8599 146.13C100.46 146.56 101.06 146.98 101.67 147.41C101.96 147.61 102.24 147.81 102.53 148C98.9999 149.05 95.3399 149.67 91.5899 149.78C86.9299 149.91 82.2999 149.16 78.0399 147.49L78.0299 147.5ZM71.9899 130.67C77.8899 134.64 85.7699 133.22 92.0499 131.01C99.0999 128.53 105.41 124.31 110.6 118.94C119.16 110.07 125.75 96.39 121.13 84.06C119.21 78.94 115.07 74.99 109.94 73.15C104.41 71.17 98.4899 71.59 92.9799 73.4C81.5299 77.14 71.8999 86.09 66.3299 96.63C60.8799 106.94 59.9999 119.88 68.3799 128.93C68.9399 129.53 68.0999 130.33 67.4899 129.82C55.7799 120.04 57.8099 102.67 65.0599 90.79C72.0099 79.41 84.2899 69.85 97.7099 67.93C104.18 67.01 110.99 68.06 116.49 71.76C121.66 75.24 125 80.84 126.07 86.95C128.68 101.82 120.07 116.35 108.89 125.52C103.15 130.22 96.4899 133.88 89.2499 135.66C83.0299 137.19 75.4399 137.39 70.9099 132.1C70.2899 131.37 71.0999 130.09 71.9899 130.69V130.67Z" fill="url(#paint2_linear_8_415)"/>
<path d="M44.5 86.65C43.67 86.65 43 85.98 43 85.15V62.1C43 61.27 43.67 60.6 44.5 60.6C45.33 60.6 46 61.27 46 62.1V85.15C46 85.98 45.33 86.65 44.5 86.65Z" fill="url(#paint3_linear_8_415)"/>
<path d="M44.5 57.12C43.67 57.12 43 56.45 43 55.62V52.78C43 51.95 43.67 51.28 44.5 51.28C45.33 51.28 46 51.95 46 52.78V55.62C46 56.45 45.33 57.12 44.5 57.12Z" fill="url(#paint4_linear_8_415)"/>
<path d="M137.21 67.38C136.38 67.38 135.71 66.71 135.71 65.88V48.43C135.71 47.6 136.38 46.93 137.21 46.93C138.04 46.93 138.71 47.6 138.71 48.43V65.88C138.71 66.71 138.04 67.38 137.21 67.38Z" fill="url(#paint5_linear_8_415)"/>
<path d="M137.21 44.54C136.38 44.54 135.71 43.87 135.71 43.04V41.02C135.71 40.19 136.38 39.52 137.21 39.52C138.04 39.52 138.71 40.19 138.71 41.02V43.04C138.71 43.87 138.04 44.54 137.21 44.54Z" fill="url(#paint6_linear_8_415)"/>
<path d="M60.51 52.34C59.68 52.34 59.01 51.67 59.01 50.84V31.33C59.01 30.5 59.68 29.83 60.51 29.83C61.34 29.83 62.01 30.5 62.01 31.33V50.84C62.01 51.67 61.34 52.34 60.51 52.34Z" fill="url(#paint7_linear_8_415)"/>
<path d="M98.4601 44.41C97.6301 44.41 96.9601 43.74 96.9601 42.91C96.9601 39.8 94.5501 37.25 91.5001 37.03C91.3601 37.03 91.2101 37.04 91.0601 37.04C90.2301 37.04 89.5601 36.37 89.5601 35.54C89.5601 34.71 90.2301 34.01 91.0601 34.01C91.2101 34.01 91.3501 34.01 91.5001 34.02C94.5501 33.8 96.9601 31.24 96.9601 28.14C96.9601 27.31 97.6301 26.64 98.4601 26.64C99.2901 26.64 99.9601 27.31 99.9601 28.14C99.9601 31.25 102.37 33.8 105.42 34.02C105.56 34.02 105.71 34.01 105.86 34.01C106.69 34.01 107.36 34.68 107.36 35.51C107.36 36.34 106.69 37.04 105.86 37.04C105.71 37.04 105.57 37.04 105.42 37.03C102.37 37.25 99.9601 39.81 99.9601 42.91C99.9601 43.74 99.2901 44.41 98.4601 44.41ZM96.0201 35.53C96.9801 36.18 97.8101 37.01 98.4601 37.98C99.1101 37.02 99.9401 36.18 100.9 35.53C99.9401 34.88 99.1101 34.05 98.4601 33.08C97.8101 34.05 96.9801 34.88 96.0201 35.53Z" fill="url(#paint8_linear_8_415)"/>
<path d="M28.8199 109.71C27.9899 109.71 27.3199 109.04 27.3199 108.21C27.3199 106.66 26.1299 105.39 24.6099 105.26C24.5299 105.26 24.4399 105.26 24.3599 105.26C23.5299 105.26 22.8599 104.59 22.8599 103.76C22.8599 102.93 23.5299 102.24 24.3599 102.24C24.4399 102.24 24.5299 102.24 24.6099 102.24C26.1299 102.11 27.3199 100.84 27.3199 99.29C27.3199 98.46 27.9899 97.79 28.8199 97.79C29.6499 97.79 30.3199 98.46 30.3199 99.29C30.3199 100.84 31.5099 102.11 33.0299 102.24C33.1099 102.24 33.1999 102.24 33.2799 102.24C34.1099 102.24 34.7799 102.91 34.7799 103.74C34.7799 104.57 34.1099 105.26 33.2799 105.26C33.1999 105.26 33.1099 105.26 33.0299 105.26C31.5099 105.39 30.3199 106.66 30.3199 108.21C30.3199 109.04 29.6499 109.71 28.8199 109.71ZM28.3199 103.76C28.4999 103.92 28.6599 104.09 28.8199 104.26C28.9799 104.08 29.1399 103.92 29.3199 103.76C29.1399 103.6 28.9799 103.43 28.8199 103.26C28.6599 103.44 28.4999 103.61 28.3199 103.76Z" fill="url(#paint9_linear_8_415)"/>
<path d="M71.19 63.37C70.7 63.37 70.22 63.13 69.93 62.69C69.48 62 69.67 61.07 70.36 60.61C80.67 53.87 92.15 50.59 102.67 51.38C103.5 51.44 104.12 52.16 104.05 52.99C103.99 53.82 103.27 54.43 102.44 54.37C92.56 53.63 81.75 56.74 71.99 63.12C71.74 63.29 71.45 63.37 71.17 63.37H71.19Z" fill="url(#paint10_linear_8_415)"/>
<path d="M114.87 153.9C114.31 153.9 113.78 153.59 113.52 153.05C113.16 152.3 113.48 151.41 114.22 151.05C125.53 145.62 135.43 135.37 142.1 122.21C142.47 121.47 143.38 121.18 144.12 121.55C144.86 121.92 145.15 122.83 144.78 123.57C137.82 137.32 127.42 148.04 115.52 153.75C115.31 153.85 115.09 153.9 114.87 153.9Z" fill="url(#paint11_linear_8_415)"/>
<defs>
<linearGradient id="paint0_linear_8_415" x1="131.47" y1="175.97" x2="46.0401" y2="-1.12999" gradientUnits="userSpaceOnUse">
<stop stop-color="#835342"/>
<stop offset="0.97" stop-color="#FFCAA4"/>
</linearGradient>
<linearGradient id="paint1_linear_8_415" x1="84.68" y1="102.55" x2="115.28" y2="102.55" gradientUnits="userSpaceOnUse">
<stop stop-color="#835342"/>
<stop offset="0.97" stop-color="#FFCAA4"/>
</linearGradient>
<linearGradient id="paint2_linear_8_415" x1="47.1499" y1="105.48" x2="144.29" y2="105.48" gradientUnits="userSpaceOnUse">
<stop stop-color="#835342"/>
<stop offset="0.97" stop-color="#FFCAA4"/>
</linearGradient>
<linearGradient id="paint3_linear_8_415" x1="44.5" y1="86.65" x2="44.5" y2="60.6" gradientUnits="userSpaceOnUse">
<stop stop-color="#835342"/>
<stop offset="0.97" stop-color="#FFCAA4"/>
</linearGradient>
<linearGradient id="paint4_linear_8_415" x1="44.5" y1="57.12" x2="44.5" y2="51.28" gradientUnits="userSpaceOnUse">
<stop stop-color="#835342"/>
<stop offset="0.97" stop-color="#FFCAA4"/>
</linearGradient>
<linearGradient id="paint5_linear_8_415" x1="137.21" y1="67.38" x2="137.21" y2="46.93" gradientUnits="userSpaceOnUse">
<stop stop-color="#835342"/>
<stop offset="0.97" stop-color="#FFCAA4"/>
</linearGradient>
<linearGradient id="paint6_linear_8_415" x1="137.21" y1="44.54" x2="137.21" y2="39.52" gradientUnits="userSpaceOnUse">
<stop stop-color="#835342"/>
<stop offset="0.97" stop-color="#FFCAA4"/>
</linearGradient>
<linearGradient id="paint7_linear_8_415" x1="60.51" y1="52.34" x2="60.51" y2="29.83" gradientUnits="userSpaceOnUse">
<stop stop-color="#835342"/>
<stop offset="0.97" stop-color="#FFCAA4"/>
</linearGradient>
<linearGradient id="paint8_linear_8_415" x1="89.5601" y1="35.53" x2="107.36" y2="35.53" gradientUnits="userSpaceOnUse">
<stop stop-color="#835342"/>
<stop offset="0.97" stop-color="#FFCAA4"/>
</linearGradient>
<linearGradient id="paint9_linear_8_415" x1="22.8599" y1="103.76" x2="34.7799" y2="103.76" gradientUnits="userSpaceOnUse">
<stop stop-color="#835342"/>
<stop offset="0.97" stop-color="#FFCAA4"/>
</linearGradient>
<linearGradient id="paint10_linear_8_415" x1="77.5758" y1="68.9003" x2="96.2326" y2="45.7787" gradientUnits="userSpaceOnUse">
<stop stop-color="#835342"/>
<stop offset="0.97" stop-color="#FFCAA4"/>
</linearGradient>
<linearGradient id="paint11_linear_8_415" x1="131.879" y1="119.508" x2="126.171" y2="155.671" gradientUnits="userSpaceOnUse">
<stop stop-color="#835342"/>
<stop offset="0.97" stop-color="#FFCAA4"/>
</linearGradient>
</defs>
</svg>
