<svg width="180" height="180" viewBox="0 0 180 180" fill="none" xmlns="http://www.w3.org/2000/svg">
<path d="M90 0C72.1997 0 54.7991 5.27841 39.9987 15.1677C25.1983 25.0571 13.6628 39.1131 6.85088 55.5585C0.038996 72.0038 -1.7433 90.0998 1.72936 107.558C5.20203 125.016 13.7737 141.053 26.3604 153.64C38.9471 166.226 54.9836 174.798 72.4419 178.271C89.9002 181.743 107.996 179.961 124.442 173.149C140.887 166.337 154.943 154.802 164.832 140.001C174.722 125.201 180 107.8 180 90C179.974 66.1384 170.484 43.2616 153.611 26.3889C136.738 9.51623 113.862 0.0258242 90 0ZM90 175.61C73.068 175.61 56.5162 170.589 42.4378 161.182C28.3593 151.775 17.3865 138.405 10.9069 122.761C4.42734 107.118 2.73198 89.905 6.03525 73.2983C9.33852 56.6917 17.4921 41.4375 29.4648 29.4648C41.4375 17.492 56.6917 9.33848 73.2984 6.03521C89.905 2.73194 107.118 4.4273 122.761 10.9069C138.405 17.3865 151.775 28.3593 161.182 42.4378C170.589 56.5162 175.61 73.068 175.61 90C175.587 112.698 166.559 134.46 150.51 150.51C134.46 166.559 112.698 175.586 90 175.61Z" fill="url(#paint0_linear_146_538)"/>
<path d="M88.6342 23.4927C76.9099 23.5082 65.6702 28.1725 57.3799 36.4628C49.0896 44.7531 44.4253 55.9928 44.4098 67.7171C44.4098 79.7073 49.2878 94.2634 57.0927 105.766C65.083 117.473 74.8683 124.459 84.9756 125.824L80.8 133.044C80.6071 133.382 80.5071 133.765 80.5101 134.154C80.5132 134.543 80.6192 134.925 80.8174 135.26C81.0156 135.595 81.2989 135.871 81.6385 136.061C81.9782 136.251 82.3621 136.348 82.7512 136.341H86.439V154.351C86.439 154.933 86.6703 155.492 87.082 155.903C87.4936 156.315 88.052 156.546 88.6342 156.546C89.2163 156.546 89.7747 156.315 90.1863 155.903C90.598 155.492 90.8293 154.933 90.8293 154.351V136.302H94.5561C94.9407 136.301 95.3182 136.199 95.6505 136.005C95.9829 135.812 96.2582 135.534 96.4488 135.2C96.6454 134.868 96.7491 134.489 96.7491 134.102C96.7491 133.716 96.6454 133.337 96.4488 133.005L92.2829 125.785C102.39 124.419 112.166 117.424 120.166 105.727C127.971 94.2732 132.849 79.7073 132.849 67.678C132.826 55.9614 128.159 44.7318 119.871 36.4496C111.584 28.1674 100.351 23.5081 88.6342 23.4927ZM86.5171 131.912L88.6342 128.244L90.7317 131.912H86.5171ZM116.537 103.249C111.844 110.078 101.971 121.659 88.6342 121.659C75.2976 121.659 65.4244 110.127 60.7317 103.249C53.3756 92.478 48.7805 78.8683 48.7805 67.7171C48.6978 62.4342 49.667 57.1876 51.6314 52.2828C53.5959 47.3781 56.5166 42.9131 60.2232 39.148C63.9299 35.3828 68.3486 32.3927 73.222 30.3517C78.0955 28.3106 83.3262 27.2595 88.6098 27.2595C93.8933 27.2595 99.1241 28.3106 103.998 30.3517C108.871 32.3927 113.29 35.3828 116.996 39.148C120.703 42.9131 123.624 47.3781 125.588 52.2828C127.553 57.1876 128.522 62.4342 128.439 67.7171C128.459 78.8683 123.902 92.478 116.537 103.249Z" fill="url(#paint1_linear_146_538)"/>
<path d="M68.4195 37.8146C63.8939 41.1077 60.2096 45.4227 57.6667 50.4086C55.1237 55.3945 53.7939 60.9104 53.7854 66.5073C53.9269 72.8556 55.2503 79.1219 57.6878 84.9853C57.8488 85.3946 58.1296 85.7458 58.4934 85.993C58.8572 86.2401 59.2871 86.3718 59.7269 86.3707C60.0033 86.3703 60.2775 86.3208 60.5366 86.2244C61.0779 86.0073 61.5111 85.5847 61.7415 85.0489C61.9719 84.5132 61.9807 83.908 61.7659 83.3658C59.5609 78.0109 58.3572 72.2967 58.2147 66.5073C58.218 61.6082 59.3771 56.7791 61.5978 52.4122C63.8185 48.0454 67.0382 44.2641 70.9951 41.3756C71.229 41.2065 71.4272 40.993 71.5785 40.7472C71.7298 40.5015 71.8312 40.2284 71.8769 39.9435C71.9227 39.6586 71.9119 39.3674 71.8451 39.0867C71.7784 38.806 71.6569 38.5411 71.4878 38.3073C71.3187 38.0735 71.1052 37.8753 70.8595 37.724C70.6137 37.5727 70.3406 37.4713 70.0557 37.4255C69.7708 37.3798 69.4797 37.3906 69.1989 37.4573C68.9182 37.5241 68.6534 37.6455 68.4195 37.8146Z" fill="url(#paint2_linear_146_538)"/>
<path d="M107.073 51.0927L106.341 48.7805C106.198 48.3395 105.919 47.9552 105.544 47.6827C105.169 47.4101 104.717 47.2633 104.254 47.2633C103.79 47.2633 103.338 47.4101 102.963 47.6827C102.588 47.9552 102.309 48.3395 102.166 48.7805L101.395 51.1219C100.794 52.942 99.775 54.5959 98.4196 55.9513C97.0643 57.3066 95.4103 58.3257 93.5903 58.9268L91.2488 59.6975C90.8078 59.8407 90.4235 60.1199 90.151 60.4949C89.8784 60.87 89.7316 61.3217 89.7316 61.7854C89.7316 62.249 89.8784 62.7007 90.151 63.0758C90.4235 63.4508 90.8078 63.73 91.2488 63.8732L93.5903 64.6439C95.411 65.2436 97.0657 66.2622 98.4213 67.6178C99.7768 68.9733 100.795 70.628 101.395 72.4488L102.166 74.7902C102.309 75.2312 102.588 75.6155 102.963 75.888C103.338 76.1606 103.79 76.3074 104.254 76.3074C104.717 76.3074 105.169 76.1606 105.544 75.888C105.919 75.6155 106.198 75.2312 106.341 74.7902L107.112 72.4488C107.712 70.628 108.731 68.9733 110.086 67.6178C111.442 66.2622 113.096 65.2436 114.917 64.6439L117.259 63.8732C117.7 63.73 118.084 63.4508 118.356 63.0758C118.629 62.7007 118.776 62.249 118.776 61.7854C118.776 61.3217 118.629 60.87 118.356 60.4949C118.084 60.1199 117.7 59.8407 117.259 59.6975L114.917 58.9268C113.087 58.328 111.423 57.3068 110.06 55.9459C108.698 54.5849 107.674 52.9223 107.073 51.0927ZM104.215 68.039C102.72 65.4085 100.543 63.2308 97.9122 61.7366C100.541 60.2396 102.718 58.0626 104.215 55.4341C105.712 58.0626 107.889 60.2396 110.517 61.7366C107.887 63.2308 105.709 65.4085 104.215 68.039Z" fill="url(#paint3_linear_146_538)"/>
<path d="M146.634 70.361C148.859 69.2585 151.912 67.7366 151.912 64.361C151.912 63.7788 151.681 63.2204 151.269 62.8088C150.858 62.3971 150.299 62.1658 149.717 62.1658C149.135 62.1658 148.577 62.3971 148.165 62.8088C147.753 63.2204 147.522 63.7788 147.522 64.361C147.522 65.0146 145.941 65.8049 144.683 66.4293C142.449 67.5414 139.395 69.0536 139.395 72.439C139.395 75.8244 142.449 77.3171 144.673 78.439C145.941 79.0732 147.522 79.8536 147.522 80.5171C147.522 81.1805 145.941 81.961 144.673 82.5951C142.449 83.6975 139.395 85.2195 139.395 88.5951C139.395 91.9707 142.449 93.4732 144.673 94.6049C145.941 95.2292 147.522 96.0195 147.522 96.6731C147.522 97.3268 145.941 98.1268 144.673 98.7512C142.449 99.8634 139.395 101.385 139.395 104.761C139.395 108.137 142.449 109.639 144.673 110.771C145.941 111.395 147.522 112.185 147.522 112.849C147.522 113.431 147.753 113.989 148.165 114.401C148.577 114.813 149.135 115.044 149.717 115.044C150.299 115.044 150.858 114.813 151.269 114.401C151.681 113.989 151.912 113.431 151.912 112.849C151.912 109.463 148.859 107.971 146.634 106.839C145.366 106.205 143.785 105.424 143.785 104.761C143.785 104.098 145.366 103.317 146.634 102.683C148.859 101.571 151.912 100.059 151.912 96.6731C151.912 93.2878 148.859 91.7951 146.634 90.6732C145.366 90.039 143.785 89.2585 143.785 88.5951C143.785 87.9317 145.366 87.1512 146.634 86.5171C148.859 85.4146 151.912 83.8927 151.912 80.5171C151.912 77.1414 148.859 75.639 146.634 74.5073C145.366 73.8829 143.785 73.0927 143.785 72.439C143.785 71.7853 145.366 70.9951 146.634 70.361Z" fill="url(#paint4_linear_146_538)"/>
<path d="M33.9903 92.2732C35.9415 90.839 38.5561 88.8683 38.5561 85.0244C38.5561 84.4422 38.3249 83.8839 37.9132 83.4722C37.5015 83.0605 36.9432 82.8293 36.361 82.8293C35.7788 82.8293 35.2205 83.0605 34.8088 83.4722C34.3972 83.8839 34.1659 84.4422 34.1659 85.0244C34.1659 86.5951 33.1903 87.3854 31.3659 88.761C29.5415 90.1366 26.8 92.1658 26.8 96.0097C26.8 99.8536 29.4439 101.863 31.3659 103.268C33.2878 104.673 34.1464 105.424 34.1464 106.995C34.1464 108.566 33.1708 109.366 31.3464 110.732C29.522 112.098 26.7805 114.146 26.7805 117.99C26.7805 121.834 29.4244 123.844 31.3464 125.239C33.2683 126.634 34.1464 127.405 34.1464 128.976C34.1464 129.558 34.3776 130.116 34.7893 130.528C35.201 130.939 35.7593 131.171 36.3415 131.171C36.9237 131.171 37.482 130.939 37.8937 130.528C38.3053 130.116 38.5366 129.558 38.5366 128.976C38.5366 125.132 35.9025 123.122 33.9708 121.727C32.0391 120.332 31.2195 119.561 31.2195 117.99C31.2195 116.419 32.1952 115.629 34.0195 114.254C35.8439 112.878 38.5854 110.849 38.5854 106.995C38.5854 103.141 35.9513 101.141 34.0195 99.7463C32.0878 98.3512 31.2195 97.561 31.2195 96.0097C31.2195 94.4585 32.1952 93.6585 33.9903 92.2732Z" fill="url(#paint5_linear_146_538)"/>
<path d="M29.3074 64.361C31.1663 64.361 32.6732 62.854 32.6732 60.9951C32.6732 59.1362 31.1663 57.6293 29.3074 57.6293C27.4484 57.6293 25.9415 59.1362 25.9415 60.9951C25.9415 62.854 27.4484 64.361 29.3074 64.361Z" fill="url(#paint6_linear_146_538)"/>
<path d="M55.9708 139.434C57.8297 139.434 59.3366 137.927 59.3366 136.068C59.3366 134.209 57.8297 132.702 55.9708 132.702C54.1119 132.702 52.6049 134.209 52.6049 136.068C52.6049 137.927 54.1119 139.434 55.9708 139.434Z" fill="url(#paint7_linear_146_538)"/>
<path d="M119.883 129.327C119.214 129.325 118.56 129.521 118.004 129.892C117.447 130.262 117.013 130.789 116.756 131.406C116.5 132.023 116.432 132.703 116.562 133.359C116.692 134.014 117.014 134.617 117.486 135.089C117.959 135.562 118.561 135.884 119.217 136.014C119.873 136.144 120.552 136.076 121.169 135.819C121.787 135.562 122.314 135.128 122.684 134.572C123.054 134.015 123.251 133.361 123.249 132.693C123.249 131.8 122.894 130.944 122.263 130.313C121.632 129.681 120.776 129.327 119.883 129.327Z" fill="url(#paint8_linear_146_538)"/>
<path d="M145.659 52.8C147.517 52.8 149.024 51.293 149.024 49.4341C149.024 47.5752 147.517 46.0683 145.659 46.0683C143.8 46.0683 142.293 47.5752 142.293 49.4341C142.293 51.293 143.8 52.8 145.659 52.8Z" fill="url(#paint9_linear_146_538)"/>
<path d="M162.722 91.6292C162.057 91.6312 161.407 91.8302 160.855 92.2012C160.302 92.5723 159.873 93.0986 159.619 93.7138C159.366 94.329 159.301 95.0054 159.432 95.6577C159.563 96.31 159.884 96.9088 160.355 97.3785C160.826 97.8483 161.426 98.1679 162.079 98.297C162.731 98.4261 163.408 98.3588 164.022 98.1038C164.636 97.8488 165.162 97.4174 165.531 96.8641C165.9 96.3108 166.098 95.6604 166.098 94.9951C166.095 94.1015 165.738 93.2454 165.105 92.6145C164.473 91.9835 163.616 91.6292 162.722 91.6292Z" fill="url(#paint10_linear_146_538)"/>
<path d="M17.2781 94.9951C19.137 94.9951 20.6439 93.4882 20.6439 91.6292C20.6439 89.7703 19.137 88.2634 17.2781 88.2634C15.4192 88.2634 13.9122 89.7703 13.9122 91.6292C13.9122 93.4882 15.4192 94.9951 17.2781 94.9951Z" fill="url(#paint11_linear_146_538)"/>
<defs>
<linearGradient id="paint0_linear_146_538" x1="123.1" y1="180" x2="37.677" y2="2.90302" gradientUnits="userSpaceOnUse">
<stop stop-color="#835342"/>
<stop offset="0.972222" stop-color="#FFCAA4"/>
</linearGradient>
<linearGradient id="paint1_linear_146_538" x1="123.1" y1="180" x2="37.677" y2="2.90302" gradientUnits="userSpaceOnUse">
<stop stop-color="#835342"/>
<stop offset="0.972222" stop-color="#FFCAA4"/>
</linearGradient>
<linearGradient id="paint2_linear_146_538" x1="123.1" y1="180" x2="37.677" y2="2.90302" gradientUnits="userSpaceOnUse">
<stop stop-color="#835342"/>
<stop offset="0.972222" stop-color="#FFCAA4"/>
</linearGradient>
<linearGradient id="paint3_linear_146_538" x1="123.1" y1="180" x2="37.677" y2="2.90302" gradientUnits="userSpaceOnUse">
<stop stop-color="#835342"/>
<stop offset="0.972222" stop-color="#FFCAA4"/>
</linearGradient>
<linearGradient id="paint4_linear_146_538" x1="123.1" y1="180" x2="37.677" y2="2.90302" gradientUnits="userSpaceOnUse">
<stop stop-color="#835342"/>
<stop offset="0.972222" stop-color="#FFCAA4"/>
</linearGradient>
<linearGradient id="paint5_linear_146_538" x1="123.1" y1="180" x2="37.677" y2="2.90302" gradientUnits="userSpaceOnUse">
<stop stop-color="#835342"/>
<stop offset="0.972222" stop-color="#FFCAA4"/>
</linearGradient>
<linearGradient id="paint6_linear_146_538" x1="123.1" y1="180" x2="37.677" y2="2.90302" gradientUnits="userSpaceOnUse">
<stop stop-color="#835342"/>
<stop offset="0.972222" stop-color="#FFCAA4"/>
</linearGradient>
<linearGradient id="paint7_linear_146_538" x1="123.1" y1="180" x2="37.677" y2="2.90302" gradientUnits="userSpaceOnUse">
<stop stop-color="#835342"/>
<stop offset="0.972222" stop-color="#FFCAA4"/>
</linearGradient>
<linearGradient id="paint8_linear_146_538" x1="123.1" y1="180" x2="37.677" y2="2.90302" gradientUnits="userSpaceOnUse">
<stop stop-color="#835342"/>
<stop offset="0.972222" stop-color="#FFCAA4"/>
</linearGradient>
<linearGradient id="paint9_linear_146_538" x1="123.1" y1="180" x2="37.677" y2="2.90302" gradientUnits="userSpaceOnUse">
<stop stop-color="#835342"/>
<stop offset="0.972222" stop-color="#FFCAA4"/>
</linearGradient>
<linearGradient id="paint10_linear_146_538" x1="123.1" y1="180" x2="37.677" y2="2.90302" gradientUnits="userSpaceOnUse">
<stop stop-color="#835342"/>
<stop offset="0.972222" stop-color="#FFCAA4"/>
</linearGradient>
<linearGradient id="paint11_linear_146_538" x1="123.1" y1="180" x2="37.677" y2="2.90302" gradientUnits="userSpaceOnUse">
<stop stop-color="#835342"/>
<stop offset="0.972222" stop-color="#FFCAA4"/>
</linearGradient>
</defs>
</svg>
