<svg width="180" height="180" viewBox="0 0 180 180" fill="none" xmlns="http://www.w3.org/2000/svg">
<path d="M89.9617 0C69.813 0.0175485 50.2525 6.79264 34.4096 19.2413C18.5667 31.6899 7.35703 49.0927 2.57394 68.6654C-2.20916 88.238 -0.289231 108.849 8.02662 127.202C16.3425 145.554 30.5736 160.587 48.4432 169.896H48.5132C61.1622 176.42 75.1791 179.848 89.4114 179.9C89.5732 179.955 89.7413 179.988 89.9116 180C90.0818 179.987 90.2498 179.953 90.4119 179.9C98.3187 179.864 106.186 178.788 113.812 176.699C119.801 175.062 125.602 172.802 131.12 169.956H131.18C149.059 160.675 163.31 145.668 171.653 127.333C179.996 108.998 181.95 88.3945 177.203 68.8179C172.455 49.2414 161.279 31.8224 145.464 19.3466C129.648 6.87071 110.106 0.0587147 89.9617 0ZM87.5806 175.208C81.2481 175.046 74.9533 174.18 68.8122 172.627C68.6545 172.174 68.3598 171.781 67.969 171.504C67.5783 171.226 67.1108 171.076 66.6313 171.076C66.098 171.083 65.5841 171.278 65.1806 171.626C60.6958 170.267 56.3294 168.544 52.1248 166.474C52.8652 161.082 54.1257 156.99 55.6564 154.639C58.6578 150.267 61.1589 146.935 65.1506 144.164L72.604 163.783C72.7367 164.133 72.9512 164.447 73.2297 164.697C73.5081 164.948 73.8424 165.128 74.2047 165.223C74.5687 165.314 74.9489 165.316 75.3141 165.231C75.6793 165.146 76.0191 164.975 76.3056 164.733L87.5806 155.199V175.208ZM69.2524 141.793C70.0928 141.393 70.9932 141.003 71.9537 140.623L86.0699 150.287L75.7954 159.031L69.2524 141.793ZM89.9617 147.275L78.0563 139.122C80.9876 138.271 84.7394 137.241 85.9199 136.971C86.4111 136.86 86.8535 136.594 87.1815 136.212C87.5096 135.83 87.7057 135.352 87.7407 134.85C88.2309 127.717 87.7407 126.646 87.4906 126.186C87.3111 125.802 87.0295 125.475 86.6766 125.24C86.3237 125.006 85.9132 124.872 85.4897 124.855C80.7541 124.562 76.1372 123.252 71.9537 121.014C68.7422 119.173 65.7709 117.192 61.8792 111.59C60.8187 110.049 59.0579 110.249 57.7674 110.399C56.4453 110.699 55.0596 110.522 53.8556 109.899C51.1444 108.188 49.7738 105.897 50.364 104.096C50.9543 102.295 53.2354 101.345 56.2867 101.535C56.7558 101.564 57.2227 101.451 57.6262 101.21C58.0297 100.969 58.3509 100.611 58.5477 100.185C58.5782 100.111 58.5984 100.034 58.6077 99.9545C58.692 99.7639 58.746 99.5614 58.7678 99.3542C58.7678 99.3542 58.7678 99.3542 58.7678 99.2941C58.7678 99.2341 58.7678 99.2342 58.7678 99.2041C58.7678 99.1741 58.7678 98.7739 58.8578 98.3937C59.6219 92.4207 60.0262 86.4072 60.0684 80.3857C60.0684 73.4426 62.5995 67.6 67.3916 63.5082C69.7627 61.5073 73.2642 62.2777 78.7767 63.7384C82.2761 64.805 85.8895 65.4531 89.5415 65.6692C97.2649 65.8193 99.816 64.9989 102.767 64.0285C104.909 63.2821 107.117 62.7395 109.36 62.4077C116.053 61.4073 118.444 67.0498 120.485 77.8946C120.777 80.649 120.891 83.4193 120.825 86.1883C120.825 91.8809 120.965 95.3724 121.556 97.5134C121.545 97.6232 121.545 97.7337 121.556 97.8435C121.58 98.2742 121.724 98.6896 121.972 99.0431C122.219 99.3965 122.56 99.674 122.956 99.8444C123.046 99.9144 123.126 100.004 123.216 100.065C123.631 100.312 124.101 100.452 124.583 100.471C125.065 100.49 125.545 100.388 125.978 100.175C125.978 100.175 126.048 100.175 126.088 100.115C126.833 100.201 127.54 100.493 128.13 100.958C128.72 101.422 129.17 102.041 129.429 102.746C130.069 104.747 129.179 107.688 125.738 109.859C124.534 110.482 123.148 110.659 121.826 110.359C120.545 110.209 118.824 110.009 117.714 111.54C113.632 117.422 111.451 119.323 108.62 120.944C102.467 124.495 94.2436 124.815 94.1635 124.815C93.7409 124.836 93.3317 124.97 92.9794 125.204C92.627 125.439 92.3448 125.764 92.1626 126.146C91.9425 126.596 91.4323 127.677 91.9225 134.81C91.9576 135.312 92.1536 135.79 92.4816 136.172C92.8096 136.554 93.2521 136.82 93.7434 136.931C94.9639 137.201 98.7456 138.241 101.747 139.092L89.9617 147.275ZM54.2158 37.7468L69.3825 41.1483C69.7744 41.2353 70.1821 41.2201 70.5664 41.104C70.9508 40.988 71.2988 40.7751 71.5771 40.4857C71.8554 40.1964 72.0546 39.8403 72.1556 39.4518C72.2566 39.0633 72.2559 38.6552 72.1537 38.267L69.8427 29.6032C76.6157 30.5036 92.3327 33.2948 103.548 40.8081C103.999 41.1482 104.548 41.3322 105.113 41.3322C105.678 41.3322 106.228 41.1482 106.679 40.8081C107.539 40.1178 108.3 39.5076 106.969 35.0456C111.411 37.4467 116.974 41.0482 119.065 44.5798C126.368 56.6652 127.068 82.7768 126.588 88.3593C126.389 89.7754 126.054 91.1691 125.587 92.5211C125.487 90.4502 125.477 88.0291 125.467 86.2283C125.548 83.1775 125.408 80.1248 125.047 77.0943C123.747 70.1812 121.386 57.6757 110.891 57.6757C110.13 57.6787 109.371 57.7389 108.62 57.8557C106.121 58.2256 103.663 58.8285 101.277 59.6565C98.6255 60.5269 96.5346 61.2072 89.6115 61.0572C86.3284 60.8488 83.0812 60.2544 79.9372 59.2864C74.4047 57.8157 68.6822 56.285 64.3203 60.0167C58.4576 65.0189 55.3162 72.102 55.3162 80.4557C55.3162 84.6676 55.0662 88.6494 54.786 91.8408C54.3195 90.6216 53.9384 89.3713 53.6455 88.0992C53.2053 86.2383 51.8647 71.1816 50.7743 58.1458C51.0778 58.5381 51.4985 58.8234 51.9753 58.9601C52.4521 59.0968 52.9601 59.0779 53.4254 58.9061C53.8907 58.7342 54.2891 58.4185 54.5626 58.0047C54.836 57.5909 54.9704 57.1006 54.9461 56.6052L54.2158 37.7468ZM107.72 140.643C108.72 141.053 109.72 141.463 110.551 141.893L104.038 159.051L93.7533 150.307L107.72 140.643ZM114.663 171.656C114.255 171.308 113.738 171.113 113.202 171.106C112.723 171.109 112.257 171.26 111.867 171.537C111.477 171.815 111.181 172.206 111.021 172.657C104.882 174.2 98.5907 175.055 92.2627 175.208V155.199L103.538 164.783C103.957 165.146 104.494 165.345 105.048 165.344C105.244 165.346 105.439 165.322 105.629 165.273C105.993 165.18 106.329 165 106.609 164.749C106.89 164.499 107.106 164.184 107.239 163.833L114.643 144.314C118.554 147.055 121.005 150.317 123.977 154.659C125.597 157.07 126.818 161.192 127.528 166.664C123.386 168.701 119.083 170.394 114.663 171.726V171.656ZM131.91 164.253C131.06 158.891 129.709 154.779 127.838 152.008C122.836 144.764 118.744 139.732 108.22 135.83H108.04C107.879 135.792 107.715 135.768 107.549 135.76C107.406 135.745 107.262 135.745 107.119 135.76C107.007 135.774 106.897 135.798 106.789 135.83C105.379 135.33 99.636 133.709 96.4645 132.829C96.4045 131.569 96.3745 130.308 96.3745 129.368C99.5259 129.037 105.739 128.037 110.961 125.036C114.182 123.175 116.794 121.034 121.035 115.031H121.306C123.688 115.482 126.153 115.059 128.249 113.841C133.061 110.839 135.332 105.777 133.891 101.335C133.52 100.189 132.904 99.1379 132.085 98.2549C131.266 97.3719 130.264 96.6784 129.149 96.2228C130.142 93.7959 130.848 91.2607 131.25 88.6694C131.78 82.5367 131.07 55.3146 123.076 42.0787C118.514 34.5554 104.368 28.4627 103.768 28.2025C103.344 28.0245 102.878 27.9749 102.427 28.06C101.975 28.145 101.559 28.361 101.23 28.6809C100.9 29.0008 100.672 29.4105 100.574 29.8592C100.475 30.3078 100.511 30.7754 100.676 31.2039C101.067 32.2043 101.467 33.2748 101.817 34.2953C86.6702 26.1417 67.8018 24.6109 66.8914 24.5509C66.5154 24.5153 66.1365 24.5723 65.7876 24.7171C65.4388 24.8619 65.1308 25.0899 64.8905 25.3813C64.6536 25.6704 64.4885 26.0115 64.4085 26.3766C64.3285 26.7417 64.336 27.1206 64.4303 27.4823L66.6213 35.7259L52.2349 32.5145C51.8847 32.438 51.5216 32.4426 51.1735 32.5279C50.8253 32.6132 50.5013 32.777 50.2262 33.0068C49.951 33.2366 49.7321 33.5262 49.586 33.8535C49.44 34.1809 49.3708 34.5373 49.3836 34.8955L50.0339 49.432L49.6938 48.9918C49.3829 48.5978 48.9536 48.3141 48.4693 48.1827C47.9849 48.0512 47.4711 48.0789 47.0037 48.2616C46.5362 48.4443 46.1399 48.7724 45.8731 49.1975C45.6063 49.6226 45.4832 50.1221 45.5219 50.6225C45.802 54.1541 48.2931 84.8477 49.1035 88.8795C49.1135 89.0027 49.1405 89.1239 49.1835 89.2397C49.8383 92.0454 50.8965 94.7413 52.3249 97.2432C49.1535 98.0236 46.7624 99.9344 45.8721 102.666C44.6115 106.577 46.7424 110.969 51.3145 113.851C53.4086 115.074 55.8741 115.501 58.2576 115.051H58.5377C61.3544 119.217 65.128 122.647 69.5426 125.056C73.7536 127.362 78.3762 128.82 83.1486 129.347C83.1486 130.348 83.1486 131.559 83.0686 132.829C79.8671 133.679 74.1646 135.31 72.824 135.83L72.4839 135.76C72.3309 135.745 72.1767 135.745 72.0237 135.76C71.8782 135.768 71.7339 135.791 71.5935 135.83C71.5235 135.83 71.4434 135.83 71.3734 135.83C60.8487 139.732 56.7769 144.764 51.7346 152.028C49.9138 154.749 48.5632 158.831 47.7329 164.153C31.3559 154.842 18.521 140.373 11.2302 123.002C3.93951 105.632 2.60294 86.3366 7.42906 68.1267C12.2552 49.9167 22.9726 33.8161 37.9095 22.3363C52.8463 10.8566 71.1626 4.64331 90.0012 4.66571C108.84 4.6881 127.141 10.9449 142.051 22.4601C156.96 33.9753 167.639 50.1014 172.422 68.3228C177.205 86.5442 175.823 105.836 168.491 123.189C161.159 140.543 148.289 154.981 131.89 164.253H131.91Z" fill="url(#paint0_linear_23_113)"/>
<path d="M89.9617 111.99C87.1466 111.995 84.3583 111.443 81.7572 110.366C79.156 109.29 76.7933 107.71 74.8049 105.717C74.5664 105.486 74.3763 105.21 74.2457 104.904C74.115 104.599 74.0465 104.271 74.0441 103.939C74.0417 103.607 74.1054 103.277 74.2316 102.97C74.3578 102.663 74.5439 102.384 74.7791 102.149C75.0143 101.915 75.2938 101.73 75.6013 101.604C75.9088 101.479 76.2383 101.416 76.5704 101.42C76.9024 101.423 77.2305 101.492 77.5354 101.624C77.8404 101.755 78.1161 101.946 78.3465 102.185C81.4281 105.26 85.6035 106.987 89.9567 106.987C94.3099 106.987 98.4853 105.26 101.567 102.185C102.038 101.729 102.669 101.476 103.325 101.481C103.981 101.486 104.609 101.748 105.073 102.211C105.537 102.674 105.801 103.301 105.808 103.957C105.815 104.612 105.563 105.245 105.108 105.717C103.122 107.709 100.761 109.289 98.1611 110.365C95.5617 111.442 92.7752 111.994 89.9617 111.99Z" fill="url(#paint1_linear_23_113)"/>
<path d="M78.0764 84.4776C77.7484 84.4777 77.4236 84.4123 77.1213 84.2852C76.8189 84.1581 76.545 83.9718 76.3156 83.7372C75.7762 83.2039 75.0483 82.9047 74.2897 82.9047C73.5312 82.9047 72.8032 83.2039 72.2638 83.7372C72.0334 83.9764 71.7577 84.1673 71.4528 84.2988C71.1478 84.4303 70.8197 84.4997 70.4876 84.5031C70.1556 84.5064 69.8261 84.4436 69.5186 84.3183C69.211 84.193 68.9315 84.0077 68.6964 83.7732C68.4612 83.5387 68.2751 83.2597 68.1489 82.9525C68.0228 82.6453 67.959 82.3161 67.9614 81.984C67.9638 81.6519 68.0323 81.3236 68.1629 81.0183C68.2936 80.713 68.4837 80.4367 68.7223 80.2056C69.4525 79.4748 70.3197 78.8951 71.2741 78.4995C72.2286 78.1039 73.2516 77.9004 74.2847 77.9004C75.3179 77.9004 76.3409 78.1039 77.2953 78.4995C78.2498 78.8951 79.1169 79.4748 79.8472 80.2056C80.1931 80.5573 80.4277 81.003 80.5219 81.4872C80.616 81.9713 80.5655 82.4725 80.3766 82.9281C80.1877 83.3837 79.8689 83.7737 79.4598 84.0492C79.0508 84.3248 78.5696 84.4737 78.0764 84.4776Z" fill="url(#paint2_linear_23_113)"/>
<path d="M109.74 84.4776C109.411 84.4768 109.085 84.411 108.781 84.284C108.477 84.1569 108.202 83.9712 107.97 83.7372C107.433 83.2189 106.715 82.9291 105.969 82.9291C105.222 82.9291 104.505 83.2189 103.968 83.7372C103.741 83.9909 103.465 84.1956 103.156 84.3389C102.848 84.4822 102.513 84.561 102.173 84.5705C101.833 84.58 101.495 84.5201 101.179 84.3943C100.862 84.2685 100.575 84.0795 100.335 83.8389C100.094 83.5983 99.9051 83.3112 99.7793 82.9951C99.6535 82.679 99.5935 82.3405 99.603 82.0004C99.6126 81.6603 99.6914 81.3257 99.8347 81.0171C99.9779 80.7085 100.183 80.4324 100.436 80.2056C101.167 79.4748 102.034 78.8951 102.988 78.4995C103.943 78.1039 104.966 77.9004 105.999 77.9004C107.032 77.9004 108.055 78.1039 109.009 78.4995C109.964 78.8951 110.831 79.4748 111.561 80.2056C111.907 80.5573 112.142 81.003 112.236 81.4872C112.33 81.9713 112.28 82.4725 112.091 82.9281C111.902 83.3837 111.583 83.7737 111.174 84.0492C110.765 84.3248 110.284 84.4737 109.79 84.4776H109.74Z" fill="url(#paint3_linear_23_113)"/>
<defs>
<linearGradient id="paint0_linear_23_113" x1="122.922" y1="180" x2="37.4216" y2="3" gradientUnits="userSpaceOnUse">
<stop stop-color="#835342"/>
<stop offset="0.972222" stop-color="#FFCAA4"/>
</linearGradient>
<linearGradient id="paint1_linear_23_113" x1="122.922" y1="180" x2="37.4216" y2="3" gradientUnits="userSpaceOnUse">
<stop stop-color="#835342"/>
<stop offset="0.972222" stop-color="#FFCAA4"/>
</linearGradient>
<linearGradient id="paint2_linear_23_113" x1="122.922" y1="180" x2="37.4216" y2="3" gradientUnits="userSpaceOnUse">
<stop stop-color="#835342"/>
<stop offset="0.972222" stop-color="#FFCAA4"/>
</linearGradient>
<linearGradient id="paint3_linear_23_113" x1="122.922" y1="180" x2="37.4216" y2="3" gradientUnits="userSpaceOnUse">
<stop stop-color="#835342"/>
<stop offset="0.972222" stop-color="#FFCAA4"/>
</linearGradient>
</defs>
</svg>
