<svg width="19" height="18" viewBox="0 0 19 18" fill="none" xmlns="http://www.w3.org/2000/svg">
<path d="M11.7825 17.5123C9.35641 16.3011 7.16276 14.6718 5.30211 12.6993C3.32865 10.841 1.70997 8.63901 0.525211 6.20095L0.43508 5.99365C-0.177804 4.53354 -0.141752 3.28975 0.534224 2.38845C1.2102 1.48715 2.70636 0 3.95015 0H4.04028C4.51813 0.0575078 4.95947 0.284576 5.28408 0.639924L5.41026 0.757093C6.27417 1.68463 7.01345 2.72085 7.60944 3.83954V3.91165C7.66723 4.21181 7.66182 4.52073 7.59353 4.81869C7.52525 5.11665 7.3956 5.3971 7.21286 5.64214L7.11372 5.81339C6.93346 6.14687 6.90642 6.29108 6.9605 6.45332C7.35664 7.48418 7.96138 8.42214 8.73683 9.20845C9.51229 9.99476 10.4417 10.6125 11.467 11.0229C11.5203 11.0356 11.5759 11.0356 11.6292 11.0229C11.8523 10.9945 12.0637 10.9074 12.2421 10.7705L12.4674 10.6444C12.8081 10.4272 13.1996 10.3029 13.6031 10.2838C13.743 10.2841 13.8824 10.3023 14.0177 10.3379C15.0846 10.8719 16.0683 11.5581 16.9379 12.3749L17.1813 12.6002L17.2714 12.6903C17.6331 13.0288 17.8603 13.4865 17.9113 13.9792C17.9113 15.1689 16.5143 16.8994 15.5679 17.4402C15.0449 17.8196 14.4113 18.016 13.7653 17.999C13.0778 17.9761 12.4025 17.8103 11.7825 17.5123ZM3.94114 1.28886H3.86002C2.95062 1.65126 2.17163 2.27947 1.6248 3.09146L1.55269 3.19962C1.38097 3.59051 1.30761 4.01751 1.33903 4.4433C1.37046 4.86909 1.50571 5.2807 1.73295 5.64214L1.82308 5.85846C2.97435 8.09753 4.49827 10.1243 6.32959 11.8521C8.04557 13.6572 10.0612 15.1514 12.2872 16.2685L12.4765 16.3496C12.8871 16.5398 13.3312 16.647 13.7833 16.6651C14.1678 16.6653 14.5427 16.5455 14.8559 16.3226C15.2062 16.0545 15.5292 15.7526 15.8203 15.4213C16.1918 15.0621 16.4489 14.6011 16.5594 14.0963C16.5153 13.9302 16.4246 13.78 16.298 13.6637L16.2259 13.5916C15.4407 12.8811 14.5965 12.2389 13.7022 11.6718H13.5851C13.3385 11.7016 13.1047 11.7982 12.9091 11.9513L12.6838 12.0684C12.3596 12.2756 11.9865 12.3937 11.6022 12.4109C11.3775 12.4048 11.1553 12.3622 10.9443 12.2847C9.75642 11.7953 8.68141 11.0677 7.78546 10.147C6.88951 9.22622 6.19159 8.13175 5.73473 6.93101C5.62857 6.61377 5.60181 6.27534 5.65681 5.94536C5.7118 5.61539 5.84687 5.30393 6.05019 5.03827L6.14933 4.85801C6.31156 4.50651 6.38367 4.3623 6.31156 4.18204C5.7786 3.3227 5.17569 2.50877 4.50896 1.74852L4.35574 1.58629L4.27462 1.50517C4.18249 1.42949 4.07909 1.36867 3.96818 1.32491L3.94114 1.28886ZM13.6301 7.21041C13.5135 6.57649 13.2086 5.9924 12.7553 5.53423C12.3019 5.07606 11.7211 4.76504 11.0885 4.6417C10.9274 4.61547 10.7818 4.53032 10.68 4.40279C10.5782 4.27525 10.5274 4.11442 10.5375 3.95154C10.5476 3.78866 10.6179 3.63535 10.7347 3.52138C10.8515 3.40742 11.0065 3.34092 11.1696 3.33481H11.3498C12.2445 3.50144 13.0678 3.93504 13.7113 4.57856C14.3548 5.22207 14.7884 6.04534 14.955 6.94002C14.9728 7.02701 14.9732 7.11665 14.9564 7.20382C14.9395 7.29099 14.9056 7.37397 14.8566 7.44804C14.8076 7.52211 14.7446 7.58581 14.671 7.63551C14.5974 7.6852 14.5148 7.71992 14.4278 7.73767C14.3408 7.75542 14.2511 7.75587 14.164 7.73898C14.0768 7.72209 13.9938 7.6882 13.9198 7.63924C13.8457 7.59028 13.782 7.52721 13.7323 7.45363C13.6826 7.38005 13.6479 7.2974 13.6301 7.21041ZM16.7216 7.15633C16.5739 5.72263 15.9398 4.38272 14.9248 3.35949C13.9098 2.33626 12.575 1.6914 11.1425 1.53221C10.9825 1.51338 10.8349 1.43644 10.7277 1.31599C10.6206 1.19553 10.5615 1.03996 10.5615 0.878769C10.5615 0.717582 10.6206 0.562002 10.7277 0.441551C10.8349 0.3211 10.9825 0.244158 11.1425 0.225325H11.3228C13.0392 0.430292 14.6359 1.20973 15.8533 2.43695C17.0707 3.66418 17.8373 5.26706 18.0285 6.98508C18.0398 7.07109 18.0337 7.15848 18.0107 7.2421C17.9876 7.32573 17.948 7.40388 17.8942 7.47194C17.8405 7.54 17.7736 7.59659 17.6976 7.63836C17.6216 7.68013 17.5379 7.70624 17.4516 7.71514H17.3795C17.2182 7.71637 17.0621 7.65829 16.9408 7.55194C16.8195 7.4456 16.7415 7.29839 16.7216 7.1383V7.15633Z" fill="#E10A16"/>
</svg>
