<svg width="40" height="40" viewBox="0 0 40 40" fill="none" xmlns="http://www.w3.org/2000/svg">
<path d="M39.9317 0.387475C39.8855 0.268298 39.8028 0.166763 39.6955 0.097356C39.5882 0.0279489 39.4616 -0.00578414 39.334 0.000969918H33.1814C33.0936 -0.00154266 33.0062 0.0139786 32.9246 0.0465748C32.843 0.079171 32.7689 0.12815 32.707 0.190486C32.6451 0.252822 32.5966 0.32719 32.5646 0.408998C32.5326 0.490805 32.5176 0.578314 32.5207 0.666118C32.5151 0.75539 32.5281 0.844863 32.559 0.928811C32.5899 1.01276 32.638 1.08933 32.7001 1.15363C32.7623 1.21793 32.8373 1.26855 32.9201 1.30223C33.003 1.33591 33.092 1.35192 33.1814 1.34924H37.752L23.9277 15.1376C23.808 15.2574 23.7375 15.4178 23.73 15.587C23.7323 15.7627 23.8032 15.9305 23.9274 16.0548C24.0516 16.179 24.2195 16.2498 24.3951 16.2521C24.5644 16.2446 24.7247 16.1741 24.8446 16.0544L38.6509 2.24809V6.81873C38.6509 6.99753 38.7219 7.16899 38.8483 7.29542C38.9748 7.42184 39.1462 7.49287 39.325 7.49287C39.5038 7.49287 39.6753 7.42184 39.8017 7.29542C39.9281 7.16899 39.9992 6.99753 39.9992 6.81873V0.666118C40.005 0.568592 39.9815 0.471555 39.9317 0.387475Z" fill="white"/>
<path d="M0.665555 7.47939C0.754827 7.48506 0.8443 7.47203 0.928248 7.44114C1.0122 7.41024 1.08877 7.36216 1.15307 7.29998C1.21737 7.23779 1.26798 7.16287 1.30167 7.08C1.33535 6.99713 1.35136 6.90814 1.34868 6.81873V2.24809L15.137 16.0724C15.2566 16.1924 15.4171 16.263 15.5864 16.2701C15.7156 16.2656 15.8407 16.2235 15.9463 16.149C16.0519 16.0745 16.1336 15.9709 16.1813 15.8507C16.2289 15.7306 16.2406 15.5991 16.2148 15.4725C16.1889 15.3458 16.1268 15.2295 16.0359 15.1376L2.24753 1.34924H6.81817C6.90599 1.35175 6.9934 1.33623 7.07499 1.30364C7.15658 1.27104 7.23061 1.22206 7.29253 1.15973C7.35444 1.09739 7.40292 1.02302 7.43496 0.941214C7.467 0.859407 7.48193 0.771898 7.47882 0.684094C7.48449 0.594822 7.47147 0.50535 7.44057 0.421402C7.40968 0.337454 7.3616 0.260879 7.29942 0.196578C7.23723 0.132277 7.16231 0.0816663 7.07944 0.0479835C6.99657 0.0143006 6.90758 -0.00171212 6.81817 0.000969918H0.665555C0.577361 -0.00217169 0.489465 0.0128841 0.407344 0.0451992C0.325223 0.0775142 0.250638 0.126396 0.188236 0.188798C0.125833 0.2512 0.0769517 0.325786 0.0446366 0.407907C0.0123216 0.490027 -0.00273422 0.577923 0.00040738 0.666118V6.81873C-0.0021052 6.90656 0.0134161 6.99396 0.0460123 7.07555C0.0786085 7.15714 0.127587 7.23118 0.189923 7.29309C0.252259 7.35501 0.326628 7.40348 0.408435 7.43552C0.490243 7.46757 0.577751 7.48249 0.665555 7.47939Z" fill="white"/>
<path d="M39.334 32.5213C39.2447 32.5156 39.1553 32.5287 39.0713 32.5595C38.9874 32.5904 38.9108 32.6385 38.8465 32.7007C38.7822 32.7629 38.7316 32.8378 38.6979 32.9207C38.6642 33.0036 38.6482 33.0925 38.6509 33.1819V37.7526L24.8625 23.9283C24.7707 23.8374 24.6543 23.7752 24.5276 23.7494C24.401 23.7236 24.2695 23.7352 24.1494 23.7829C24.0293 23.8306 23.9256 23.9122 23.8511 24.0179C23.7766 24.1235 23.7345 24.2486 23.73 24.3777C23.7375 24.547 23.808 24.7073 23.9277 24.8272L37.752 38.6514H33.1814C33.0026 38.6514 32.8311 38.7225 32.7047 38.8489C32.5783 38.9753 32.5073 39.1468 32.5073 39.3256C32.5073 39.5044 32.5783 39.6758 32.7047 39.8023C32.8311 39.9287 33.0026 39.9997 33.1814 39.9997H39.334C39.4222 40.0029 39.5101 39.9878 39.5922 39.9555C39.6743 39.9232 39.7489 39.8743 39.8113 39.8119C39.8737 39.7495 39.9226 39.6749 39.9549 39.5928C39.9872 39.5107 40.0023 39.4228 39.9992 39.3346V33.1819C40.0017 33.0941 39.9861 33.0067 39.9535 32.9251C39.921 32.8435 39.872 32.7695 39.8096 32.7076C39.7473 32.6457 39.6729 32.5972 39.5911 32.5652C39.5093 32.5331 39.4218 32.5182 39.334 32.5213Z" fill="white"/>
<path d="M6.81817 38.6514H2.24753L16.0718 24.8631C16.1958 24.7391 16.2654 24.571 16.2654 24.3957C16.2654 24.2204 16.1958 24.0523 16.0718 23.9283C15.9479 23.8043 15.7797 23.7347 15.6044 23.7347C15.4291 23.7347 15.261 23.8043 15.137 23.9283L1.34868 37.7526V33.182C1.35119 33.0941 1.33567 33.0067 1.30307 32.9251C1.27048 32.8435 1.2215 32.7695 1.15916 32.7076C1.09683 32.6457 1.02246 32.5972 0.940652 32.5652C0.858844 32.5331 0.771336 32.5182 0.683532 32.5213C0.59426 32.5156 0.504787 32.5287 0.420839 32.5596C0.336891 32.5904 0.260317 32.6385 0.196016 32.7007C0.131715 32.7629 0.0811038 32.8378 0.0474209 32.9207C0.0137381 33.0036 -0.00227466 33.0925 0.00040738 33.182V39.3346C-0.00273422 39.4228 0.0123216 39.5107 0.0446366 39.5928C0.0769517 39.6749 0.125833 39.7495 0.188236 39.8119C0.250638 39.8743 0.325223 39.9232 0.407344 39.9555C0.489465 39.9878 0.577361 40.0029 0.665555 39.9997H6.81817C6.99696 39.9997 7.16843 39.9287 7.29486 39.8023C7.42128 39.6758 7.49231 39.5044 7.49231 39.3256C7.49231 39.1468 7.42128 38.9753 7.29486 38.8489C7.16843 38.7225 6.99696 38.6514 6.81817 38.6514Z" fill="white"/>
<path d="M16.4853 1.34924H23.5143C23.6041 1.35257 23.6935 1.33703 23.7769 1.30363C23.8604 1.27023 23.9358 1.21972 23.9985 1.15535C24.0612 1.09098 24.1097 1.01418 24.1408 0.929912C24.172 0.845645 24.1851 0.75578 24.1794 0.666118C24.1826 0.577923 24.1675 0.490027 24.1352 0.407907C24.1029 0.325786 24.054 0.2512 23.9916 0.188798C23.9292 0.126396 23.8546 0.0775142 23.7725 0.0451992C23.6904 0.0128841 23.6025 -0.00217169 23.5143 0.000969918H16.4853C16.3971 -0.00217169 16.3092 0.0128841 16.2271 0.0451992C16.145 0.0775142 16.0704 0.126396 16.008 0.188798C15.9456 0.2512 15.8967 0.325786 15.8644 0.407907C15.832 0.490027 15.817 0.577923 15.8201 0.666118C15.8144 0.75578 15.8276 0.845645 15.8587 0.929912C15.8899 1.01418 15.9384 1.09098 16.0011 1.15535C16.0637 1.21972 16.1392 1.27023 16.2226 1.30363C16.306 1.33703 16.3955 1.35257 16.4853 1.34924Z" fill="white"/>
<path d="M23.5143 38.6514H16.4853C16.3065 38.6514 16.135 38.7225 16.0086 38.8489C15.8822 38.9753 15.8111 39.1468 15.8111 39.3256C15.8111 39.5044 15.8822 39.6758 16.0086 39.8023C16.135 39.9287 16.3065 39.9997 16.4853 39.9997H23.5143C23.6931 39.9997 23.8645 39.9287 23.991 39.8023C24.1174 39.6758 24.1884 39.5044 24.1884 39.3256C24.1884 39.1468 24.1174 38.9753 23.991 38.8489C23.8645 38.7225 23.6931 38.6514 23.5143 38.6514Z" fill="white"/>
<path d="M0.665555 24.18C0.755217 24.1857 0.845082 24.1726 0.929349 24.1414C1.01362 24.1102 1.09041 24.0617 1.15478 23.9991C1.21916 23.9364 1.26967 23.8609 1.30307 23.7775C1.33646 23.6941 1.352 23.6046 1.34868 23.5148V16.4858C1.352 16.3961 1.33646 16.3066 1.30307 16.2232C1.26967 16.1398 1.21916 16.0643 1.15478 16.0016C1.09041 15.9389 1.01362 15.8905 0.929349 15.8593C0.845082 15.8281 0.755217 15.815 0.665555 15.8207C0.577361 15.8176 0.489465 15.8326 0.407344 15.8649C0.325223 15.8972 0.250638 15.9461 0.188236 16.0085C0.125833 16.0709 0.0769517 16.1455 0.0446366 16.2276C0.0123216 16.3098 -0.00273422 16.3977 0.00040738 16.4858V23.5148C-0.00273422 23.603 0.0123216 23.6909 0.0446366 23.7731C0.0769517 23.8552 0.125833 23.9298 0.188236 23.9922C0.250638 24.0546 0.325223 24.1034 0.407344 24.1358C0.489465 24.1681 0.577361 24.1831 0.665555 24.18Z" fill="white"/>
<path d="M39.334 15.8207C39.2443 15.815 39.1545 15.8281 39.0702 15.8593C38.9859 15.8905 38.9091 15.9389 38.8448 16.0016C38.7804 16.0643 38.7299 16.1398 38.6965 16.2232C38.6631 16.3066 38.6476 16.3961 38.6509 16.4858V23.5148C38.6509 23.6936 38.7219 23.8651 38.8483 23.9915C38.9748 24.118 39.1462 24.189 39.325 24.189C39.5038 24.189 39.6753 24.118 39.8017 23.9915C39.9281 23.8651 39.9992 23.6936 39.9992 23.5148V16.4858C40.0023 16.3977 39.9872 16.3098 39.9549 16.2276C39.9226 16.1455 39.8737 16.0709 39.8113 16.0085C39.7489 15.9461 39.6743 15.8972 39.5922 15.8649C39.5101 15.8326 39.4222 15.8176 39.334 15.8207Z" fill="white"/>
</svg>
