<svg width="180" height="180" viewBox="0 0 180 180" fill="none" xmlns="http://www.w3.org/2000/svg">
<path d="M157.952 30.933C157.878 30.8081 157.793 30.6904 157.698 30.5814C155.1 27.634 152.321 24.8518 149.377 22.2509C149.264 22.163 149.147 22.0815 149.025 22.0068C131.812 7.08481 109.583 -0.758305 86.8176 0.0578613C64.0518 0.874027 42.4415 10.2888 26.3414 26.405C10.2413 42.5213 0.848091 64.141 0.0546793 86.9076C-0.738732 109.674 7.1266 131.895 22.0657 149.093C22.1218 149.194 22.1872 149.288 22.2611 149.376C24.8499 152.345 27.6363 155.134 30.6013 157.727C30.7088 157.817 30.8231 157.898 30.9431 157.971C48.1503 172.899 70.3763 180.751 93.1423 179.943C115.908 179.136 137.522 169.729 153.629 153.619C169.735 137.509 179.136 115.893 179.939 93.1271C180.741 70.3608 172.884 48.1367 157.952 30.933ZM87.7722 124.024L65.5933 137.472V125.606L87.7722 103.417V124.024ZM61.1986 137.472L56.5206 134.669L61.1791 130.02L61.1986 137.472ZM153 31.9975L92.1767 92.7916L89.8524 95.1257L89.6375 95.3308L88.5144 96.4636L52.6728 132.305L49.4792 135.509L31.9686 153.019C30.2205 151.408 28.5407 149.728 26.9488 147.99L46.4224 128.545L86.5514 88.4066L87.7722 87.1663L147.971 26.9679C149.709 28.5696 151.389 30.2494 152.99 31.9877L153 31.9975ZM114.346 54.3717L92.1669 76.5505V61.9892L114.346 48.5413V54.3717ZM89.9305 58.1805L67.6345 44.6349L89.9696 31.0892L112.305 44.6349L89.9305 58.1805ZM87.7722 61.9892V80.9551L82.7133 86.0237L65.5933 75.6325V48.5413L87.7722 61.9892ZM63.3569 79.4804L79.4417 89.2465L62.6147 106.103L41.0608 93.026L63.3569 79.4804ZM38.9416 96.9324L59.4504 109.277L42.5551 126.172L39.0197 124.024L38.9416 96.9324ZM92.1669 99.0224L93.4756 97.7235L114.346 110.419V137.511L92.1669 124.024V99.0224ZM118.741 110.38L140.929 96.9324V124.024L118.741 137.472V110.38ZM116.543 106.572L96.6691 94.5202L104.257 86.9319L116.543 79.4804L138.878 93.026L116.543 106.572ZM89.9696 4.29102C109.952 4.27446 129.306 11.2697 144.66 24.0576L118.741 49.9769V44.6349C118.741 44.6349 118.741 44.5763 118.741 44.547C118.736 44.386 118.716 44.2257 118.682 44.0684C118.682 43.9708 118.604 43.8926 118.575 43.8047L118.467 43.541C118.409 43.4532 118.34 43.375 118.272 43.2871C118.203 43.1992 118.184 43.1602 118.125 43.1016C118.042 43.0247 117.954 42.9529 117.862 42.8867C117.809 42.8413 117.753 42.799 117.696 42.7598L91.1122 26.6359C90.7668 26.4294 90.372 26.3204 89.9696 26.3204C89.5672 26.3204 89.1723 26.4294 88.8269 26.6359L62.3217 42.7109H62.2729C62.2152 42.7501 62.1598 42.7925 62.1068 42.8379C62.0147 42.9041 61.9266 42.9759 61.8431 43.0527L61.6967 43.2383C61.6285 43.3182 61.5665 43.403 61.5111 43.4922C61.4633 43.6054 61.4273 43.7232 61.4037 43.8438C61.3595 43.9314 61.3235 44.023 61.2962 44.1172C61.2537 44.27 61.2308 44.4275 61.2279 44.586C61.2279 44.586 61.2279 44.6544 61.2279 44.6837V75.6716L35.7383 91.1118H35.6797C35.6113 91.1118 35.5527 91.2095 35.4844 91.2583C35.4019 91.3181 35.3236 91.3833 35.25 91.4536C35.19 91.5215 35.1345 91.5933 35.084 91.6685C35.02 91.7424 34.9613 91.8207 34.9082 91.9029C34.9082 91.9908 34.8301 92.0884 34.791 92.1763C34.7519 92.2642 34.7226 92.3326 34.6933 92.4205C34.6558 92.5874 34.6329 92.7574 34.625 92.9283V125.215C34.6262 125.592 34.7238 125.962 34.9084 126.29C35.093 126.618 35.3585 126.894 35.6797 127.09L39.3518 129.317L24.0385 144.679C13.6419 132.161 7.02584 116.942 4.96455 100.801C2.90326 84.6597 5.48206 68.2656 12.3991 53.537C19.3162 38.8084 30.2854 26.3546 44.0228 17.6334C57.7602 8.9121 73.6976 4.28409 89.9696 4.29102ZM89.9696 175.686C69.9876 175.703 50.6333 168.708 35.2793 155.92L53.3466 137.852L62.2533 143.253C62.2533 143.253 62.4779 143.341 62.5854 143.39L62.7709 143.458C62.9555 143.509 63.146 143.535 63.3374 143.536C63.5287 143.534 63.719 143.508 63.9038 143.458L64.0796 143.39C64.1926 143.35 64.3035 143.305 64.4116 143.253L89.8035 127.832L115.244 143.253C115.352 143.305 115.463 143.35 115.576 143.39L115.752 143.458C115.937 143.508 116.127 143.534 116.319 143.536C116.513 143.534 116.707 143.508 116.895 143.458L117.071 143.39C117.178 143.341 117.295 143.312 117.403 143.253L143.976 127.139C144.299 126.943 144.565 126.668 144.752 126.34C144.938 126.011 145.038 125.641 145.041 125.264V93.0357C145.041 93.0357 145.041 93.0357 145.041 92.9771C145.033 92.8062 145.01 92.6363 144.972 92.4693C144.946 92.3888 144.913 92.3105 144.875 92.2349C144.875 92.1373 144.806 92.0396 144.758 91.9419C144.709 91.8443 144.64 91.7954 144.582 91.7173C144.523 91.6392 144.474 91.5611 144.416 91.4927C144.357 91.4243 144.259 91.3755 144.181 91.3071C144.12 91.2529 144.055 91.2039 143.986 91.1606H143.927L118.741 75.6716V72.4488L155.852 35.3375C166.238 47.8514 172.847 63.0635 174.905 79.1951C176.964 95.3267 174.388 111.711 167.477 126.432C160.567 141.153 149.608 153.603 135.883 162.325C122.157 171.048 106.232 175.682 89.9696 175.686Z" fill="url(#paint0_linear_146_489)"/>
<defs>
<linearGradient id="paint0_linear_146_489" x1="123.096" y1="180" x2="37.6716" y2="2.90507" gradientUnits="userSpaceOnUse">
<stop stop-color="#835342"/>
<stop offset="0.972222" stop-color="#FFCAA4"/>
</linearGradient>
</defs>
</svg>
