<svg width="180" height="180" viewBox="0 0 180 180" fill="none" xmlns="http://www.w3.org/2000/svg">
<path d="M88.9366 126.215C84.7197 126.213 80.5969 127.462 77.0898 129.803C73.5827 132.145 70.849 135.474 69.2343 139.369C67.6197 143.265 67.1967 147.552 68.0189 151.688C68.8411 155.824 70.8716 159.623 73.8534 162.605C76.8352 165.587 80.6345 167.617 84.7705 168.44C88.9065 169.262 93.1935 168.839 97.089 167.224C100.985 165.61 104.314 162.876 106.655 159.369C108.997 155.862 110.246 151.739 110.244 147.522C110.236 141.873 107.989 136.458 103.995 132.464C100 128.47 94.5853 126.222 88.9366 126.215ZM88.9366 164.449C85.5884 164.451 82.3148 163.46 79.5299 161.601C76.745 159.742 74.574 157.099 73.2913 154.006C72.0087 150.913 71.6721 147.51 72.3241 144.226C72.9761 140.942 74.5874 137.925 76.9543 135.556C79.3212 133.188 82.3372 131.575 85.621 130.921C88.9047 130.267 92.3087 130.602 95.4022 131.883C98.4958 133.163 101.14 135.333 103 138.117C104.861 140.901 105.854 144.174 105.854 147.522C105.849 152.008 104.065 156.309 100.894 159.482C97.7225 162.655 93.4226 164.441 88.9366 164.449Z" fill="url(#paint0_linear_146_627)"/>
<path d="M97.8927 139.941C97.6571 139.775 97.3909 139.656 97.1093 139.592C96.8277 139.528 96.5363 139.52 96.2517 139.569C95.9671 139.618 95.695 139.723 95.4509 139.877C95.2068 140.031 94.9956 140.232 94.8293 140.468L88.4293 149.522L83.0342 141.893C82.8858 141.623 82.6823 141.387 82.4369 141.201C82.1916 141.015 81.9098 140.883 81.61 140.813C81.3102 140.743 80.999 140.737 80.6966 140.795C80.3942 140.853 80.1075 140.974 79.855 141.15C79.6024 141.326 79.3898 141.554 79.2308 141.817C79.0719 142.081 78.9702 142.375 78.9323 142.681C78.8945 142.986 78.9213 143.296 79.0112 143.591C79.101 143.885 79.2518 144.158 79.4537 144.39L86.6342 154.556C86.8381 154.842 87.1074 155.075 87.4197 155.236C87.7319 155.397 88.078 155.481 88.4293 155.481C88.7805 155.481 89.1267 155.397 89.4389 155.236C89.7512 155.075 90.0205 154.842 90.2244 154.556L98.4195 142.976C98.745 142.501 98.872 141.918 98.7736 141.351C98.6752 140.784 98.359 140.278 97.8927 139.941Z" fill="url(#paint1_linear_146_627)"/>
<path d="M90 0C72.1997 0 54.7991 5.27841 39.9987 15.1677C25.1983 25.0571 13.6628 39.1131 6.85088 55.5585C0.038996 72.0038 -1.7433 90.0998 1.72936 107.558C5.20203 125.016 13.7737 141.053 26.3604 153.64C38.9471 166.226 54.9836 174.798 72.4419 178.271C89.9002 181.743 107.996 179.961 124.442 173.149C140.887 166.337 154.943 154.802 164.832 140.001C174.722 125.201 180 107.8 180 90C179.974 66.1384 170.484 43.2616 153.611 26.3889C136.738 9.51623 113.862 0.0258242 90 0ZM90 175.61C73.519 175.628 57.3868 170.863 43.561 161.893C43.6426 161.667 43.6854 161.43 43.6878 161.19V136.39H63.3366C63.9188 136.39 64.4771 136.159 64.8888 135.747C65.3005 135.336 65.5317 134.777 65.5317 134.195C65.5317 133.613 65.3005 133.055 64.8888 132.643C64.4771 132.231 63.9188 132 63.3366 132H43.561L41.6781 120.419L41.7561 120.478C43.276 121.942 45.3043 122.76 47.4147 122.76C49.5251 122.76 51.5533 121.942 53.0732 120.478C53.4384 120.085 53.8808 119.772 54.3726 119.557C54.8645 119.343 55.3952 119.232 55.9317 119.232C56.4683 119.232 56.999 119.343 57.4908 119.557C57.9827 119.772 58.425 120.085 58.7903 120.478C60.3049 121.95 62.3365 122.77 64.4488 122.761C64.8801 122.757 65.3106 122.721 65.7366 122.654H66.0293C67.5564 122.328 68.9661 121.593 70.1073 120.527C70.4725 120.135 70.9143 119.823 71.4052 119.61C71.8961 119.396 72.4257 119.286 72.961 119.286C73.4963 119.286 74.0259 119.396 74.5168 119.61C75.0077 119.823 75.4495 120.135 75.8147 120.527C77.3362 121.992 79.3661 122.81 81.4781 122.81C83.5901 122.81 85.62 121.992 87.1415 120.527C87.5066 120.135 87.9484 119.823 88.4393 119.61C88.9302 119.396 89.4598 119.286 89.9951 119.286C90.5304 119.286 91.06 119.396 91.551 119.61C92.0419 119.823 92.4837 120.135 92.8488 120.527C94.3687 121.991 96.3969 122.809 98.5073 122.809C100.618 122.809 102.646 121.991 104.166 120.527C104.531 120.135 104.973 119.823 105.464 119.61C105.955 119.396 106.484 119.286 107.02 119.286C107.555 119.286 108.084 119.396 108.575 119.61C109.066 119.823 109.508 120.135 109.873 120.527C111.395 121.992 113.425 122.81 115.537 122.81C117.649 122.81 119.678 121.992 121.2 120.527C121.564 120.131 122.006 119.816 122.498 119.599C122.99 119.383 123.521 119.27 124.059 119.268C124.596 119.269 125.127 119.382 125.617 119.601C126.108 119.819 126.547 120.138 126.907 120.537C128.432 121.995 130.461 122.808 132.571 122.808C134.681 122.808 136.709 121.995 138.234 120.537L138.322 120.459L136.439 132.049H117.346C116.764 132.049 116.206 132.28 115.794 132.692C115.382 133.103 115.151 133.662 115.151 134.244C115.151 134.826 115.382 135.384 115.794 135.796C116.206 136.208 116.764 136.439 117.346 136.439H136.185V160.907C136.192 161.265 136.282 161.616 136.449 161.932C122.616 170.89 106.48 175.641 90 175.61ZM112.546 116.995C112.023 116.55 111.461 116.152 110.868 115.805C112.01 114.829 113.122 113.854 114.185 112.8L112.546 116.995ZM119.298 99.7463C115.361 105.766 110.35 111.011 104.517 115.219C103.35 115.633 102.276 116.273 101.356 117.102C100.993 117.506 100.549 117.829 100.053 118.049C99.5565 118.269 99.0192 118.381 98.4764 118.378C97.9335 118.375 97.3974 118.258 96.9033 118.033C96.4092 117.808 95.9683 117.481 95.6098 117.073C94.0876 115.613 92.0602 114.799 89.9512 114.799C87.8423 114.799 85.8149 115.613 84.2927 117.073C83.9323 117.473 83.4921 117.792 83.0005 118.01C82.5089 118.229 81.977 118.342 81.439 118.342C80.9011 118.342 80.3691 118.229 79.8776 118.01C79.386 117.792 78.9458 117.473 78.5854 117.073C77.0656 115.628 75.0485 114.822 72.9512 114.822C70.8539 114.822 68.8369 115.628 67.3171 117.073C67.1025 117.249 66.9171 117.405 66.7317 117.541L64.7122 112.39C77.4829 112.068 89.6976 107.249 103.854 96.917L105.249 96.6927C111.893 95.8146 117.863 94.361 122.205 92.3414L119.298 99.7463ZM55.483 68.8975C58.4098 64.478 64.039 61.9024 72.1659 61.239C94.3122 59.4439 103.141 48.2634 105.912 43.5415C107.427 41.0245 108.404 38.2208 108.781 35.3073C110.157 42.17 108.981 49.2991 105.473 55.3561C102.615 60.2341 96.8195 66.2341 85.4732 67.161C78.8 67.6975 73.6293 69.5512 70.0098 72.6634C68.8572 73.6639 67.8492 74.8196 67.0147 76.0975C66.6109 76.7216 66.2523 77.3736 65.9415 78.0488C64.2118 81.9004 63.6717 86.1808 64.3903 90.3414C58.361 88.5366 54.6342 86.2634 54.0293 84.3317C54.0293 84.2634 54.0293 84.2049 53.961 84.1366C53.9666 84.0716 53.9666 84.0064 53.961 83.9414C53.4622 82.217 53.1771 80.4378 53.1122 78.6439C52.8599 75.2268 53.6893 71.817 55.483 68.8975ZM70.6927 78.4585C71.1064 77.8349 71.5802 77.2532 72.1073 76.7219C75.0342 73.7951 79.5903 72.039 85.8244 71.5317C87.0049 71.4341 88.1073 71.278 89.1903 71.0927C100.224 69.1414 106.176 62.839 109.259 57.5805C112.096 52.5795 113.638 46.9488 113.746 41.2C116.322 50.1951 116.829 65.5902 114.546 73.8341C114.546 73.9219 114.546 74.0195 114.468 74.1073C114.085 75.4347 113.622 76.7378 113.083 78.0097C110.42 84.125 106.007 89.3154 100.4 92.9268L100.224 93.0244C96.6798 93.4089 93.1167 93.5978 89.5512 93.5902C83.0033 93.6288 76.4676 93.021 70.039 91.7756L69.1512 91.5902C68.6732 89.7561 67.3951 83.4146 70.6927 78.4585ZM126.302 78.8975C126.025 80.5434 125.654 82.1721 125.19 83.7756C125.129 83.884 125.06 83.9883 124.985 84.0878C123.385 86.3024 118.02 89.4536 109.132 91.5024C112.654 87.9927 115.449 83.8219 117.356 79.2292C117.88 77.9535 118.336 76.6509 118.722 75.3268C118.749 75.2402 118.772 75.1523 118.79 75.0634C120.741 67.9024 120.927 56.5951 119.532 47.2585C122.61 52.1989 124.849 57.6154 126.156 63.2878C127.192 68.4361 127.228 73.7355 126.263 78.8975H126.302ZM67.561 95.6878C74.7773 97.2373 82.1414 97.993 89.522 97.9414C91.3269 97.9414 93.0732 97.9414 94.7805 97.8146C83.6293 104.849 73.6586 108.059 63.3366 108.059C63.2263 108.048 63.1152 108.048 63.0049 108.059L56.8488 92.3707C60.284 93.8743 63.8773 94.987 67.561 95.6878ZM140.576 134.195C140.576 134.107 140.576 134.019 140.576 133.922L140.634 133.698L143.278 117.376C143.332 117.062 143.316 116.74 143.231 116.434C143.147 116.127 142.996 115.842 142.79 115.6C142.582 115.358 142.325 115.164 142.035 115.031C141.746 114.898 141.431 114.829 141.112 114.829C139.002 114.824 136.973 115.639 135.454 117.102C135.088 117.495 134.646 117.809 134.154 118.023C133.662 118.238 133.132 118.348 132.595 118.348C132.059 118.348 131.528 118.238 131.036 118.023C130.544 117.809 130.102 117.495 129.737 117.102C128.212 115.644 126.183 114.831 124.073 114.831C121.963 114.831 119.935 115.644 118.41 117.102C117.946 117.547 117.407 117.907 116.82 118.166L129.259 86.4097C129.421 86.0037 129.455 85.5577 129.356 85.1317C131.555 77.7472 131.92 69.9379 130.42 62.3805C125.483 40.2439 107.785 27.4439 107.005 26.9073C106.611 26.6272 106.136 26.4848 105.653 26.5024C105.17 26.5199 104.706 26.6964 104.334 27.0044C103.961 27.3123 103.701 27.7346 103.593 28.2057C103.485 28.6768 103.535 29.1703 103.737 29.6098C105.181 32.7707 104.576 37.161 102.117 41.3171C99.6585 45.4732 91.9025 55.239 71.8147 56.8683C62.2537 57.639 55.522 60.878 51.8049 66.4976C46.6634 74.3024 49.2586 83.6878 49.6976 85.1219C49.6065 85.5492 49.6439 85.9939 49.8049 86.4L61.9317 117.376L61.5903 117.093C60.0681 115.633 58.0407 114.818 55.9317 114.818C53.8228 114.818 51.7954 115.633 50.2732 117.093C49.9128 117.492 49.4726 117.811 48.981 118.03C48.4894 118.248 47.9575 118.361 47.4195 118.361C46.8816 118.361 46.3496 118.248 45.8581 118.03C45.3665 117.811 44.9263 117.492 44.5659 117.093C43.0451 115.631 41.0167 114.816 38.9073 114.819C38.5889 114.818 38.274 114.886 37.9847 115.019C37.6953 115.152 37.4385 115.346 37.2322 115.589C37.0259 115.831 36.8751 116.116 36.7903 116.423C36.7056 116.73 36.6889 117.052 36.7415 117.366L39.3756 133.659C39.3292 133.84 39.303 134.027 39.2976 134.215V158.956C24.757 148.269 13.9651 133.262 8.46307 116.075C2.96107 98.8894 3.03038 80.4043 8.6611 63.26C14.2918 46.1157 25.196 31.1891 39.8163 20.6118C54.4366 10.0346 72.0254 4.34772 90.0707 4.36337C108.116 4.37901 125.695 10.0964 140.297 20.6989C154.899 31.3015 165.777 46.247 171.378 63.4011C176.979 80.5551 177.016 99.0403 171.484 116.217C165.953 133.393 155.135 148.383 140.576 159.044V134.195Z" fill="url(#paint2_linear_146_627)"/>
<defs>
<linearGradient id="paint0_linear_146_627" x1="123.1" y1="180" x2="37.677" y2="2.90302" gradientUnits="userSpaceOnUse">
<stop stop-color="#835342"/>
<stop offset="0.972222" stop-color="#FFCAA4"/>
</linearGradient>
<linearGradient id="paint1_linear_146_627" x1="123.1" y1="180" x2="37.677" y2="2.90302" gradientUnits="userSpaceOnUse">
<stop stop-color="#835342"/>
<stop offset="0.972222" stop-color="#FFCAA4"/>
</linearGradient>
<linearGradient id="paint2_linear_146_627" x1="123.1" y1="180" x2="37.677" y2="2.90302" gradientUnits="userSpaceOnUse">
<stop stop-color="#835342"/>
<stop offset="0.972222" stop-color="#FFCAA4"/>
</linearGradient>
</defs>
</svg>
