<svg width="180" height="180" viewBox="0 0 180 180" fill="none" xmlns="http://www.w3.org/2000/svg">
<path d="M41.2195 75.8927H35.6195C34.9727 75.8927 34.3523 76.1496 33.8949 76.607C33.4375 77.0644 33.1805 77.6848 33.1805 78.3317C33.1805 78.9786 33.4375 79.5989 33.8949 80.0563C34.3523 80.5137 34.9727 80.7707 35.6195 80.7707H41.2098C41.8567 80.7707 42.477 80.5137 42.9344 80.0563C43.3918 79.5989 43.6488 78.9786 43.6488 78.3317C43.6488 77.6848 43.3918 77.0644 42.9344 76.607C42.477 76.1496 41.8567 75.8927 41.2098 75.8927H41.2195Z" fill="url(#paint0_linear_146_571)"/>
<path d="M55.3171 46.2049C55.8013 46.2057 56.2748 46.0625 56.6773 45.7933C57.0799 45.5242 57.3931 45.1413 57.5773 44.6934C57.7614 44.2456 57.8081 43.7531 57.7114 43.2786C57.6147 42.8042 57.3789 42.3693 57.0342 42.0293L53.0439 38.1268C52.581 37.6847 51.9628 37.4422 51.3227 37.4518C50.6826 37.4614 50.072 37.7223 49.6225 38.1782C49.1731 38.634 48.9208 39.2483 48.9203 39.8885C48.9197 40.5286 49.1709 41.1434 49.6195 41.6L53.6098 45.5024C54.0637 45.953 54.6775 46.2056 55.3171 46.2049Z" fill="url(#paint1_linear_146_571)"/>
<path d="M89.7561 31.7171C90.0751 31.7145 90.3905 31.6491 90.6843 31.5247C90.978 31.4003 91.2444 31.2192 91.4682 30.9918C91.6919 30.7644 91.8687 30.4951 91.9884 30.1994C92.1081 29.9037 92.1684 29.5873 92.1659 29.2683V23.6683C92.1607 23.0248 91.9015 22.4094 91.4446 21.9562C90.9878 21.503 90.3704 21.2488 89.7268 21.2488C89.4065 21.2501 89.0896 21.3144 88.7942 21.4382C88.4988 21.5619 88.2306 21.7427 88.005 21.97C87.7795 22.1974 87.6009 22.467 87.4795 22.7634C87.3581 23.0598 87.2963 23.3773 87.2976 23.6976V29.2976C87.3001 29.6179 87.3657 29.9345 87.4907 30.2295C87.6156 30.5244 87.7974 30.7918 88.0257 31.0165C88.254 31.2412 88.5243 31.4187 88.8212 31.5389C89.1181 31.6591 89.4358 31.7196 89.7561 31.7171Z" fill="url(#paint2_linear_146_571)"/>
<path d="M126.488 37.678L122.585 41.6683C122.131 42.1301 121.879 42.7535 121.885 43.4012C121.89 44.0489 122.153 44.6678 122.615 45.1219C123.077 45.576 123.7 45.8281 124.348 45.8226C124.995 45.8171 125.614 45.5545 126.068 45.0927L129.971 41.1024C130.413 40.6395 130.655 40.0213 130.646 39.3812C130.636 38.7411 130.375 38.1305 129.919 37.681C129.464 37.2316 128.849 36.9793 128.209 36.9788C127.569 36.9782 126.954 37.2294 126.498 37.678H126.488Z" fill="url(#paint3_linear_146_571)"/>
<path d="M138.8 75.3073C138.153 75.3073 137.533 75.5643 137.075 76.0217C136.618 76.4791 136.361 77.0995 136.361 77.7463C136.361 78.3932 136.618 79.0136 137.075 79.471C137.533 79.9284 138.153 80.1853 138.8 80.1853H144.4C145.047 80.1853 145.667 79.9284 146.125 79.471C146.582 79.0136 146.839 78.3932 146.839 77.7463C146.839 77.0995 146.582 76.4791 146.125 76.0217C145.667 75.5643 145.047 75.3073 144.4 75.3073H138.8Z" fill="url(#paint4_linear_146_571)"/>
<path d="M116.166 47.6585C110.825 42.6922 104.18 39.3504 97.0085 38.0243C89.8371 36.6983 82.4363 37.4429 75.6728 40.1711C68.9093 42.8992 63.063 47.4979 58.8187 53.4286C54.5744 59.3593 52.1076 66.3765 51.7073 73.6585C51.2249 82.5594 53.8454 91.352 59.122 98.5366C66.4043 108.582 70.2997 120.685 70.2439 133.093V134.898C70.2456 135.435 70.4456 135.954 70.8056 136.353C71.1656 136.753 71.6604 137.006 72.1951 137.063V140.79H71.4049C70.8227 140.79 70.2644 141.021 69.8527 141.433C69.441 141.845 69.2098 142.403 69.2098 142.985C69.2098 143.568 69.441 144.126 69.8527 144.538C70.2644 144.949 70.8227 145.18 71.4049 145.18H72.1951V146.527C72.1951 146.751 72.1951 146.976 72.1951 147.2H71.3659C70.7837 147.2 70.2254 147.431 69.8137 147.843C69.402 148.255 69.1708 148.813 69.1708 149.395C69.1708 149.977 69.402 150.536 69.8137 150.947C70.2254 151.359 70.7837 151.59 71.3659 151.59H73.1708C74.0147 153.585 75.3377 155.341 77.0225 156.702C78.7072 158.064 80.7017 158.989 82.8293 159.395C83.107 160.209 83.6329 160.915 84.333 161.413C85.0331 161.912 85.8721 162.179 86.7317 162.176H93.1805C94.0408 162.182 94.8812 161.916 95.5818 161.417C96.2825 160.918 96.8078 160.21 97.0829 159.395C99.2126 158.991 101.209 158.067 102.896 156.705C104.583 155.344 105.907 153.587 106.751 151.59H109.083C109.665 151.59 110.223 151.359 110.635 150.947C111.047 150.536 111.278 149.977 111.278 149.395C111.278 148.813 111.047 148.255 110.635 147.843C110.223 147.431 109.665 147.2 109.083 147.2H107.737C107.737 146.976 107.737 146.751 107.737 146.527V145.18H109.054C109.636 145.18 110.194 144.949 110.606 144.538C111.018 144.126 111.249 143.568 111.249 142.985C111.249 142.403 111.018 141.845 110.606 141.433C110.194 141.021 109.636 140.79 109.054 140.79H107.737V137.083C108.299 137.058 108.83 136.816 109.219 136.409C109.608 136.002 109.825 135.461 109.824 134.898V133.093C109.927 120.432 113.971 108.119 121.395 97.8634C125.988 91.4008 128.447 83.6649 128.429 75.7366C128.414 70.4666 127.317 65.2558 125.208 60.4264C123.099 55.5969 120.021 51.2514 116.166 47.6585ZM103.298 140.79H76.5171V137.093H103.298V140.79ZM103.298 146.527C103.298 146.751 103.298 146.976 103.298 147.2H76.5561C76.5561 146.976 76.5561 146.751 76.5561 146.527V145.18H103.337L103.298 146.527ZM94.5171 155.307H85.2781C83.8809 155.303 82.5049 154.965 81.2646 154.322C80.0242 153.679 78.9552 152.749 78.1464 151.61H101.678C100.866 152.747 99.7947 153.674 98.5526 154.313C97.3105 154.953 95.9337 155.287 94.5366 155.288L94.5171 155.307ZM105.366 132.683H74.6147C74.5942 119.473 70.4088 106.606 62.6537 95.9122C57.636 89.0953 55.3423 80.6515 56.2213 72.2328C57.1004 63.8142 61.0889 56.0263 67.4067 50.3931C73.7244 44.7599 81.9167 41.6865 90.3807 41.7744C98.8447 41.8623 106.971 45.1051 113.171 50.8683C116.577 54.0547 119.294 57.9052 121.155 62.1822C123.016 66.4593 123.981 71.0722 123.99 75.7366C124.005 82.7553 121.829 89.6038 117.766 95.3268C109.893 106.209 105.563 119.253 105.366 132.683Z" fill="url(#paint5_linear_146_571)"/>
<path d="M118.82 67.9512C118.697 67.5642 118.468 67.2194 118.159 66.9556C117.851 66.6918 117.475 66.5196 117.073 66.4585L99.7366 63.9317L91.9708 48.2341C91.7861 47.8758 91.5063 47.5753 91.1621 47.3655C90.8179 47.1556 90.4226 47.0446 90.0195 47.0446C89.6164 47.0446 89.2211 47.1556 88.8769 47.3655C88.5328 47.5753 88.253 47.8758 88.0683 48.2341L80.283 63.9317L62.9464 66.4585C62.533 66.5124 62.1435 66.6829 61.8235 66.95C61.5035 67.2172 61.2661 67.5699 61.1392 67.967C61.0123 68.3641 61.0011 68.7891 61.1069 69.1923C61.2127 69.5955 61.4311 69.9603 61.7366 70.2439L74.2732 82.4195L71.3464 99.6878C71.2742 100.092 71.3172 100.508 71.4704 100.888C71.6236 101.269 71.8808 101.599 72.2126 101.84C72.5444 102.081 72.9375 102.224 73.3467 102.252C73.756 102.281 74.165 102.193 74.5269 102L90.0293 93.8439L105.532 102C105.894 102.192 106.303 102.278 106.712 102.249C107.12 102.22 107.513 102.076 107.844 101.834C108.174 101.593 108.431 101.264 108.584 100.885C108.737 100.505 108.782 100.091 108.712 99.6878L105.785 82.4195L118.263 70.2439C118.569 69.9571 118.784 69.5875 118.883 69.1804C118.982 68.7732 118.96 68.3461 118.82 67.9512ZM101.834 80.0878C101.578 80.3373 101.387 80.6452 101.276 80.9851C101.166 81.3251 101.14 81.6867 101.2 82.039L103.61 96.0488L91.0244 89.4244C90.7087 89.2578 90.357 89.1707 90 89.1707C89.643 89.1707 89.2914 89.2578 88.9756 89.4244L76.3903 96.039L78.8 82.0293C78.8604 81.677 78.8342 81.3153 78.7237 80.9754C78.6133 80.6355 78.4218 80.3275 78.1659 80.078L67.9805 70.1561L82.0586 68.1171C82.4094 68.0638 82.7424 67.927 83.0293 67.7181C83.3162 67.5093 83.5488 67.2346 83.7073 66.9171L90 54.1658L96.2927 66.9171C96.4513 67.2346 96.6838 67.5093 96.9707 67.7181C97.2577 67.927 97.5906 68.0638 97.9415 68.1171L112.02 70.1561L101.834 80.0878Z" fill="url(#paint6_linear_146_571)"/>
<path d="M90 0C72.1997 0 54.7991 5.27841 39.9987 15.1677C25.1983 25.0571 13.6628 39.1131 6.85088 55.5585C0.038996 72.0038 -1.7433 90.0998 1.72936 107.558C5.20203 125.016 13.7737 141.053 26.3604 153.64C38.9471 166.226 54.9836 174.798 72.4419 178.271C89.9002 181.743 107.996 179.961 124.442 173.149C140.887 166.337 154.943 154.802 164.832 140.001C174.722 125.201 180 107.8 180 90C179.974 66.1384 170.484 43.2616 153.611 26.3889C136.738 9.51623 113.862 0.0258242 90 0ZM90 175.61C73.068 175.61 56.5162 170.589 42.4378 161.182C28.3593 151.775 17.3865 138.405 10.9069 122.761C4.42734 107.118 2.73198 89.905 6.03525 73.2983C9.33852 56.6917 17.4921 41.4375 29.4648 29.4648C41.4375 17.492 56.6917 9.33848 73.2984 6.03521C89.905 2.73194 107.118 4.4273 122.761 10.9069C138.405 17.3865 151.775 28.3593 161.182 42.4378C170.589 56.5162 175.61 73.068 175.61 90C175.587 112.698 166.559 134.46 150.51 150.51C134.46 166.559 112.698 175.586 90 175.61Z" fill="url(#paint7_linear_146_571)"/>
<defs>
<linearGradient id="paint0_linear_146_571" x1="123.1" y1="180" x2="37.677" y2="2.90302" gradientUnits="userSpaceOnUse">
<stop stop-color="#835342"/>
<stop offset="0.972222" stop-color="#FFCAA4"/>
</linearGradient>
<linearGradient id="paint1_linear_146_571" x1="123.1" y1="180" x2="37.677" y2="2.90302" gradientUnits="userSpaceOnUse">
<stop stop-color="#835342"/>
<stop offset="0.972222" stop-color="#FFCAA4"/>
</linearGradient>
<linearGradient id="paint2_linear_146_571" x1="123.1" y1="180" x2="37.677" y2="2.90302" gradientUnits="userSpaceOnUse">
<stop stop-color="#835342"/>
<stop offset="0.972222" stop-color="#FFCAA4"/>
</linearGradient>
<linearGradient id="paint3_linear_146_571" x1="123.1" y1="180" x2="37.677" y2="2.90302" gradientUnits="userSpaceOnUse">
<stop stop-color="#835342"/>
<stop offset="0.972222" stop-color="#FFCAA4"/>
</linearGradient>
<linearGradient id="paint4_linear_146_571" x1="123.1" y1="180" x2="37.677" y2="2.90302" gradientUnits="userSpaceOnUse">
<stop stop-color="#835342"/>
<stop offset="0.972222" stop-color="#FFCAA4"/>
</linearGradient>
<linearGradient id="paint5_linear_146_571" x1="123.1" y1="180" x2="37.677" y2="2.90302" gradientUnits="userSpaceOnUse">
<stop stop-color="#835342"/>
<stop offset="0.972222" stop-color="#FFCAA4"/>
</linearGradient>
<linearGradient id="paint6_linear_146_571" x1="123.1" y1="180" x2="37.677" y2="2.90302" gradientUnits="userSpaceOnUse">
<stop stop-color="#835342"/>
<stop offset="0.972222" stop-color="#FFCAA4"/>
</linearGradient>
<linearGradient id="paint7_linear_146_571" x1="123.1" y1="180" x2="37.677" y2="2.90302" gradientUnits="userSpaceOnUse">
<stop stop-color="#835342"/>
<stop offset="0.972222" stop-color="#FFCAA4"/>
</linearGradient>
</defs>
</svg>
