<svg width="180" height="180" viewBox="0 0 180 180" fill="none" xmlns="http://www.w3.org/2000/svg">
<path d="M56.4683 101.854H42.6439C42.0618 101.854 41.5034 102.085 41.0918 102.497C40.6801 102.908 40.4488 103.467 40.4488 104.049C40.4488 104.631 40.6801 105.189 41.0918 105.601C41.5034 106.013 42.0618 106.244 42.6439 106.244H56.4683C57.0505 106.244 57.6088 106.013 58.0205 105.601C58.4322 105.189 58.6634 104.631 58.6634 104.049C58.6634 103.467 58.4322 102.908 58.0205 102.497C57.6088 102.085 57.0505 101.854 56.4683 101.854Z" fill="url(#paint0_linear_146_556)"/>
<path d="M65.8244 91.9024H42.6439C42.0618 91.9024 41.5034 92.1337 41.0918 92.5454C40.6801 92.957 40.4488 93.5154 40.4488 94.0975C40.4488 94.6797 40.6801 95.2381 41.0918 95.6497C41.5034 96.0614 42.0618 96.2927 42.6439 96.2927H65.8244C66.4066 96.2927 66.9649 96.0614 67.3766 95.6497C67.7883 95.2381 68.0195 94.6797 68.0195 94.0975C68.0195 93.5154 67.7883 92.957 67.3766 92.5454C66.9649 92.1337 66.4066 91.9024 65.8244 91.9024Z" fill="url(#paint1_linear_146_556)"/>
<path d="M169.102 70.2439H151.941V46.6732C151.941 46.6146 151.941 46.5658 151.941 46.5073C151.941 46.4488 151.941 46.4097 151.941 46.361C151.917 46.17 151.868 45.9831 151.795 45.8049C151.718 45.6289 151.616 45.4647 151.493 45.3171C151.47 45.279 151.444 45.2431 151.415 45.2097C151.289 45.0711 151.148 44.9467 150.995 44.839C150.847 44.7487 150.69 44.6735 150.527 44.6146H150.39C150.203 44.5634 150.009 44.5372 149.815 44.5366H111.18C109.883 40.1196 107.191 36.2416 103.505 33.4829C99.8198 30.7242 95.3401 29.2333 90.7366 29.2333C86.1331 29.2333 81.6534 30.7242 77.9681 33.4829C74.2827 36.2416 71.5899 40.1196 70.2927 44.5366H62.8391C62.5416 44.5373 62.2474 44.5981 61.9741 44.7155C61.7008 44.8329 61.4541 45.0043 61.2488 45.2195L37.3659 70.2439H12.683C12.1008 70.2439 11.5424 70.4752 11.1308 70.8868C10.7191 71.2985 10.4878 71.8568 10.4878 72.439C10.4878 73.0212 10.7191 73.5795 11.1308 73.9912C11.5424 74.4029 12.1008 74.6341 12.683 74.6341H33.1708L28.6244 79.4244L28.5756 79.4829C28.4727 79.6042 28.3812 79.7349 28.3025 79.8732L28.2927 80C28.211 80.1636 28.152 80.3375 28.1171 80.5171C28.1123 80.5559 28.1123 80.5953 28.1171 80.6341C28.107 80.7347 28.107 80.836 28.1171 80.9366V131.668C28.1092 132.244 28.3276 132.8 28.7254 133.216C29.1232 133.632 29.6686 133.875 30.2439 133.893H117.22C117.414 133.888 117.608 133.859 117.795 133.805C118.005 133.737 118.205 133.641 118.39 133.522L118.507 133.424L118.722 133.239L151.307 98.9658C151.696 98.5585 151.913 98.0168 151.912 97.4536V74.6439H169.073C169.655 74.6439 170.214 74.4126 170.625 74.0009C171.037 73.5893 171.268 73.031 171.268 72.4488C171.268 71.8666 171.037 71.3082 170.625 70.8966C170.214 70.4849 169.655 70.2536 169.073 70.2536L169.102 70.2439ZM144.634 48.8683L132.517 61.6097H108.829C110.895 58.2684 111.987 54.4163 111.98 50.4878C111.98 49.9415 111.98 49.4049 111.912 48.8683H144.634ZM116.215 78.7512H35.3659L47.522 65.9707C47.6421 65.9808 47.7628 65.9808 47.883 65.9707H76.0976C80.0399 69.6927 85.2563 71.7661 90.6781 71.7661C96.0998 71.7661 101.316 69.6927 105.259 65.9707H128.351L116.215 78.7512ZM74.8683 44.478C76.08 41.2674 78.2411 38.5021 81.0638 36.5504C83.8864 34.5987 87.2366 33.5533 90.6683 33.5533C94.1 33.5533 97.4502 34.5987 100.273 36.5504C103.096 38.5021 105.257 41.2674 106.468 44.478C107.009 45.8882 107.357 47.365 107.502 48.8683C107.561 49.4061 107.591 49.9468 107.59 50.4878C107.484 54.9054 105.655 59.1064 102.493 62.1933C99.3309 65.2802 95.0872 67.0083 90.6683 67.0083C86.2494 67.0083 82.0057 65.2802 78.8438 62.1933C75.6819 59.1064 73.8524 54.9054 73.7464 50.4878C73.7459 49.9468 73.7752 49.4061 73.8342 48.8683C73.9796 47.365 74.3275 45.8882 74.8683 44.478ZM63.7854 48.8683H69.4244C69.4244 49.4049 69.3561 49.9415 69.3561 50.4878C69.3515 54.4147 70.4392 58.2655 72.4976 61.6097H51.7073L63.7854 48.8683ZM32.4488 83.1414H114.966V129.502H32.4488V83.1414ZM119.356 126.205V81.8244L131.259 69.2683V113.541C131.259 113.541 131.259 113.61 131.259 113.639L119.356 126.205ZM147.551 96.5853L135.61 109.063V64.6829L147.512 52.1658V96.5853H147.551Z" fill="url(#paint2_linear_146_556)"/>
<path d="M82.2342 48.8683L88.3708 57.561C88.5747 57.8469 88.844 58.08 89.1562 58.2409C89.4685 58.4017 89.8146 58.4856 90.1659 58.4856C90.5171 58.4856 90.8633 58.4017 91.1755 58.2409C91.4877 58.08 91.7571 57.8469 91.961 57.561L98.0976 48.878L100.156 45.9512C100.352 45.7189 100.498 45.4484 100.584 45.1568C100.67 44.8652 100.694 44.559 100.656 44.2574C100.617 43.9559 100.517 43.6656 100.36 43.4051C100.204 43.1445 99.9947 42.9192 99.7465 42.7436C99.4984 42.568 99.2165 42.4459 98.9186 42.3849C98.6208 42.324 98.3136 42.3256 98.0164 42.3896C97.7192 42.4536 97.4386 42.5786 97.1922 42.7567C96.9459 42.9348 96.7393 43.1622 96.5854 43.4244L95.8439 44.478L92.6829 48.8683L90.1268 52.478L87.5708 48.8683L84.7708 44.878C84.6751 44.7389 84.5602 44.614 84.4293 44.5073C84.0604 44.1766 83.5902 43.9811 83.0956 43.9527C82.6011 43.9244 82.1116 44.0649 81.7073 44.3512L81.5317 44.5073C81.1204 44.8646 80.8567 45.3621 80.7917 45.903C80.7268 46.4439 80.8654 46.9897 81.1805 47.4341L82.2342 48.8683Z" fill="url(#paint3_linear_146_556)"/>
<path d="M90 0C72.1997 0 54.7991 5.27841 39.9987 15.1677C25.1983 25.0571 13.6628 39.1131 6.85088 55.5585C0.038996 72.0038 -1.7433 90.0998 1.72936 107.558C5.20203 125.016 13.7737 141.053 26.3604 153.64C38.9471 166.226 54.9836 174.798 72.4419 178.271C89.9002 181.743 107.996 179.961 124.442 173.149C140.887 166.337 154.943 154.802 164.832 140.001C174.722 125.201 180 107.8 180 90C179.974 66.1384 170.484 43.2616 153.611 26.3889C136.738 9.51623 113.862 0.0258242 90 0ZM90 175.61C73.068 175.61 56.5162 170.589 42.4378 161.182C28.3593 151.775 17.3865 138.405 10.9069 122.761C4.42734 107.118 2.73198 89.905 6.03525 73.2983C9.33852 56.6917 17.4921 41.4375 29.4648 29.4648C41.4375 17.492 56.6917 9.33848 73.2984 6.03521C89.905 2.73194 107.118 4.4273 122.761 10.9069C138.405 17.3865 151.775 28.3593 161.182 42.4378C170.589 56.5162 175.61 73.068 175.61 90C175.587 112.698 166.559 134.46 150.51 150.51C134.46 166.559 112.698 175.586 90 175.61Z" fill="url(#paint4_linear_146_556)"/>
<defs>
<linearGradient id="paint0_linear_146_556" x1="123.1" y1="180" x2="37.677" y2="2.90302" gradientUnits="userSpaceOnUse">
<stop stop-color="#835342"/>
<stop offset="0.972222" stop-color="#FFCAA4"/>
</linearGradient>
<linearGradient id="paint1_linear_146_556" x1="123.1" y1="180" x2="37.677" y2="2.90302" gradientUnits="userSpaceOnUse">
<stop stop-color="#835342"/>
<stop offset="0.972222" stop-color="#FFCAA4"/>
</linearGradient>
<linearGradient id="paint2_linear_146_556" x1="123.1" y1="180" x2="37.677" y2="2.90302" gradientUnits="userSpaceOnUse">
<stop stop-color="#835342"/>
<stop offset="0.972222" stop-color="#FFCAA4"/>
</linearGradient>
<linearGradient id="paint3_linear_146_556" x1="123.1" y1="180" x2="37.677" y2="2.90302" gradientUnits="userSpaceOnUse">
<stop stop-color="#835342"/>
<stop offset="0.972222" stop-color="#FFCAA4"/>
</linearGradient>
<linearGradient id="paint4_linear_146_556" x1="123.1" y1="180" x2="37.677" y2="2.90302" gradientUnits="userSpaceOnUse">
<stop stop-color="#835342"/>
<stop offset="0.972222" stop-color="#FFCAA4"/>
</linearGradient>
</defs>
</svg>
