<svg width="180" height="180" viewBox="0 0 180 180" fill="none" xmlns="http://www.w3.org/2000/svg">
<path d="M90 0C72.1997 0 54.7991 5.27841 39.9987 15.1677C25.1983 25.0571 13.6628 39.1131 6.85088 55.5585C0.038996 72.0038 -1.7433 90.0998 1.72936 107.558C5.20203 125.016 13.7737 141.053 26.3604 153.64C38.9471 166.226 54.9836 174.798 72.4419 178.271C89.9002 181.743 107.996 179.961 124.442 173.149C140.887 166.337 154.943 154.802 164.832 140.001C174.722 125.201 180 107.8 180 90C179.974 66.1384 170.484 43.2616 153.611 26.3889C136.738 9.51623 113.862 0.0258242 90 0ZM90 175.61C73.068 175.61 56.5162 170.589 42.4378 161.182C28.3593 151.775 17.3865 138.405 10.9069 122.761C4.42734 107.118 2.73198 89.905 6.03525 73.2983C9.33852 56.6917 17.4921 41.4375 29.4648 29.4648C41.4375 17.492 56.6917 9.33848 73.2984 6.03521C89.905 2.73194 107.118 4.4273 122.761 10.9069C138.405 17.3865 151.775 28.3593 161.182 42.4378C170.589 56.5162 175.61 73.068 175.61 90C175.587 112.698 166.559 134.46 150.51 150.51C134.46 166.559 112.698 175.586 90 175.61Z" fill="url(#paint0_linear_146_502)"/>
<path d="M136.741 81.4244C133.581 81.4137 130.482 82.3 127.805 83.9805C127.239 80.8086 125.769 77.8678 123.571 75.5122C118.634 70.5854 110.732 70.7805 110.4 70.8C109.846 70.8218 109.322 71.0522 108.931 71.4448C108.54 71.8375 108.312 72.3634 108.293 72.9171C108.288 74.6907 108.491 76.4589 108.898 78.1853C107.402 78.3198 105.922 78.5942 104.478 79.0049C106.398 73.1052 106.651 66.7896 105.208 60.7554C103.766 54.7211 100.684 49.2028 96.3025 44.8097C83.9025 32.4 69.2 32.8488 54.6342 45.9512C54.5841 45.7063 54.5483 45.4588 54.5269 45.2097C54.3137 43.6874 54.4603 42.1363 54.9551 40.6809C55.4498 39.2255 56.2788 37.9063 57.3756 36.8293C57.5913 36.6283 57.7643 36.386 57.8843 36.1167C58.0042 35.8474 58.0688 35.5567 58.074 35.262C58.0792 34.9673 58.0249 34.6745 57.9145 34.4012C57.8041 34.1278 57.6398 33.8795 57.4314 33.6711C57.2229 33.4627 56.9746 33.2983 56.7013 33.1879C56.428 33.0775 56.1352 33.0233 55.8405 33.0285C55.5457 33.0337 55.255 33.0982 54.9858 33.2182C54.7165 33.3382 54.4742 33.5112 54.2732 33.7268C52.6975 35.2662 51.505 37.1539 50.7916 39.2381C50.0782 41.3222 49.8639 43.5447 50.1659 45.7268C50.3194 46.9992 50.6072 48.2517 51.0244 49.4634C32.8683 68.5366 39.6878 83.2878 48.7805 92.361C51.275 94.8571 54.1498 96.9415 57.2976 98.5366C57.2467 99.0227 57.2207 99.5112 57.2195 100C57.2203 103.241 58.1259 106.417 59.8342 109.171L36.6342 98.6146C36.3714 98.4906 36.0865 98.4203 35.7961 98.4077C35.5058 98.3952 35.2159 98.4406 34.9434 98.5415C34.6708 98.6423 34.4211 98.7965 34.2089 98.995C33.9967 99.1935 33.8262 99.4323 33.7074 99.6975C30.0392 107.691 29.6883 116.812 32.7317 125.063C32.7317 125.122 32.7317 125.171 32.7317 125.219C32.7317 125.268 32.7317 125.268 32.7805 125.298C35.8773 133.538 42.1113 140.217 50.1191 143.873C58.1269 147.53 67.2569 147.867 75.5122 144.81L75.6683 144.761C75.7509 144.732 75.8296 144.692 75.9025 144.644C83.9791 141.58 90.5418 135.486 94.1952 127.659C96.9784 128.734 99.9435 129.261 102.927 129.21C103.668 129.21 104.439 129.21 105.22 129.122C103.785 130.844 102.872 132.939 102.587 135.162C102.301 137.385 102.655 139.643 103.608 141.672C104.56 143.7 106.071 145.415 107.964 146.616C109.856 147.816 112.052 148.452 114.293 148.449H114.946C117.28 148.324 119.523 147.509 121.393 146.107C123.263 144.706 124.675 142.781 125.45 140.577C126.225 138.373 126.329 135.988 125.748 133.725C125.167 131.461 123.927 129.421 122.185 127.863C121.233 127.012 120.149 126.321 118.976 125.815C123.044 124.233 126.773 121.889 129.961 118.907C133.543 115.259 135.723 110.464 136.117 105.366C137.842 105.778 139.612 105.978 141.385 105.961C141.941 105.944 142.47 105.715 142.863 105.322C143.257 104.929 143.485 104.4 143.502 103.844C143.502 103.502 143.717 95.6 138.79 90.6634C136.847 88.7946 134.46 87.4516 131.854 86.761C134.134 85.792 136.652 85.5251 139.085 85.9943C141.518 86.4635 143.756 87.6476 145.512 89.3951C145.928 89.7828 146.479 89.9939 147.047 89.9839C147.616 89.9739 148.159 89.7435 148.561 89.3413C148.963 88.9391 149.193 88.3965 149.203 87.8279C149.213 87.2592 149.002 86.7088 148.615 86.2927C147.055 84.7376 145.203 83.5068 143.165 82.6712C141.127 81.8357 138.944 81.4119 136.741 81.4244ZM135.688 93.8049C137.893 96.0195 138.683 99.278 138.966 101.454C137.999 101.323 137.043 101.117 136.107 100.839C135.48 100.659 134.867 100.435 134.273 100.166C134.135 100.106 133.991 100.06 133.844 100.029C133.384 99.9188 132.9 99.9634 132.468 100.156C132.19 100.283 131.941 100.465 131.737 100.693C131.522 100.928 131.362 101.208 131.268 101.512C130.792 102.806 129.973 103.946 128.898 104.81C126.79 102.956 123.62 99.6195 123.151 96.7122C122.977 95.5897 123.216 94.4421 123.824 93.4829C124.02 93.1516 124.125 92.7745 124.129 92.3897C124.132 92.0048 124.034 91.6259 123.843 91.2913C123.653 90.9567 123.378 90.6782 123.046 90.484C122.714 90.2898 122.336 90.1868 121.951 90.1853C121.561 90.1851 121.178 90.2859 120.839 90.478C119.883 91.0852 118.739 91.3244 117.62 91.1512C114.693 90.6829 111.366 87.5122 109.512 85.4049C110.378 84.3276 111.521 83.5077 112.82 83.0341C113.12 82.942 113.396 82.7856 113.629 82.5756C113.857 82.3676 114.039 82.1152 114.166 81.8341C114.356 81.4017 114.404 80.9199 114.302 80.4585C114.262 80.3019 114.21 80.1486 114.146 80C113.878 79.4058 113.653 78.7928 113.473 78.1658C113.195 77.2302 112.99 76.2745 112.859 75.3073C115.034 75.5902 118.302 76.3805 120.517 78.5951C121.074 79.1549 121.556 79.7845 121.951 80.4683C122.537 81.4708 122.987 82.5469 123.288 83.6683C123.569 84.6612 123.765 85.6762 123.873 86.7024C123.951 87.4049 123.971 87.9512 123.981 88.2146C123.993 88.7825 124.224 89.3238 124.626 89.7254C125.027 90.1271 125.569 90.3583 126.137 90.3707C126.642 90.3775 127.147 90.41 127.649 90.4683C128.675 90.5777 129.69 90.7735 130.683 91.0536C131.801 91.3568 132.873 91.8062 133.873 92.3902C134.535 92.7835 135.145 93.2589 135.688 93.8049ZM121.805 136.263C121.909 138.227 121.229 140.151 119.916 141.614C118.603 143.077 116.763 143.96 114.8 144.068C113.809 144.154 112.81 144.039 111.864 143.731C110.918 143.423 110.043 142.928 109.292 142.276C108.541 141.623 107.928 140.826 107.491 139.932C107.054 139.038 106.801 138.065 106.748 137.072C106.694 136.078 106.841 135.084 107.179 134.148C107.517 133.212 108.04 132.354 108.717 131.624C109.393 130.894 110.21 130.308 111.117 129.9C112.025 129.492 113.005 129.27 114 129.249H114.41C116.306 129.249 118.13 129.976 119.506 131.281C120.882 132.586 121.705 134.37 121.805 136.263ZM109.415 124.185C101.932 125.659 95.8537 124.712 92.722 121.58C90.2634 119.122 89.161 114.839 89.5122 109.483C91.336 106.663 92.3082 103.378 92.3122 100.019C92.303 99.2987 92.2541 98.5789 92.1659 97.8634C92.5464 96.8878 92.9659 95.9122 93.4049 94.9366C94.6888 92.1428 96.4224 89.5787 98.5366 87.3463C99.5938 86.3024 100.793 85.4124 102.098 84.7024C103.232 84.0644 104.437 83.5603 105.688 83.2C105.388 83.5774 105.114 83.9751 104.868 84.3902C104.649 84.7621 104.545 85.1912 104.571 85.6224C104.597 86.0535 104.752 86.467 105.015 86.8097C105.61 87.6 110.995 94.5268 116.946 95.4829C117.546 95.5818 118.154 95.6178 118.761 95.5902C118.733 96.1972 118.769 96.8054 118.868 97.4049C119.844 103.366 126.761 108.751 127.541 109.337C127.921 109.63 128.388 109.788 128.868 109.785C129.255 109.785 129.635 109.684 129.971 109.493C130.02 109.493 130.498 109.18 131.141 108.683C130.385 111.37 128.962 113.823 127.005 115.815C123.239 119.532 116.351 122.81 109.415 124.185ZM61.6098 100.019C61.6072 97.0464 62.6128 94.1603 64.4624 91.8326C66.312 89.5048 68.8962 87.8731 71.793 87.2038C74.6897 86.5345 77.7279 86.8673 80.4111 88.1478C83.0943 89.4282 85.264 91.5807 86.5659 94.2536C87.061 95.2462 87.425 96.2989 87.6488 97.3853C87.7205 97.7662 87.7726 98.1504 87.8049 98.5366C87.8672 99.0285 87.8997 99.5237 87.9025 100.019C87.8708 103.454 86.4967 106.74 84.0738 109.175C81.651 111.61 78.3717 113 74.9372 113.048C71.5027 113.097 68.1855 111.8 65.695 109.434C63.2045 107.069 61.7382 103.823 61.6098 100.39C61.6293 100.263 61.6098 100.146 61.6098 100.019ZM85.2098 114.078C85.4172 116.775 86.1812 119.399 87.4537 121.785L77.639 117.307C80.3843 116.851 82.9803 115.744 85.2098 114.078ZM51.8732 89.2585C40.9756 78.3317 41.3269 66.6829 53.083 53.7171C54.7563 56.4573 57.0193 58.7903 59.7073 60.5463C57.0968 62.4911 53.9285 63.5415 50.6732 63.5414C50.091 63.5414 49.5327 63.7727 49.121 64.1844C48.7094 64.596 48.4781 65.1544 48.4781 65.7366C48.4781 66.3187 48.7094 66.8771 49.121 67.2888C49.5327 67.7004 50.091 67.9317 50.6732 67.9317C55.8948 67.9239 60.8999 65.8442 64.5895 62.1492C68.279 58.4542 70.3512 53.446 70.3512 48.2244C70.3512 47.6422 70.12 47.0839 69.7083 46.6722C69.2966 46.2605 68.7383 46.0293 68.1561 46.0293C67.5739 46.0293 67.0156 46.2605 66.6039 46.6722C66.1923 47.0839 65.961 47.6422 65.961 48.2244C65.9605 51.5569 64.8635 54.7967 62.8391 57.4439C62.6872 57.2629 62.5097 57.1051 62.3122 56.9756C59.7636 55.3619 57.679 53.1125 56.2634 50.4488C63.4179 43.5805 70.283 40.1431 76.8586 40.1366C82.5626 40.1366 88.0163 42.7382 93.2195 47.9415C97.5386 52.2712 100.393 57.8451 101.382 63.8803C102.37 69.9155 101.444 76.1087 98.7317 81.5902C97.5235 82.3584 96.4015 83.2547 95.3854 84.2634C93.2895 86.4518 91.5275 88.937 90.1561 91.639C88.528 88.6826 86.0824 86.2581 83.1122 84.6555C80.1419 83.0529 76.7727 82.3402 73.4079 82.6026C70.043 82.8651 66.8251 84.0916 64.1393 86.1354C61.4534 88.1792 59.4134 90.9537 58.2634 94.1268C55.9184 92.8075 53.7678 91.1691 51.8732 89.2585ZM36.8781 103.551L58.3415 113.307L36.2634 121.561C34.538 115.646 34.7534 109.334 36.8781 103.551ZM37.8537 125.707L59.9415 117.454L50.1854 138.917C44.7472 135.957 40.4062 131.326 37.8049 125.707H37.8537ZM54.1464 140.732L63.9025 119.268L72.1561 141.356C66.2258 143.093 59.8937 142.874 54.0976 140.732H54.1464ZM76.3025 139.824L68 117.737L89.4634 127.493C86.4901 132.908 81.8609 137.23 76.2537 139.824H76.3025Z" fill="url(#paint1_linear_146_502)"/>
<path d="M69.6683 97.6878C69.9778 97.8154 70.3092 97.8816 70.6439 97.8829C70.8613 97.879 71.0774 97.8495 71.2878 97.7951C71.8648 97.6381 72.3675 97.2816 72.7063 96.7889C73.0452 96.2962 73.1984 95.6993 73.1386 95.1043C73.0788 94.5093 72.81 93.9548 72.3799 93.5394C71.9498 93.124 71.3862 92.8745 70.7895 92.8355C70.1928 92.7964 69.6016 92.9702 69.121 93.326C68.6404 93.6818 68.3015 94.1965 68.1647 94.7786C68.0278 95.3607 68.1019 95.9725 68.3736 96.5052C68.6453 97.0379 69.0972 97.4569 69.6488 97.6878H69.6683Z" fill="url(#paint2_linear_146_502)"/>
<path d="M118.693 68.1463C120.498 68.8521 122.425 69.1923 124.363 69.1471C126.301 69.1019 128.21 68.6722 129.98 67.8829C133.105 66.5034 135.654 64.0832 137.194 61.0347C138.734 57.9862 139.169 54.498 138.425 51.1647C137.681 47.8313 135.804 44.859 133.115 42.7544C130.425 40.6497 127.088 39.543 123.674 39.6226C120.26 39.7023 116.979 40.9635 114.39 43.1914C111.801 45.4192 110.065 48.4758 109.478 51.8402C108.89 55.2046 109.487 58.6687 111.168 61.642C112.848 64.6154 115.507 66.9141 118.693 68.1463ZM127.756 44.7317C130.153 45.6642 132.115 47.458 133.259 49.7616C134.402 52.0653 134.645 54.7129 133.939 57.1859C133.232 59.6589 131.628 61.7791 129.44 63.1313C127.253 64.4835 124.639 64.9703 122.111 64.4964C119.583 64.0224 117.324 62.6218 115.774 60.5689C114.225 58.516 113.498 55.9587 113.736 53.3978C113.973 50.8369 115.158 48.457 117.059 46.7241C118.959 44.9912 121.438 44.0302 124.01 44.0293C125.307 44.0187 126.595 44.2537 127.805 44.7219L127.756 44.7317Z" fill="url(#paint3_linear_146_502)"/>
<path d="M129.473 58.439C129.851 58.2722 130.171 57.9971 130.393 57.6484C130.614 57.2997 130.727 56.8931 130.718 56.4801C130.708 56.0671 130.576 55.6663 130.338 55.3283C130.101 54.9903 129.768 54.7304 129.383 54.5815C128.998 54.4325 128.577 54.4013 128.174 54.4916C127.771 54.582 127.403 54.7899 127.119 55.089C126.834 55.3881 126.644 55.7651 126.573 56.1721C126.503 56.5792 126.554 56.998 126.722 57.3756C126.946 57.8811 127.362 58.2769 127.878 58.4763C128.393 58.6756 128.967 58.6622 129.473 58.439Z" fill="url(#paint4_linear_146_502)"/>
<path d="M116.741 136.663C117.167 136.64 117.576 136.49 117.917 136.234C118.257 135.978 118.515 135.627 118.656 135.225C118.797 134.823 118.816 134.388 118.71 133.975C118.604 133.562 118.378 133.19 118.061 132.906C117.744 132.621 117.349 132.437 116.928 132.376C116.506 132.316 116.075 132.382 115.691 132.566C115.307 132.75 114.985 133.043 114.768 133.41C114.55 133.776 114.446 134.199 114.468 134.624C114.483 134.908 114.554 135.185 114.676 135.441C114.799 135.697 114.971 135.926 115.182 136.116C115.393 136.305 115.639 136.451 115.907 136.545C116.175 136.639 116.458 136.679 116.741 136.663Z" fill="url(#paint5_linear_146_502)"/>
<defs>
<linearGradient id="paint0_linear_146_502" x1="123.1" y1="180" x2="37.677" y2="2.90302" gradientUnits="userSpaceOnUse">
<stop stop-color="#835342"/>
<stop offset="0.972222" stop-color="#FFCAA4"/>
</linearGradient>
<linearGradient id="paint1_linear_146_502" x1="123.1" y1="180" x2="37.677" y2="2.90302" gradientUnits="userSpaceOnUse">
<stop stop-color="#835342"/>
<stop offset="0.972222" stop-color="#FFCAA4"/>
</linearGradient>
<linearGradient id="paint2_linear_146_502" x1="123.1" y1="180" x2="37.677" y2="2.90302" gradientUnits="userSpaceOnUse">
<stop stop-color="#835342"/>
<stop offset="0.972222" stop-color="#FFCAA4"/>
</linearGradient>
<linearGradient id="paint3_linear_146_502" x1="123.1" y1="180" x2="37.677" y2="2.90302" gradientUnits="userSpaceOnUse">
<stop stop-color="#835342"/>
<stop offset="0.972222" stop-color="#FFCAA4"/>
</linearGradient>
<linearGradient id="paint4_linear_146_502" x1="123.1" y1="180" x2="37.677" y2="2.90302" gradientUnits="userSpaceOnUse">
<stop stop-color="#835342"/>
<stop offset="0.972222" stop-color="#FFCAA4"/>
</linearGradient>
<linearGradient id="paint5_linear_146_502" x1="123.1" y1="180" x2="37.677" y2="2.90302" gradientUnits="userSpaceOnUse">
<stop stop-color="#835342"/>
<stop offset="0.972222" stop-color="#FFCAA4"/>
</linearGradient>
</defs>
</svg>
