<svg width="181" height="180" viewBox="0 0 181 180" fill="none" xmlns="http://www.w3.org/2000/svg">
<path d="M90.0401 180C72.2401 180 54.8401 174.72 40.0401 164.83C25.2401 154.94 13.7001 140.88 6.89014 124.44C0.0801411 107.99 -1.69985 89.9 1.77015 72.44C5.24015 54.98 13.8102 38.95 26.4002 26.36C38.9902 13.77 55.0201 5.20001 72.4801 1.73001C89.9401 -1.73999 108.03 0.0400143 124.48 6.85001C140.92 13.66 154.98 25.2 164.87 40C174.76 54.8 180.04 72.2 180.04 90C180.01 113.86 170.52 136.74 153.65 153.61C136.78 170.48 113.9 179.97 90.0401 180ZM90.0401 4.39001C73.1101 4.39001 56.5601 9.41001 42.4801 18.82C28.4001 28.23 17.4301 41.6 10.9501 57.24C4.47014 72.88 2.78014 90.1 6.08014 106.7C9.38014 123.31 17.5401 138.56 29.5101 150.53C41.4801 162.5 56.7402 170.66 73.3402 173.96C89.9502 177.26 107.16 175.57 122.8 169.09C138.44 162.61 151.81 151.64 161.22 137.56C170.63 123.48 175.65 106.93 175.65 90C175.62 67.3 166.6 45.54 150.55 29.49C134.5 13.44 112.74 4.41001 90.0401 4.39001Z" fill="url(#paint0_linear_8_403)"/>
<defs>
<linearGradient id="paint0_linear_8_403" x1="131.5" y1="175.97" x2="46.0801" y2="-1.12997" gradientUnits="userSpaceOnUse">
<stop stop-color="#835342"/>
<stop offset="0.97" stop-color="#FFCAA4"/>
</linearGradient>
</defs>
</svg>
