<svg width="181" height="180" viewBox="0 0 181 180" fill="none" xmlns="http://www.w3.org/2000/svg">
<path d="M90.0401 180C72.2401 180 54.8401 174.72 40.0401 164.83C25.2401 154.94 13.7001 140.88 6.89014 124.44C0.0801411 107.99 -1.69985 89.9 1.77015 72.44C5.24015 54.98 13.8102 38.95 26.4002 26.36C38.9902 13.77 55.0201 5.20001 72.4801 1.73001C89.9401 -1.73999 108.03 0.0400143 124.48 6.85001C140.92 13.66 154.98 25.2 164.87 40C174.76 54.8 180.04 72.2 180.04 90C180.01 113.86 170.52 136.74 153.65 153.61C136.78 170.48 113.9 179.97 90.0401 180ZM90.0401 4.39001C73.1101 4.39001 56.5601 9.41001 42.4801 18.82C28.4001 28.23 17.4301 41.6 10.9501 57.24C4.47014 72.88 2.78014 90.1 6.08014 106.7C9.38014 123.31 17.5401 138.56 29.5101 150.53C41.4801 162.5 56.7402 170.66 73.3402 173.96C89.9502 177.26 107.16 175.57 122.8 169.09C138.44 162.61 151.81 151.64 161.22 137.56C170.63 123.48 175.65 106.93 175.65 90C175.62 67.3 166.6 45.54 150.55 29.49C134.5 13.44 112.74 4.41001 90.0401 4.39001Z" fill="url(#paint0_linear_8_418)"/>
<path d="M44.8899 81.25C44.8899 81.25 44.9599 81.25 44.9999 81.25C46.3799 81.25 47.4999 80.12 47.4899 78.74C47.4799 75.34 48.7899 72.15 51.1899 69.74C53.5799 67.33 56.7699 66 60.1699 65.99C63.5699 65.98 66.7599 67.29 69.1699 69.69C71.5799 72.08 72.9099 75.27 72.9199 78.67C72.9199 80.05 74.0399 81.13 75.4299 81.16C76.8099 81.16 77.9299 80.03 77.9199 78.65C77.9099 73.92 76.0499 69.48 72.6899 66.14C69.3299 62.8 64.8699 60.99 60.1499 60.99C55.4199 61 50.9699 62.86 47.6399 66.22C44.2999 69.58 42.4699 74.03 42.4899 78.76C42.4899 80.1 43.5599 81.2 44.8899 81.25Z" fill="url(#paint1_linear_8_418)"/>
<path d="M102.77 81.21C102.77 81.21 102.84 81.21 102.88 81.21C104.26 81.21 105.38 80.09 105.38 78.71C105.38 75.31 106.71 72.12 109.11 69.72C111.51 67.32 114.71 66 118.1 66C125.1 66.01 130.81 71.71 130.81 78.73C130.81 80.11 131.94 81.21 133.31 81.23C134.69 81.23 135.81 80.11 135.81 78.73C135.81 68.96 127.88 61 118.11 61C113.38 61 108.93 62.84 105.58 66.18C102.23 69.52 100.39 73.97 100.38 78.7C100.38 80.04 101.44 81.14 102.77 81.2V81.21Z" fill="url(#paint2_linear_8_418)"/>
<path d="M142.46 103.98C141.3 103.24 139.75 103.58 139.01 104.74C136.3 108.99 133.12 112.78 129.58 116.07V112.29C129.58 108.63 128.16 105.18 125.58 102.59C122.99 100 119.54 98.56 115.88 98.57C112.17 98.57 108.69 100.03 106.09 102.68C103.49 105.33 102.1 108.83 102.17 112.55C102.26 116.94 102.35 120.38 102.44 122.75C102.55 125.47 101.94 127.55 100.64 128.93C99.2499 130.41 96.9799 131.19 93.9099 131.25C93.7299 131.25 93.5499 131.28 93.3799 131.32C85.9799 131.68 78.3999 130.61 71.0199 127.97C58.8199 123.61 48.7099 115.53 41.7899 104.62C41.0499 103.46 39.4999 103.11 38.3399 103.85C37.1699 104.59 36.8299 106.13 37.5699 107.3C45.0999 119.16 56.08 127.94 69.34 132.68C75.5 134.88 81.9399 136.09 88.4099 136.3C90.1999 136.36 91.9999 136.33 93.7899 136.24C93.8199 136.24 93.8499 136.25 93.8799 136.25C93.9199 136.25 93.9699 136.25 94.0099 136.25C94.9899 136.23 95.9 136.14 96.78 136.01C101.62 135.52 106.41 134.47 111.03 132.86C112.89 132.21 114.71 131.47 116.49 130.65C116.52 130.64 116.55 130.63 116.58 130.62C116.74 130.55 116.91 130.47 117.07 130.37C121.06 128.49 124.84 126.19 128.33 123.54C128.51 123.43 128.68 123.31 128.83 123.16C134.47 118.79 139.36 113.48 143.21 107.44C143.95 106.28 143.61 104.73 142.45 103.99L142.46 103.98ZM106.35 129.18C107.17 127.29 107.53 125.08 107.43 122.55C107.34 120.21 107.25 116.81 107.16 112.44C107.11 110.08 108 107.86 109.65 106.17C111.3 104.49 113.51 103.56 115.87 103.56C118.19 103.54 120.38 104.47 122.03 106.11C123.67 107.76 124.58 109.94 124.58 112.27V120.2C122.77 121.53 120.89 122.75 118.96 123.85C119.16 120.97 119.21 116.79 119.04 110.65C119 109.27 117.86 108.15 116.47 108.22C115.09 108.26 114 109.41 114.04 110.79C114.21 116.95 114.1 124.32 113.66 126.54C111.29 127.58 108.85 128.46 106.36 129.17L106.35 129.18Z" fill="url(#paint3_linear_8_418)"/>
<defs>
<linearGradient id="paint0_linear_8_418" x1="131.5" y1="175.97" x2="46.0801" y2="-1.12997" gradientUnits="userSpaceOnUse">
<stop stop-color="#835342"/>
<stop offset="0.97" stop-color="#FFCAA4"/>
</linearGradient>
<linearGradient id="paint1_linear_8_418" x1="42.7885" y1="70.7036" x2="78.1814" y2="72.088" gradientUnits="userSpaceOnUse">
<stop stop-color="#835342"/>
<stop offset="0.97" stop-color="#FFCAA4"/>
</linearGradient>
<linearGradient id="paint2_linear_8_418" x1="100.709" y1="70.667" x2="136.097" y2="72.1873" gradientUnits="userSpaceOnUse">
<stop stop-color="#835342"/>
<stop offset="0.97" stop-color="#FFCAA4"/>
</linearGradient>
<linearGradient id="paint3_linear_8_418" x1="36.8765" y1="115.261" x2="143.211" y2="118.695" gradientUnits="userSpaceOnUse">
<stop stop-color="#835342"/>
<stop offset="0.97" stop-color="#FFCAA4"/>
</linearGradient>
</defs>
</svg>
