<svg width="41" height="40" viewBox="0 0 41 40" fill="none" xmlns="http://www.w3.org/2000/svg">
<path d="M32.503 7.22647C33.3523 7.22483 34.1927 7.05405 34.9752 6.72409C35.7578 6.39414 36.4667 5.91162 37.0608 5.30471L40.0679 2.22706C40.2458 2.0442 40.366 1.81311 40.4136 1.5625C40.4613 1.31188 40.4342 1.0528 40.3358 0.817453C40.2391 0.576183 40.0725 0.369374 39.8572 0.223662C39.642 0.0779497 39.3881 9.30519e-06 39.1282 -0.000120281H1.3131C1.05492 -0.000546787 0.802367 0.0752709 0.587111 0.217823C0.371855 0.360375 0.203483 0.563314 0.103116 0.801185C0.00274816 1.03906 -0.0251466 1.30127 0.0229304 1.55493C0.0710073 1.80859 0.192915 2.04241 0.373363 2.22706L3.38053 5.30471C3.97488 5.9112 4.68392 6.39344 5.46638 6.72336C6.24884 7.05329 7.0891 7.22431 7.93826 7.22647H19.4877V10.6753H13.9432C11.3024 10.6662 8.74551 11.6019 6.73429 13.3132C4.72308 15.0246 3.3902 17.3988 2.97644 20.0069L0.904316 32.8062C0.798214 33.7091 0.884443 34.6243 1.15733 35.4916C1.43022 36.3588 1.8836 37.1584 2.48764 37.8379C3.09168 38.5174 3.83271 39.0614 4.66201 39.434C5.4913 39.8066 6.39008 39.9995 7.29924 39.9999H33.0857C33.997 39.9994 34.8977 39.8054 35.7284 39.4307C36.5592 39.0561 37.3008 38.5093 37.9045 37.8266C38.5081 37.144 38.9599 36.3409 39.23 35.4706C39.5001 34.6002 39.5823 33.6825 39.4712 32.778L37.4038 20.0069C36.9921 17.3996 35.6611 15.0255 33.6514 13.314C31.6418 11.6026 29.0861 10.6666 26.4464 10.6753H20.8973V7.22647H32.503ZM36.0177 20.2325L38.0616 32.9706C38.1481 33.6775 38.0835 34.3947 37.872 35.0747C37.6604 35.7548 37.3069 36.3821 36.8346 36.9152C36.3624 37.4483 35.7823 37.875 35.1328 38.167C34.4832 38.459 33.7791 38.6097 33.0669 38.6091H7.29924C6.5898 38.6098 5.88824 38.4604 5.24067 38.1706C4.5931 37.8808 4.01419 37.4573 3.54198 36.9279C3.06978 36.3984 2.71497 35.775 2.50088 35.0986C2.2868 34.4223 2.21828 33.7083 2.29983 33.0035L4.36725 20.2325C4.72837 17.9551 5.89218 15.8819 7.64839 14.3877C9.40459 12.8934 11.6373 12.0767 13.9432 12.0849H26.4464C28.7517 12.0768 30.9839 12.8938 32.7393 14.3881C34.4947 15.8824 35.6576 17.9554 36.0177 20.2325ZM4.39075 4.32268L1.54804 1.40949H38.8933L36.0741 4.32268C35.6103 4.79436 35.0575 5.16931 34.4477 5.42579C33.8379 5.68228 33.1833 5.8152 32.5218 5.81687H7.93826C7.27747 5.8151 6.62361 5.68211 6.01463 5.42561C5.40565 5.16912 4.85368 4.79422 4.39075 4.32268Z" fill="white"/>
<path d="M10.4145 25.3399C10.4145 27.2733 10.9876 29.1632 12.0614 30.7708C13.1352 32.3785 14.6615 33.6318 16.4473 34.3723C18.2332 35.1128 20.1985 35.3072 22.0949 34.9311C23.9912 34.5549 25.7335 33.6251 27.1016 32.259C28.4696 30.8929 29.402 29.152 29.7808 27.2562C30.1597 25.3603 29.9681 23.3948 29.2302 21.6078C28.4923 19.8209 27.2412 18.2928 25.6351 17.2167C24.0289 16.1406 22.1399 15.5647 20.2066 15.562C17.612 15.562 15.1235 16.5917 13.2875 18.425C11.4515 20.2583 10.4182 22.7454 10.4145 25.3399ZM20.2066 16.9716C21.8611 16.9744 23.4776 17.4675 24.8519 18.3887C26.2263 19.31 27.2967 20.6179 27.9279 22.1473C28.5591 23.6766 28.7228 25.3588 28.3983 26.9812C28.0738 28.6035 27.2757 30.0933 26.1048 31.2622C24.9339 32.4312 23.4428 33.2268 21.8199 33.5485C20.197 33.8703 18.5151 33.7038 16.9868 33.07C15.4585 32.4362 14.1523 31.3636 13.2334 29.9877C12.3145 28.6118 11.8241 26.9945 11.8241 25.3399C11.8266 23.1188 12.711 20.9896 14.2829 19.4204C15.8547 17.8511 17.9854 16.9703 20.2066 16.9716Z" fill="white"/>
<path d="M24.132 20.4033L19.6965 24.8388L20.6933 25.8356L25.1288 21.4001L24.132 20.4033Z" fill="white"/>
</svg>
