<svg width="180" height="180" viewBox="0 0 180 180" fill="none" xmlns="http://www.w3.org/2000/svg">
<path d="M138.39 44.878C140.624 43.7756 143.668 42.2536 143.668 38.878C143.668 38.2959 143.437 37.7375 143.025 37.3259C142.614 36.9142 142.055 36.6829 141.473 36.6829C140.891 36.6829 140.333 36.9142 139.921 37.3259C139.509 37.7375 139.278 38.2959 139.278 38.878C139.278 39.5317 137.707 40.3219 136.439 40.9463C134.215 42.0585 131.161 43.5707 131.161 46.9561C131.161 50.3415 134.215 51.8341 136.439 52.9561C137.707 53.5902 139.278 54.3707 139.278 55.0341C139.278 55.6975 137.707 56.478 136.439 57.1024C134.215 58.2146 131.161 59.7366 131.161 63.1122C131.161 66.4878 134.215 67.9902 136.439 69.1219C137.707 69.7463 139.278 70.5268 139.278 71.1902C139.278 71.8536 137.707 72.6341 136.439 73.2683C134.215 74.3805 131.161 75.8927 131.161 79.278C131.161 82.6634 134.215 84.1561 136.439 85.2878C137.707 85.9122 139.278 86.7024 139.278 87.3561C139.278 87.9383 139.509 88.4966 139.921 88.9083C140.333 89.3199 140.891 89.5512 141.473 89.5512C142.055 89.5512 142.614 89.3199 143.025 88.9083C143.437 88.4966 143.668 87.9383 143.668 87.3561C143.668 83.9805 140.624 82.478 138.39 81.3561C137.122 80.7219 135.551 79.9414 135.551 79.278C135.551 78.6146 137.122 77.8341 138.39 77.2C140.624 76.0878 143.668 74.5756 143.668 71.1902C143.668 67.8049 140.624 66.3122 138.39 65.1902C137.122 64.5561 135.551 63.7756 135.551 63.1122C135.551 62.4488 137.122 61.6683 138.39 61.0341C140.624 59.9317 143.668 58.4097 143.668 55.0341C143.668 51.6585 140.624 50.1561 138.39 49.0244C137.122 48.4 135.551 47.6097 135.551 46.9561C135.551 46.3024 137.122 45.5512 138.39 44.878Z" fill="url(#paint0_linear_146_603)"/>
<path d="M39.6391 84.2927C41.5903 82.8488 44.2049 80.8878 44.2049 77.0341C44.2049 76.4519 43.9736 75.8936 43.562 75.4819C43.1503 75.0703 42.592 74.839 42.0098 74.839C41.4276 74.839 40.8693 75.0703 40.4576 75.4819C40.0459 75.8936 39.8147 76.4519 39.8147 77.0341C39.8147 78.6049 38.8391 79.3951 37.0147 80.7707C35.1903 82.1463 32.4488 84.1756 32.4488 88.0195C32.4488 91.8634 35.083 93.8732 37.0147 95.278C38.9464 96.6829 39.8147 97.4439 39.8147 99.0146C39.8147 100.585 38.8391 101.376 37.0147 102.751C35.1903 104.127 32.4488 106.156 32.4488 110C32.4488 113.844 35.083 115.854 37.0147 117.259C38.9464 118.663 39.8147 119.415 39.8147 120.995C39.8147 121.577 40.0459 122.136 40.4576 122.547C40.8693 122.959 41.4276 123.19 42.0098 123.19C42.592 123.19 43.1503 122.959 43.562 122.547C43.9736 122.136 44.2049 121.577 44.2049 120.995C44.2049 117.093 41.561 115.141 39.6391 113.737C37.7171 112.332 36.8391 111.58 36.8391 110C36.8391 108.419 37.8147 107.639 39.6391 106.263C41.4634 104.888 44.2049 102.859 44.2049 99.0146C44.2049 95.1707 41.561 93.161 39.6391 91.7561C37.7171 90.3512 36.8391 89.6 36.8391 88.0195C36.8391 86.439 37.7952 85.6585 39.6391 84.2927Z" fill="url(#paint1_linear_146_603)"/>
<path d="M34.9561 56.3707C36.815 56.3707 38.322 54.8638 38.322 53.0049C38.322 51.146 36.815 49.639 34.9561 49.639C33.0972 49.639 31.5903 51.146 31.5903 53.0049C31.5903 54.8638 33.0972 56.3707 34.9561 56.3707Z" fill="url(#paint2_linear_146_603)"/>
<path d="M58.2439 144.644C60.1028 144.644 61.6098 143.137 61.6098 141.278C61.6098 139.419 60.1028 137.912 58.2439 137.912C56.385 137.912 54.8781 139.419 54.8781 141.278C54.8781 143.137 56.385 144.644 58.2439 144.644Z" fill="url(#paint3_linear_146_603)"/>
<path d="M133.356 135.493C135.215 135.493 136.722 133.986 136.722 132.127C136.722 130.268 135.215 128.761 133.356 128.761C131.497 128.761 129.99 130.268 129.99 132.127C129.99 133.986 131.497 135.493 133.356 135.493Z" fill="url(#paint4_linear_146_603)"/>
<path d="M154.898 105.444C156.756 105.444 158.263 103.937 158.263 102.078C158.263 100.219 156.756 98.7122 154.898 98.7122C153.039 98.7122 151.532 100.219 151.532 102.078C151.532 103.937 153.039 105.444 154.898 105.444Z" fill="url(#paint5_linear_146_603)"/>
<path d="M22.9171 87.0049C24.776 87.0049 26.283 85.4979 26.283 83.639C26.283 81.7801 24.776 80.2732 22.9171 80.2732C21.0582 80.2732 19.5513 81.7801 19.5513 83.639C19.5513 85.4979 21.0582 87.0049 22.9171 87.0049Z" fill="url(#paint6_linear_146_603)"/>
<path d="M90 18.2439C81.562 18.2516 73.4719 21.6071 67.5053 27.5736C61.5388 33.5402 58.1834 41.6303 58.1756 50.0683V116.41C58.1782 119.926 59.5756 123.298 62.0612 125.786C64.5469 128.273 67.9177 129.673 71.4342 129.678H78.5268V150.244C78.4821 151.778 78.7456 153.306 79.3018 154.736C79.858 156.167 80.6956 157.471 81.765 158.572C82.8343 159.673 84.1137 160.548 85.5274 161.146C86.9411 161.744 88.4603 162.052 89.9951 162.052C91.53 162.052 93.0492 161.744 94.4629 161.146C95.8766 160.548 97.156 159.673 98.2253 158.572C99.2947 157.471 100.132 156.167 100.688 154.736C101.245 153.306 101.508 151.778 101.463 150.244V129.659H108.556C112.074 129.656 115.448 128.257 117.935 125.769C120.423 123.282 121.822 119.908 121.824 116.39V50.0488C121.809 41.615 118.45 33.5313 112.485 27.5695C106.52 21.6078 98.4338 18.2542 90 18.2439ZM117.444 116.429C117.441 118.783 116.505 121.04 114.841 122.704C113.176 124.369 110.92 125.305 108.566 125.307H71.4342C69.082 125.302 66.8279 124.365 65.1656 122.701C63.5033 121.037 62.5685 118.781 62.5659 116.429V50.0878C62.7014 42.9001 65.6519 36.0526 70.7829 31.0174C75.914 25.9821 82.8159 23.1613 90.0049 23.1613C97.1939 23.1613 104.096 25.9821 109.227 31.0174C114.358 36.0526 117.308 42.9001 117.444 50.0878V116.429ZM97.0829 150.244C97.1183 151.195 96.9614 152.144 96.6216 153.034C96.2818 153.924 95.7661 154.736 95.1054 155.421C94.4446 156.107 93.6524 156.652 92.776 157.025C91.8997 157.398 90.9572 157.59 90.0049 157.59C89.0526 157.59 88.1101 157.398 87.2338 157.025C86.3574 156.652 85.5652 156.107 84.9044 155.421C84.2437 154.736 83.728 153.924 83.3882 153.034C83.0484 152.144 82.8915 151.195 82.9268 150.244V129.659H97.0829V150.244Z" fill="url(#paint7_linear_146_603)"/>
<path d="M97.7951 52.7512C97.5234 52.6446 97.2331 52.5932 96.9412 52.6001C96.6494 52.607 96.3618 52.6721 96.0954 52.7915C95.829 52.9109 95.5891 53.0823 95.3897 53.2955C95.1904 53.5088 95.0355 53.7597 94.9343 54.0335C94.8331 54.3073 94.7875 54.5986 94.8002 54.8903C94.8129 55.1819 94.8837 55.4681 95.0084 55.7321C95.133 55.9961 95.3091 56.2325 95.5263 56.4276C95.7435 56.6227 95.9974 56.7725 96.2732 56.8683C100.089 58.2742 103.34 60.8878 105.534 64.3114C107.728 67.735 108.744 71.7814 108.427 75.8352C108.11 79.889 106.478 83.7284 103.778 86.7695C101.079 89.8106 97.4607 91.887 93.4732 92.6829L97.2 88.9658C97.5715 88.5452 97.7686 87.9988 97.7513 87.438C97.7339 86.8771 97.5033 86.3439 97.1065 85.9471C96.7097 85.5503 96.1766 85.3197 95.6157 85.3024C95.0548 85.285 94.5084 85.4822 94.0878 85.8536L86.7512 93.2C86.3402 93.6116 86.1093 94.1695 86.1093 94.7512C86.1093 95.3329 86.3402 95.8908 86.7512 96.3024L94.0878 103.639C94.5057 104.052 95.0704 104.282 95.6577 104.278C96.245 104.274 96.8068 104.037 97.2195 103.619C97.6322 103.202 97.862 102.637 97.8584 102.05C97.8547 101.462 97.6179 100.9 97.2 100.488L93.7561 97.0829C98.7487 96.2121 103.315 93.7203 106.749 89.9931C110.183 86.2659 112.293 81.511 112.753 76.4639C113.213 71.4168 111.997 66.3588 109.293 62.0724C106.589 57.786 102.548 54.51 97.7951 52.7512Z" fill="url(#paint8_linear_146_603)"/>
<path d="M82.8 62.0878C83.2133 62.4995 83.7728 62.7306 84.3561 62.7306C84.9394 62.7306 85.499 62.4995 85.9122 62.0878L93.2488 54.7512C93.6599 54.3396 93.8908 53.7817 93.8908 53.2C93.8908 52.6183 93.6599 52.0604 93.2488 51.6488L85.9122 44.3122C85.5008 43.8995 84.9423 43.6671 84.3596 43.6662C83.7768 43.6653 83.2176 43.8959 82.8049 44.3073C82.3922 44.7187 82.1598 45.2772 82.1589 45.86C82.158 46.4427 82.3886 47.0019 82.8 47.4146L86.2439 50.8585C81.2498 51.7256 76.6809 54.2152 73.2448 57.9416C69.8087 61.6681 67.6971 66.4235 67.2371 71.4715C66.7771 76.5194 67.9943 81.5782 70.7002 85.8643C73.4061 90.1505 77.4498 93.4249 82.2049 95.1805C82.4479 95.273 82.7059 95.3193 82.9659 95.317C83.4808 95.3168 83.9792 95.1355 84.374 94.8048C84.7688 94.4742 85.0348 94.0154 85.1254 93.5085C85.2161 93.0016 85.1257 92.479 84.8701 92.032C84.6144 91.5851 84.2097 91.2422 83.7268 91.0634C79.9138 89.6578 76.6641 87.0455 74.4719 83.6237C72.2797 80.2019 71.2648 76.1578 71.5818 72.1063C71.8987 68.0548 73.53 64.2177 76.2276 61.1784C78.9253 58.1391 82.5416 56.0638 86.5268 55.2683L82.8 58.9854C82.3913 59.3982 82.1621 59.9556 82.1621 60.5366C82.1621 61.1175 82.3913 61.675 82.8 62.0878Z" fill="url(#paint9_linear_146_603)"/>
<path d="M90 0C72.1997 0 54.7991 5.27841 39.9987 15.1677C25.1983 25.0571 13.6628 39.1131 6.85088 55.5585C0.038996 72.0038 -1.7433 90.0998 1.72936 107.558C5.20203 125.016 13.7737 141.053 26.3604 153.64C38.9471 166.226 54.9836 174.798 72.4419 178.271C89.9002 181.743 107.996 179.961 124.442 173.149C140.887 166.337 154.943 154.802 164.832 140.001C174.722 125.201 180 107.8 180 90C179.974 66.1384 170.484 43.2616 153.611 26.3889C136.738 9.51623 113.862 0.0258242 90 0ZM90 175.61C73.068 175.61 56.5162 170.589 42.4378 161.182C28.3593 151.775 17.3865 138.405 10.9069 122.761C4.42734 107.118 2.73198 89.905 6.03525 73.2983C9.33852 56.6917 17.4921 41.4375 29.4648 29.4648C41.4375 17.492 56.6917 9.33848 73.2984 6.03521C89.905 2.73194 107.118 4.4273 122.761 10.9069C138.405 17.3865 151.775 28.3593 161.182 42.4378C170.589 56.5162 175.61 73.068 175.61 90C175.587 112.698 166.559 134.46 150.51 150.51C134.46 166.559 112.698 175.586 90 175.61Z" fill="url(#paint10_linear_146_603)"/>
<defs>
<linearGradient id="paint0_linear_146_603" x1="123.1" y1="180" x2="37.677" y2="2.90302" gradientUnits="userSpaceOnUse">
<stop stop-color="#835342"/>
<stop offset="0.972222" stop-color="#FFCAA4"/>
</linearGradient>
<linearGradient id="paint1_linear_146_603" x1="123.1" y1="180" x2="37.677" y2="2.90302" gradientUnits="userSpaceOnUse">
<stop stop-color="#835342"/>
<stop offset="0.972222" stop-color="#FFCAA4"/>
</linearGradient>
<linearGradient id="paint2_linear_146_603" x1="123.1" y1="180" x2="37.677" y2="2.90302" gradientUnits="userSpaceOnUse">
<stop stop-color="#835342"/>
<stop offset="0.972222" stop-color="#FFCAA4"/>
</linearGradient>
<linearGradient id="paint3_linear_146_603" x1="123.1" y1="180" x2="37.677" y2="2.90302" gradientUnits="userSpaceOnUse">
<stop stop-color="#835342"/>
<stop offset="0.972222" stop-color="#FFCAA4"/>
</linearGradient>
<linearGradient id="paint4_linear_146_603" x1="123.1" y1="180" x2="37.677" y2="2.90302" gradientUnits="userSpaceOnUse">
<stop stop-color="#835342"/>
<stop offset="0.972222" stop-color="#FFCAA4"/>
</linearGradient>
<linearGradient id="paint5_linear_146_603" x1="123.1" y1="180" x2="37.677" y2="2.90302" gradientUnits="userSpaceOnUse">
<stop stop-color="#835342"/>
<stop offset="0.972222" stop-color="#FFCAA4"/>
</linearGradient>
<linearGradient id="paint6_linear_146_603" x1="123.1" y1="180" x2="37.677" y2="2.90302" gradientUnits="userSpaceOnUse">
<stop stop-color="#835342"/>
<stop offset="0.972222" stop-color="#FFCAA4"/>
</linearGradient>
<linearGradient id="paint7_linear_146_603" x1="123.1" y1="180" x2="37.677" y2="2.90302" gradientUnits="userSpaceOnUse">
<stop stop-color="#835342"/>
<stop offset="0.972222" stop-color="#FFCAA4"/>
</linearGradient>
<linearGradient id="paint8_linear_146_603" x1="123.1" y1="180" x2="37.677" y2="2.90302" gradientUnits="userSpaceOnUse">
<stop stop-color="#835342"/>
<stop offset="0.972222" stop-color="#FFCAA4"/>
</linearGradient>
<linearGradient id="paint9_linear_146_603" x1="123.1" y1="180" x2="37.677" y2="2.90302" gradientUnits="userSpaceOnUse">
<stop stop-color="#835342"/>
<stop offset="0.972222" stop-color="#FFCAA4"/>
</linearGradient>
<linearGradient id="paint10_linear_146_603" x1="123.1" y1="180" x2="37.677" y2="2.90302" gradientUnits="userSpaceOnUse">
<stop stop-color="#835342"/>
<stop offset="0.972222" stop-color="#FFCAA4"/>
</linearGradient>
</defs>
</svg>
