
<svg width="692" height="322" viewBox="0 0 692 322" fill="none" xmlns="http://www.w3.org/2000/svg">
<mask id="mask0_2001_433" style="mask-type:alpha" maskUnits="userSpaceOnUse" x="-2" y="-2" width="694" height="324">
<rect width="690" height="320" fill="#F3D1B2"/>
<rect x="-1" y="-1" width="692" height="322" stroke="url(#paint0_linear_2001_433)" stroke-opacity="0.77" stroke-width="2"/>
</mask>
<g mask="url(#mask0_2001_433)">
<mask id="mask1_2001_433" style="mask-type:alpha" maskUnits="userSpaceOnUse" x="205" y="46" width="570" height="441">
<path d="M534.239 337.692C549.349 329.448 554.909 310.506 546.658 295.383C538.407 280.26 519.469 274.683 504.359 282.927C489.249 291.171 483.689 310.114 491.94 325.237C500.191 340.36 519.129 345.937 534.239 337.692Z" fill="#835342"/>
<path d="M751.188 181.241C772.449 169.641 780.272 142.987 768.662 121.707C757.052 100.428 730.404 92.5815 709.143 104.182C687.883 115.782 680.059 142.436 691.669 163.715C703.28 184.994 729.927 192.841 751.188 181.241Z" fill="#835342"/>
<path d="M262.253 179.593C280.866 169.438 287.715 146.103 277.551 127.474C267.386 108.844 244.058 101.975 225.444 112.13C206.831 122.286 199.982 145.621 210.146 164.25C220.311 182.879 243.64 189.749 262.253 179.593Z" fill="#835342"/>
<path d="M260.437 67.0356C264.803 64.6531 266.41 59.1786 264.025 54.8081C261.641 50.4375 256.168 48.826 251.801 51.2085C247.434 53.591 245.828 59.0655 248.212 63.436C250.597 67.8065 256.07 69.4181 260.437 67.0356Z" fill="#835342"/>
<path d="M336.209 80.5427C345.108 75.6878 348.382 64.5323 343.523 55.6263C338.664 46.7203 327.511 43.4363 318.613 48.2913C309.714 53.1463 306.44 64.3018 311.299 73.2077C316.159 82.1137 327.311 85.3977 336.209 80.5427Z" fill="#835342"/>
<path d="M347.901 486.223L324.243 481.105C333.362 438.816 344.63 401.285 358.689 366.36C376.336 322.52 398.56 282.988 424.741 248.857C439.635 229.439 456.143 211.335 473.802 195.049C492.752 177.57 513.567 161.688 535.667 147.845C559.161 133.127 584.77 120.302 611.775 109.726C640.273 98.5634 671.135 89.5901 703.495 83.0607L708.289 106.806C677.3 113.061 647.798 121.633 620.6 132.283C594.99 142.314 570.737 154.458 548.511 168.38C527.677 181.431 508.06 196.397 490.207 212.864C473.564 228.216 457.998 245.291 443.943 263.612C398.984 322.221 367.568 395.038 347.901 486.223Z" fill="#835342"/>
<path d="M261.671 372.72L242.928 357.388C286.986 303.445 342.177 257.906 406.967 222.035C458.625 193.436 516.457 170.892 578.859 155.034C634.284 140.946 683.171 134.842 714.42 132.2C748.439 129.324 769.161 129.794 770.025 129.815L769.437 154.031C769.238 154.027 748.766 153.579 715.801 156.393C685.433 158.985 637.94 164.959 584.132 178.685C523.85 194.064 468.06 215.85 418.315 243.438C388.872 259.765 361.242 278.337 336.198 298.631C308.695 320.918 283.619 345.845 261.67 372.718L261.671 372.72Z" fill="#835342"/>
</mask>
<g mask="url(#mask1_2001_433)">
<rect x="3.00061" y="1.99951" width="690" height="320" rx="50" fill="url(#paint1_radial_2001_433)"/>
</g>
</g>
<defs>
<linearGradient id="paint0_linear_2001_433" x1="313.276" y1="330.213" x2="182.049" y2="22.9607" gradientUnits="userSpaceOnUse">
<stop stop-color="white" stop-opacity="0.5"/>
<stop offset="1" stop-color="white" stop-opacity="0"/>
</linearGradient>
<radialGradient id="paint1_radial_2001_433" cx="0" cy="0" r="1" gradientUnits="userSpaceOnUse" gradientTransform="translate(474.001 174) rotate(179.632) scale(311.547 264.255)">
<stop stop-color="#E3D1BA"/>
<stop offset="1" stop-color="#FCE7C5" stop-opacity="0.6"/>
</radialGradient>
</defs>
</svg>
