<svg width="1270" height="922" viewBox="0 0 1270 922" fill="none" xmlns="http://www.w3.org/2000/svg">
<path d="M1.51468 55.0836C1.65583 79.7752 1.84584 104.456 2.08472 129.126L82.1346 98.8017C160.692 69.0347 247.355 68.6702 326.161 97.7752L393.637 122.706C472.243 151.745 558.679 151.462 637.093 121.907L698.853 98.6388C777.997 68.8202 865.281 68.8202 944.426 98.6388L1004.46 121.256C1083.93 151.204 1171.6 151.076 1250.98 120.897L1263 116.335C1261.37 91.7462 1259.74 67.1578 1258.76 42.5531L1250.06 45.812C1171.19 75.2366 1084.34 75.0977 1005.57 45.4209L944.344 22.3642C865.205 -7.45473 777.927 -7.45473 698.787 22.3642L638.217 45.1765C559.075 75.0114 471.785 75.0114 392.643 45.1765L332.61 22.576C253.139 -7.36334 165.476 -7.23586 86.0923 22.9345L1.51468 55.0836Z" fill="url(#paint0_radial_110_1197)"/>
<path d="M2.67104 184.25C2.95335 208.887 3.25737 233.525 3.58311 258.162L82.1346 228.408C160.696 198.652 247.359 198.299 326.161 227.414L393.637 252.345C472.243 281.384 558.679 281.101 637.093 251.546L698.853 228.278C777.997 198.459 865.281 198.459 944.426 228.278L1004.46 250.944C1083.93 280.892 1171.6 280.764 1250.98 250.585L1269.59 243.513C1269.25 218.762 1267.96 194.059 1266.51 169.373L1250.03 175.516C1171.17 204.928 1084.33 204.783 1005.57 175.109L944.328 152.036C865.189 122.217 777.91 122.217 698.771 152.036L638.2 174.848C559.059 204.683 471.769 204.683 392.627 174.848L332.61 152.183C253.139 122.243 165.476 122.371 86.0923 152.541L2.67104 184.25Z" fill="url(#paint1_radial_110_1197)"/>
<path d="M4.29973 313.254C4.60375 337.891 4.90234 362.528 5.19551 387.166L82.1346 358.015C160.696 328.258 247.359 327.905 326.161 357.021L393.637 381.951C472.243 410.991 558.679 410.707 637.093 381.153L698.853 357.884C777.997 328.066 865.281 328.066 944.426 357.884L1004.46 380.501C1083.93 410.45 1171.6 410.322 1250.98 380.143L1269.38 373.136C1269.77 347.956 1269.98 322.781 1270 297.611L1250.05 305.058C1171.19 334.469 1084.35 334.324 1005.58 304.65L944.344 281.577C865.205 251.758 777.927 251.758 698.787 281.577L638.217 304.39C559.075 334.224 471.785 334.224 392.643 304.39L332.61 281.773C253.139 251.833 165.476 251.961 86.0923 282.131L4.29973 313.254Z" fill="url(#paint2_radial_110_1197)"/>
<path d="M5.76555 442.306C5.99356 466.987 6.16729 491.668 6.28673 516.349L82.1346 487.621C160.696 457.865 247.359 457.512 326.161 486.627L393.637 511.558C472.243 540.597 558.679 540.314 637.093 510.76L698.853 487.491C777.997 457.672 865.281 457.672 944.426 487.491L1004.46 510.108C1083.93 540.056 1171.6 539.929 1250.98 509.749L1266.53 503.834C1267.15 478.534 1267.75 453.202 1268.34 427.837L1250.05 434.664C1171.19 464.075 1084.35 463.931 1005.58 434.257L944.344 411.184C865.205 381.365 777.927 381.365 698.787 411.184L638.217 433.996C559.075 463.831 471.785 463.831 392.643 433.996L332.61 411.379C253.139 381.44 165.476 381.567 86.0923 411.738L5.76555 442.306Z" fill="url(#paint3_radial_110_1197)"/>
<path d="M6.51474 571.636C6.51474 596.425 6.44416 621.204 6.30301 645.971L82.1998 617.228C160.761 587.471 247.424 587.118 326.226 616.234L393.702 641.164C472.287 670.193 558.696 669.915 637.093 640.382L698.853 617.114C777.997 587.295 865.281 587.295 944.426 617.114L1004.46 639.731C1083.93 669.679 1171.6 669.551 1250.98 639.372L1262.69 634.924C1263.55 609.526 1264.34 584.112 1265.07 558.682L1250.05 564.287C1171.19 593.698 1084.35 593.554 1005.58 563.88L944.344 540.807C865.205 510.988 777.927 510.988 698.787 540.807L638.217 563.619C559.075 593.454 471.785 593.454 392.643 563.619L332.61 540.986C253.141 511.037 165.474 511.165 86.0923 541.344L6.51474 571.636Z" fill="url(#paint4_radial_110_1197)"/>
<path d="M5.68411 701.536C5.35837 726.521 4.91863 751.44 4.36488 776.295L82.1346 746.834C160.696 717.078 247.359 716.725 326.161 745.84L393.637 770.738C472.24 799.792 558.678 799.514 637.093 769.956L698.853 746.688C777.997 716.869 865.281 716.869 944.426 746.688L1004.46 769.304C1083.93 799.253 1171.6 799.125 1250.98 768.946L1257.49 766.486C1258.58 740.957 1259.66 715.429 1260.75 689.901L1250.15 693.861C1171.28 723.272 1084.44 723.127 1005.68 693.454L944.442 670.38C865.303 640.562 778.024 640.562 698.885 670.38L638.314 693.193C559.173 723.028 471.883 723.028 392.741 693.193L332.708 670.576C253.239 640.628 165.572 640.755 86.19 670.935L5.68411 701.536Z" fill="url(#paint5_radial_110_1197)"/>
<path d="M2.8502 832.218C2.03586 857.344 1.08579 882.475 0 907.612L82.1346 876.49C160.696 846.733 247.359 846.38 326.161 875.496L393.637 900.41C472.24 929.463 558.678 929.186 637.093 899.628L698.853 876.359C777.997 846.541 865.281 846.541 944.426 876.359L1004.46 898.976C1083.93 928.924 1171.6 928.797 1250.98 898.618C1252.35 872.981 1253.65 847.35 1254.9 821.724L1250.02 823.533C1171.15 852.944 1084.31 852.799 1005.55 823.125L944.344 800.068C865.207 770.242 777.925 770.242 698.787 800.068L638.217 822.881C559.073 852.708 471.787 852.708 392.643 822.881L332.61 800.264C253.141 770.316 165.474 770.443 86.0923 800.622L2.8502 832.218Z" fill="url(#paint6_radial_110_1197)"/>
<defs>
<radialGradient id="paint0_radial_110_1197" cx="0" cy="0" r="1" gradientUnits="userSpaceOnUse" gradientTransform="translate(620 461) rotate(-178.355) scale(592.244 386.194)">
<stop offset="0.0656447" stop-color="white"/>
<stop offset="1" stop-color="white" stop-opacity="0"/>
</radialGradient>
<radialGradient id="paint1_radial_110_1197" cx="0" cy="0" r="1" gradientUnits="userSpaceOnUse" gradientTransform="translate(620 461) rotate(-178.355) scale(592.244 386.194)">
<stop offset="0.0656447" stop-color="white"/>
<stop offset="1" stop-color="white" stop-opacity="0"/>
</radialGradient>
<radialGradient id="paint2_radial_110_1197" cx="0" cy="0" r="1" gradientUnits="userSpaceOnUse" gradientTransform="translate(620 461) rotate(-178.355) scale(592.244 386.194)">
<stop offset="0.0656447" stop-color="white"/>
<stop offset="1" stop-color="white" stop-opacity="0"/>
</radialGradient>
<radialGradient id="paint3_radial_110_1197" cx="0" cy="0" r="1" gradientUnits="userSpaceOnUse" gradientTransform="translate(620 461) rotate(-178.355) scale(592.244 386.194)">
<stop offset="0.0656447" stop-color="white"/>
<stop offset="1" stop-color="white" stop-opacity="0"/>
</radialGradient>
<radialGradient id="paint4_radial_110_1197" cx="0" cy="0" r="1" gradientUnits="userSpaceOnUse" gradientTransform="translate(620 461) rotate(-178.355) scale(592.244 386.194)">
<stop offset="0.0656447" stop-color="white"/>
<stop offset="1" stop-color="white" stop-opacity="0"/>
</radialGradient>
<radialGradient id="paint5_radial_110_1197" cx="0" cy="0" r="1" gradientUnits="userSpaceOnUse" gradientTransform="translate(620 461) rotate(-178.355) scale(592.244 386.194)">
<stop offset="0.0656447" stop-color="white"/>
<stop offset="1" stop-color="white" stop-opacity="0"/>
</radialGradient>
<radialGradient id="paint6_radial_110_1197" cx="0" cy="0" r="1" gradientUnits="userSpaceOnUse" gradientTransform="translate(620 461) rotate(-178.355) scale(592.244 386.194)">
<stop offset="0.0656447" stop-color="white"/>
<stop offset="1" stop-color="white" stop-opacity="0"/>
</radialGradient>
</defs>
</svg>
