<svg width="690" height="320" viewBox="0 0 690 320" fill="none" xmlns="http://www.w3.org/2000/svg">
<path d="M181.32 23.72L222.75 39C271.017 56.8222 324.091 56.6483 372.24 38.51L410.16 24.23C458.754 5.93025 512.346 5.93025 560.94 24.23L597.79 38.11C627.199 49.1616 658.682 53.6001 690 51.11V50C689.992 40.5982 687.334 31.389 682.33 23.4294C677.326 15.4698 670.179 9.08228 661.71 5C649.865 4.31189 638.098 2.63945 626.53 4.7502e-07H344.21C313.472 6.86947 281.598 6.86947 250.86 4.7502e-07H50C39.2802 -0.0014767 28.8438 3.44229 20.2301 9.82333C11.6164 16.2044 5.28159 25.1848 2.16 35.44L31.49 24.33C79.7262 6.06835 132.937 5.85172 181.32 23.72Z" fill="url(#paint0_radial_10_214)"/>
<path d="M181.33 103.26L222.75 118.56C271.017 136.382 324.091 136.208 372.24 118.07L410.16 103.79C458.754 85.4903 512.346 85.4903 560.94 103.79L597.79 117.67C627.198 128.726 658.682 133.165 690 130.67V84.22C658.903 86.5828 627.666 82.1115 598.48 71.12L560.88 57C512.289 38.7 458.701 38.7 410.11 57L372.92 71C324.329 89.3 270.741 89.3 222.15 71L185.28 57.09C136.487 38.7251 82.669 38.8033 33.93 57.31L0 70.2V115.8L31.49 103.88C79.7275 85.6099 132.943 85.3897 181.33 103.26Z" fill="url(#paint1_radial_10_214)"/>
<path d="M181.32 182.8L222.75 198.1C271.017 215.922 324.091 215.748 372.24 197.61L410.16 183.33C458.754 165.03 512.346 165.03 560.94 183.33L597.79 197.21C627.199 208.262 658.682 212.7 690 210.21V163.71C658.903 166.073 627.666 161.602 598.48 150.61L560.88 136.46C512.289 118.16 458.701 118.16 410.11 136.46L372.92 150.46C324.329 168.76 270.741 168.76 222.15 150.46L185.29 136.57C136.49 118.203 82.6637 118.285 33.92 136.8L0 149.75V195.34L31.49 183.41C79.7262 165.148 132.937 164.932 181.32 182.8Z" fill="url(#paint2_radial_10_214)"/>
<path d="M598.48 230.2L560.88 216.05C512.289 197.75 458.701 197.75 410.11 216.05L372.92 230.05C324.329 248.35 270.741 248.35 222.15 230.05L185.29 216.16C136.494 197.789 82.6695 197.871 33.93 216.39L0 229.29V270C0 271.62 0.08 273.21 0.23 274.79L31.49 263C79.7275 244.73 132.943 244.51 181.33 262.38L222.75 277.68C271.017 295.502 324.091 295.328 372.24 277.19L410.16 262.91C458.754 244.61 512.346 244.61 560.94 262.91L597.8 276.79C625.872 287.365 655.855 291.91 685.8 290.13C688.589 283.786 690.019 276.929 690 270V243.3C658.903 245.663 627.666 241.191 598.48 230.2Z" fill="url(#paint3_radial_10_214)"/>
<path d="M560.88 295.59C512.289 277.29 458.701 277.29 410.11 295.59L372.92 309.59C360.642 314.213 347.966 317.697 335.05 320H635.5C622.884 317.694 610.501 314.261 598.5 309.74L560.88 295.59Z" fill="url(#paint4_radial_10_214)"/>
<path d="M50 320H260C247.088 317.699 234.415 314.218 222.14 309.6L185.27 295.71C136.477 277.345 82.659 277.423 33.92 295.93L13.17 303.82C17.8493 308.926 23.5406 313.002 29.8816 315.787C36.2225 318.573 43.0741 320.008 50 320Z" fill="url(#paint5_radial_10_214)"/>
<defs>
<radialGradient id="paint0_radial_10_214" cx="0" cy="0" r="1" gradientUnits="userSpaceOnUse" gradientTransform="translate(471 172) rotate(174.512) scale(282.294 311.218)">
<stop stop-color="#FFE6CE"/>
<stop offset="1" stop-color="#FFC590" stop-opacity="0"/>
</radialGradient>
<radialGradient id="paint1_radial_10_214" cx="0" cy="0" r="1" gradientUnits="userSpaceOnUse" gradientTransform="translate(471 172) rotate(174.512) scale(282.294 311.218)">
<stop stop-color="#FFE6CE"/>
<stop offset="1" stop-color="#FFC590" stop-opacity="0"/>
</radialGradient>
<radialGradient id="paint2_radial_10_214" cx="0" cy="0" r="1" gradientUnits="userSpaceOnUse" gradientTransform="translate(471 172) rotate(174.512) scale(282.294 311.218)">
<stop stop-color="#FFE6CE"/>
<stop offset="1" stop-color="#FFC590" stop-opacity="0"/>
</radialGradient>
<radialGradient id="paint3_radial_10_214" cx="0" cy="0" r="1" gradientUnits="userSpaceOnUse" gradientTransform="translate(471 172) rotate(174.512) scale(282.294 311.218)">
<stop stop-color="#FFE6CE"/>
<stop offset="1" stop-color="#FFC590" stop-opacity="0"/>
</radialGradient>
<radialGradient id="paint4_radial_10_214" cx="0" cy="0" r="1" gradientUnits="userSpaceOnUse" gradientTransform="translate(471 172) rotate(174.512) scale(282.294 311.218)">
<stop stop-color="#FFE6CE"/>
<stop offset="1" stop-color="#FFC590" stop-opacity="0"/>
</radialGradient>
<radialGradient id="paint5_radial_10_214" cx="0" cy="0" r="1" gradientUnits="userSpaceOnUse" gradientTransform="translate(471 172) rotate(174.512) scale(282.294 311.218)">
<stop stop-color="#FFE6CE"/>
<stop offset="1" stop-color="#FFC590" stop-opacity="0"/>
</radialGradient>
</defs>
</svg>
