
<svg width="690" height="320" viewBox="0 0 690 320" fill="none" xmlns="http://www.w3.org/2000/svg">
<mask id="mask0_2001_430" style="mask-type:alpha" maskUnits="userSpaceOnUse" x="0" y="0" width="690" height="320">
<rect width="690" height="320" rx="50" fill="url(#paint0_radial_2001_430)"/>
</mask>
<g mask="url(#mask0_2001_430)">
<mask id="mask1_2001_430" style="mask-type:alpha" maskUnits="userSpaceOnUse" x="-232" y="-644" width="1476" height="1403">
<path d="M506 -561.107L655.845 -100.186L661.599 -82.4849H1165.12L772.833 202.378L757.762 213.316L763.516 231.016L913.362 691.937L521.07 407.075L506 396.137L490.93 407.075L98.6385 691.937L248.484 231.016L254.238 213.316L239.167 202.378L-153.124 -82.4849H350.401L356.155 -100.186L506 -561.107ZM506 -644L331.781 -108.101H-232L224.11 223.101L49.8904 759L506 427.798L962.11 759L787.89 223.101L1244 -108.101H680.219L506 -644Z" fill="black"/>
<path d="M506 -397.101L619.029 -49.2481L624.78 -31.5461H1009.16L713.253 183.439L698.19 194.378L703.941 212.08L816.97 559.932L521.064 344.947L506 334.008L490.936 344.947L195.03 559.932L308.059 212.08L313.81 194.378L298.747 183.439L2.84079 -31.5461H387.22L392.971 -49.2481L506 -397.101ZM506 -480L368.608 -57.164H-76L283.696 204.164L146.304 627L506 365.672L865.696 627L728.304 204.164L1088 -57.164H643.392L506 -480Z" fill="black"/>
<path d="M505.5 -233.99L581.809 1.08432L587.563 18.8098H853.128L653.339 164.09L638.269 175.043L644.023 192.769L720.333 427.843L520.544 282.563L505.474 271.61L490.405 282.563L290.616 427.843L366.926 192.769L372.679 175.043L357.61 164.09L157.821 18.8098H423.386L429.139 1.08432L505.449 -233.99M505.5 -317L404.818 -6.84213H79L342.591 184.842L241.909 495L505.5 303.316L769.091 495L668.409 184.842L932 -6.84213H606.182L505.5 -317Z" fill="black"/>
<path d="M505.974 -70.0582L545.55 51.6443L551.308 69.3526H698.016L594.397 144.568L579.316 155.51L585.074 173.219L624.649 294.921L521.03 219.706L505.949 208.763L490.868 219.706L387.248 294.921L426.824 173.219L432.582 155.51L417.501 144.568L313.881 69.3526H460.59L466.348 51.6443L505.923 -70.0582M505.974 -153L442.008 43.7128H235L402.483 165.287L338.517 362L506 240.426L673.483 362L609.517 165.287L777 43.7128H569.993L506.026 -153H505.974Z" fill="black"/>
<path d="M505.987 93.9986L508.766 102.578L514.517 120.301H542.13L534.843 125.598L519.781 136.55L525.532 154.273L528.311 162.852L521.023 157.556L505.962 146.604L490.9 157.556L483.612 162.852L486.392 154.273L492.142 136.55L477.08 125.598L469.793 120.301H497.406L503.157 102.578L505.936 93.9986M505.987 11L478.848 94.6527H391L462.07 146.347L434.93 230L506 178.305L577.07 230L549.93 146.347L621 94.6527H533.152L506.013 11H505.987Z" fill="black"/>
</mask>
<g mask="url(#mask1_2001_430)">
<rect width="690" height="320" rx="50" fill="url(#paint1_radial_2001_430)"/>
</g>
</g>
<defs>
<radialGradient id="paint0_radial_2001_430" cx="0" cy="0" r="1" gradientUnits="userSpaceOnUse" gradientTransform="translate(548 160) rotate(170.369) scale(251.038 541.301)">
<stop stop-color="#EEDCCD"/>
<stop offset="1" stop-color="#EACAB0"/>
</radialGradient>
<radialGradient id="paint1_radial_2001_430" cx="0" cy="0" r="1" gradientUnits="userSpaceOnUse" gradientTransform="translate(548 160) rotate(170.369) scale(251.038 541.301)">
<stop stop-color="#EEDCCD"/>
<stop offset="1" stop-color="#EACAB0"/>
</radialGradient>
</defs>
</svg>
