<svg width="1474" height="1812" viewBox="0 0 1474 1812" fill="none" xmlns="http://www.w3.org/2000/svg">
<mask id="mask0_29_1558" style="mask-type:alpha" maskUnits="userSpaceOnUse" x="263" y="230" width="1593" height="1234">
<path d="M1184.06 1047.51C1226.38 1024.42 1241.96 971.353 1218.85 928.991C1195.73 886.629 1142.68 871.008 1100.36 894.102C1058.03 917.195 1042.46 970.257 1065.57 1012.62C1088.69 1054.98 1141.73 1070.6 1184.06 1047.51Z" fill="url(#paint0_radial_29_1558)"/>
<path d="M422.182 604.646C474.321 576.199 493.507 510.834 465.035 458.65C436.563 406.466 371.215 387.223 319.076 415.671C266.937 444.118 247.751 509.483 276.223 561.667C304.695 613.851 370.044 633.093 422.182 604.646Z" fill="url(#paint1_radial_29_1558)"/>
<path d="M417.093 289.351C429.325 282.678 433.826 267.343 427.146 255.1C420.467 242.857 405.136 238.343 392.904 245.017C380.672 251.691 376.171 267.026 382.851 279.268C389.53 291.511 404.861 296.025 417.093 289.351Z" fill="url(#paint2_radial_29_1558)"/>
<path d="M629.349 327.188C654.274 313.588 663.446 282.34 649.835 257.393C636.223 232.446 604.983 223.247 580.057 236.846C555.132 250.446 545.96 281.694 559.571 306.641C573.183 331.589 604.423 340.788 629.349 327.188Z" fill="url(#paint3_radial_29_1558)"/>
<path d="M662.096 1463.57L595.823 1449.23C621.369 1330.77 652.932 1225.64 692.314 1127.81C741.746 1005.01 803.999 894.272 877.336 798.664C919.059 744.272 965.298 693.56 1014.76 647.939C1067.85 598.979 1126.16 554.49 1188.06 515.713C1253.87 474.485 1325.61 438.562 1401.25 408.935C1481.08 377.667 1567.53 352.531 1658.17 334.241L1671.6 400.757C1584.8 418.276 1502.16 442.288 1425.97 472.121C1354.23 500.22 1286.3 534.236 1224.04 573.236C1165.68 609.793 1110.73 651.715 1060.72 697.842C1014.1 740.846 970.496 788.675 931.125 839.995C805.187 1004.17 717.186 1208.14 662.096 1463.57Z" fill="url(#paint4_radial_29_1558)"/>
<path d="M420.551 1145.63L368.048 1102.68C491.464 951.575 646.061 824.013 827.549 723.532C972.252 643.421 1134.25 580.271 1309.05 535.851C1464.31 496.389 1601.25 479.29 1688.78 471.889C1784.07 463.833 1842.12 465.15 1844.54 465.208L1842.89 533.041C1842.33 533.03 1784.99 531.776 1692.65 539.657C1607.58 546.92 1474.54 563.651 1323.82 602.103C1154.96 645.181 998.683 706.208 859.339 783.484C776.863 829.221 699.467 881.244 629.313 938.091C552.273 1000.52 482.032 1070.34 420.549 1145.62L420.551 1145.63Z" fill="url(#paint5_radial_29_1558)"/>
</mask>
<g mask="url(#mask0_29_1558)">
<rect x="-446" y="0.000274658" width="1920" height="1001" fill="url(#paint6_radial_29_1558)"/>
</g>
<defs>
<radialGradient id="paint0_radial_29_1558" cx="0" cy="0" r="1" gradientUnits="userSpaceOnUse" gradientTransform="translate(1173.34 961.287) rotate(150.589) scale(78.8425 144.301)">
<stop stop-color="#E3D1BA"/>
<stop offset="1" stop-color="#FCE7C5" stop-opacity="0.6"/>
</radialGradient>
<radialGradient id="paint1_radial_29_1558" cx="0" cy="0" r="1" gradientUnits="userSpaceOnUse" gradientTransform="translate(408.974 498.433) rotate(150.589) scale(97.1228 177.759)">
<stop stop-color="#E3D1BA"/>
<stop offset="1" stop-color="#FCE7C5" stop-opacity="0.6"/>
</radialGradient>
<radialGradient id="paint2_radial_29_1558" cx="0" cy="0" r="1" gradientUnits="userSpaceOnUse" gradientTransform="translate(413.994 264.433) rotate(150.589) scale(22.7854 41.703)">
<stop stop-color="#E3D1BA"/>
<stop offset="1" stop-color="#FCE7C5" stop-opacity="0.6"/>
</radialGradient>
<radialGradient id="paint3_radial_29_1558" cx="0" cy="0" r="1" gradientUnits="userSpaceOnUse" gradientTransform="translate(623.034 276.412) rotate(150.589) scale(46.4307 84.9796)">
<stop stop-color="#E3D1BA"/>
<stop offset="1" stop-color="#FCE7C5" stop-opacity="0.6"/>
</radialGradient>
<radialGradient id="paint4_radial_29_1558" cx="0" cy="0" r="1" gradientUnits="userSpaceOnUse" gradientTransform="translate(1364.49 888.773) rotate(167.213) scale(575.458 737.278)">
<stop stop-color="#E3D1BA"/>
<stop offset="1" stop-color="#FCE7C5" stop-opacity="0.6"/>
</radialGradient>
<radialGradient id="paint5_radial_29_1558" cx="0" cy="0" r="1" gradientUnits="userSpaceOnUse" gradientTransform="translate(1391.93 741.432) rotate(167.563) scale(712.498 337.856)">
<stop stop-color="#E3D1BA"/>
<stop offset="1" stop-color="#FCE7C5" stop-opacity="0.6"/>
</radialGradient>
<radialGradient id="paint6_radial_29_1558" cx="0" cy="0" r="1" gradientUnits="userSpaceOnUse" gradientTransform="translate(864.608 538.038) rotate(179.587) scale(866.919 826.618)">
<stop stop-color="#E3D1BA"/>
<stop offset="1" stop-color="#FCE7C5" stop-opacity="0.6"/>
</radialGradient>
</defs>
</svg>
