<svg width="690" height="320" viewBox="0 0 690 320" fill="none" xmlns="http://www.w3.org/2000/svg">
<path d="M690 270V50C690 36.7392 684.732 24.0215 675.355 14.6447C665.979 5.26784 653.261 0 640 0H629.39C601.881 105.483 613.419 217.353 661.88 315C670.318 310.894 677.429 304.496 682.402 296.538C687.375 288.58 690.008 279.384 690 270Z" fill="url(#paint0_radial_15_259)"/>
<path d="M581.67 0H502C480.422 107.036 489.649 217.998 528.61 320H613C567.514 219.718 556.498 107.2 581.67 0Z" fill="url(#paint1_radial_15_259)"/>
<path d="M454.77 0H375.7C358.102 106.9 365.471 216.421 397.23 320H479.23C443.317 217.29 434.885 106.975 454.77 0Z" fill="url(#paint2_radial_15_259)"/>
<path d="M328.79 0H250.07C235.2 106.828 241.355 215.533 268.19 320H348.91C319.183 216.036 312.319 106.868 328.79 0Z" fill="url(#paint3_radial_15_259)"/>
<path d="M203.32 0H124.81C111.934 106.787 117.232 214.982 140.48 320H220.48C195.094 215.301 189.277 106.813 203.32 0Z" fill="url(#paint4_radial_15_259)"/>
<path d="M78.19 0H50C36.7392 0 24.0215 5.26784 14.6447 14.6447C5.26784 24.0215 0 36.7392 0 50V230C2.53333 253.333 5.83333 276.61 9.9 299.83C14.5447 306.09 20.591 311.175 27.5546 314.677C34.5181 318.18 42.2052 320.003 50 320H93.1C70.9487 214.83 65.914 106.774 78.19 0Z" fill="url(#paint5_radial_15_259)"/>
<defs>
<radialGradient id="paint0_radial_15_259" cx="0" cy="0" r="1" gradientUnits="userSpaceOnUse" gradientTransform="translate(504 160) rotate(172.92) scale(316.413 348.832)">
<stop stop-color="#7AFB80"/>
<stop offset="1" stop-color="#68DE88" stop-opacity="0"/>
</radialGradient>
<radialGradient id="paint1_radial_15_259" cx="0" cy="0" r="1" gradientUnits="userSpaceOnUse" gradientTransform="translate(504 160) rotate(172.92) scale(316.413 348.832)">
<stop stop-color="#7AFB80"/>
<stop offset="1" stop-color="#68DE88" stop-opacity="0"/>
</radialGradient>
<radialGradient id="paint2_radial_15_259" cx="0" cy="0" r="1" gradientUnits="userSpaceOnUse" gradientTransform="translate(504 160) rotate(172.92) scale(316.413 348.832)">
<stop stop-color="#7AFB80"/>
<stop offset="1" stop-color="#68DE88" stop-opacity="0"/>
</radialGradient>
<radialGradient id="paint3_radial_15_259" cx="0" cy="0" r="1" gradientUnits="userSpaceOnUse" gradientTransform="translate(504 160) rotate(172.92) scale(316.413 348.832)">
<stop stop-color="#7AFB80"/>
<stop offset="1" stop-color="#68DE88" stop-opacity="0"/>
</radialGradient>
<radialGradient id="paint4_radial_15_259" cx="0" cy="0" r="1" gradientUnits="userSpaceOnUse" gradientTransform="translate(504 160) rotate(172.92) scale(316.413 348.832)">
<stop stop-color="#7AFB80"/>
<stop offset="1" stop-color="#68DE88" stop-opacity="0"/>
</radialGradient>
<radialGradient id="paint5_radial_15_259" cx="0" cy="0" r="1" gradientUnits="userSpaceOnUse" gradientTransform="translate(504 160) rotate(172.92) scale(316.413 348.832)">
<stop stop-color="#7AFB80"/>
<stop offset="1" stop-color="#68DE88" stop-opacity="0"/>
</radialGradient>
</defs>
</svg>
