<svg width="1314" height="1258" viewBox="0 0 1314 1258" fill="none" xmlns="http://www.w3.org/2000/svg">
<mask id="mask0_31_1766" style="mask-type:alpha" maskUnits="userSpaceOnUse" x="0" y="-145" width="1476" height="1403">
<path d="M738 -62.1067L887.845 398.814L893.599 416.515H1397.12L1004.83 701.378L989.762 712.316L995.516 730.016L1145.36 1190.94L753.07 906.075L738 895.137L722.93 906.075L330.638 1190.94L480.484 730.016L486.238 712.316L471.167 701.378L78.876 416.515H582.401L588.155 398.814L738 -62.1067ZM738 -145L563.781 390.899H0L456.11 722.101L281.89 1258L738 926.798L1194.11 1258L1019.89 722.101L1476 390.899H912.219L738 -145Z" fill="black"/>
<path d="M738 101.899L851.029 449.752L856.78 467.454H1241.16L945.253 682.439L930.19 693.378L935.941 711.08L1048.97 1058.93L753.064 843.947L738 833.008L722.936 843.947L427.03 1058.93L540.059 711.08L545.81 693.378L530.747 682.439L234.841 467.454H619.22L624.971 449.752L738 101.899ZM738 19L600.608 441.836H156L515.696 703.164L378.304 1126L738 864.672L1097.7 1126L960.304 703.164L1320 441.836H875.392L738 19Z" fill="black"/>
<path d="M737.5 265.01L813.809 500.084L819.563 517.81H1085.13L885.339 663.09L870.269 674.043L876.023 691.769L952.333 926.843L752.544 781.563L737.474 770.61L722.405 781.563L522.616 926.843L598.926 691.769L604.679 674.043L589.61 663.09L389.821 517.81H655.386L661.139 500.084L737.449 265.01M737.5 182L636.818 492.158H311L574.591 683.842L473.909 994L737.5 802.316L1001.09 994L900.409 683.842L1164 492.158H838.182L737.5 182Z" fill="black"/>
<path d="M737.974 428.942L777.55 550.644L783.308 568.353H930.016L826.397 643.568L811.316 654.51L817.074 672.219L856.649 793.921L753.03 718.706L737.949 707.763L722.868 718.706L619.248 793.921L658.824 672.219L664.582 654.51L649.501 643.568L545.881 568.353H692.59L698.348 550.644L737.923 428.942M737.974 346L674.008 542.713H467L634.483 664.287L570.517 861L738 739.426L905.483 861L841.517 664.287L1009 542.713H801.993L738.026 346H737.974Z" fill="black"/>
<path d="M737.987 592.999L740.766 601.578L746.517 619.301H774.13L766.843 624.598L751.781 635.55L757.532 653.273L760.311 661.852L753.023 656.556L737.962 645.604L722.9 656.556L715.612 661.852L718.392 653.273L724.142 635.55L709.08 624.598L701.793 619.301H729.406L735.157 601.578L737.936 592.999M737.987 510L710.848 593.653H623L694.07 645.347L666.93 729L738 677.305L809.07 729L781.93 645.347L853 593.653H765.152L738.013 510H737.987Z" fill="black"/>
</mask>
<g mask="url(#mask0_31_1766)">
<rect x="-606" width="1920" height="994" fill="url(#paint0_radial_31_1766)"/>
</g>
<defs>
<radialGradient id="paint0_radial_31_1766" cx="0" cy="0" r="1" gradientUnits="userSpaceOnUse" gradientTransform="translate(918.87 497) rotate(-159.251) scale(604.048 1444.02)">
<stop stop-color="#EEDCCD"/>
<stop offset="0.525" stop-color="#EACAB0" stop-opacity="0"/>
</radialGradient>
</defs>
</svg>
