<svg width="558" height="320" viewBox="0 0 558 320" fill="none" xmlns="http://www.w3.org/2000/svg">
<path d="M217.499 154.35C217.499 182.694 228.759 209.876 248.801 229.919C268.843 249.961 296.026 261.22 324.369 261.22C352.713 261.22 379.896 249.961 399.938 229.919C419.98 209.876 431.239 182.694 431.239 154.35C431.239 126.006 419.98 98.8235 399.938 78.7815C379.896 58.7395 352.713 47.48 324.369 47.48C296.026 47.48 268.843 58.7395 248.801 78.7815C228.759 98.8235 217.499 126.006 217.499 154.35ZM389.909 154.35C389.909 167.311 386.066 179.98 378.866 190.757C371.665 201.533 361.431 209.932 349.457 214.892C337.483 219.852 324.307 221.149 311.595 218.621C298.884 216.092 287.207 209.851 278.043 200.687C268.878 191.522 262.637 179.846 260.109 167.134C257.58 154.423 258.878 141.247 263.838 129.273C268.797 117.299 277.197 107.064 287.973 99.8638C298.749 92.6633 311.419 88.82 324.379 88.82C341.753 88.8385 358.41 95.7485 370.696 108.034C382.981 120.319 389.891 136.976 389.909 154.35Z" fill="url(#paint0_radial_2_195)"/>
<path d="M144.999 154.35C144.999 228.9 190.729 293 255.599 320H393.149C458.019 293 503.749 228.89 503.749 154.34C503.732 123.182 495.602 92.5655 480.16 65.5034C464.717 38.4414 442.495 15.8663 415.679 1.7294e-09H233.089C206.27 15.8662 184.044 38.4421 168.598 65.5059C153.152 92.5697 145.019 123.189 144.999 154.35ZM465.849 154.35C465.849 232.35 402.389 295.83 324.379 295.83C246.369 295.83 182.899 232.36 182.899 154.35C182.899 76.34 246.379 12.87 324.379 12.87C402.379 12.87 465.849 76.34 465.849 154.35Z" fill="url(#paint1_radial_2_195)"/>
<path d="M106.999 154.35C106.982 125.637 112.669 97.2057 123.731 70.7088C134.793 44.2118 151.01 20.1769 171.439 1.7294e-09H125.489C89.6104 46.109 70.9144 103.277 72.6152 161.676C74.3161 220.075 96.3076 276.057 134.809 320H183.759C159.699 299.623 140.367 274.248 127.111 245.64C113.855 217.033 106.991 185.88 106.999 154.35Z" fill="url(#paint2_radial_2_195)"/>
<path d="M477.359 1.7294e-09C498.792 21.1675 515.582 46.5653 526.662 74.5767C537.742 102.588 542.868 132.599 541.715 162.7C540.561 192.801 533.154 222.333 519.963 249.414C506.773 276.496 488.088 300.534 465.099 320H507.499C509.798 319.999 512.094 319.835 514.369 319.51C532.459 298.738 547.028 275.146 557.499 249.67V59C549.385 39.2722 538.8 20.6536 525.999 3.59C520.12 1.21873 513.839 -5.30023e-05 507.499 1.7294e-09H477.359Z" fill="url(#paint3_radial_2_195)"/>
<path d="M30.9994 154.35C30.9404 99.7973 46.1845 46.3217 74.9994 1.7294e-09H39.1294C12.3944 49.3289 -1.06646 104.757 0.0659863 160.854C1.19843 216.95 16.8853 271.79 45.5894 320H82.3794C48.8542 271.27 30.9353 213.499 30.9994 154.35Z" fill="url(#paint4_radial_2_195)"/>
<defs>
<radialGradient id="paint0_radial_2_195" cx="0" cy="0" r="1" gradientUnits="userSpaceOnUse" gradientTransform="translate(338.749 166) rotate(153.701) scale(334.048 424.74)">
<stop stop-color="#FFE2EE"/>
<stop offset="1" stop-color="#FAB5D4" stop-opacity="0"/>
</radialGradient>
<radialGradient id="paint1_radial_2_195" cx="0" cy="0" r="1" gradientUnits="userSpaceOnUse" gradientTransform="translate(338.749 166) rotate(153.701) scale(334.048 424.74)">
<stop stop-color="#FFE2EE"/>
<stop offset="1" stop-color="#FAB5D4" stop-opacity="0"/>
</radialGradient>
<radialGradient id="paint2_radial_2_195" cx="0" cy="0" r="1" gradientUnits="userSpaceOnUse" gradientTransform="translate(338.749 166) rotate(153.701) scale(334.048 424.74)">
<stop stop-color="#FFE2EE"/>
<stop offset="1" stop-color="#FAB5D4" stop-opacity="0"/>
</radialGradient>
<radialGradient id="paint3_radial_2_195" cx="0" cy="0" r="1" gradientUnits="userSpaceOnUse" gradientTransform="translate(338.749 166) rotate(153.701) scale(334.048 424.74)">
<stop stop-color="#FFE2EE"/>
<stop offset="1" stop-color="#FAB5D4" stop-opacity="0"/>
</radialGradient>
<radialGradient id="paint4_radial_2_195" cx="0" cy="0" r="1" gradientUnits="userSpaceOnUse" gradientTransform="translate(338.749 166) rotate(153.701) scale(334.048 424.74)">
<stop stop-color="#FFE2EE"/>
<stop offset="1" stop-color="#FAB5D4" stop-opacity="0"/>
</radialGradient>
</defs>
</svg>
