
<svg width="882" height="405" viewBox="0 0 882 405" fill="none" xmlns="http://www.w3.org/2000/svg">
<path d="M0 96C0 68.3858 22.3858 46 50 46H640C667.614 46 690 68.3858 690 96V316C690 343.614 667.614 366 640 366H50C22.3858 366 0 343.614 0 316V96Z" fill="url(#paint0_radial_2001_436)"/>
<mask id="mask0_2001_436" style="mask-type:alpha" maskUnits="userSpaceOnUse" x="153" y="0" width="725" height="405">
<path d="M153.696 404.788C153.696 404.788 349 182.426 329.591 5.087L388.796 4.53731C388.796 4.53731 408.695 160.499 176.311 404.578L153.696 404.788Z" fill="#D9D9D9"/>
<path d="M235.08 404.031C235.08 404.031 430.384 181.67 410.975 4.33065L470.18 3.78096C470.18 3.78096 490.079 159.743 257.695 403.821L235.08 404.031Z" fill="#D9D9D9"/>
<path d="M316.464 403.276C316.464 403.276 511.768 180.915 492.359 3.57528L551.564 3.02559C551.564 3.02559 571.463 158.987 339.079 403.066L316.464 403.276Z" fill="#D9D9D9"/>
<path d="M397.848 402.521C397.848 402.521 593.153 180.159 573.743 2.81991L632.948 2.27022C632.948 2.27022 652.847 158.232 420.463 402.311L397.848 402.521Z" fill="#D9D9D9"/>
<path d="M479.232 401.765C479.232 401.765 674.537 179.404 655.127 2.06405L714.332 1.51436C714.332 1.51436 734.231 157.476 501.847 401.555L479.232 401.765Z" fill="#D9D9D9"/>
<path d="M560.616 401.009C560.616 401.009 755.921 178.648 736.511 1.30868L795.716 0.758989C795.716 0.758989 815.615 156.721 583.231 400.799L560.616 401.009Z" fill="#D9D9D9"/>
<path d="M642 400.253C642 400.253 837.305 177.892 817.895 0.552817L877.1 0.00312985C877.1 0.00312985 896.999 155.965 664.615 400.043L642 400.253Z" fill="#D9D9D9"/>
</mask>
<g mask="url(#mask0_2001_436)">
<path d="M0 96C0 68.3858 22.3858 46 50 46H640C667.614 46 690 68.3858 690 96V316C690 343.614 667.614 366 640 366H50C22.3858 366 0 343.614 0 316V96Z" fill="url(#paint1_radial_2001_436)"/>
</g>
<defs>
<radialGradient id="paint0_radial_2001_436" cx="0" cy="0" r="1" gradientUnits="userSpaceOnUse" gradientTransform="translate(528 218.5) rotate(-41.5346) scale(216.417 192.074)">
<stop stop-color="#F7DFD5"/>
<stop offset="1" stop-color="#FBE1C9" stop-opacity="0"/>
</radialGradient>
<radialGradient id="paint1_radial_2001_436" cx="0" cy="0" r="1" gradientUnits="userSpaceOnUse" gradientTransform="translate(528 218.5) rotate(-41.5346) scale(216.417 192.074)">
<stop stop-color="#F7DFD5"/>
<stop offset="1" stop-color="#FBE1C9" stop-opacity="0"/>
</radialGradient>
</defs>
</svg>
