<svg xmlns="http://www.w3.org/2000/svg" width="690" height="320" viewBox="0 0 690 320" fill="none">
<mask id="mask0_2001_436" style="mask-type:alpha" maskUnits="userSpaceOnUse" x="0" y="0" width="690" height="320">
<path d="M0 50C0 22.3858 22.3858 0 50 0H640C667.614 0 690 22.3858 690 50V270C690 297.614 667.614 320 640 320H50C22.3858 320 0 297.614 0 270V50Z" fill="url(#paint0_radial_2001_436)"/>
</mask>
<g mask="url(#mask0_2001_436)">
<mask id="mask1_2001_436" style="mask-type:alpha" maskUnits="userSpaceOnUse" x="153" y="-46" width="725" height="405">
<path d="M153.696 358.788C153.696 358.788 349 136.426 329.591 -40.913L388.796 -41.4627C388.796 -41.4627 408.695 114.499 176.311 358.578L153.696 358.788Z" fill="#D9D9D9"/>
<path d="M235.08 358.031C235.08 358.031 430.384 135.67 410.975 -41.6694L470.18 -42.219C470.18 -42.219 490.079 113.743 257.695 357.821L235.08 358.031Z" fill="#D9D9D9"/>
<path d="M316.464 357.276C316.464 357.276 511.768 134.915 492.359 -42.4247L551.564 -42.9744C551.564 -42.9744 571.463 112.987 339.079 357.066L316.464 357.276Z" fill="#D9D9D9"/>
<path d="M397.848 356.521C397.848 356.521 593.153 134.159 573.743 -43.1801L632.948 -43.7298C632.948 -43.7298 652.847 112.232 420.463 356.311L397.848 356.521Z" fill="#D9D9D9"/>
<path d="M479.232 355.765C479.232 355.765 674.537 133.404 655.127 -43.936L714.332 -44.4856C714.332 -44.4856 734.231 111.476 501.847 355.555L479.232 355.765Z" fill="#D9D9D9"/>
<path d="M560.616 355.009C560.616 355.009 755.921 132.648 736.511 -44.6913L795.716 -45.241C795.716 -45.241 815.615 110.721 583.231 354.799L560.616 355.009Z" fill="#D9D9D9"/>
<path d="M642 354.253C642 354.253 837.305 131.892 817.895 -45.4472L877.1 -45.9969C877.1 -45.9969 896.999 109.965 664.615 354.043L642 354.253Z" fill="#D9D9D9"/>
</mask>
<g mask="url(#mask1_2001_436)">
<path d="M0 50C0 22.3858 22.3858 0 50 0H640C667.614 0 690 22.3858 690 50V270C690 297.614 667.614 320 640 320H50C22.3858 320 0 297.614 0 270V50Z" fill="url(#paint1_radial_2001_436)"/>
</g>
</g>
<defs>
<radialGradient id="paint0_radial_2001_436" cx="0" cy="0" r="1" gradientUnits="userSpaceOnUse" gradientTransform="translate(528 172.5) rotate(-41.5346) scale(216.417 192.074)">
<stop stop-color="#F7DFD5"/>
<stop offset="1" stop-color="#FBE1C9" stop-opacity="0"/>
</radialGradient>
<radialGradient id="paint1_radial_2001_436" cx="0" cy="0" r="1" gradientUnits="userSpaceOnUse" gradientTransform="translate(528 172.5) rotate(-41.5346) scale(216.417 192.074)">
<stop stop-color="#F7DFD5"/>
<stop offset="1" stop-color="#FBE1C9" stop-opacity="0"/>
</radialGradient>
</defs>
</svg>