<svg xmlns="http://www.w3.org/2000/svg" width="1640" height="970" viewBox="0 0 1640 970" fill="none">
<mask id="mask0_29_1560" style="mask-type:alpha" maskUnits="userSpaceOnUse" x="8" y="0" width="1735" height="970">
<path d="M8.85039 969.426C8.85039 969.426 476.586 436.893 430.102 12.183L571.893 10.8665C571.893 10.8665 619.549 384.38 63.0117 968.923L8.85039 969.426Z" fill="#D9D9D9"/>
<path d="M203.759 967.615C203.759 967.615 671.494 435.082 625.01 10.3716L766.801 9.05511C766.801 9.05511 814.457 382.568 257.92 967.112L203.759 967.615Z" fill="#D9D9D9"/>
<path d="M398.663 965.806C398.663 965.806 866.399 433.273 819.915 8.56253L961.705 7.24609C961.705 7.24609 1009.36 380.759 452.824 965.303L398.663 965.806Z" fill="#D9D9D9"/>
<path d="M593.571 963.997C593.571 963.997 1061.31 431.464 1014.82 6.75348L1156.61 5.43704C1156.61 5.43704 1204.27 378.95 647.732 963.494L593.571 963.997Z" fill="#D9D9D9"/>
<path d="M788.479 962.187C788.479 962.187 1256.21 429.654 1209.73 4.94327L1351.52 3.62682C1351.52 3.62682 1399.18 377.14 842.641 961.684L788.479 962.187Z" fill="#D9D9D9"/>
<path d="M983.384 960.378C983.384 960.378 1451.12 427.845 1404.64 3.13425L1546.43 1.8178C1546.43 1.8178 1594.08 375.331 1037.54 959.875L983.384 960.378Z" fill="#D9D9D9"/>
<path d="M1178.29 958.567C1178.29 958.567 1646.03 426.035 1599.54 1.32404L1741.33 0.00759244C1741.33 0.00759244 1788.99 373.521 1232.45 958.065L1178.29 958.567Z" fill="#D9D9D9"/>
</mask>
<g mask="url(#mask0_29_1560)">
<path d="M-359.236 160.165C-359.236 132.551 -336.851 110.165 -309.236 110.165H1243.25C1270.86 110.165 1293.25 132.551 1293.25 160.165V826.533C1293.25 854.148 1270.86 876.533 1243.25 876.533H-309.236C-336.851 876.533 -359.236 854.148 -359.236 826.533V160.165Z" fill="url(#paint0_radial_29_1560)"/>
</g>
<defs>
<radialGradient id="paint0_radial_29_1560" cx="0" cy="0" r="1" gradientUnits="userSpaceOnUse" gradientTransform="translate(905.271 523.286) rotate(-41.5346) scale(518.297 459.997)">
<stop stop-color="#F7DFD5"/>
<stop offset="0.72" stop-color="#FBE1C9" stop-opacity="0"/>
</radialGradient>
</defs>
</svg>