<svg width="1071" height="951" viewBox="0 0 1071 951" fill="none" xmlns="http://www.w3.org/2000/svg">
<path d="M535.508 711.92C500.613 711.923 466.5 701.578 437.484 682.193C408.468 662.808 385.852 635.254 372.497 603.016C359.141 570.777 355.646 535.302 362.453 501.076C369.26 466.851 386.063 435.413 410.738 410.738C435.413 386.063 466.851 369.26 501.076 362.453C535.302 355.646 570.777 359.141 603.016 372.497C635.254 385.852 662.808 408.468 682.193 437.484C701.578 466.5 711.923 500.613 711.92 535.508C711.859 582.277 693.253 627.112 660.183 660.183C627.112 693.253 582.277 711.859 535.508 711.92ZM535.508 427.327C514.112 427.327 493.196 433.672 475.406 445.559C457.616 457.446 443.75 474.342 435.562 494.109C427.374 513.877 425.231 535.628 429.406 556.613C433.58 577.599 443.883 596.875 459.013 612.004C474.142 627.133 493.418 637.437 514.403 641.611C535.388 645.785 557.14 643.643 576.907 635.455C596.675 627.267 613.571 613.401 625.458 595.611C637.345 577.82 643.69 556.905 643.69 535.508C643.659 506.826 632.252 479.328 611.97 459.046C591.689 438.765 564.19 427.358 535.508 427.327Z" fill="url(#paint0_radial_21_289)"/>
<path d="M535.508 831.624C372.221 831.624 239.376 698.779 239.376 535.508C239.376 372.238 372.221 239.376 535.508 239.376C698.796 239.376 831.624 372.204 831.624 535.492C831.624 698.779 698.779 831.624 535.508 831.624ZM535.508 301.944C406.741 301.944 301.944 406.724 301.944 535.508C301.944 664.292 406.724 769.073 535.508 769.073C664.292 769.073 769.056 664.292 769.056 535.508C769.056 406.724 664.292 301.944 535.508 301.944Z" fill="url(#paint1_radial_21_289)"/>
<path d="M535.508 951.312C306.219 951.312 119.704 764.764 119.704 535.508C119.704 306.252 306.252 119.704 535.508 119.704C764.764 119.704 951.312 306.252 951.312 535.508C951.312 764.764 764.781 951.312 535.508 951.312ZM535.508 176.56C337.586 176.643 176.643 337.586 176.643 535.508C176.643 733.431 337.668 894.456 535.591 894.456C733.513 894.456 894.539 733.431 894.539 535.508C894.539 337.586 733.431 176.643 535.508 176.643V176.56Z" fill="url(#paint2_radial_21_289)"/>
<path d="M535.508 1071C240.218 1071 0 830.782 0 535.508C0 240.234 240.218 0 535.508 0C830.799 0 1071 240.218 1071 535.508C1071 830.799 830.782 1071 535.508 1071ZM535.508 51.1769C268.448 51.1769 51.1769 268.448 51.1769 535.508C51.1769 802.569 268.448 1019.82 535.508 1019.82C802.569 1019.82 1019.82 802.569 1019.82 535.508C1019.82 268.448 802.569 51.1769 535.508 51.1769Z" fill="url(#paint3_radial_21_289)"/>
<defs>
<radialGradient id="paint0_radial_21_289" cx="0" cy="0" r="1" gradientUnits="userSpaceOnUse" gradientTransform="translate(590.897 500.356) rotate(-178.698) scale(681.613 858.073)">
<stop offset="0.0656447" stop-color="#FFECF4"/>
<stop offset="1" stop-color="#FAB5D4" stop-opacity="0"/>
</radialGradient>
<radialGradient id="paint1_radial_21_289" cx="0" cy="0" r="1" gradientUnits="userSpaceOnUse" gradientTransform="translate(590.897 500.356) rotate(-178.698) scale(681.613 858.073)">
<stop offset="0.0656447" stop-color="#FFECF4"/>
<stop offset="1" stop-color="#FAB5D4" stop-opacity="0"/>
</radialGradient>
<radialGradient id="paint2_radial_21_289" cx="0" cy="0" r="1" gradientUnits="userSpaceOnUse" gradientTransform="translate(590.897 500.356) rotate(-178.698) scale(681.613 858.073)">
<stop offset="0.0656447" stop-color="#FFECF4"/>
<stop offset="1" stop-color="#FAB5D4" stop-opacity="0"/>
</radialGradient>
<radialGradient id="paint3_radial_21_289" cx="0" cy="0" r="1" gradientUnits="userSpaceOnUse" gradientTransform="translate(590.897 500.356) rotate(-178.698) scale(681.613 858.073)">
<stop offset="0.0656447" stop-color="#FFECF4"/>
<stop offset="1" stop-color="#FAB5D4" stop-opacity="0"/>
</radialGradient>
</defs>
</svg>
