<svg width="1264" height="892" viewBox="0 0 1264 892" fill="none" xmlns="http://www.w3.org/2000/svg">
<path d="M203.001 76.1333L513.083 190.611L817.766 75.8773L1122.47 190.611L1257.04 139.4C1255.36 114.947 1253.78 90.4937 1252.77 66.0406L1122.43 114.733L817.68 0L512.998 114.733L208.294 0L1.51541 78.5445C1.64347 103.083 1.84979 127.629 2.13438 152.181L203.001 76.1333Z" fill="url(#paint0_radial_110_1035)"/>
<path d="M817.68 128.902L512.998 243.614L208.294 128.902L2.64663 206.977C2.94544 231.473 3.25137 255.968 3.56441 280.464L203.001 205.035L513.083 319.491L817.766 204.843L1122.47 319.491L1263.55 265.891C1263.55 264.546 1263.55 263.223 1263.55 261.879C1263.15 238.6 1261.99 215.363 1260.54 192.147L1122.43 243.614L817.68 128.902Z" fill="url(#paint1_radial_110_1035)"/>
<path d="M1122.43 372.516L817.68 257.804L512.998 372.516L208.294 257.804L4.26876 335.302C4.5818 359.798 4.88061 384.301 5.16519 408.811L203.001 333.916L513.083 448.393L817.766 333.681L1122.47 448.393L1263.34 394.856C1263.72 369.82 1263.92 344.784 1263.94 319.747L1122.43 372.516Z" fill="url(#paint2_radial_110_1035)"/>
<path d="M817.68 386.684L512.998 501.439L208.294 386.684L5.74148 463.649C5.95491 488.188 6.12566 512.734 6.25373 537.286L203.001 462.817L513.083 577.295L817.766 462.561L1122.47 577.295L1260.54 524.91C1261.15 499.732 1261.76 474.539 1262.36 449.332L1122.43 501.439L817.68 386.684Z" fill="url(#paint3_radial_110_1035)"/>
<path d="M817.68 515.586L512.998 630.319L208.294 515.586L6.40313 592.274C6.40313 616.912 6.33199 641.557 6.1897 666.209L202.979 591.719L513.083 706.282L817.766 591.548L1122.47 706.282L1256.72 655.284C1257.6 630.021 1258.39 604.742 1259.09 579.45L1122.49 630.405L817.68 515.586Z" fill="url(#paint4_radial_110_1035)"/>
<path d="M817.68 644.402L512.998 759.221L208.294 644.402L5.6561 721.474C5.32883 746.255 4.86638 771.063 4.26876 795.901L202.937 720.706L513.019 835.184L817.766 720.365L1122.47 835.098L1251.54 786.021C1252.66 760.658 1253.71 735.273 1254.69 709.867L1122.36 759.178L817.68 644.402Z" fill="url(#paint5_radial_110_1035)"/>
<path d="M817.68 773.389L512.998 888.123L208.294 773.389L2.83872 851.379C2.04189 876.387 1.09565 901.381 0 926.36L203.001 849.544L513.083 964.021L817.766 849.245L1122.47 964L1245.09 917.526C1246.44 892.02 1247.74 866.529 1248.97 841.052L1122.43 888.229L817.68 773.389Z" fill="url(#paint6_radial_110_1035)"/>
<defs>
<radialGradient id="paint0_radial_110_1035" cx="0" cy="0" r="1" gradientUnits="userSpaceOnUse" gradientTransform="translate(632 470) rotate(178.936) scale(646.111 447.156)">
<stop offset="0.0656447" stop-color="white"/>
<stop offset="1" stop-color="white" stop-opacity="0"/>
</radialGradient>
<radialGradient id="paint1_radial_110_1035" cx="0" cy="0" r="1" gradientUnits="userSpaceOnUse" gradientTransform="translate(632 470) rotate(178.936) scale(646.111 447.156)">
<stop offset="0.0656447" stop-color="white"/>
<stop offset="1" stop-color="white" stop-opacity="0"/>
</radialGradient>
<radialGradient id="paint2_radial_110_1035" cx="0" cy="0" r="1" gradientUnits="userSpaceOnUse" gradientTransform="translate(632 470) rotate(178.936) scale(646.111 447.156)">
<stop offset="0.0656447" stop-color="white"/>
<stop offset="1" stop-color="white" stop-opacity="0"/>
</radialGradient>
<radialGradient id="paint3_radial_110_1035" cx="0" cy="0" r="1" gradientUnits="userSpaceOnUse" gradientTransform="translate(632 470) rotate(178.936) scale(646.111 447.156)">
<stop offset="0.0656447" stop-color="white"/>
<stop offset="1" stop-color="white" stop-opacity="0"/>
</radialGradient>
<radialGradient id="paint4_radial_110_1035" cx="0" cy="0" r="1" gradientUnits="userSpaceOnUse" gradientTransform="translate(632 470) rotate(178.936) scale(646.111 447.156)">
<stop offset="0.0656447" stop-color="white"/>
<stop offset="1" stop-color="white" stop-opacity="0"/>
</radialGradient>
<radialGradient id="paint5_radial_110_1035" cx="0" cy="0" r="1" gradientUnits="userSpaceOnUse" gradientTransform="translate(632 470) rotate(178.936) scale(646.111 447.156)">
<stop offset="0.0656447" stop-color="white"/>
<stop offset="1" stop-color="white" stop-opacity="0"/>
</radialGradient>
<radialGradient id="paint6_radial_110_1035" cx="0" cy="0" r="1" gradientUnits="userSpaceOnUse" gradientTransform="translate(632 470) rotate(178.936) scale(646.111 447.156)">
<stop offset="0.0656447" stop-color="white"/>
<stop offset="1" stop-color="white" stop-opacity="0"/>
</radialGradient>
</defs>
</svg>
