<svg width="1640" height="970" viewBox="0 0 1640 970" fill="none" xmlns="http://www.w3.org/2000/svg">
<mask id="mask0_29_1560" style="mask-type:alpha" maskUnits="userSpaceOnUse" x="8" y="0" width="1735" height="970">
<path d="M8.85039 969.84C8.85039 969.84 476.586 437.307 430.102 12.5964L571.893 11.28C571.893 11.28 619.549 384.793 63.0117 969.337L8.85039 969.84Z" fill="#D9D9D9"/>
<path d="M203.759 968.028C203.759 968.028 671.494 435.496 625.01 10.785L766.801 9.46856C766.801 9.46856 814.457 382.982 257.92 967.526L203.759 968.028Z" fill="#D9D9D9"/>
<path d="M398.663 966.219C398.663 966.219 866.399 433.686 819.915 8.97599L961.705 7.65954C961.705 7.65954 1009.36 381.173 452.824 965.716L398.663 966.219Z" fill="#D9D9D9"/>
<path d="M593.571 964.41C593.571 964.41 1061.31 431.877 1014.82 7.16693L1156.61 5.85049C1156.61 5.85049 1204.27 379.363 647.732 963.907L593.571 964.41Z" fill="#D9D9D9"/>
<path d="M788.479 962.6C788.479 962.6 1256.21 430.067 1209.73 5.35672L1351.52 4.04028C1351.52 4.04028 1399.18 377.553 842.641 962.097L788.479 962.6Z" fill="#D9D9D9"/>
<path d="M983.384 960.791C983.384 960.791 1451.12 428.258 1404.64 3.5477L1546.43 2.23126C1546.43 2.23126 1594.08 375.744 1037.54 960.288L983.384 960.791Z" fill="#D9D9D9"/>
<path d="M1178.29 958.981C1178.29 958.981 1646.03 426.448 1599.54 1.73749L1741.33 0.421045C1741.33 0.421045 1788.99 373.934 1232.45 958.478L1178.29 958.981Z" fill="#D9D9D9"/>
</mask>
<g mask="url(#mask0_29_1560)">
<path d="M-359.236 160.579C-359.236 132.964 -336.851 110.579 -309.236 110.579H1243.25C1270.86 110.579 1293.25 132.964 1293.25 160.579V826.947C1293.25 854.561 1270.86 876.947 1243.25 876.947H-309.236C-336.851 876.947 -359.236 854.561 -359.236 826.947V160.579Z" fill="url(#paint0_radial_29_1560)"/>
</g>
<defs>
<radialGradient id="paint0_radial_29_1560" cx="0" cy="0" r="1" gradientUnits="userSpaceOnUse" gradientTransform="translate(905.271 523.699) rotate(-41.5346) scale(518.297 459.997)">
<stop stop-color="#F7DFD5"/>
<stop offset="1" stop-color="#FBE1C9" stop-opacity="0"/>
</radialGradient>
</defs>
</svg>
