<svg width="1046" height="1002" viewBox="0 0 1046 1002" fill="none" xmlns="http://www.w3.org/2000/svg">
<path d="M974.715 1023.84L1046 952.578C857.542 764.21 857.542 458.79 1046 270.422L974.715 199.158C746.892 426.884 746.892 796.116 974.715 1023.84Z" fill="url(#paint0_radial_110_865)" fill-opacity="0.7"/>
<path d="M861.075 1137.48L932.361 1066.21C681.122 815.083 681.122 407.917 932.361 156.785L861.075 85.5339C570.446 376.011 570.446 846.989 861.075 1137.48Z" fill="url(#paint1_radial_110_865)" fill-opacity="0.7"/>
<path d="M747.384 1251.1L818.682 1179.85C504.637 865.957 504.637 357.043 818.682 43.1482L747.384 -28.1028C393.975 325.138 393.975 897.863 747.384 1251.1Z" fill="url(#paint2_radial_110_865)" fill-opacity="0.7"/>
<path d="M633.706 1364.73L704.991 1293.46C328.165 916.817 328.165 306.157 704.991 -70.4886L633.706 -141.752C217.464 274.264 217.464 948.736 633.706 1364.73Z" fill="url(#paint3_radial_110_865)" fill-opacity="0.7"/>
<path d="M520.015 1478.38L591.313 1407.11C151.693 967.703 151.693 255.297 591.313 -184.112L520.015 -255.363C41.0307 223.391 41.0307 999.609 520.015 1478.38Z" fill="url(#paint4_radial_110_865)" fill-opacity="0.7"/>
<path d="M406.323 1592L477.648 1520.75C-24.7789 1018.58 -24.7789 204.424 477.648 -297.749L406.323 -369C-135.441 172.518 -135.441 1050.48 406.323 1592Z" fill="url(#paint5_radial_110_865)" fill-opacity="0.7"/>
<defs>
<radialGradient id="paint0_radial_110_865" cx="0" cy="0" r="1" gradientUnits="userSpaceOnUse" gradientTransform="translate(445 612) rotate(-88.8188) scale(582.124 476.435)">
<stop offset="0.0656447" stop-color="white"/>
<stop offset="1" stop-color="white" stop-opacity="0"/>
</radialGradient>
<radialGradient id="paint1_radial_110_865" cx="0" cy="0" r="1" gradientUnits="userSpaceOnUse" gradientTransform="translate(445 612) rotate(-88.8188) scale(582.124 476.435)">
<stop offset="0.0656447" stop-color="white"/>
<stop offset="1" stop-color="white" stop-opacity="0"/>
</radialGradient>
<radialGradient id="paint2_radial_110_865" cx="0" cy="0" r="1" gradientUnits="userSpaceOnUse" gradientTransform="translate(445 612) rotate(-88.8188) scale(582.124 476.435)">
<stop offset="0.0656447" stop-color="white"/>
<stop offset="1" stop-color="white" stop-opacity="0"/>
</radialGradient>
<radialGradient id="paint3_radial_110_865" cx="0" cy="0" r="1" gradientUnits="userSpaceOnUse" gradientTransform="translate(445 612) rotate(-88.8188) scale(582.124 476.435)">
<stop offset="0.0656447" stop-color="white"/>
<stop offset="1" stop-color="white" stop-opacity="0"/>
</radialGradient>
<radialGradient id="paint4_radial_110_865" cx="0" cy="0" r="1" gradientUnits="userSpaceOnUse" gradientTransform="translate(445 612) rotate(-88.8188) scale(582.124 476.435)">
<stop offset="0.0656447" stop-color="white"/>
<stop offset="1" stop-color="white" stop-opacity="0"/>
</radialGradient>
<radialGradient id="paint5_radial_110_865" cx="0" cy="0" r="1" gradientUnits="userSpaceOnUse" gradientTransform="translate(445 612) rotate(-88.8188) scale(582.124 476.435)">
<stop offset="0.0656447" stop-color="white"/>
<stop offset="1" stop-color="white" stop-opacity="0"/>
</radialGradient>
</defs>
</svg>
