<svg xmlns="http://www.w3.org/2000/svg" width="903" height="1559" viewBox="0 0 903 1559" fill="none">
<mask id="mask0_29_1558" style="mask-type:alpha" maskUnits="userSpaceOnUse" x="-473" y="156" width="983" height="1081">
<path d="M-73.8377 897.951C-49.0943 921.493 -9.93476 920.501 13.6276 895.736C37.19 870.972 36.2327 831.811 11.4893 808.269C-13.254 784.727 -52.4136 785.719 -75.976 810.483C-99.5384 835.248 -98.581 874.409 -73.8377 897.951Z" fill="url(#paint0_radial_29_1558)"/>
<path d="M353.372 1212.86C388.188 1245.99 443.289 1244.59 476.443 1209.75C509.598 1174.9 508.25 1119.8 473.434 1086.67C438.618 1053.55 383.518 1054.94 350.363 1089.79C317.209 1124.63 318.556 1179.74 353.372 1212.86Z" fill="url(#paint1_radial_29_1558)"/>
<path d="M59.7858 288.193C90.2661 317.193 138.505 315.972 167.531 285.465C196.556 254.958 195.377 206.718 164.897 177.718C134.416 148.717 86.1772 149.939 57.1516 180.445C28.1261 210.952 29.3054 259.192 59.7858 288.193Z" fill="url(#paint2_radial_29_1558)"/>
<path d="M271.321 216.457C278.472 223.261 289.789 222.974 296.599 215.817C303.408 208.66 303.132 197.343 295.981 190.539C288.83 183.735 277.513 184.022 270.703 191.179C263.894 198.336 264.171 209.653 271.321 216.457Z" fill="url(#paint3_radial_29_1558)"/>
<path d="M291.785 367.801C306.356 381.665 329.418 381.082 343.294 366.497C357.17 351.913 356.606 328.852 342.034 314.988C327.463 301.124 304.402 301.708 290.526 316.292C276.65 330.876 277.213 353.937 291.785 367.801Z" fill="url(#paint4_radial_29_1558)"/>
<path d="M-467.509 636.065L-472.197 588.264C-386.774 579.83 -309.034 578.341 -234.525 583.708C-140.997 590.443 -52.8283 608.437 27.5382 637.184C73.2594 653.54 117.477 673.738 158.96 697.215C203.48 722.41 246.115 752.095 285.677 785.443C327.739 820.896 367.506 861.493 403.874 906.091C442.255 953.154 477.935 1006.01 509.907 1063.18L467.957 1086.65C437.337 1031.9 403.24 981.368 366.616 936.452C332.125 894.157 294.466 855.709 254.678 822.17C217.38 790.73 177.203 762.753 135.261 739.019C96.1589 716.894 54.4566 697.849 11.3166 682.414C-126.688 633.046 -283.313 617.885 -467.509 636.065Z" fill="url(#paint5_radial_29_1558)"/>
<path d="M-305.413 404.287L-287.821 359.574C-159.179 410.074 -39.659 486.701 67.4225 587.332C152.798 667.566 230.481 763.139 298.306 871.403C358.554 967.561 399.751 1056.21 423.706 1113.64C449.782 1176.16 461.469 1215.59 461.953 1217.24L415.85 1230.82C415.737 1230.45 404.159 1191.5 378.84 1130.93C355.514 1075.14 315.409 989.037 256.825 895.717C191.192 791.168 116.18 698.993 33.8769 621.759C-14.8354 576.044 -66.6866 535.117 -120.223 500.12C-179.016 461.688 -241.322 429.442 -305.409 404.285L-305.413 404.287Z" fill="url(#paint6_radial_29_1558)"/>
</mask>
<g mask="url(#mask0_29_1558)">
<rect x="77.998" y="-27.9997" width="1920" height="1001" fill="url(#paint7_radial_29_1558)"/>
</g>
<defs>
<radialGradient id="paint0_radial_29_1558" cx="0" cy="0" r="1" gradientUnits="userSpaceOnUse" gradientTransform="translate(-18.0116 872.041) rotate(-137.219) scale(55.8482 102.216)">
<stop stop-color="#E3D1BA"/>
<stop offset="1" stop-color="#FCE7C5" stop-opacity="0.6"/>
</radialGradient>
<radialGradient id="paint1_radial_29_1558" cx="0" cy="0" r="1" gradientUnits="userSpaceOnUse" gradientTransform="translate(431.924 1176.41) rotate(-137.219) scale(78.5831 143.827)">
<stop stop-color="#E3D1BA"/>
<stop offset="1" stop-color="#FCE7C5" stop-opacity="0.6"/>
</radialGradient>
<radialGradient id="paint2_radial_29_1558" cx="0" cy="0" r="1" gradientUnits="userSpaceOnUse" gradientTransform="translate(128.556 256.276) rotate(-137.219) scale(68.7971 125.916)">
<stop stop-color="#E3D1BA"/>
<stop offset="1" stop-color="#FCE7C5" stop-opacity="0.6"/>
</radialGradient>
<radialGradient id="paint3_radial_29_1558" cx="0" cy="0" r="1" gradientUnits="userSpaceOnUse" gradientTransform="translate(287.455 208.969) rotate(-137.219) scale(16.1401 29.5404)">
<stop stop-color="#E3D1BA"/>
<stop offset="1" stop-color="#FCE7C5" stop-opacity="0.6"/>
</radialGradient>
<radialGradient id="paint4_radial_29_1558" cx="0" cy="0" r="1" gradientUnits="userSpaceOnUse" gradientTransform="translate(324.661 352.543) rotate(-137.219) scale(32.8892 60.1954)">
<stop stop-color="#E3D1BA"/>
<stop offset="1" stop-color="#FCE7C5" stop-opacity="0.6"/>
</radialGradient>
<radialGradient id="paint5_radial_29_1558" cx="0" cy="0" r="1" gradientUnits="userSpaceOnUse" gradientTransform="translate(72.302 985.248) rotate(-120.595) scale(407.626 522.252)">
<stop stop-color="#E3D1BA"/>
<stop offset="1" stop-color="#FCE7C5" stop-opacity="0.6"/>
</radialGradient>
<radialGradient id="paint6_radial_29_1558" cx="0" cy="0" r="1" gradientUnits="userSpaceOnUse" gradientTransform="translate(177.615 971.836) rotate(-120.245) scale(504.699 239.321)">
<stop stop-color="#E3D1BA"/>
<stop offset="1" stop-color="#FCE7C5" stop-opacity="0.6"/>
</radialGradient>
<radialGradient id="paint7_radial_29_1558" cx="0" cy="0" r="1" gradientUnits="userSpaceOnUse" gradientTransform="translate(554.5 495.5) rotate(137.296) scale(573.571 546.907)">
<stop stop-color="#E3D1BA"/>
<stop offset="0.913276" stop-color="#FCE7C5" stop-opacity="0"/>
</radialGradient>
</defs>
</svg>